#VRML V2.0 utf8
DEF TXFM_1 Transform {
  center 0 0 0
  rotation 0 0 1 0
  scale 1 1 1
  scaleOrientation 0 0 1 0
  translation 0 0 0
 children [
DEF TXFM_2 Transform {
  center 0 0 0
  rotation 0 0 1 0
  scale 1 1 1
  scaleOrientation 0 0 1 0
  translation 0 0 0
 children [
DEF TXFM_3 Transform {
  center 0 0 0
  rotation 0 0 1 0
  scale 1 1 1
  scaleOrientation 0 0 1 0
  translation 0 0 0
 children [
DEF SHAPE_1 Shape {
 appearance DEF APP_1 Appearance {
  material Material {
   ambientIntensity 0.122244
   diffuseColor 0.824 0.81999999 0.78100002
   emissiveColor 0 0 0
   shininess 0.1
   specularColor 0.12 0.12 0.12
   transparency 0
} }
 geometry DEF FACE_1 IndexedFaceSet {
  coord DEF COORD_1 Coordinate { point [
  0 -0.098425197 -0.78740157,0.025474315 -0.09507144 -0.78740157,
  0.049212598 -0.085238721 -0.78740157,0.069597124 -0.069597124 -0.78740157,
  0.085238721 -0.049212598 -0.78740157,0.09507144 -0.025474315 -0.78740157,
  0.098425197 0 -0.78740157,0.09507144 0.025474315 -0.78740157,
  0.085238721 0.049212598 -0.78740157,0.069597124 0.069597124 -0.78740157,
  0.049212598 0.085238721 -0.78740157,0.025474315 0.09507144 -0.78740157,
  0 0.098425197 -0.78740157,-0.025474315 0.09507144 -0.78740157,
  -0.049212598 0.085238721 -0.78740157,-0.069597124 0.069597124 -0.78740157,
  -0.085238721 0.049212598 -0.78740157,-0.09507144 0.025474315 -0.78740157,
  -0.098425197 0 -0.78740157,-0.09507144 -0.025474315 -0.78740157,
  -0.085238721 -0.049212598 -0.78740157,-0.069597124 -0.069597124 -0.78740157,
  -0.049212598 -0.085238721 -0.78740157,-0.025474315 -0.09507144 -0.78740157] }
 coordIndex [
  9,1,0,-1,9,2,1,-1,9,3,2,-1,9,4,3,-1,9,5,4,-1,9,6,5,-1,9,7,6,-1,9,8,7,-1,
  9,11,10,-1,9,12,11,-1,9,13,12,-1,9,14,13,-1,9,15,14,-1,9,16,15,-1,9,17,16,-1,9,18,17,-1,
  9,19,18,-1,9,20,19,-1,9,21,20,-1,9,22,21,-1,9,23,22,-1,9,0,23,-1]
  normalPerVertex TRUE
  normal DEF NORM_1 Normal { vector [
  0 0 -1,0 0 -1,
  0 0 -1,0 0 -1,
  0 0 -1,0 0 -1,
  0 0 -1,0 0 -1,
  0 0 -1,0 0 -1,
  0 0 -1,0 0 -1,
  0 0 -1,0 0 -1,
  0 0 -1,0 0 -1,
  0 0 -1,0 0 -1,
  0 0 -1,0 0 -1,
  0 0 -1,0 0 -1,
  0 0 -1,0 0 -1] }
}
}
DEF SHAPE_2 Shape {
 appearance USE APP_1
 geometry DEF FACE_2 IndexedFaceSet {
  coord DEF COORD_2 Coordinate { point [
  0 -0.098425197 -0.78740157,0 -0.098425197 0.26760376,
  -0.098425197 0 0.23622047,-0.09405639 -0.028998533 0.26106815,
  -0.087656724 -0.044764035 0.27228225,-0.076563647 -0.061850897 0.28186521,
  -0.065162518 -0.073765612 0.28617091,-0.051900792 -0.083629105 0.28719499,
  -0.038336235 -0.090652371 0.28517316,-0.02715008 -0.09460651 0.28167936,
  -0.012678857 -0.09760515 0.27509339,0.098425197 0 0.12154022,
  0.093567103 0.030540412 0.14961927,0.079608628 0.057879061 0.18113762,
  0.056087443 0.080880886 0.2157422,0.028136577 0.094317825 0.24559817,
  0.010205259 0.0978947 0.26047632,-0.011684827 0.097729137 0.27456232,
  -0.029663902 0.093848667 0.28259332,-0.044554408 0.087763575 0.28643046,
  -0.057582452 0.079823249 0.28717685,-0.069088888 0.070101682 0.28512426,
  -0.07794884 0.060095742 0.28103797,-0.0846415 0.050232812 0.27568806,
  -0.091064096 0.037347686 0.26724442,-0.095660304 0.023165155 0.25647013,
  -0.097755219 0.011464608 0.24661846,0 -0.098425197 0.26760376,
  0.025843865 -0.094971648 0.24767149,0.047780434 -0.086049694 0.22558536,
  0.065994592 -0.073022143 0.20263273,0.080485192 -0.056653805 0.1795535,
  0.091033052 -0.037423288 0.15688969,0.09647911 -0.01947564 0.1387024,
  0 -0.098425197 -0.78740157,0.025474315 -0.09507144 -0.78740157,
  0.049212598 -0.085238721 -0.78740157,0.069597124 -0.069597124 -0.78740157,
  0.085238721 -0.049212598 -0.78740157,0.09507144 -0.025474315 -0.78740157,
  0.098425197 0 -0.78740157,0.09507144 0.025474315 -0.78740157,
  0.085238721 0.049212598 -0.78740157,0.069597124 0.069597124 -0.78740157,
  0.049212598 0.085238721 -0.78740157,0.025474315 0.09507144 -0.78740157,
  0 0.098425197 -0.78740157,-0.025474315 0.09507144 -0.78740157,
  -0.049212598 0.085238721 -0.78740157,-0.069597124 0.069597124 -0.78740157,
  -0.085238721 0.049212598 -0.78740157,-0.09507144 0.025474315 -0.78740157,
  -0.098425197 0 -0.78740157,-0.09507144 -0.025474315 -0.78740157,
  -0.085238721 -0.049212598 -0.78740157,-0.069597124 -0.069597124 -0.78740157,
  -0.049212598 -0.085238721 -0.78740157,-0.025474315 -0.09507144 -0.78740157] }
 coordIndex [
  0,1,10,-1,57,9,8,-1,57,10,9,-1,57,0,10,-1,56,7,6,-1,56,8,7,-1,56,57,8,-1,55,5,4,-1,
  55,6,5,-1,55,56,6,-1,54,4,3,-1,54,55,4,-1,53,3,2,-1,53,54,3,-1,52,2,26,-1,52,53,2,-1,
  51,25,24,-1,51,26,25,-1,51,52,26,-1,50,23,22,-1,50,24,23,-1,50,51,24,-1,49,21,20,-1,49,22,21,-1,
  49,50,22,-1,48,20,19,-1,48,49,20,-1,47,18,17,-1,47,19,18,-1,47,48,19,-1,46,47,17,-1,46,17,16,-1,
  45,16,15,-1,45,46,16,-1,44,15,14,-1,44,45,15,-1,43,14,13,-1,43,44,14,-1,42,13,12,-1,42,43,13,-1,
  41,12,11,-1,41,42,12,-1,40,11,33,-1,40,41,11,-1,39,33,32,-1,39,40,33,-1,38,32,31,-1,38,39,32,-1,
  37,31,30,-1,37,38,31,-1,36,30,29,-1,36,37,30,-1,35,29,28,-1,35,36,29,-1,34,28,27,-1,34,35,28,-1]
  normalPerVertex TRUE
  normal DEF NORM_2 Normal { vector [
  -0.10885034 -0.99405801 -0.00053169538,-0.064543436 -0.9979149 0,
  -0.99430436 -0.10657766 0.00020488453,-0.95751491 -0.28838375 -8.2103782e-05,
  -0.84884982 -0.52863397 -0.00033631524,-0.79001388 -0.61308855 -0.0007056485,
  -0.63894075 -0.76925591 -0.00024601233,-0.53272771 -0.8462867 -6.5027717e-05,
  -0.39446547 -0.9189107 -0.00035420265,-0.26154876 -0.96519026 9.7764024e-06,
  -0.13525532 -0.99081072 -0.00035321259,0.99653172 0.083213169 0.00030660605,
  0.94331385 0.33190169 0.00049269014,0.79918974 0.60107845 0.00066953508,
  0.58633188 0.81007069 0.00063238903,0.35941952 0.93317603 0.00032878944,
  0.10268215 0.99471422 -4.9764947e-05,-0.11277481 0.99362057 -3.4784802e-05,
  -0.29015696 0.95697907 -4.249556e-05,-0.41937924 0.90781109 -0.0002839022,
  -0.59555291 0.80331604 -0.00028805326,-0.69574969 0.71828432 -8.2151158e-06,
  -0.7903452 0.61266165 -0.00040357634,-0.86632963 0.49947269 7.3572493e-06,
  -0.92501144 0.37993913 -0.00031462251,-0.96817352 0.25027991 7.4849732e-06,
  -0.99213843 0.12514437 -0.00046211923,0.13245386 -0.99118917 0,
  0.20942913 -0.97782383 2.4936955e-06,0.44486361 -0.89559833 -3.2849575e-05,
  0.64645018 -0.7629562 -3.5327627e-06,0.80862984 -0.58831775 4.1233116e-05,
  0.92046136 -0.39083359 -2.074807e-05,0.98563086 -0.16891356 -0.00014160866,
  0.13150635 -0.99131533 2.4078716e-05,0.29608751 -0.95516082 -6.4971899e-05,
  0.52481675 -0.85121521 -0.00020042873,0.71928871 -0.69471119 -0.00033110537,
  0.868864 -0.4950507 -0.00040458419,0.96338775 -0.26811162 -0.00046010353,
  0.99959865 -0.028328004 -0.00024414768,0.97518281 0.22140118 9.5420367e-05,
  0.87513364 0.4838813 -2.4962664e-05,0.70341723 0.71077717 7.0782676e-05,
  0.47441859 0.88029938 2.9331441e-05,0.24165964 0.97036101 -0.00034778294,
  -0.0027757538 0.99999608 -0.00037571866,-0.27189755 0.96232612 -0.00040779954,
  -0.50476209 0.86325839 -0.00042981363,-0.70289218 0.71129624 -0.0004989047,
  -0.86584668 0.50030916 -0.00052503631,-0.96648996 0.25670386 -0.00052725249,
  -0.99993685 0.011233094 -0.00033328338,-0.97558584 -0.21961844 4.1783721e-05,
  -0.88257417 -0.47017319 1.1717921e-06,-0.7430385 -0.66924862 -0.00024703773,
  -0.51268362 -0.85857749 -0.00044399517,-0.26014996 -0.96556809 -0.00051842067] }
}
}
DEF SHAPE_3 Shape {
 appearance DEF APP_2 Appearance {
  material Material {
   ambientIntensity 0.20517451
   diffuseColor 0.80900002 0.426 0.148
   emissiveColor 0 0 0
   shininess 0.1
   specularColor 0.12 0.12 0.12
   transparency 0
} }
 geometry DEF FACE_3 IndexedFaceSet {
  coord DEF COORD_3 Coordinate { point [
  0.49212598 -0.49212598 1.023622,0.49212598 -0.49212598 1.023622,
  -0.49212598 0 1.023622,-0.29619518 -0.20638746 1.023622,
  -0.058087593 -0.36223818 1.023622,0.20945753 -0.45921382 1.023622,
  -0.46579625 0 0.79748728,-0.38821574 0 0.58345119,
  -0.26353517 0 0.39296512,-0.098425197 0 0.23622047,
  -0.09405639 -0.028998533 0.26106815,-0.087656724 -0.044764035 0.27228225,
  -0.076563647 -0.061850897 0.28186521,-0.065162518 -0.073765612 0.28617091,
  -0.051900792 -0.083629105 0.28719499,-0.038336235 -0.090652371 0.28517316,
  -0.02715008 -0.09460651 0.28167936,-0.012678857 -0.09760515 0.27509339,
  0 -0.098425197 0.26760376,0.025843865 -0.094971648 0.24767149,
  0.047780434 -0.086049694 0.22558536,0.065994592 -0.073022143 0.20263273,
  0.080485192 -0.056653805 0.1795535,0.091033052 -0.037423288 0.15688969,
  0.09647911 -0.01947564 0.1387024,0.098425197 0 0.12154022,
  0.29103382 0 0.060131582,0.49212598 0 0.039370079,
  0.69321815 0 0.060131582,0.88582677 0 0.12154022,
  0.89068487 -0.030540412 0.14961927,0.90464334 -0.057879061 0.18113762,
  0.92816453 -0.080880886 0.2157422,0.95611539 -0.094317825 0.24559817,
  0.97404671 -0.0978947 0.26047632,0.9959368 -0.097729137 0.27456232,
  1.0139159 -0.093848667 0.28259332,1.0288064 -0.087763575 0.28643046,
  1.0418344 -0.079823249 0.28717685,1.0533409 -0.070101682 0.28512426,
  1.0622008 -0.060095742 0.28103797,1.0688935 -0.050232812 0.27568806,
  1.0753161 -0.037347686 0.26724442,1.0799123 -0.023165155 0.25647013,
  1.0820072 -0.011464608 0.24661846,1.0826772 0 0.23622047,
  1.2617732 0 0.41011159,1.3913629 0 0.62346586,
  1.4631104 0 0.86255957,1.4724009 0 1.1120134,
  1.4186366 0 1.3557816,1.305276 0 1.5781841,
  1.1396107 0 1.7649152,0.93229685 0 1.9039638,
  0.69666971 0 1.9863857,0.4478856 0 2.0068792,
  0.2019472 0 1.9641263,-0.025325898 0 1.8608768,
  -0.21931467 0 1.7037721,-0.36754109 0 1.5029178,
  -0.46047072 0 1.2712336,-0.49212598 0 1.023622,
  -0.29619518 -0.20638746 1.023622,-0.058087593 -0.36223818 1.023622,
  0.20945753 -0.45921382 1.023622,-0.2100907 -0.26442526 0.8998023,
  -0.125393 -0.26442526 0.66709729,0.033786595 -0.26442526 0.47739443,
  0.14043504 -0.43381917 0.89561701,0.24824869 -0.26442526 0.35357469,
  0.2054249 -0.43381917 0.78305128,0.49212598 -0.26442526 0.31057254,
  0.30499514 -0.43381917 0.69950192,0.73600328 -0.26442526 0.35357469,
  0.42713613 -0.43381917 0.65504624,0.95046537 -0.26442526 0.47739443,
  0.55711584 -0.43381917 0.65504624,1.109645 -0.26442526 0.66709729,
  0.67925682 -0.43381917 0.69950192,1.1943427 -0.26442526 0.8998023,
  0.77882707 -0.43381917 0.78305128,1.1943427 -0.26442526 1.1474418,
  0.84381692 -0.43381917 0.89561701,1.109645 -0.26442526 1.3801468,
  0.86638767 -0.43381917 1.023622,0.95046537 -0.26442526 1.5698497,
  0.84381692 -0.43381917 1.1516271,0.73600328 -0.26442526 1.6936694,
  0.77882707 -0.43381917 1.2641928,0.49212598 -0.26442526 1.7366716,
  0.67925682 -0.43381917 1.3477422,0.24824869 -0.26442526 1.6936694,
  0.55711584 -0.43381917 1.3921979,0.033786595 -0.26442526 1.5698497,
  0.42713613 -0.43381917 1.3921979,-0.125393 -0.26442526 1.3801468,
  0.30499514 -0.43381917 1.3477422,-0.2100907 -0.26442526 1.1474418,
  0.2054249 -0.43381917 1.2641928,0.14043504 -0.43381917 1.1516271] }
 coordIndex [
  3,2,6,-1,3,6,7,-1,10,8,9,-1,11,8,10,-1,12,8,11,-1,13,8,12,-1,14,8,13,-1,26,20,21,-1,
  26,21,22,-1,26,22,23,-1,26,23,24,-1,26,24,25,-1,30,28,29,-1,31,28,30,-1,46,38,39,-1,46,39,40,-1,
  46,40,41,-1,46,41,42,-1,46,42,43,-1,46,43,44,-1,46,44,45,-1,62,60,61,-1,65,4,3,-1,66,7,8,-1,
  66,14,15,-1,66,3,7,-1,66,4,65,-1,66,8,14,-1,66,65,3,-1,67,15,16,-1,67,16,17,-1,67,17,18,-1,
  67,66,15,-1,68,5,4,-1,68,1,5,-1,68,4,66,-1,69,20,26,-1,69,18,19,-1,69,19,20,-1,69,67,18,-1,
  70,66,67,-1,70,1,68,-1,70,68,66,-1,71,28,31,-1,71,26,27,-1,71,27,28,-1,71,31,32,-1,71,69,26,-1,
  72,70,67,-1,72,67,69,-1,72,1,70,-1,73,32,33,-1,73,33,34,-1,73,71,32,-1,74,72,69,-1,74,1,72,-1,
  74,69,71,-1,75,73,34,-1,75,34,35,-1,75,35,36,-1,75,36,37,-1,76,74,71,-1,76,71,73,-1,76,1,74,-1,
  77,75,37,-1,77,37,38,-1,77,46,47,-1,77,38,46,-1,78,73,75,-1,78,76,73,-1,78,1,76,-1,79,77,47,-1,
  79,47,48,-1,79,48,49,-1,80,78,75,-1,80,75,77,-1,80,1,78,-1,81,79,49,-1,81,49,50,-1,82,1,80,-1,
  82,77,79,-1,82,80,77,-1,83,50,51,-1,83,81,50,-1,84,0,1,-1,84,79,81,-1,84,82,79,-1,84,1,82,-1,
  85,51,52,-1,85,83,51,-1,85,52,53,-1,86,84,81,-1,86,0,84,-1,86,81,83,-1,87,53,54,-1,87,85,53,-1,
  88,86,83,-1,88,83,85,-1,88,0,86,-1,89,54,55,-1,89,55,56,-1,89,87,54,-1,90,0,88,-1,90,85,87,-1,
  90,88,85,-1,91,56,57,-1,91,89,56,-1,92,0,90,-1,92,87,89,-1,92,90,87,-1,93,57,58,-1,93,91,57,-1,
  94,0,92,-1,94,89,91,-1,94,92,89,-1,95,58,59,-1,95,59,60,-1,95,93,58,-1,95,60,62,-1,96,91,93,-1,
  96,94,91,-1,96,0,94,-1,97,95,62,-1,97,63,95,-1,97,62,63,-1,98,93,95,-1,98,96,93,-1,98,0,96,-1,
  99,95,63,-1,99,98,95,-1,99,0,98,-1,99,63,64,-1,99,64,0,-1]
  normalPerVertex TRUE
  normal DEF NORM_3 Normal { vector [
  0.007701014 -0.99368938 0.11190221,0.007701014 -0.99368938 -0.11190221,
  -0.72266835 -0.68605423 -0.084143037,-0.66313022 -0.72979347 -0.16631239,
  -0.43716634 -0.89302564 -0.10672767,-0.22920488 -0.97092745 -0.069029066,
  -0.67069909 -0.72463381 -0.15833058,-0.63452383 -0.72840471 -0.25846872,
  -0.54940012 -0.71382114 -0.43430277,-0.5573723 -0.58704996 -0.58711877,
  -0.55299998 -0.59931329 -0.57880445,-0.53998944 -0.63629732 -0.55094204,
  -0.5318826 -0.66413847 -0.525377,-0.52064684 -0.70681078 -0.47890018,
  -0.51008216 -0.73424078 -0.44800298,-0.52270513 -0.72302859 -0.45167355,
  -0.40813143 -0.74861961 -0.52249155,-0.38280241 -0.75398621 -0.53382311,
  -0.323326 -0.76696799 -0.55427466,-0.3066341 -0.76031933 -0.57261684,
  -0.20890936 -0.72082838 -0.66088072,-0.11585808 -0.79774805 -0.59175582,
  -0.18132789 -0.72552215 -0.66388087,-0.21235267 -0.67988673 -0.70189769,
  -0.23025164 -0.64380586 -0.72972474,-0.2361316 -0.62905597 -0.74062842,
  -0.13905493 -0.71927377 -0.68066804,0 -0.71599637 -0.698104,
  0.13492435 -0.72658956 -0.67369358,0.23400911 -0.63759391 -0.73397121,
  0.22112086 -0.66380019 -0.71447524,0.17260712 -0.74226176 -0.64749847,
  0.16147059 -0.70786651 -0.68764253,0.29389616 -0.75354945 -0.58803765,
  0.32286574 -0.76693588 -0.5545873,0.37465184 -0.75574287 -0.53711145,
  0.41417311 -0.74736624 -0.51952318,0.52269699 -0.72351723 -0.45089985,
  0.51357456 -0.73186267 -0.44790422,0.52678828 -0.69578192 -0.4882434,
  0.53605402 -0.66597808 -0.51876708,0.54399083 -0.64156051 -0.54080874,
  0.55151612 -0.62040964 -0.55760366,0.55942462 -0.60018634 -0.57168213,
  0.56854941 -0.57883875 -0.58454877,0.57298205 -0.56871352 -0.59013261,
  0.55897878 -0.71160959 -0.42562251,0.64325537 -0.71701243 -0.26854367,
  0.68864585 -0.71604366 -0.11422944,0.69535835 -0.71744989 0.041742253,
  0.65641823 -0.71635986 0.23652412,0.56196552 -0.71769694 0.41122482,
  0.45912225 -0.71617652 0.52564052,0.3242113 -0.71684312 0.61727059,
  0.1370386 -0.71652078 0.68397251,-0.031335821 -0.71692171 0.69644908,
  -0.17727907 -0.71845601 0.67260174,-0.36080706 -0.71647838 0.59705694,
  -0.51420136 -0.71692463 0.47076112,-0.60964692 -0.71609939 0.33990042,
  -0.66626652 -0.72136658 0.1889952,-0.72214302 -0.68555552 0.092320546,
  -0.66702115 -0.73124573 0.14269714,-0.43716634 -0.89302564 0.10672767,
  -0.22920488 -0.97092745 0.069029066,-0.54334823 -0.83012345 -0.1251709,
  -0.52440189 -0.79867869 -0.29515254,-0.34267957 -0.84585526 -0.40877818,
  -0.3115234 -0.94081685 -0.13347965,-0.18584263 -0.8175243 -0.54508396,
  -0.26962534 -0.93601095 -0.22624253,0.027584717 -0.79216037 -0.60968929,
  -0.17598544 -0.93601095 -0.30481573,0.1877397 -0.83943993 -0.50999452,
  -0.061119103 -0.93601095 -0.34662366,0.34350662 -0.84474344 -0.41037997,
  0.061119103 -0.93601095 -0.34662366,0.50984442 -0.79931233 -0.31805418,
  0.17598544 -0.93601095 -0.30481573,0.59630614 -0.79613429 -0.10290376,
  0.26962534 -0.93601095 -0.22624253,0.57838009 -0.80864237 0.10758247,
  0.33074445 -0.93601095 -0.12038113,0.51292116 -0.80856822 0.28832154,
  0.35197089 -0.93601095 0,0.39225573 -0.79613231 0.46076977,
  0.33074445 -0.93601095 0.12038113,0.19961653 -0.808776 0.55320397,
  0.26962534 -0.93601095 0.22624253,-0.0097722997 -0.79612123 0.60505826,
  0.17598544 -0.93601095 0.30481573,-0.21076416 -0.80830426 0.54974785,
  0.061119103 -0.93601095 0.34662366,-0.37631434 -0.80876428 0.45198214,
  -0.061119103 -0.93601095 0.34662366,-0.53381078 -0.79835725 0.27869652,
  -0.17598544 -0.93601095 0.30481573,-0.54334823 -0.83012345 0.1251709,
  -0.26962534 -0.93601095 0.22624253,-0.3115234 -0.94081685 0.13347965] }
}
}
DEF SHAPE_4 Shape {
 appearance USE APP_2
 geometry DEF FACE_4 IndexedFaceSet {
  coord DEF COORD_4 Coordinate { point [
  0.49212598 0.49212598 1.023622,0.20945753 0.45921382 1.023622,
  -0.058087593 0.36223818 1.023622,-0.29619518 0.20638746 1.023622,
  -0.49212598 0 1.023622,0.49212598 0.49212598 1.023622,
  0.20945753 0.45921382 1.023622,-0.058087593 0.36223818 1.023622,
  -0.29619518 0.20638746 1.023622,-0.49212598 0 1.023622,
  1.0826772 0 0.23622047,1.2617732 0 0.41011159,
  1.3913629 0 0.62346586,1.4631104 0 0.86255957,
  1.4724009 0 1.1120134,1.4186366 0 1.3557816,
  1.305276 0 1.5781841,1.1396107 0 1.7649152,
  0.93229685 0 1.9039638,0.69666971 0 1.9863857,
  0.4478856 0 2.0068792,0.2019472 0 1.9641263,
  -0.025325898 0 1.8608768,-0.21931467 0 1.7037721,
  -0.36754109 0 1.5029178,-0.46047072 0 1.2712336,
  1.0783084 0.028998533 0.26106815,1.0719087 0.044764035 0.27228225,
  1.0608156 0.061850897 0.28186521,1.0494145 0.073765612 0.28617091,
  1.0361528 0.083629105 0.28719499,1.0225882 0.090652371 0.28517316,
  1.011402 0.09460651 0.28167936,0.99693083 0.09760515 0.27509339,
  0.98425197 0.098425197 0.26760376,0.9584081 0.094971648 0.24767149,
  0.93647153 0.086049694 0.22558536,0.91825738 0.073022143 0.20263273,
  0.90376678 0.056653805 0.1795535,0.89321892 0.037423288 0.15688969,
  0.88777286 0.01947564 0.1387024,0.88582677 0 0.12154022,
  0.098425197 0 0.12154022,0.29103382 0 0.060131582,
  0.49212598 0 0.039370079,0.69321815 0 0.060131582,
  0.093567103 0.030540412 0.14961927,0.079608628 0.057879061 0.18113762,
  0.056087443 0.080880886 0.2157422,0.028136577 0.094317825 0.24559817,
  0.010205259 0.0978947 0.26047632,-0.011684827 0.097729137 0.27456232,
  -0.029663902 0.093848667 0.28259332,-0.044554408 0.087763575 0.28643046,
  -0.057582452 0.079823249 0.28717685,-0.069088888 0.070101682 0.28512426,
  -0.07794884 0.060095742 0.28103797,-0.0846415 0.050232812 0.27568806,
  -0.091064096 0.037347686 0.26724442,-0.095660304 0.023165155 0.25647013,
  -0.097755219 0.011464608 0.24661846,-0.098425197 0 0.23622047,
  -0.46579625 0 0.79748728,-0.38821574 0 0.58345119,
  -0.26353517 0 0.39296512,0.12355018 0.43381917 0.95863219,
  0.16800586 0.43381917 0.83649121,0.25155521 0.43381917 0.73692097,
  -0.17792138 0.26442526 0.77974475,0.36412095 0.43381917 0.67193111,
  -0.05410163 0.26442526 0.56528266,0.49212598 0.43381917 0.64936037,
  0.13560123 0.26442526 0.40610306,0.62013102 0.43381917 0.67193111,
  0.36830624 0.26442526 0.32140536,0.73269676 0.43381917 0.73692097,
  0.61594573 0.26442526 0.32140536,0.81624611 0.43381917 0.83649121,
  0.84865074 0.26442526 0.40610306,0.86070179 0.43381917 0.95863219,
  1.0383536 0.26442526 0.56528266,0.86070179 0.43381917 1.0886119,
  1.1621733 0.26442526 0.77974475,0.81624611 0.43381917 1.2107529,
  1.2051755 0.26442526 1.023622,0.73269676 0.43381917 1.3103231,
  1.1621733 0.26442526 1.2674993,0.62013102 0.43381917 1.375313,
  1.0383536 0.26442526 1.4819614,0.49212598 0.43381917 1.3978837,
  0.84865074 0.26442526 1.641141,0.36412095 0.43381917 1.375313,
  0.61594573 0.26442526 1.7258387,0.25155521 0.43381917 1.3103231,
  0.36830624 0.26442526 1.7258387,0.16800586 0.43381917 1.2107529,
  0.13560123 0.26442526 1.641141,0.12355018 0.43381917 1.0886119,
  -0.05410163 0.26442526 1.4819614,-0.17792138 0.26442526 1.2674993] }
 coordIndex [
  62,4,3,-1,54,64,63,-1,55,64,54,-1,56,64,55,-1,57,64,56,-1,58,64,57,-1,59,64,58,-1,60,64,59,-1,
  61,64,60,-1,43,42,46,-1,43,46,47,-1,37,45,36,-1,38,45,37,-1,39,45,38,-1,40,45,39,-1,41,45,40,-1,
  11,10,26,-1,11,26,27,-1,11,27,28,-1,11,28,29,-1,11,29,30,-1,9,25,8,-1,65,2,1,-1,66,1,0,-1,
  66,65,1,-1,66,2,65,-1,67,66,0,-1,68,3,2,-1,68,63,62,-1,68,2,66,-1,68,62,3,-1,69,67,0,-1,
  70,63,68,-1,70,66,67,-1,70,51,52,-1,70,68,66,-1,70,52,53,-1,70,53,54,-1,70,54,63,-1,71,69,0,-1,
  72,67,69,-1,72,51,70,-1,72,49,50,-1,72,50,51,-1,72,70,67,-1,73,71,0,-1,74,43,47,-1,74,49,72,-1,
  74,44,43,-1,74,47,48,-1,74,48,49,-1,74,69,71,-1,74,72,69,-1,75,73,0,-1,76,74,71,-1,76,36,45,-1,
  76,34,35,-1,76,35,36,-1,76,44,74,-1,76,45,44,-1,76,71,73,-1,77,75,0,-1,78,76,73,-1,78,33,34,-1,
  78,34,76,-1,78,73,75,-1,79,77,0,-1,80,12,11,-1,80,30,31,-1,80,31,32,-1,80,32,33,-1,80,11,30,-1,
  80,75,77,-1,80,33,78,-1,80,78,75,-1,81,0,5,-1,81,79,0,-1,82,77,79,-1,82,13,12,-1,82,80,77,-1,
  82,12,80,-1,83,81,5,-1,84,14,13,-1,84,79,81,-1,84,82,79,-1,84,13,82,-1,85,83,5,-1,86,15,14,-1,
  86,16,15,-1,86,14,84,-1,86,81,83,-1,86,84,81,-1,87,85,5,-1,88,17,16,-1,88,16,86,-1,88,83,85,-1,
  88,86,83,-1,89,87,5,-1,90,85,87,-1,90,18,17,-1,90,17,88,-1,90,88,85,-1,91,89,5,-1,92,87,89,-1,
  92,19,18,-1,92,20,19,-1,92,18,90,-1,92,90,87,-1,93,91,5,-1,94,89,91,-1,94,20,92,-1,94,21,20,-1,
  94,92,89,-1,95,93,5,-1,95,5,6,-1,96,91,93,-1,96,21,94,-1,96,22,21,-1,96,23,22,-1,96,94,91,-1,
  97,6,7,-1,97,95,6,-1,97,7,95,-1,98,96,93,-1,98,23,96,-1,98,24,23,-1,98,93,95,-1,99,7,8,-1,
  99,95,7,-1,99,25,24,-1,99,98,95,-1,99,24,98,-1,99,8,25,-1]
  normalPerVertex TRUE
  normal DEF NORM_4 Normal { vector [
  0.019470916 0.99424744 -0.10532289,-0.18250972 0.98115784 -0.063399537,
  -0.45577168 0.88428039 -0.10158918,-0.65204256 0.75040112 -0.10834511,
  -0.72266835 0.68605423 -0.084143037,0.0024624002 0.99299039 0.1181695,
  -0.18250972 0.98115784 0.063399537,-0.45577168 0.88428039 0.10158918,
  -0.65415875 0.7482165 0.11067248,-0.72214302 0.68555552 0.092320546,
  0.5653972 0.58414772 -0.58232074,0.56005766 0.7080459 -0.43012374,
  0.62578759 0.71784355 -0.3051074,0.68792437 0.71637066 -0.11650379,
  0.69188394 0.71732459 0.082109973,0.65713927 0.71600708 0.23558828,
  0.58542266 0.71711634 0.37818575,0.45548265 0.71640991 0.52848122,
  0.28723563 0.71812923 0.633866,0.14495907 0.71655145 0.68230556,
  -0.020903428 0.71663042 0.69713979,-0.21663793 0.71669239 0.66288764,
  -0.36679283 0.71640814 0.59348327,-0.48520669 0.71798328 0.49907361,
  -0.60768387 0.71638712 0.34279703,-0.68304473 0.70851122 0.17737459,
  0.56053557 0.59710656 -0.57381499,0.54590756 0.63597484 -0.5454548,
  0.53636611 0.66493582 -0.51978048,0.52287126 0.70822145 -0.47437119,
  0.51655006 0.71650547 -0.46882401,0.44231147 0.75075303 -0.4906429,
  0.40362173 0.76754721 -0.49795661,0.41263309 0.76166113 -0.4996061,
  0.24940533 0.74282072 -0.62130054,0.2744645 0.79198979 -0.54536355,
  0.202634 0.72761325 -0.65537655,0.11585808 0.79774805 -0.59175582,
  0.18132789 0.72552215 -0.66388087,0.21235267 0.67988673 -0.70189769,
  0.23025164 0.64380586 -0.72972474,0.2361316 0.62905597 -0.74062842,
  -0.23400911 0.63759391 -0.73397121,-0.14218163 0.71201076 -0.68762276,
  0 0.71972355 -0.69426077,0.15129688 0.7159969 -0.68151133,
  -0.22112086 0.66380019 -0.71447524,-0.19342871 0.71932971 -0.6671957,
  -0.23525961 0.75356355 -0.61383621,-0.24151364 0.74736766 -0.61896102,
  -0.34475759 0.75149012 -0.56249872,-0.41012034 0.76136256 -0.50212385,
  -0.41110104 0.764351 -0.49675294,-0.45450859 0.74533177 -0.48775249,
  -0.55127683 0.71644705 -0.42754821,-0.52391982 0.6943897 -0.49328588,
  -0.53162285 0.66515959 -0.52434708,-0.53833363 0.64164996 -0.54633527,
  -0.54489633 0.62147526 -0.56290007,-0.55200196 0.60226105 -0.57669357,
  -0.56042638 0.58198172 -0.58925338,-0.56456726 0.57236216 -0.59469771,
  -0.68495916 0.70931346 -0.16644931,-0.59445144 0.71966325 -0.35876495,
  -0.51135143 0.7525522 -0.41495169,-0.34030839 0.93887342 -0.052027807,
  -0.31232108 0.93347058 -0.1763185,-0.22624253 0.93601095 -0.26962534,
  -0.55659798 0.80444891 -0.20751061,-0.12038113 0.93601095 -0.33074445,
  -0.46202096 0.80391172 -0.37451645,0 0.93601095 -0.35197089,
  -0.26553507 0.84753647 -0.4595357,0.12038113 0.93601095 -0.33074445,
  -0.10789852 0.80215295 -0.58728916,0.22624253 0.93601095 -0.26962534,
  0.11140874 0.80171734 -0.58722857,0.30481573 0.93601095 -0.17598544,
  0.26488368 0.84879104 -0.45759196,0.34662366 0.93601095 -0.061119103,
  0.46823593 0.80279829 -0.36914769,0.34662366 0.93601095 0.061119103,
  0.55548446 0.80852094 -0.19424444,0.30481573 0.93601095 0.17598544,
  0.58823355 0.80867671 -0.0048237132,0.22624253 0.93601095 0.26962534,
  0.56898459 0.79613483 0.20597542,0.12038113 0.93601095 0.33074445,
  0.44827128 0.80872736 0.38080561,0 0.93601095 0.35197089,
  0.30181241 0.80842326 0.50533267,-0.12038113 0.93601095 0.33074445,
  0.11252218 0.79612674 0.5945763,-0.22624253 0.93601095 0.26962534,
  -0.1018141 0.8087883 0.57921963,-0.31232108 0.93347058 0.1763185,
  -0.30818829 0.79612887 0.52076751,-0.34030839 0.93887342 0.052027807,
  -0.45599521 0.808474 0.37207279,-0.5572448 0.80286343 0.21186915] }
}
}
DEF SHAPE_5 Shape {
 appearance USE APP_1
 geometry DEF FACE_5 IndexedFaceSet {
  coord DEF COORD_5 Coordinate { point [
  0.98425197 0.098425197 -0.78740157,0.98425197 0.098425197 0.26760376,
  1.0826772 0 0.23622047,1.0783084 0.028998533 0.26106815,
  1.0719087 0.044764035 0.27228225,1.0608156 0.061850897 0.28186521,
  1.0494145 0.073765612 0.28617091,1.0361528 0.083629105 0.28719499,
  1.0225882 0.090652371 0.28517316,1.011402 0.09460651 0.28167936,
  0.99693083 0.09760515 0.27509339,0.88582677 0 0.12154022,
  0.89068487 -0.030540412 0.14961927,0.90464334 -0.057879061 0.18113762,
  0.92816453 -0.080880886 0.2157422,0.95611539 -0.094317825 0.24559817,
  0.97404671 -0.0978947 0.26047632,0.9959368 -0.097729137 0.27456232,
  1.0139159 -0.093848667 0.28259332,1.0288064 -0.087763575 0.28643046,
  1.0418344 -0.079823249 0.28717685,1.0533409 -0.070101682 0.28512426,
  1.0622008 -0.060095742 0.28103797,1.0688935 -0.050232812 0.27568806,
  1.0753161 -0.037347686 0.26724442,1.0799123 -0.023165155 0.25647013,
  1.0820072 -0.011464608 0.24661846,0.98425197 0.098425197 0.26760376,
  0.9584081 0.094971648 0.24767149,0.93647153 0.086049694 0.22558536,
  0.91825738 0.073022143 0.20263273,0.90376678 0.056653805 0.1795535,
  0.89321892 0.037423288 0.15688969,0.88777286 0.01947564 0.1387024,
  0.98425197 0.098425197 -0.78740157,0.95877765 0.09507144 -0.78740157,
  0.93503937 0.085238721 -0.78740157,0.91465484 0.069597124 -0.78740157,
  0.89901325 0.049212598 -0.78740157,0.88918053 0.025474315 -0.78740157,
  0.88582677 0 -0.78740157,0.88918053 -0.025474315 -0.78740157,
  0.89901325 -0.049212598 -0.78740157,0.91465484 -0.069597124 -0.78740157,
  0.93503937 -0.085238721 -0.78740157,0.95877765 -0.09507144 -0.78740157,
  0.98425197 -0.098425197 -0.78740157,1.0097263 -0.09507144 -0.78740157,
  1.0334646 -0.085238721 -0.78740157,1.0538491 -0.069597124 -0.78740157,
  1.0694907 -0.049212598 -0.78740157,1.0793234 -0.025474315 -0.78740157,
  1.0826772 0 -0.78740157,1.0793234 0.025474315 -0.78740157,
  1.0694907 0.049212598 -0.78740157,1.0538491 0.069597124 -0.78740157,
  1.0334646 0.085238721 -0.78740157,1.0097263 0.09507144 -0.78740157] }
 coordIndex [
  0,1,10,-1,57,9,8,-1,57,10,9,-1,57,0,10,-1,56,7,6,-1,56,8,7,-1,56,57,8,-1,55,5,4,-1,
  55,6,5,-1,55,56,6,-1,54,4,3,-1,54,55,4,-1,53,3,2,-1,53,54,3,-1,52,2,26,-1,52,53,2,-1,
  51,25,24,-1,51,26,25,-1,51,52,26,-1,50,23,22,-1,50,24,23,-1,50,51,24,-1,49,21,20,-1,49,22,21,-1,
  49,50,22,-1,48,20,19,-1,48,49,20,-1,47,18,17,-1,47,19,18,-1,47,48,19,-1,46,47,17,-1,46,17,16,-1,
  45,16,15,-1,45,46,16,-1,44,15,14,-1,44,45,15,-1,43,14,13,-1,43,44,14,-1,42,13,12,-1,42,43,13,-1,
  41,12,11,-1,41,42,12,-1,40,11,33,-1,40,41,11,-1,39,33,32,-1,39,40,33,-1,38,32,31,-1,38,39,32,-1,
  37,31,30,-1,37,38,31,-1,36,30,29,-1,36,37,30,-1,35,29,28,-1,35,36,29,-1,34,28,27,-1,34,35,28,-1]
  normalPerVertex TRUE
  normal DEF NORM_5 Normal { vector [
  0.10885034 0.99405801 -0.00053169538,0.064543436 0.9979149 0,
  0.99430436 0.10657766 0.00020488453,0.95751491 0.28838375 -8.2103783e-05,
  0.84884982 0.52863397 -0.00033631524,0.79001388 0.61308855 -0.0007056485,
  0.63894075 0.76925591 -0.00024601233,0.53272771 0.8462867 -6.5027717e-05,
  0.39446547 0.9189107 -0.00035420265,0.26154876 0.96519026 9.7764023e-06,
  0.13525532 0.99081072 -0.00035321259,-0.99653172 -0.083213169 0.00030660605,
  -0.94331385 -0.33190169 0.00049269014,-0.79918974 -0.60107845 0.00066953508,
  -0.58633188 -0.81007069 0.00063238903,-0.35941952 -0.93317603 0.00032878944,
  -0.10268215 -0.99471422 -4.9764947e-05,0.11277481 -0.99362057 -3.4784801e-05,
  0.29015696 -0.95697907 -4.2495561e-05,0.41937924 -0.90781109 -0.0002839022,
  0.59555291 -0.80331603 -0.00028805326,0.69574969 -0.71828432 -8.2151154e-06,
  0.7903452 -0.61266165 -0.00040357634,0.86632963 -0.49947269 7.3572492e-06,
  0.92501144 -0.37993913 -0.00031462251,0.96817352 -0.25027991 7.484973e-06,
  0.99213843 -0.12514437 -0.00046211923,-0.13245386 0.99118917 0,
  -0.20942913 0.97782383 2.4936955e-06,-0.44486361 0.89559833 -3.2849575e-05,
  -0.64645018 0.7629562 -3.5327627e-06,-0.80862984 0.58831775 4.1233116e-05,
  -0.92046136 0.39083359 -2.074807e-05,-0.98563086 0.16891356 -0.00014160866,
  -0.13150635 0.99131533 2.4078716e-05,-0.29608751 0.95516082 -6.4971899e-05,
  -0.52481675 0.85121521 -0.00020042873,-0.71928871 0.69471119 -0.00033110537,
  -0.868864 0.4950507 -0.00040458419,-0.96338775 0.26811162 -0.00046010353,
  -0.99959865 0.028328004 -0.00024414768,-0.97518281 -0.22140118 9.5420367e-05,
  -0.87513364 -0.4838813 -2.4962664e-05,-0.70341723 -0.71077717 7.0782676e-05,
  -0.47441859 -0.88029938 2.9331442e-05,-0.24165964 -0.97036101 -0.00034778294,
  0.0027757539 -0.99999608 -0.00037571866,0.27189755 -0.96232612 -0.00040779954,
  0.50476209 -0.86325839 -0.00042981363,0.70289218 -0.71129624 -0.00049890471,
  0.86584668 -0.50030916 -0.00052503631,0.96648996 -0.25670386 -0.00052725249,
  0.99993685 -0.011233094 -0.00033328338,0.97558584 0.21961844 4.1783721e-05,
  0.88257417 0.47017319 1.1717925e-06,0.7430385 0.66924862 -0.00024703773,
  0.51268362 0.85857749 -0.00044399517,0.26014996 0.96556809 -0.00051842067] }
}
}
DEF SHAPE_6 Shape {
 appearance USE APP_1
 geometry DEF FACE_6 IndexedFaceSet {
  coord DEF COORD_6 Coordinate { point [
  0.98425197 0.098425197 -0.78740157,0.95877765 0.09507144 -0.78740157,
  0.93503937 0.085238721 -0.78740157,0.91465484 0.069597124 -0.78740157,
  0.89901325 0.049212598 -0.78740157,0.88918053 0.025474315 -0.78740157,
  0.88582677 0 -0.78740157,0.88918053 -0.025474315 -0.78740157,
  0.89901325 -0.049212598 -0.78740157,0.91465484 -0.069597124 -0.78740157,
  0.93503937 -0.085238721 -0.78740157,0.95877765 -0.09507144 -0.78740157,
  0.98425197 -0.098425197 -0.78740157,1.0097263 -0.09507144 -0.78740157,
  1.0334646 -0.085238721 -0.78740157,1.0538491 -0.069597124 -0.78740157,
  1.0694907 -0.049212598 -0.78740157,1.0793234 -0.025474315 -0.78740157,
  1.0826772 0 -0.78740157,1.0793234 0.025474315 -0.78740157,
  1.0694907 0.049212598 -0.78740157,1.0538491 0.069597124 -0.78740157,
  1.0334646 0.085238721 -0.78740157,1.0097263 0.09507144 -0.78740157] }
 coordIndex [
  9,1,0,-1,9,2,1,-1,9,3,2,-1,9,4,3,-1,9,5,4,-1,9,6,5,-1,9,7,6,-1,9,8,7,-1,
  9,11,10,-1,9,12,11,-1,9,13,12,-1,9,14,13,-1,9,15,14,-1,9,16,15,-1,9,17,16,-1,9,18,17,-1,
  9,19,18,-1,9,20,19,-1,9,21,20,-1,9,22,21,-1,9,23,22,-1,9,0,23,-1]
  normalPerVertex TRUE
  normal DEF NORM_6 Normal { vector [
  0 0 -1,0 0 -1,
  0 0 -1,0 0 -1,
  0 0 -1,0 0 -1,
  0 0 -1,0 0 -1,
  0 0 -1,0 0 -1,
  0 0 -1,0 0 -1,
  0 0 -1,0 0 -1,
  0 0 -1,0 0 -1,
  0 0 -1,0 0 -1,
  0 0 -1,0 0 -1,
  0 0 -1,0 0 -1,
  0 0 -1,0 0 -1] }
}
}
] }
] }
] }
