#VRML V2.0 utf8
DEF TXFM_1 Transform {
  center 0 0 0
  rotation 0 0 1 0
  scale 1 1 1
  scaleOrientation 0 0 1 0
  translation 0 0 0
 children [
DEF TXFM_2 Transform {
  center 0 0 0
  rotation 0 0 1 0
  scale 1 1 1
  scaleOrientation 0 0 1 0
  translation 0 0 0
 children [
DEF TXFM_3 Transform {
  center 0 0 0
  rotation 0 0 1 0
  scale 1 1 1
  scaleOrientation 0 0 1 0
  translation 0 0 0
 children [
DEF SHAPE_1 Shape {
 appearance DEF APP_1 Appearance {
  material Material {
   ambientIntensity 0.686634
   diffuseColor 0.148 0.145 0.145
   emissiveColor 0 0 0
   shininess 0.1
   specularColor 0.12 0.12 0.12
   transparency 0
} }
 geometry DEF FACE_1 IndexedFaceSet {
  coord DEF COORD_1 Coordinate { point [
  -0.4 0.5 0,-0.4 0.5 1,
  -0.5 0.4 1,-0.5 0.4 0] }
 coordIndex [
  3,1,0,-1,3,2,1,-1]
  normalPerVertex TRUE
  normal DEF NORM_1 Normal { vector [
  -0.70710678 0.70710678 0,-0.70710678 0.70710678 0,
  -0.70710678 0.70710678 0,-0.70710678 0.70710678 0] }
}
}
DEF SHAPE_2 Shape {
 appearance USE APP_1
 geometry DEF FACE_2 IndexedFaceSet {
  coord DEF COORD_2 Coordinate { point [
  1.4 0.5 0,1.4 0.5 1,
  -0.4 0.5 1,-0.4 0.5 0] }
 coordIndex [
  3,1,0,-1,3,2,1,-1]
  normalPerVertex TRUE
  normal DEF NORM_2 Normal { vector [
  0 1 0,0 1 0,
  0 1 0,0 1 0] }
}
}
DEF SHAPE_3 Shape {
 appearance USE APP_1
 geometry DEF FACE_3 IndexedFaceSet {
  coord DEF COORD_3 Coordinate { point [
  -0.5 0.4 0,-0.5 0.4 1,
  -0.5 -0.4 1,-0.5 -0.4 0] }
 coordIndex [
  3,1,0,-1,3,2,1,-1]
  normalPerVertex TRUE
  normal DEF NORM_3 Normal { vector [
  -1 0 0,-1 0 0,
  -1 0 0,-1 0 0] }
}
}
DEF SHAPE_4 Shape {
 appearance USE APP_1
 geometry DEF FACE_4 IndexedFaceSet {
  coord DEF COORD_4 Coordinate { point [
  -0.4 0.5 0,-0.5 0.4 0,
  -0.5 -0.4 0,-0.4 -0.5 0,
  -0.5 -0.6 0,-0.5 -1.4 0,
  -0.4 -1.5 0,-0.5 -1.6 0,
  -0.5 -2.4 0,-0.4 -2.5 0,
  1.4 -2.5 0,1.5 -2.4 0,
  1.5 -1.6 0,1.4 -1.5 0,
  1.5 -1.4 0,1.5 -0.6 0,
  1.4 -0.5 0,1.5 -0.4 0,
  1.5 0.4 0,1.4 0.5 0,
  1.1259843 -1.1259843 0,1.1259843 -0.87401575 0,
  0.87401575 -1.1259843 0,0.87401575 -0.87401575 0,
  0.12598425 -0.87401575 0,-0.12598425 -0.87401575 0,
  0.12598425 -1.1259843 0,-0.12598425 -1.1259843 0,
  0.12598425 -0.12598425 0,0.12598425 0.12598425 0,
  -0.12598425 -0.12598425 0,-0.12598425 0.12598425 0,
  1.1259843 -0.12598425 0,1.1259843 0.12598425 0,
  0.87401575 -0.12598425 0,0.87401575 0.12598425 0,
  1.1259843 -2.1259843 0,1.1259843 -1.8740157 0,
  0.87401575 -2.1259843 0,0.87401575 -1.8740157 0,
  0.12598425 -2.1259843 0,0.12598425 -1.8740157 0,
  -0.12598425 -2.1259843 0,-0.12598425 -1.8740157 0] }
 coordIndex [
  42,9,8,-1,40,9,42,-1,43,8,7,-1,43,42,8,-1,6,43,7,-1,27,6,5,-1,27,43,6,-1,10,9,40,-1,
  10,40,38,-1,36,10,38,-1,25,5,4,-1,25,27,5,-1,39,40,41,-1,39,38,40,-1,26,41,43,-1,26,43,27,-1,
  11,10,36,-1,3,25,4,-1,30,3,2,-1,30,25,3,-1,22,39,41,-1,22,41,26,-1,12,36,37,-1,12,11,36,-1,
  13,12,37,-1,28,24,25,-1,28,25,30,-1,31,2,1,-1,31,30,2,-1,20,13,37,-1,20,37,39,-1,20,39,22,-1,
  23,26,24,-1,23,22,26,-1,0,31,1,-1,14,13,20,-1,21,14,20,-1,29,31,0,-1,34,24,28,-1,34,23,24,-1,
  34,21,23,-1,34,28,29,-1,15,14,21,-1,16,15,21,-1,32,21,34,-1,32,16,21,-1,35,34,29,-1,17,16,32,-1,
  18,17,32,-1,18,32,33,-1,19,35,29,-1,19,18,33,-1,19,33,35,-1,19,29,0,-1]
  normalPerVertex TRUE
  normal DEF NORM_4 Normal { vector [
  0 0 -1,0 0 -1,
  0 0 -1,0 0 -1,
  0 0 -1,0 0 -1,
  0 0 -1,0 0 -1,
  0 0 -1,0 0 -1,
  0 0 -1,0 0 -1,
  0 0 -1,0 0 -1,
  0 0 -1,0 0 -1,
  0 0 -1,0 0 -1,
  0 0 -1,0 0 -1,
  0 0 -1,0 0 -1,
  0 0 -1,0 0 -1,
  0 0 -1,0 0 -1,
  0 0 -1,0 0 -1,
  0 0 -1,0 0 -1,
  0 0 -1,0 0 -1,
  0 0 -1,0 0 -1,
  0 0 -1,0 0 -1,
  0 0 -1,0 0 -1,
  0 0 -1,0 0 -1,
  0 0 -1,0 0 -1,
  0 0 -1,0 0 -1] }
}
}
DEF SHAPE_5 Shape {
 appearance USE APP_1
 geometry DEF FACE_5 IndexedFaceSet {
  coord DEF COORD_5 Coordinate { point [
  -0.4 0.5 1,-0.5 0.4 1,
  -0.5 -0.4 1,-0.4 -0.5 1,
  -0.5 -0.6 1,-0.5 -1.4 1,
  -0.4 -1.5 1,-0.5 -1.6 1,
  -0.5 -2.4 1,-0.4 -2.5 1,
  1.4 -2.5 1,1.5 -2.4 1,
  1.5 -1.6 1,1.4 -1.5 1,
  1.5 -1.4 1,1.5 -0.6 1,
  1.4 -0.5 1,1.5 -0.4 1,
  1.5 0.4 1,1.4 0.5 1,
  1.1259843 -1.1259843 1,1.1259843 -0.87401575 1,
  0.87401575 -1.1259843 1,0.87401575 -0.87401575 1,
  0.12598425 -0.87401575 1,-0.12598425 -0.87401575 1,
  0.12598425 -1.1259843 1,-0.12598425 -1.1259843 1,
  0.12598425 -0.12598425 1,0.12598425 0.12598425 1,
  -0.12598425 -0.12598425 1,-0.12598425 0.12598425 1,
  1.1259843 -0.12598425 1,1.1259843 0.12598425 1,
  0.87401575 -0.12598425 1,0.87401575 0.12598425 1,
  1.1259843 -2.1259843 1,1.1259843 -1.8740157 1,
  0.87401575 -2.1259843 1,0.87401575 -1.8740157 1,
  0.12598425 -2.1259843 1,0.12598425 -1.8740157 1,
  -0.12598425 -2.1259843 1,-0.12598425 -1.8740157 1] }
 coordIndex [
  42,8,9,-1,40,42,9,-1,43,7,8,-1,43,8,42,-1,6,7,43,-1,27,5,6,-1,27,6,43,-1,10,40,9,-1,
  10,38,40,-1,36,38,10,-1,25,4,5,-1,25,5,27,-1,39,41,40,-1,39,40,38,-1,26,43,41,-1,26,27,43,-1,
  11,36,10,-1,3,4,25,-1,30,2,3,-1,30,3,25,-1,22,41,39,-1,22,26,41,-1,12,37,36,-1,12,36,11,-1,
  13,37,12,-1,28,25,24,-1,28,30,25,-1,31,1,2,-1,31,2,30,-1,20,37,13,-1,20,39,37,-1,20,22,39,-1,
  23,24,26,-1,23,26,22,-1,0,1,31,-1,14,20,13,-1,21,20,14,-1,29,0,31,-1,34,28,24,-1,34,24,23,-1,
  34,23,21,-1,34,29,28,-1,15,21,14,-1,16,21,15,-1,32,34,21,-1,32,21,16,-1,35,29,34,-1,17,32,16,-1,
  18,32,17,-1,18,33,32,-1,19,29,35,-1,19,33,18,-1,19,35,33,-1,19,0,29,-1]
  normalPerVertex TRUE
  normal DEF NORM_5 Normal { vector [
  0 0 1,0 0 1,
  0 0 1,0 0 1,
  0 0 1,0 0 1,
  0 0 1,0 0 1,
  0 0 1,0 0 1,
  0 0 1,0 0 1,
  0 0 1,0 0 1,
  0 0 1,0 0 1,
  0 0 1,0 0 1,
  0 0 1,0 0 1,
  0 0 1,0 0 1,
  0 0 1,0 0 1,
  0 0 1,0 0 1,
  0 0 1,0 0 1,
  0 0 1,0 0 1,
  0 0 1,0 0 1,
  0 0 1,0 0 1,
  0 0 1,0 0 1,
  0 0 1,0 0 1,
  0 0 1,0 0 1,
  0 0 1,0 0 1,
  0 0 1,0 0 1] }
}
}
DEF SHAPE_6 Shape {
 appearance USE APP_1
 geometry DEF FACE_6 IndexedFaceSet {
  coord DEF COORD_6 Coordinate { point [
  1.5 0.4 0,1.5 0.4 1,
  1.4 0.5 1,1.4 0.5 0] }
 coordIndex [
  3,1,0,-1,3,2,1,-1]
  normalPerVertex TRUE
  normal DEF NORM_6 Normal { vector [
  0.70710678 0.70710678 0,0.70710678 0.70710678 0,
  0.70710678 0.70710678 0,0.70710678 0.70710678 0] }
}
}
DEF SHAPE_7 Shape {
 appearance USE APP_1
 geometry DEF FACE_7 IndexedFaceSet {
  coord DEF COORD_7 Coordinate { point [
  -0.5 -0.4 0,-0.5 -0.4 1,
  -0.4 -0.5 1,-0.4 -0.5 0] }
 coordIndex [
  3,1,0,-1,3,2,1,-1]
  normalPerVertex TRUE
  normal DEF NORM_7 Normal { vector [
  -0.70710678 -0.70710678 0,-0.70710678 -0.70710678 0,
  -0.70710678 -0.70710678 0,-0.70710678 -0.70710678 0] }
}
}
DEF SHAPE_8 Shape {
 appearance USE APP_1
 geometry DEF FACE_8 IndexedFaceSet {
  coord DEF COORD_8 Coordinate { point [
  1.5 -0.4 0,1.5 -0.4 1,
  1.5 0.4 1,1.5 0.4 0] }
 coordIndex [
  3,1,0,-1,3,2,1,-1]
  normalPerVertex TRUE
  normal DEF NORM_8 Normal { vector [
  1 0 0,1 0 0,
  1 0 0,1 0 0] }
}
}
DEF SHAPE_9 Shape {
 appearance USE APP_1
 geometry DEF FACE_9 IndexedFaceSet {
  coord DEF COORD_9 Coordinate { point [
  -0.4 -0.5 0,-0.4 -0.5 1,
  -0.5 -0.6 1,-0.5 -0.6 0] }
 coordIndex [
  3,1,0,-1,3,2,1,-1]
  normalPerVertex TRUE
  normal DEF NORM_9 Normal { vector [
  -0.70710678 0.70710678 0,-0.70710678 0.70710678 0,
  -0.70710678 0.70710678 0,-0.70710678 0.70710678 0] }
}
}
DEF SHAPE_10 Shape {
 appearance USE APP_1
 geometry DEF FACE_10 IndexedFaceSet {
  coord DEF COORD_10 Coordinate { point [
  1.4 -0.5 0,1.4 -0.5 1,
  1.5 -0.4 1,1.5 -0.4 0] }
 coordIndex [
  3,1,0,-1,3,2,1,-1]
  normalPerVertex TRUE
  normal DEF NORM_10 Normal { vector [
  0.70710678 -0.70710678 0,0.70710678 -0.70710678 0,
  0.70710678 -0.70710678 0,0.70710678 -0.70710678 0] }
}
}
DEF SHAPE_11 Shape {
 appearance USE APP_1
 geometry DEF FACE_11 IndexedFaceSet {
  coord DEF COORD_11 Coordinate { point [
  -0.5 -0.6 0,-0.5 -0.6 1,
  -0.5 -1.4 1,-0.5 -1.4 0] }
 coordIndex [
  3,1,0,-1,3,2,1,-1]
  normalPerVertex TRUE
  normal DEF NORM_11 Normal { vector [
  -1 0 0,-1 0 0,
  -1 0 0,-1 0 0] }
}
}
DEF SHAPE_12 Shape {
 appearance USE APP_1
 geometry DEF FACE_12 IndexedFaceSet {
  coord DEF COORD_12 Coordinate { point [
  1.5 -0.6 0,1.5 -0.6 1,
  1.4 -0.5 1,1.4 -0.5 0] }
 coordIndex [
  3,1,0,-1,3,2,1,-1]
  normalPerVertex TRUE
  normal DEF NORM_12 Normal { vector [
  0.70710678 0.70710678 0,0.70710678 0.70710678 0,
  0.70710678 0.70710678 0,0.70710678 0.70710678 0] }
}
}
DEF SHAPE_13 Shape {
 appearance USE APP_1
 geometry DEF FACE_13 IndexedFaceSet {
  coord DEF COORD_13 Coordinate { point [
  -0.5 -1.4 0,-0.5 -1.4 1,
  -0.4 -1.5 1,-0.4 -1.5 0] }
 coordIndex [
  3,1,0,-1,3,2,1,-1]
  normalPerVertex TRUE
  normal DEF NORM_13 Normal { vector [
  -0.70710678 -0.70710678 0,-0.70710678 -0.70710678 0,
  -0.70710678 -0.70710678 0,-0.70710678 -0.70710678 0] }
}
}
DEF SHAPE_14 Shape {
 appearance USE APP_1
 geometry DEF FACE_14 IndexedFaceSet {
  coord DEF COORD_14 Coordinate { point [
  1.5 -1.4 0,1.5 -1.4 1,
  1.5 -0.6 1,1.5 -0.6 0] }
 coordIndex [
  3,1,0,-1,3,2,1,-1]
  normalPerVertex TRUE
  normal DEF NORM_14 Normal { vector [
  1 0 0,1 0 0,
  1 0 0,1 0 0] }
}
}
DEF SHAPE_15 Shape {
 appearance USE APP_1
 geometry DEF FACE_15 IndexedFaceSet {
  coord DEF COORD_15 Coordinate { point [
  -0.4 -1.5 0,-0.4 -1.5 1,
  -0.5 -1.6 1,-0.5 -1.6 0] }
 coordIndex [
  3,1,0,-1,3,2,1,-1]
  normalPerVertex TRUE
  normal DEF NORM_15 Normal { vector [
  -0.70710678 0.70710678 0,-0.70710678 0.70710678 0,
  -0.70710678 0.70710678 0,-0.70710678 0.70710678 0] }
}
}
DEF SHAPE_16 Shape {
 appearance USE APP_1
 geometry DEF FACE_16 IndexedFaceSet {
  coord DEF COORD_16 Coordinate { point [
  1.4 -1.5 0,1.4 -1.5 1,
  1.5 -1.4 1,1.5 -1.4 0] }
 coordIndex [
  3,1,0,-1,3,2,1,-1]
  normalPerVertex TRUE
  normal DEF NORM_16 Normal { vector [
  0.70710678 -0.70710678 0,0.70710678 -0.70710678 0,
  0.70710678 -0.70710678 0,0.70710678 -0.70710678 0] }
}
}
DEF SHAPE_17 Shape {
 appearance USE APP_1
 geometry DEF FACE_17 IndexedFaceSet {
  coord DEF COORD_17 Coordinate { point [
  -0.5 -1.6 0,-0.5 -1.6 1,
  -0.5 -2.4 1,-0.5 -2.4 0] }
 coordIndex [
  3,1,0,-1,3,2,1,-1]
  normalPerVertex TRUE
  normal DEF NORM_17 Normal { vector [
  -1 0 0,-1 0 0,
  -1 0 0,-1 0 0] }
}
}
DEF SHAPE_18 Shape {
 appearance USE APP_1
 geometry DEF FACE_18 IndexedFaceSet {
  coord DEF COORD_18 Coordinate { point [
  1.5 -1.6 0,1.5 -1.6 1,
  1.4 -1.5 1,1.4 -1.5 0] }
 coordIndex [
  3,1,0,-1,3,2,1,-1]
  normalPerVertex TRUE
  normal DEF NORM_18 Normal { vector [
  0.70710678 0.70710678 0,0.70710678 0.70710678 0,
  0.70710678 0.70710678 0,0.70710678 0.70710678 0] }
}
}
DEF SHAPE_19 Shape {
 appearance USE APP_1
 geometry DEF FACE_19 IndexedFaceSet {
  coord DEF COORD_19 Coordinate { point [
  -0.5 -2.4 0,-0.5 -2.4 1,
  -0.4 -2.5 1,-0.4 -2.5 0] }
 coordIndex [
  3,1,0,-1,3,2,1,-1]
  normalPerVertex TRUE
  normal DEF NORM_19 Normal { vector [
  -0.70710678 -0.70710678 0,-0.70710678 -0.70710678 0,
  -0.70710678 -0.70710678 0,-0.70710678 -0.70710678 0] }
}
}
DEF SHAPE_20 Shape {
 appearance USE APP_1
 geometry DEF FACE_20 IndexedFaceSet {
  coord DEF COORD_20 Coordinate { point [
  1.5 -2.4 0,1.5 -2.4 1,
  1.5 -1.6 1,1.5 -1.6 0] }
 coordIndex [
  3,1,0,-1,3,2,1,-1]
  normalPerVertex TRUE
  normal DEF NORM_20 Normal { vector [
  1 0 0,1 0 0,
  1 0 0,1 0 0] }
}
}
DEF SHAPE_21 Shape {
 appearance USE APP_1
 geometry DEF FACE_21 IndexedFaceSet {
  coord DEF COORD_21 Coordinate { point [
  -0.4 -2.5 0,-0.4 -2.5 1,
  1.4 -2.5 1,1.4 -2.5 0] }
 coordIndex [
  3,1,0,-1,3,2,1,-1]
  normalPerVertex TRUE
  normal DEF NORM_21 Normal { vector [
  0 -1 0,0 -1 0,
  0 -1 0,0 -1 0] }
}
}
DEF SHAPE_22 Shape {
 appearance USE APP_1
 geometry DEF FACE_22 IndexedFaceSet {
  coord DEF COORD_22 Coordinate { point [
  1.4 -2.5 0,1.4 -2.5 1,
  1.5 -2.4 1,1.5 -2.4 0] }
 coordIndex [
  3,1,0,-1,3,2,1,-1]
  normalPerVertex TRUE
  normal DEF NORM_22 Normal { vector [
  0.70710678 -0.70710678 0,0.70710678 -0.70710678 0,
  0.70710678 -0.70710678 0,0.70710678 -0.70710678 0] }
}
}
DEF SHAPE_23 Shape {
 appearance DEF APP_2 Appearance {
  material Material {
   ambientIntensity 0.13400008
   diffuseColor 0.85900003 0.73799998 0.49599999
   emissiveColor 0 0 0
   shininess 0.1
   specularColor 0.12 0.12 0.12
   transparency 0
} }
 geometry DEF FACE_23 IndexedFaceSet {
  coord DEF COORD_23 Coordinate { point [
  1.1259843 -1.1259843 -1.1181102,1.1259843 -1.1259843 0,
  1.1259843 -0.87401575 -1.1181102,1.1259843 -0.87401575 0] }
 coordIndex [
  1,0,2,-1,1,2,3,-1]
  normalPerVertex TRUE
  normal DEF NORM_23 Normal { vector [
  1 0 0,1 0 0,
  1 0 0,1 0 0] }
}
}
DEF SHAPE_24 Shape {
 appearance USE APP_2
 geometry DEF FACE_24 IndexedFaceSet {
  coord DEF COORD_24 Coordinate { point [
  1.1259843 -0.87401575 -1.1181102,1.1259843 -0.87401575 0,
  0.87401575 -0.87401575 -1.1181102,0.87401575 -0.87401575 0] }
 coordIndex [
  1,0,2,-1,1,2,3,-1]
  normalPerVertex TRUE
  normal DEF NORM_24 Normal { vector [
  0 1 0,0 1 0,
  0 1 0,0 1 0] }
}
}
DEF SHAPE_25 Shape {
 appearance USE APP_2
 geometry DEF FACE_25 IndexedFaceSet {
  coord DEF COORD_25 Coordinate { point [
  0.87401575 -1.1259843 -1.1181102,0.87401575 -1.1259843 0,
  0.87401575 -0.87401575 -1.1181102,0.87401575 -0.87401575 0] }
 coordIndex [
  1,2,0,-1,1,3,2,-1]
  normalPerVertex TRUE
  normal DEF NORM_25 Normal { vector [
  -1 0 0,-1 0 0,
  -1 0 0,-1 0 0] }
}
}
DEF SHAPE_26 Shape {
 appearance USE APP_2
 geometry DEF FACE_26 IndexedFaceSet {
  coord DEF COORD_26 Coordinate { point [
  1.1259843 -1.1259843 -1.1181102,1.1259843 -1.1259843 0,
  0.87401575 -1.1259843 -1.1181102,0.87401575 -1.1259843 0] }
 coordIndex [
  1,2,0,-1,1,3,2,-1]
  normalPerVertex TRUE
  normal DEF NORM_26 Normal { vector [
  0 -1 0,0 -1 0,
  0 -1 0,0 -1 0] }
}
}
DEF SHAPE_27 Shape {
 appearance USE APP_2
 geometry DEF FACE_27 IndexedFaceSet {
  coord DEF COORD_27 Coordinate { point [
  0.12598425 -0.87401575 -1.1181102,0.12598425 -0.87401575 0,
  -0.12598425 -0.87401575 -1.1181102,-0.12598425 -0.87401575 0] }
 coordIndex [
  1,0,2,-1,1,2,3,-1]
  normalPerVertex TRUE
  normal DEF NORM_27 Normal { vector [
  0 1 0,0 1 0,
  0 1 0,0 1 0] }
}
}
DEF SHAPE_28 Shape {
 appearance USE APP_2
 geometry DEF FACE_28 IndexedFaceSet {
  coord DEF COORD_28 Coordinate { point [
  -0.12598425 -1.1259843 -1.1181102,-0.12598425 -1.1259843 0,
  -0.12598425 -0.87401575 -1.1181102,-0.12598425 -0.87401575 0] }
 coordIndex [
  1,2,0,-1,1,3,2,-1]
  normalPerVertex TRUE
  normal DEF NORM_28 Normal { vector [
  -1 0 0,-1 0 0,
  -1 0 0,-1 0 0] }
}
}
DEF SHAPE_29 Shape {
 appearance USE APP_2
 geometry DEF FACE_29 IndexedFaceSet {
  coord DEF COORD_29 Coordinate { point [
  0.12598425 -1.1259843 -1.1181102,0.12598425 -1.1259843 0,
  -0.12598425 -1.1259843 -1.1181102,-0.12598425 -1.1259843 0] }
 coordIndex [
  1,2,0,-1,1,3,2,-1]
  normalPerVertex TRUE
  normal DEF NORM_29 Normal { vector [
  0 -1 0,0 -1 0,
  0 -1 0,0 -1 0] }
}
}
DEF SHAPE_30 Shape {
 appearance USE APP_2
 geometry DEF FACE_30 IndexedFaceSet {
  coord DEF COORD_30 Coordinate { point [
  0.12598425 -1.1259843 -1.1181102,0.12598425 -1.1259843 0,
  0.12598425 -0.87401575 -1.1181102,0.12598425 -0.87401575 0] }
 coordIndex [
  1,0,2,-1,1,2,3,-1]
  normalPerVertex TRUE
  normal DEF NORM_30 Normal { vector [
  1 0 0,1 0 0,
  1 0 0,1 0 0] }
}
}
DEF SHAPE_31 Shape {
 appearance USE APP_2
 geometry DEF FACE_31 IndexedFaceSet {
  coord DEF COORD_31 Coordinate { point [
  0.12598425 -0.12598425 -1.1181102,0.12598425 -0.12598425 0,
  0.12598425 0.12598425 -1.1181102,0.12598425 0.12598425 0] }
 coordIndex [
  1,0,2,-1,1,2,3,-1]
  normalPerVertex TRUE
  normal DEF NORM_31 Normal { vector [
  1 0 0,1 0 0,
  1 0 0,1 0 0] }
}
}
DEF SHAPE_32 Shape {
 appearance USE APP_2
 geometry DEF FACE_32 IndexedFaceSet {
  coord DEF COORD_32 Coordinate { point [
  0.12598425 0.12598425 -1.1181102,0.12598425 0.12598425 0,
  -0.12598425 0.12598425 -1.1181102,-0.12598425 0.12598425 0] }
 coordIndex [
  1,0,2,-1,1,2,3,-1]
  normalPerVertex TRUE
  normal DEF NORM_32 Normal { vector [
  0 1 0,0 1 0,
  0 1 0,0 1 0] }
}
}
DEF SHAPE_33 Shape {
 appearance USE APP_2
 geometry DEF FACE_33 IndexedFaceSet {
  coord DEF COORD_33 Coordinate { point [
  -0.12598425 -0.12598425 -1.1181102,-0.12598425 -0.12598425 0,
  -0.12598425 0.12598425 -1.1181102,-0.12598425 0.12598425 0] }
 coordIndex [
  1,2,0,-1,1,3,2,-1]
  normalPerVertex TRUE
  normal DEF NORM_33 Normal { vector [
  -1 0 0,-1 0 0,
  -1 0 0,-1 0 0] }
}
}
DEF SHAPE_34 Shape {
 appearance USE APP_2
 geometry DEF FACE_34 IndexedFaceSet {
  coord DEF COORD_34 Coordinate { point [
  0.12598425 -0.12598425 -1.1181102,0.12598425 -0.12598425 0,
  -0.12598425 -0.12598425 -1.1181102,-0.12598425 -0.12598425 0] }
 coordIndex [
  1,2,0,-1,1,3,2,-1]
  normalPerVertex TRUE
  normal DEF NORM_34 Normal { vector [
  0 -1 0,0 -1 0,
  0 -1 0,0 -1 0] }
}
}
DEF SHAPE_35 Shape {
 appearance USE APP_2
 geometry DEF FACE_35 IndexedFaceSet {
  coord DEF COORD_35 Coordinate { point [
  1.1259843 -0.12598425 -1.1181102,1.1259843 -0.12598425 0,
  1.1259843 0.12598425 -1.1181102,1.1259843 0.12598425 0] }
 coordIndex [
  1,0,2,-1,1,2,3,-1]
  normalPerVertex TRUE
  normal DEF NORM_35 Normal { vector [
  1 0 0,1 0 0,
  1 0 0,1 0 0] }
}
}
DEF SHAPE_36 Shape {
 appearance USE APP_2
 geometry DEF FACE_36 IndexedFaceSet {
  coord DEF COORD_36 Coordinate { point [
  1.1259843 0.12598425 -1.1181102,1.1259843 0.12598425 0,
  0.87401575 0.12598425 -1.1181102,0.87401575 0.12598425 0] }
 coordIndex [
  1,0,2,-1,1,2,3,-1]
  normalPerVertex TRUE
  normal DEF NORM_36 Normal { vector [
  0 1 0,0 1 0,
  0 1 0,0 1 0] }
}
}
DEF SHAPE_37 Shape {
 appearance USE APP_2
 geometry DEF FACE_37 IndexedFaceSet {
  coord DEF COORD_37 Coordinate { point [
  0.87401575 -0.12598425 -1.1181102,0.87401575 -0.12598425 0,
  0.87401575 0.12598425 -1.1181102,0.87401575 0.12598425 0] }
 coordIndex [
  1,2,0,-1,1,3,2,-1]
  normalPerVertex TRUE
  normal DEF NORM_37 Normal { vector [
  -1 0 0,-1 0 0,
  -1 0 0,-1 0 0] }
}
}
DEF SHAPE_38 Shape {
 appearance USE APP_2
 geometry DEF FACE_38 IndexedFaceSet {
  coord DEF COORD_38 Coordinate { point [
  1.1259843 -0.12598425 -1.1181102,1.1259843 -0.12598425 0,
  0.87401575 -0.12598425 -1.1181102,0.87401575 -0.12598425 0] }
 coordIndex [
  1,2,0,-1,1,3,2,-1]
  normalPerVertex TRUE
  normal DEF NORM_38 Normal { vector [
  0 -1 0,0 -1 0,
  0 -1 0,0 -1 0] }
}
}
DEF SHAPE_39 Shape {
 appearance USE APP_2
 geometry DEF FACE_39 IndexedFaceSet {
  coord DEF COORD_39 Coordinate { point [
  1.1259843 -2.1259843 -1.1181102,1.1259843 -2.1259843 0,
  1.1259843 -1.8740157 -1.1181102,1.1259843 -1.8740157 0] }
 coordIndex [
  1,0,2,-1,1,2,3,-1]
  normalPerVertex TRUE
  normal DEF NORM_39 Normal { vector [
  1 0 0,1 0 0,
  1 0 0,1 0 0] }
}
}
DEF SHAPE_40 Shape {
 appearance USE APP_2
 geometry DEF FACE_40 IndexedFaceSet {
  coord DEF COORD_40 Coordinate { point [
  1.1259843 -1.8740157 -1.1181102,1.1259843 -1.8740157 0,
  0.87401575 -1.8740157 -1.1181102,0.87401575 -1.8740157 0] }
 coordIndex [
  1,0,2,-1,1,2,3,-1]
  normalPerVertex TRUE
  normal DEF NORM_40 Normal { vector [
  0 1 0,0 1 0,
  0 1 0,0 1 0] }
}
}
DEF SHAPE_41 Shape {
 appearance USE APP_2
 geometry DEF FACE_41 IndexedFaceSet {
  coord DEF COORD_41 Coordinate { point [
  0.87401575 -2.1259843 -1.1181102,0.87401575 -2.1259843 0,
  0.87401575 -1.8740157 -1.1181102,0.87401575 -1.8740157 0] }
 coordIndex [
  1,2,0,-1,1,3,2,-1]
  normalPerVertex TRUE
  normal DEF NORM_41 Normal { vector [
  -1 0 0,-1 0 0,
  -1 0 0,-1 0 0] }
}
}
DEF SHAPE_42 Shape {
 appearance USE APP_2
 geometry DEF FACE_42 IndexedFaceSet {
  coord DEF COORD_42 Coordinate { point [
  1.1259843 -2.1259843 -1.1181102,1.1259843 -2.1259843 0,
  0.87401575 -2.1259843 -1.1181102,0.87401575 -2.1259843 0] }
 coordIndex [
  1,2,0,-1,1,3,2,-1]
  normalPerVertex TRUE
  normal DEF NORM_42 Normal { vector [
  0 -1 0,0 -1 0,
  0 -1 0,0 -1 0] }
}
}
DEF SHAPE_43 Shape {
 appearance USE APP_2
 geometry DEF FACE_43 IndexedFaceSet {
  coord DEF COORD_43 Coordinate { point [
  0.12598425 -2.1259843 -1.1181102,0.12598425 -2.1259843 0,
  0.12598425 -1.8740157 -1.1181102,0.12598425 -1.8740157 0] }
 coordIndex [
  1,0,2,-1,1,2,3,-1]
  normalPerVertex TRUE
  normal DEF NORM_43 Normal { vector [
  1 0 0,1 0 0,
  1 0 0,1 0 0] }
}
}
DEF SHAPE_44 Shape {
 appearance USE APP_2
 geometry DEF FACE_44 IndexedFaceSet {
  coord DEF COORD_44 Coordinate { point [
  0.12598425 -1.8740157 -1.1181102,0.12598425 -1.8740157 0,
  -0.12598425 -1.8740157 -1.1181102,-0.12598425 -1.8740157 0] }
 coordIndex [
  1,0,2,-1,1,2,3,-1]
  normalPerVertex TRUE
  normal DEF NORM_44 Normal { vector [
  0 1 0,0 1 0,
  0 1 0,0 1 0] }
}
}
DEF SHAPE_45 Shape {
 appearance USE APP_2
 geometry DEF FACE_45 IndexedFaceSet {
  coord DEF COORD_45 Coordinate { point [
  -0.12598425 -2.1259843 -1.1181102,-0.12598425 -2.1259843 0,
  -0.12598425 -1.8740157 -1.1181102,-0.12598425 -1.8740157 0] }
 coordIndex [
  1,2,0,-1,1,3,2,-1]
  normalPerVertex TRUE
  normal DEF NORM_45 Normal { vector [
  -1 0 0,-1 0 0,
  -1 0 0,-1 0 0] }
}
}
DEF SHAPE_46 Shape {
 appearance USE APP_2
 geometry DEF FACE_46 IndexedFaceSet {
  coord DEF COORD_46 Coordinate { point [
  0.12598425 -2.1259843 -1.1181102,0.12598425 -2.1259843 0,
  -0.12598425 -2.1259843 -1.1181102,-0.12598425 -2.1259843 0] }
 coordIndex [
  1,2,0,-1,1,3,2,-1]
  normalPerVertex TRUE
  normal DEF NORM_46 Normal { vector [
  0 -1 0,0 -1 0,
  0 -1 0,0 -1 0] }
}
}
DEF SHAPE_47 Shape {
 appearance USE APP_2
 geometry DEF FACE_47 IndexedFaceSet {
  coord DEF COORD_47 Coordinate { point [
  1.1259843 -1.1259843 1,1.1259843 -1.1259843 3.2992126,
  1.1259843 -0.87401575 1,1.1259843 -0.87401575 3.2992126] }
 coordIndex [
  1,0,2,-1,1,2,3,-1]
  normalPerVertex TRUE
  normal DEF NORM_47 Normal { vector [
  1 0 0,1 0 0,
  1 0 0,1 0 0] }
}
}
DEF SHAPE_48 Shape {
 appearance USE APP_2
 geometry DEF FACE_48 IndexedFaceSet {
  coord DEF COORD_48 Coordinate { point [
  1.1259843 -0.87401575 1,1.1259843 -0.87401575 3.2992126,
  0.87401575 -0.87401575 1,0.87401575 -0.87401575 3.2992126] }
 coordIndex [
  1,0,2,-1,1,2,3,-1]
  normalPerVertex TRUE
  normal DEF NORM_48 Normal { vector [
  0 1 0,0 1 0,
  0 1 0,0 1 0] }
}
}
DEF SHAPE_49 Shape {
 appearance USE APP_2
 geometry DEF FACE_49 IndexedFaceSet {
  coord DEF COORD_49 Coordinate { point [
  0.87401575 -1.1259843 1,0.87401575 -1.1259843 3.2992126,
  0.87401575 -0.87401575 1,0.87401575 -0.87401575 3.2992126] }
 coordIndex [
  1,2,0,-1,1,3,2,-1]
  normalPerVertex TRUE
  normal DEF NORM_49 Normal { vector [
  -1 0 0,-1 0 0,
  -1 0 0,-1 0 0] }
}
}
DEF SHAPE_50 Shape {
 appearance USE APP_2
 geometry DEF FACE_50 IndexedFaceSet {
  coord DEF COORD_50 Coordinate { point [
  1.1259843 -1.1259843 1,1.1259843 -1.1259843 3.2992126,
  0.87401575 -1.1259843 1,0.87401575 -1.1259843 3.2992126] }
 coordIndex [
  1,2,0,-1,1,3,2,-1]
  normalPerVertex TRUE
  normal DEF NORM_50 Normal { vector [
  0 -1 0,0 -1 0,
  0 -1 0,0 -1 0] }
}
}
DEF SHAPE_51 Shape {
 appearance USE APP_2
 geometry DEF FACE_51 IndexedFaceSet {
  coord DEF COORD_51 Coordinate { point [
  0.12598425 -0.87401575 1,0.12598425 -0.87401575 3.2992126,
  -0.12598425 -0.87401575 1,-0.12598425 -0.87401575 3.2992126] }
 coordIndex [
  1,0,2,-1,1,2,3,-1]
  normalPerVertex TRUE
  normal DEF NORM_51 Normal { vector [
  0 1 0,0 1 0,
  0 1 0,0 1 0] }
}
}
DEF SHAPE_52 Shape {
 appearance USE APP_2
 geometry DEF FACE_52 IndexedFaceSet {
  coord DEF COORD_52 Coordinate { point [
  -0.12598425 -1.1259843 1,-0.12598425 -1.1259843 3.2992126,
  -0.12598425 -0.87401575 1,-0.12598425 -0.87401575 3.2992126] }
 coordIndex [
  1,2,0,-1,1,3,2,-1]
  normalPerVertex TRUE
  normal DEF NORM_52 Normal { vector [
  -1 0 0,-1 0 0,
  -1 0 0,-1 0 0] }
}
}
DEF SHAPE_53 Shape {
 appearance USE APP_2
 geometry DEF FACE_53 IndexedFaceSet {
  coord DEF COORD_53 Coordinate { point [
  0.12598425 -1.1259843 1,0.12598425 -1.1259843 3.2992126,
  -0.12598425 -1.1259843 1,-0.12598425 -1.1259843 3.2992126] }
 coordIndex [
  1,2,0,-1,1,3,2,-1]
  normalPerVertex TRUE
  normal DEF NORM_53 Normal { vector [
  0 -1 0,0 -1 0,
  0 -1 0,0 -1 0] }
}
}
DEF SHAPE_54 Shape {
 appearance USE APP_2
 geometry DEF FACE_54 IndexedFaceSet {
  coord DEF COORD_54 Coordinate { point [
  0.12598425 -1.1259843 1,0.12598425 -1.1259843 3.2992126,
  0.12598425 -0.87401575 1,0.12598425 -0.87401575 3.2992126] }
 coordIndex [
  1,0,2,-1,1,2,3,-1]
  normalPerVertex TRUE
  normal DEF NORM_54 Normal { vector [
  1 0 0,1 0 0,
  1 0 0,1 0 0] }
}
}
DEF SHAPE_55 Shape {
 appearance USE APP_2
 geometry DEF FACE_55 IndexedFaceSet {
  coord DEF COORD_55 Coordinate { point [
  0.12598425 -0.12598425 1,0.12598425 -0.12598425 3.2992126,
  0.12598425 0.12598425 1,0.12598425 0.12598425 3.2992126] }
 coordIndex [
  1,0,2,-1,1,2,3,-1]
  normalPerVertex TRUE
  normal DEF NORM_55 Normal { vector [
  1 0 0,1 0 0,
  1 0 0,1 0 0] }
}
}
DEF SHAPE_56 Shape {
 appearance USE APP_2
 geometry DEF FACE_56 IndexedFaceSet {
  coord DEF COORD_56 Coordinate { point [
  0.12598425 0.12598425 1,0.12598425 0.12598425 3.2992126,
  -0.12598425 0.12598425 1,-0.12598425 0.12598425 3.2992126] }
 coordIndex [
  1,0,2,-1,1,2,3,-1]
  normalPerVertex TRUE
  normal DEF NORM_56 Normal { vector [
  0 1 0,0 1 0,
  0 1 0,0 1 0] }
}
}
DEF SHAPE_57 Shape {
 appearance USE APP_2
 geometry DEF FACE_57 IndexedFaceSet {
  coord DEF COORD_57 Coordinate { point [
  -0.12598425 -0.12598425 1,-0.12598425 -0.12598425 3.2992126,
  -0.12598425 0.12598425 1,-0.12598425 0.12598425 3.2992126] }
 coordIndex [
  1,2,0,-1,1,3,2,-1]
  normalPerVertex TRUE
  normal DEF NORM_57 Normal { vector [
  -1 0 0,-1 0 0,
  -1 0 0,-1 0 0] }
}
}
DEF SHAPE_58 Shape {
 appearance USE APP_2
 geometry DEF FACE_58 IndexedFaceSet {
  coord DEF COORD_58 Coordinate { point [
  0.12598425 -0.12598425 1,0.12598425 -0.12598425 3.2992126,
  -0.12598425 -0.12598425 1,-0.12598425 -0.12598425 3.2992126] }
 coordIndex [
  1,2,0,-1,1,3,2,-1]
  normalPerVertex TRUE
  normal DEF NORM_58 Normal { vector [
  0 -1 0,0 -1 0,
  0 -1 0,0 -1 0] }
}
}
DEF SHAPE_59 Shape {
 appearance USE APP_2
 geometry DEF FACE_59 IndexedFaceSet {
  coord DEF COORD_59 Coordinate { point [
  1.1259843 -0.12598425 1,1.1259843 -0.12598425 3.2992126,
  1.1259843 0.12598425 1,1.1259843 0.12598425 3.2992126] }
 coordIndex [
  1,0,2,-1,1,2,3,-1]
  normalPerVertex TRUE
  normal DEF NORM_59 Normal { vector [
  1 0 0,1 0 0,
  1 0 0,1 0 0] }
}
}
DEF SHAPE_60 Shape {
 appearance USE APP_2
 geometry DEF FACE_60 IndexedFaceSet {
  coord DEF COORD_60 Coordinate { point [
  1.1259843 0.12598425 1,1.1259843 0.12598425 3.2992126,
  0.87401575 0.12598425 1,0.87401575 0.12598425 3.2992126] }
 coordIndex [
  1,0,2,-1,1,2,3,-1]
  normalPerVertex TRUE
  normal DEF NORM_60 Normal { vector [
  0 1 0,0 1 0,
  0 1 0,0 1 0] }
}
}
DEF SHAPE_61 Shape {
 appearance USE APP_2
 geometry DEF FACE_61 IndexedFaceSet {
  coord DEF COORD_61 Coordinate { point [
  0.87401575 -0.12598425 1,0.87401575 -0.12598425 3.2992126,
  0.87401575 0.12598425 1,0.87401575 0.12598425 3.2992126] }
 coordIndex [
  1,2,0,-1,1,3,2,-1]
  normalPerVertex TRUE
  normal DEF NORM_61 Normal { vector [
  -1 0 0,-1 0 0,
  -1 0 0,-1 0 0] }
}
}
DEF SHAPE_62 Shape {
 appearance USE APP_2
 geometry DEF FACE_62 IndexedFaceSet {
  coord DEF COORD_62 Coordinate { point [
  1.1259843 -0.12598425 1,1.1259843 -0.12598425 3.2992126,
  0.87401575 -0.12598425 1,0.87401575 -0.12598425 3.2992126] }
 coordIndex [
  1,2,0,-1,1,3,2,-1]
  normalPerVertex TRUE
  normal DEF NORM_62 Normal { vector [
  0 -1 0,0 -1 0,
  0 -1 0,0 -1 0] }
}
}
DEF SHAPE_63 Shape {
 appearance USE APP_2
 geometry DEF FACE_63 IndexedFaceSet {
  coord DEF COORD_63 Coordinate { point [
  1.1259843 -2.1259843 1,1.1259843 -2.1259843 3.2992126,
  1.1259843 -1.8740157 1,1.1259843 -1.8740157 3.2992126] }
 coordIndex [
  1,0,2,-1,1,2,3,-1]
  normalPerVertex TRUE
  normal DEF NORM_63 Normal { vector [
  1 0 0,1 0 0,
  1 0 0,1 0 0] }
}
}
DEF SHAPE_64 Shape {
 appearance USE APP_2
 geometry DEF FACE_64 IndexedFaceSet {
  coord DEF COORD_64 Coordinate { point [
  1.1259843 -1.8740157 1,1.1259843 -1.8740157 3.2992126,
  0.87401575 -1.8740157 1,0.87401575 -1.8740157 3.2992126] }
 coordIndex [
  1,0,2,-1,1,2,3,-1]
  normalPerVertex TRUE
  normal DEF NORM_64 Normal { vector [
  0 1 0,0 1 0,
  0 1 0,0 1 0] }
}
}
DEF SHAPE_65 Shape {
 appearance USE APP_2
 geometry DEF FACE_65 IndexedFaceSet {
  coord DEF COORD_65 Coordinate { point [
  0.87401575 -2.1259843 1,0.87401575 -2.1259843 3.2992126,
  0.87401575 -1.8740157 1,0.87401575 -1.8740157 3.2992126] }
 coordIndex [
  1,2,0,-1,1,3,2,-1]
  normalPerVertex TRUE
  normal DEF NORM_65 Normal { vector [
  -1 0 0,-1 0 0,
  -1 0 0,-1 0 0] }
}
}
DEF SHAPE_66 Shape {
 appearance USE APP_2
 geometry DEF FACE_66 IndexedFaceSet {
  coord DEF COORD_66 Coordinate { point [
  1.1259843 -2.1259843 1,1.1259843 -2.1259843 3.2992126,
  0.87401575 -2.1259843 1,0.87401575 -2.1259843 3.2992126] }
 coordIndex [
  1,2,0,-1,1,3,2,-1]
  normalPerVertex TRUE
  normal DEF NORM_66 Normal { vector [
  0 -1 0,0 -1 0,
  0 -1 0,0 -1 0] }
}
}
DEF SHAPE_67 Shape {
 appearance USE APP_2
 geometry DEF FACE_67 IndexedFaceSet {
  coord DEF COORD_67 Coordinate { point [
  0.12598425 -2.1259843 1,0.12598425 -2.1259843 3.2992126,
  0.12598425 -1.8740157 1,0.12598425 -1.8740157 3.2992126] }
 coordIndex [
  1,0,2,-1,1,2,3,-1]
  normalPerVertex TRUE
  normal DEF NORM_67 Normal { vector [
  1 0 0,1 0 0,
  1 0 0,1 0 0] }
}
}
DEF SHAPE_68 Shape {
 appearance USE APP_2
 geometry DEF FACE_68 IndexedFaceSet {
  coord DEF COORD_68 Coordinate { point [
  0.12598425 -1.8740157 1,0.12598425 -1.8740157 3.2992126,
  -0.12598425 -1.8740157 1,-0.12598425 -1.8740157 3.2992126] }
 coordIndex [
  1,0,2,-1,1,2,3,-1]
  normalPerVertex TRUE
  normal DEF NORM_68 Normal { vector [
  0 1 0,0 1 0,
  0 1 0,0 1 0] }
}
}
DEF SHAPE_69 Shape {
 appearance USE APP_2
 geometry DEF FACE_69 IndexedFaceSet {
  coord DEF COORD_69 Coordinate { point [
  -0.12598425 -2.1259843 1,-0.12598425 -2.1259843 3.2992126,
  -0.12598425 -1.8740157 1,-0.12598425 -1.8740157 3.2992126] }
 coordIndex [
  1,2,0,-1,1,3,2,-1]
  normalPerVertex TRUE
  normal DEF NORM_69 Normal { vector [
  -1 0 0,-1 0 0,
  -1 0 0,-1 0 0] }
}
}
DEF SHAPE_70 Shape {
 appearance USE APP_2
 geometry DEF FACE_70 IndexedFaceSet {
  coord DEF COORD_70 Coordinate { point [
  0.12598425 -2.1259843 1,0.12598425 -2.1259843 3.2992126,
  -0.12598425 -2.1259843 1,-0.12598425 -2.1259843 3.2992126] }
 coordIndex [
  1,2,0,-1,1,3,2,-1]
  normalPerVertex TRUE
  normal DEF NORM_70 Normal { vector [
  0 -1 0,0 -1 0,
  0 -1 0,0 -1 0] }
}
}
DEF SHAPE_71 Shape {
 appearance USE APP_2
 geometry DEF FACE_71 IndexedFaceSet {
  coord DEF COORD_71 Coordinate { point [
  1.1259843 -1.1259843 -1.1181102,1.0629921 -1.0629921 -1.1811024,
  1.1259843 -0.87401575 -1.1181102,1.0629921 -0.93700787 -1.1811024] }
 coordIndex [
  3,0,1,-1,3,2,0,-1]
  normalPerVertex TRUE
  normal DEF NORM_71 Normal { vector [
  0.70710678 0 -0.70710678,0.70710678 0 -0.70710678,
  0.70710678 0 -0.70710678,0.70710678 0 -0.70710678] }
}
}
DEF SHAPE_72 Shape {
 appearance USE APP_2
 geometry DEF FACE_72 IndexedFaceSet {
  coord DEF COORD_72 Coordinate { point [
  0.93700787 -0.93700787 -1.1811024,1.0629921 -0.93700787 -1.1811024,
  1.1259843 -0.87401575 -1.1181102,0.87401575 -0.87401575 -1.1181102] }
 coordIndex [
  0,2,1,-1,0,3,2,-1]
  normalPerVertex TRUE
  normal DEF NORM_72 Normal { vector [
  0 0.70710678 -0.70710678,0 0.70710678 -0.70710678,
  0 0.70710678 -0.70710678,0 0.70710678 -0.70710678] }
}
}
DEF SHAPE_73 Shape {
 appearance USE APP_2
 geometry DEF FACE_73 IndexedFaceSet {
  coord DEF COORD_73 Coordinate { point [
  0.87401575 -1.1259843 -1.1181102,0.93700787 -1.0629921 -1.1811024,
  0.87401575 -0.87401575 -1.1181102,0.93700787 -0.93700787 -1.1811024] }
 coordIndex [
  3,1,0,-1,3,0,2,-1]
  normalPerVertex TRUE
  normal DEF NORM_73 Normal { vector [
  -0.70710678 0 -0.70710678,-0.70710678 0 -0.70710678,
  -0.70710678 0 -0.70710678,-0.70710678 0 -0.70710678] }
}
}
DEF SHAPE_74 Shape {
 appearance USE APP_2
 geometry DEF FACE_74 IndexedFaceSet {
  coord DEF COORD_74 Coordinate { point [
  0.93700787 -1.0629921 -1.1811024,1.0629921 -1.0629921 -1.1811024,
  1.1259843 -1.1259843 -1.1181102,0.87401575 -1.1259843 -1.1181102] }
 coordIndex [
  0,1,2,-1,0,2,3,-1]
  normalPerVertex TRUE
  normal DEF NORM_74 Normal { vector [
  0 -0.70710678 -0.70710678,0 -0.70710678 -0.70710678,
  0 -0.70710678 -0.70710678,0 -0.70710678 -0.70710678] }
}
}
DEF SHAPE_75 Shape {
 appearance USE APP_2
 geometry DEF FACE_75 IndexedFaceSet {
  coord DEF COORD_75 Coordinate { point [
  -0.062992126 -0.93700787 -1.1811024,0.062992126 -0.93700787 -1.1811024,
  0.12598425 -0.87401575 -1.1181102,-0.12598425 -0.87401575 -1.1181102] }
 coordIndex [
  0,2,1,-1,0,3,2,-1]
  normalPerVertex TRUE
  normal DEF NORM_75 Normal { vector [
  0 0.70710678 -0.70710678,0 0.70710678 -0.70710678,
  0 0.70710678 -0.70710678,0 0.70710678 -0.70710678] }
}
}
DEF SHAPE_76 Shape {
 appearance USE APP_2
 geometry DEF FACE_76 IndexedFaceSet {
  coord DEF COORD_76 Coordinate { point [
  -0.12598425 -1.1259843 -1.1181102,-0.062992126 -1.0629921 -1.1811024,
  -0.12598425 -0.87401575 -1.1181102,-0.062992126 -0.93700787 -1.1811024] }
 coordIndex [
  3,1,0,-1,3,0,2,-1]
  normalPerVertex TRUE
  normal DEF NORM_76 Normal { vector [
  -0.70710678 0 -0.70710678,-0.70710678 0 -0.70710678,
  -0.70710678 0 -0.70710678,-0.70710678 0 -0.70710678] }
}
}
DEF SHAPE_77 Shape {
 appearance USE APP_2
 geometry DEF FACE_77 IndexedFaceSet {
  coord DEF COORD_77 Coordinate { point [
  -0.062992126 -1.0629921 -1.1811024,0.062992126 -1.0629921 -1.1811024,
  0.12598425 -1.1259843 -1.1181102,-0.12598425 -1.1259843 -1.1181102] }
 coordIndex [
  0,1,2,-1,0,2,3,-1]
  normalPerVertex TRUE
  normal DEF NORM_77 Normal { vector [
  0 -0.70710678 -0.70710678,0 -0.70710678 -0.70710678,
  0 -0.70710678 -0.70710678,0 -0.70710678 -0.70710678] }
}
}
DEF SHAPE_78 Shape {
 appearance USE APP_2
 geometry DEF FACE_78 IndexedFaceSet {
  coord DEF COORD_78 Coordinate { point [
  0.12598425 -1.1259843 -1.1181102,0.062992126 -1.0629921 -1.1811024,
  0.12598425 -0.87401575 -1.1181102,0.062992126 -0.93700787 -1.1811024] }
 coordIndex [
  2,0,1,-1,3,2,1,-1]
  normalPerVertex TRUE
  normal DEF NORM_78 Normal { vector [
  0.70710678 0 -0.70710678,0.70710678 0 -0.70710678,
  0.70710678 0 -0.70710678,0.70710678 0 -0.70710678] }
}
}
DEF SHAPE_79 Shape {
 appearance USE APP_2
 geometry DEF FACE_79 IndexedFaceSet {
  coord DEF COORD_79 Coordinate { point [
  0.12598425 -0.12598425 -1.1181102,0.062992126 -0.062992126 -1.1811024,
  0.12598425 0.12598425 -1.1181102,0.062992126 0.062992126 -1.1811024] }
 coordIndex [
  3,0,1,-1,3,2,0,-1]
  normalPerVertex TRUE
  normal DEF NORM_79 Normal { vector [
  0.70710678 0 -0.70710678,0.70710678 0 -0.70710678,
  0.70710678 0 -0.70710678,0.70710678 0 -0.70710678] }
}
}
DEF SHAPE_80 Shape {
 appearance USE APP_2
 geometry DEF FACE_80 IndexedFaceSet {
  coord DEF COORD_80 Coordinate { point [
  -0.062992126 0.062992126 -1.1811024,0.062992126 0.062992126 -1.1811024,
  0.12598425 0.12598425 -1.1181102,-0.12598425 0.12598425 -1.1181102] }
 coordIndex [
  0,2,1,-1,0,3,2,-1]
  normalPerVertex TRUE
  normal DEF NORM_80 Normal { vector [
  0 0.70710678 -0.70710678,0 0.70710678 -0.70710678,
  0 0.70710678 -0.70710678,0 0.70710678 -0.70710678] }
}
}
DEF SHAPE_81 Shape {
 appearance USE APP_2
 geometry DEF FACE_81 IndexedFaceSet {
  coord DEF COORD_81 Coordinate { point [
  -0.12598425 -0.12598425 -1.1181102,-0.062992126 -0.062992126 -1.1811024,
  -0.12598425 0.12598425 -1.1181102,-0.062992126 0.062992126 -1.1811024] }
 coordIndex [
  3,1,0,-1,3,0,2,-1]
  normalPerVertex TRUE
  normal DEF NORM_81 Normal { vector [
  -0.70710678 0 -0.70710678,-0.70710678 0 -0.70710678,
  -0.70710678 0 -0.70710678,-0.70710678 0 -0.70710678] }
}
}
DEF SHAPE_82 Shape {
 appearance USE APP_2
 geometry DEF FACE_82 IndexedFaceSet {
  coord DEF COORD_82 Coordinate { point [
  -0.062992126 -0.062992126 -1.1811024,0.062992126 -0.062992126 -1.1811024,
  0.12598425 -0.12598425 -1.1181102,-0.12598425 -0.12598425 -1.1181102] }
 coordIndex [
  0,1,2,-1,0,2,3,-1]
  normalPerVertex TRUE
  normal DEF NORM_82 Normal { vector [
  0 -0.70710678 -0.70710678,0 -0.70710678 -0.70710678,
  0 -0.70710678 -0.70710678,0 -0.70710678 -0.70710678] }
}
}
DEF SHAPE_83 Shape {
 appearance USE APP_2
 geometry DEF FACE_83 IndexedFaceSet {
  coord DEF COORD_83 Coordinate { point [
  1.1259843 -0.12598425 -1.1181102,1.0629921 -0.062992126 -1.1811024,
  1.1259843 0.12598425 -1.1181102,1.0629921 0.062992126 -1.1811024] }
 coordIndex [
  3,0,1,-1,3,2,0,-1]
  normalPerVertex TRUE
  normal DEF NORM_83 Normal { vector [
  0.70710678 0 -0.70710678,0.70710678 0 -0.70710678,
  0.70710678 0 -0.70710678,0.70710678 0 -0.70710678] }
}
}
DEF SHAPE_84 Shape {
 appearance USE APP_2
 geometry DEF FACE_84 IndexedFaceSet {
  coord DEF COORD_84 Coordinate { point [
  0.93700787 0.062992126 -1.1811024,1.0629921 0.062992126 -1.1811024,
  1.1259843 0.12598425 -1.1181102,0.87401575 0.12598425 -1.1181102] }
 coordIndex [
  3,2,1,-1,0,3,1,-1]
  normalPerVertex TRUE
  normal DEF NORM_84 Normal { vector [
  0 0.70710678 -0.70710678,0 0.70710678 -0.70710678,
  0 0.70710678 -0.70710678,0 0.70710678 -0.70710678] }
}
}
DEF SHAPE_85 Shape {
 appearance USE APP_2
 geometry DEF FACE_85 IndexedFaceSet {
  coord DEF COORD_85 Coordinate { point [
  0.87401575 -0.12598425 -1.1181102,0.93700787 -0.062992126 -1.1811024,
  0.87401575 0.12598425 -1.1181102,0.93700787 0.062992126 -1.1811024] }
 coordIndex [
  3,1,0,-1,3,0,2,-1]
  normalPerVertex TRUE
  normal DEF NORM_85 Normal { vector [
  -0.70710678 0 -0.70710678,-0.70710678 0 -0.70710678,
  -0.70710678 0 -0.70710678,-0.70710678 0 -0.70710678] }
}
}
DEF SHAPE_86 Shape {
 appearance USE APP_2
 geometry DEF FACE_86 IndexedFaceSet {
  coord DEF COORD_86 Coordinate { point [
  0.93700787 -0.062992126 -1.1811024,1.0629921 -0.062992126 -1.1811024,
  1.1259843 -0.12598425 -1.1181102,0.87401575 -0.12598425 -1.1181102] }
 coordIndex [
  0,1,2,-1,0,2,3,-1]
  normalPerVertex TRUE
  normal DEF NORM_86 Normal { vector [
  0 -0.70710678 -0.70710678,0 -0.70710678 -0.70710678,
  0 -0.70710678 -0.70710678,0 -0.70710678 -0.70710678] }
}
}
DEF SHAPE_87 Shape {
 appearance USE APP_2
 geometry DEF FACE_87 IndexedFaceSet {
  coord DEF COORD_87 Coordinate { point [
  1.1259843 -2.1259843 -1.1181102,1.0629921 -2.0629921 -1.1811024,
  1.1259843 -1.8740157 -1.1181102,1.0629921 -1.9370079 -1.1811024] }
 coordIndex [
  3,0,1,-1,3,2,0,-1]
  normalPerVertex TRUE
  normal DEF NORM_87 Normal { vector [
  0.70710678 0 -0.70710678,0.70710678 0 -0.70710678,
  0.70710678 0 -0.70710678,0.70710678 0 -0.70710678] }
}
}
DEF SHAPE_88 Shape {
 appearance USE APP_2
 geometry DEF FACE_88 IndexedFaceSet {
  coord DEF COORD_88 Coordinate { point [
  0.93700787 -1.9370079 -1.1811024,1.0629921 -1.9370079 -1.1811024,
  1.1259843 -1.8740157 -1.1181102,0.87401575 -1.8740157 -1.1181102] }
 coordIndex [
  0,2,1,-1,0,3,2,-1]
  normalPerVertex TRUE
  normal DEF NORM_88 Normal { vector [
  0 0.70710678 -0.70710678,0 0.70710678 -0.70710678,
  0 0.70710678 -0.70710678,0 0.70710678 -0.70710678] }
}
}
DEF SHAPE_89 Shape {
 appearance USE APP_2
 geometry DEF FACE_89 IndexedFaceSet {
  coord DEF COORD_89 Coordinate { point [
  0.87401575 -2.1259843 -1.1181102,0.93700787 -2.0629921 -1.1811024,
  0.87401575 -1.8740157 -1.1181102,0.93700787 -1.9370079 -1.1811024] }
 coordIndex [
  3,1,0,-1,3,0,2,-1]
  normalPerVertex TRUE
  normal DEF NORM_89 Normal { vector [
  -0.70710678 0 -0.70710678,-0.70710678 0 -0.70710678,
  -0.70710678 0 -0.70710678,-0.70710678 0 -0.70710678] }
}
}
DEF SHAPE_90 Shape {
 appearance USE APP_2
 geometry DEF FACE_90 IndexedFaceSet {
  coord DEF COORD_90 Coordinate { point [
  0.93700787 -2.0629921 -1.1811024,1.0629921 -2.0629921 -1.1811024,
  1.1259843 -2.1259843 -1.1181102,0.87401575 -2.1259843 -1.1181102] }
 coordIndex [
  0,1,2,-1,0,2,3,-1]
  normalPerVertex TRUE
  normal DEF NORM_90 Normal { vector [
  0 -0.70710678 -0.70710678,0 -0.70710678 -0.70710678,
  0 -0.70710678 -0.70710678,0 -0.70710678 -0.70710678] }
}
}
DEF SHAPE_91 Shape {
 appearance USE APP_2
 geometry DEF FACE_91 IndexedFaceSet {
  coord DEF COORD_91 Coordinate { point [
  0.12598425 -2.1259843 -1.1181102,0.062992126 -2.0629921 -1.1811024,
  0.12598425 -1.8740157 -1.1181102,0.062992126 -1.9370079 -1.1811024] }
 coordIndex [
  2,0,1,-1,3,2,1,-1]
  normalPerVertex TRUE
  normal DEF NORM_91 Normal { vector [
  0.70710678 0 -0.70710678,0.70710678 0 -0.70710678,
  0.70710678 0 -0.70710678,0.70710678 0 -0.70710678] }
}
}
DEF SHAPE_92 Shape {
 appearance USE APP_2
 geometry DEF FACE_92 IndexedFaceSet {
  coord DEF COORD_92 Coordinate { point [
  -0.062992126 -1.9370079 -1.1811024,0.062992126 -1.9370079 -1.1811024,
  0.12598425 -1.8740157 -1.1181102,-0.12598425 -1.8740157 -1.1181102] }
 coordIndex [
  0,2,1,-1,0,3,2,-1]
  normalPerVertex TRUE
  normal DEF NORM_92 Normal { vector [
  0 0.70710678 -0.70710678,0 0.70710678 -0.70710678,
  0 0.70710678 -0.70710678,0 0.70710678 -0.70710678] }
}
}
DEF SHAPE_93 Shape {
 appearance USE APP_2
 geometry DEF FACE_93 IndexedFaceSet {
  coord DEF COORD_93 Coordinate { point [
  -0.12598425 -2.1259843 -1.1181102,-0.062992126 -2.0629921 -1.1811024,
  -0.12598425 -1.8740157 -1.1181102,-0.062992126 -1.9370079 -1.1811024] }
 coordIndex [
  3,1,0,-1,3,0,2,-1]
  normalPerVertex TRUE
  normal DEF NORM_93 Normal { vector [
  -0.70710678 0 -0.70710678,-0.70710678 0 -0.70710678,
  -0.70710678 0 -0.70710678,-0.70710678 0 -0.70710678] }
}
}
DEF SHAPE_94 Shape {
 appearance USE APP_2
 geometry DEF FACE_94 IndexedFaceSet {
  coord DEF COORD_94 Coordinate { point [
  -0.062992126 -2.0629921 -1.1811024,0.062992126 -2.0629921 -1.1811024,
  0.12598425 -2.1259843 -1.1181102,-0.12598425 -2.1259843 -1.1181102] }
 coordIndex [
  0,1,2,-1,0,2,3,-1]
  normalPerVertex TRUE
  normal DEF NORM_94 Normal { vector [
  0 -0.70710678 -0.70710678,0 -0.70710678 -0.70710678,
  0 -0.70710678 -0.70710678,0 -0.70710678 -0.70710678] }
}
}
DEF SHAPE_95 Shape {
 appearance USE APP_2
 geometry DEF FACE_95 IndexedFaceSet {
  coord DEF COORD_95 Coordinate { point [
  1.1259843 -1.1259843 3.2992126,1.0629921 -1.0629921 3.3622047,
  1.1259843 -0.87401575 3.2992126,1.0629921 -0.93700787 3.3622047] }
 coordIndex [
  3,1,0,-1,3,0,2,-1]
  normalPerVertex TRUE
  normal DEF NORM_95 Normal { vector [
  0.70710678 0 0.70710678,0.70710678 0 0.70710678,
  0.70710678 0 0.70710678,0.70710678 0 0.70710678] }
}
}
DEF SHAPE_96 Shape {
 appearance USE APP_2
 geometry DEF FACE_96 IndexedFaceSet {
  coord DEF COORD_96 Coordinate { point [
  0.93700787 -0.93700787 3.3622047,1.0629921 -0.93700787 3.3622047,
  1.1259843 -0.87401575 3.2992126,0.87401575 -0.87401575 3.2992126] }
 coordIndex [
  0,1,2,-1,0,2,3,-1]
  normalPerVertex TRUE
  normal DEF NORM_96 Normal { vector [
  0 0.70710678 0.70710678,0 0.70710678 0.70710678,
  0 0.70710678 0.70710678,0 0.70710678 0.70710678] }
}
}
DEF SHAPE_97 Shape {
 appearance USE APP_2
 geometry DEF FACE_97 IndexedFaceSet {
  coord DEF COORD_97 Coordinate { point [
  0.87401575 -1.1259843 3.2992126,0.93700787 -1.0629921 3.3622047,
  0.87401575 -0.87401575 3.2992126,0.93700787 -0.93700787 3.3622047] }
 coordIndex [
  3,0,1,-1,3,2,0,-1]
  normalPerVertex TRUE
  normal DEF NORM_97 Normal { vector [
  -0.70710678 0 0.70710678,-0.70710678 0 0.70710678,
  -0.70710678 0 0.70710678,-0.70710678 0 0.70710678] }
}
}
DEF SHAPE_98 Shape {
 appearance USE APP_2
 geometry DEF FACE_98 IndexedFaceSet {
  coord DEF COORD_98 Coordinate { point [
  0.93700787 -1.0629921 3.3622047,1.0629921 -1.0629921 3.3622047,
  1.1259843 -1.1259843 3.2992126,0.87401575 -1.1259843 3.2992126] }
 coordIndex [
  0,2,1,-1,0,3,2,-1]
  normalPerVertex TRUE
  normal DEF NORM_98 Normal { vector [
  0 -0.70710678 0.70710678,0 -0.70710678 0.70710678,
  0 -0.70710678 0.70710678,0 -0.70710678 0.70710678] }
}
}
DEF SHAPE_99 Shape {
 appearance USE APP_2
 geometry DEF FACE_99 IndexedFaceSet {
  coord DEF COORD_99 Coordinate { point [
  -0.062992126 -0.93700787 3.3622047,0.062992126 -0.93700787 3.3622047,
  0.12598425 -0.87401575 3.2992126,-0.12598425 -0.87401575 3.2992126] }
 coordIndex [
  0,1,2,-1,0,2,3,-1]
  normalPerVertex TRUE
  normal DEF NORM_99 Normal { vector [
  0 0.70710678 0.70710678,0 0.70710678 0.70710678,
  0 0.70710678 0.70710678,0 0.70710678 0.70710678] }
}
}
DEF SHAPE_100 Shape {
 appearance USE APP_2
 geometry DEF FACE_100 IndexedFaceSet {
  coord DEF COORD_100 Coordinate { point [
  -0.12598425 -1.1259843 3.2992126,-0.062992126 -1.0629921 3.3622047,
  -0.12598425 -0.87401575 3.2992126,-0.062992126 -0.93700787 3.3622047] }
 coordIndex [
  3,0,1,-1,3,2,0,-1]
  normalPerVertex TRUE
  normal DEF NORM_100 Normal { vector [
  -0.70710678 0 0.70710678,-0.70710678 0 0.70710678,
  -0.70710678 0 0.70710678,-0.70710678 0 0.70710678] }
}
}
DEF SHAPE_101 Shape {
 appearance USE APP_2
 geometry DEF FACE_101 IndexedFaceSet {
  coord DEF COORD_101 Coordinate { point [
  -0.062992126 -1.0629921 3.3622047,0.062992126 -1.0629921 3.3622047,
  0.12598425 -1.1259843 3.2992126,-0.12598425 -1.1259843 3.2992126] }
 coordIndex [
  0,2,1,-1,0,3,2,-1]
  normalPerVertex TRUE
  normal DEF NORM_101 Normal { vector [
  0 -0.70710678 0.70710678,0 -0.70710678 0.70710678,
  0 -0.70710678 0.70710678,0 -0.70710678 0.70710678] }
}
}
DEF SHAPE_102 Shape {
 appearance USE APP_2
 geometry DEF FACE_102 IndexedFaceSet {
  coord DEF COORD_102 Coordinate { point [
  0.12598425 -1.1259843 3.2992126,0.062992126 -1.0629921 3.3622047,
  0.12598425 -0.87401575 3.2992126,0.062992126 -0.93700787 3.3622047] }
 coordIndex [
  2,1,0,-1,3,1,2,-1]
  normalPerVertex TRUE
  normal DEF NORM_102 Normal { vector [
  0.70710678 0 0.70710678,0.70710678 0 0.70710678,
  0.70710678 0 0.70710678,0.70710678 0 0.70710678] }
}
}
DEF SHAPE_103 Shape {
 appearance USE APP_2
 geometry DEF FACE_103 IndexedFaceSet {
  coord DEF COORD_103 Coordinate { point [
  0.12598425 -0.12598425 3.2992126,0.062992126 -0.062992126 3.3622047,
  0.12598425 0.12598425 3.2992126,0.062992126 0.062992126 3.3622047] }
 coordIndex [
  3,1,0,-1,3,0,2,-1]
  normalPerVertex TRUE
  normal DEF NORM_103 Normal { vector [
  0.70710678 0 0.70710678,0.70710678 0 0.70710678,
  0.70710678 0 0.70710678,0.70710678 0 0.70710678] }
}
}
DEF SHAPE_104 Shape {
 appearance USE APP_2
 geometry DEF FACE_104 IndexedFaceSet {
  coord DEF COORD_104 Coordinate { point [
  -0.062992126 0.062992126 3.3622047,0.062992126 0.062992126 3.3622047,
  0.12598425 0.12598425 3.2992126,-0.12598425 0.12598425 3.2992126] }
 coordIndex [
  0,1,2,-1,0,2,3,-1]
  normalPerVertex TRUE
  normal DEF NORM_104 Normal { vector [
  0 0.70710678 0.70710678,0 0.70710678 0.70710678,
  0 0.70710678 0.70710678,0 0.70710678 0.70710678] }
}
}
DEF SHAPE_105 Shape {
 appearance USE APP_2
 geometry DEF FACE_105 IndexedFaceSet {
  coord DEF COORD_105 Coordinate { point [
  -0.12598425 -0.12598425 3.2992126,-0.062992126 -0.062992126 3.3622047,
  -0.12598425 0.12598425 3.2992126,-0.062992126 0.062992126 3.3622047] }
 coordIndex [
  3,0,1,-1,3,2,0,-1]
  normalPerVertex TRUE
  normal DEF NORM_105 Normal { vector [
  -0.70710678 0 0.70710678,-0.70710678 0 0.70710678,
  -0.70710678 0 0.70710678,-0.70710678 0 0.70710678] }
}
}
DEF SHAPE_106 Shape {
 appearance USE APP_2
 geometry DEF FACE_106 IndexedFaceSet {
  coord DEF COORD_106 Coordinate { point [
  -0.062992126 -0.062992126 3.3622047,0.062992126 -0.062992126 3.3622047,
  0.12598425 -0.12598425 3.2992126,-0.12598425 -0.12598425 3.2992126] }
 coordIndex [
  3,2,1,-1,0,3,1,-1]
  normalPerVertex TRUE
  normal DEF NORM_106 Normal { vector [
  0 -0.70710678 0.70710678,0 -0.70710678 0.70710678,
  0 -0.70710678 0.70710678,0 -0.70710678 0.70710678] }
}
}
DEF SHAPE_107 Shape {
 appearance USE APP_2
 geometry DEF FACE_107 IndexedFaceSet {
  coord DEF COORD_107 Coordinate { point [
  1.1259843 -0.12598425 3.2992126,1.0629921 -0.062992126 3.3622047,
  1.1259843 0.12598425 3.2992126,1.0629921 0.062992126 3.3622047] }
 coordIndex [
  3,1,0,-1,3,0,2,-1]
  normalPerVertex TRUE
  normal DEF NORM_107 Normal { vector [
  0.70710678 0 0.70710678,0.70710678 0 0.70710678,
  0.70710678 0 0.70710678,0.70710678 0 0.70710678] }
}
}
DEF SHAPE_108 Shape {
 appearance USE APP_2
 geometry DEF FACE_108 IndexedFaceSet {
  coord DEF COORD_108 Coordinate { point [
  0.93700787 0.062992126 3.3622047,1.0629921 0.062992126 3.3622047,
  1.1259843 0.12598425 3.2992126,0.87401575 0.12598425 3.2992126] }
 coordIndex [
  3,1,2,-1,0,1,3,-1]
  normalPerVertex TRUE
  normal DEF NORM_108 Normal { vector [
  0 0.70710678 0.70710678,0 0.70710678 0.70710678,
  0 0.70710678 0.70710678,0 0.70710678 0.70710678] }
}
}
DEF SHAPE_109 Shape {
 appearance USE APP_2
 geometry DEF FACE_109 IndexedFaceSet {
  coord DEF COORD_109 Coordinate { point [
  0.87401575 -0.12598425 3.2992126,0.93700787 -0.062992126 3.3622047,
  0.87401575 0.12598425 3.2992126,0.93700787 0.062992126 3.3622047] }
 coordIndex [
  3,0,1,-1,3,2,0,-1]
  normalPerVertex TRUE
  normal DEF NORM_109 Normal { vector [
  -0.70710678 0 0.70710678,-0.70710678 0 0.70710678,
  -0.70710678 0 0.70710678,-0.70710678 0 0.70710678] }
}
}
DEF SHAPE_110 Shape {
 appearance USE APP_2
 geometry DEF FACE_110 IndexedFaceSet {
  coord DEF COORD_110 Coordinate { point [
  0.93700787 -0.062992126 3.3622047,1.0629921 -0.062992126 3.3622047,
  1.1259843 -0.12598425 3.2992126,0.87401575 -0.12598425 3.2992126] }
 coordIndex [
  0,2,1,-1,0,3,2,-1]
  normalPerVertex TRUE
  normal DEF NORM_110 Normal { vector [
  0 -0.70710678 0.70710678,0 -0.70710678 0.70710678,
  0 -0.70710678 0.70710678,0 -0.70710678 0.70710678] }
}
}
DEF SHAPE_111 Shape {
 appearance USE APP_2
 geometry DEF FACE_111 IndexedFaceSet {
  coord DEF COORD_111 Coordinate { point [
  1.1259843 -2.1259843 3.2992126,1.0629921 -2.0629921 3.3622047,
  1.1259843 -1.8740157 3.2992126,1.0629921 -1.9370079 3.3622047] }
 coordIndex [
  3,1,0,-1,3,0,2,-1]
  normalPerVertex TRUE
  normal DEF NORM_111 Normal { vector [
  0.70710678 0 0.70710678,0.70710678 0 0.70710678,
  0.70710678 0 0.70710678,0.70710678 0 0.70710678] }
}
}
DEF SHAPE_112 Shape {
 appearance USE APP_2
 geometry DEF FACE_112 IndexedFaceSet {
  coord DEF COORD_112 Coordinate { point [
  0.93700787 -1.9370079 3.3622047,1.0629921 -1.9370079 3.3622047,
  1.1259843 -1.8740157 3.2992126,0.87401575 -1.8740157 3.2992126] }
 coordIndex [
  0,1,2,-1,0,2,3,-1]
  normalPerVertex TRUE
  normal DEF NORM_112 Normal { vector [
  0 0.70710678 0.70710678,0 0.70710678 0.70710678,
  0 0.70710678 0.70710678,0 0.70710678 0.70710678] }
}
}
DEF SHAPE_113 Shape {
 appearance USE APP_2
 geometry DEF FACE_113 IndexedFaceSet {
  coord DEF COORD_113 Coordinate { point [
  0.87401575 -2.1259843 3.2992126,0.93700787 -2.0629921 3.3622047,
  0.87401575 -1.8740157 3.2992126,0.93700787 -1.9370079 3.3622047] }
 coordIndex [
  3,0,1,-1,3,2,0,-1]
  normalPerVertex TRUE
  normal DEF NORM_113 Normal { vector [
  -0.70710678 0 0.70710678,-0.70710678 0 0.70710678,
  -0.70710678 0 0.70710678,-0.70710678 0 0.70710678] }
}
}
DEF SHAPE_114 Shape {
 appearance USE APP_2
 geometry DEF FACE_114 IndexedFaceSet {
  coord DEF COORD_114 Coordinate { point [
  0.93700787 -2.0629921 3.3622047,1.0629921 -2.0629921 3.3622047,
  1.1259843 -2.1259843 3.2992126,0.87401575 -2.1259843 3.2992126] }
 coordIndex [
  0,2,1,-1,0,3,2,-1]
  normalPerVertex TRUE
  normal DEF NORM_114 Normal { vector [
  0 -0.70710678 0.70710678,0 -0.70710678 0.70710678,
  0 -0.70710678 0.70710678,0 -0.70710678 0.70710678] }
}
}
DEF SHAPE_115 Shape {
 appearance USE APP_2
 geometry DEF FACE_115 IndexedFaceSet {
  coord DEF COORD_115 Coordinate { point [
  0.12598425 -2.1259843 3.2992126,0.062992126 -2.0629921 3.3622047,
  0.12598425 -1.8740157 3.2992126,0.062992126 -1.9370079 3.3622047] }
 coordIndex [
  2,1,0,-1,3,1,2,-1]
  normalPerVertex TRUE
  normal DEF NORM_115 Normal { vector [
  0.70710678 0 0.70710678,0.70710678 0 0.70710678,
  0.70710678 0 0.70710678,0.70710678 0 0.70710678] }
}
}
DEF SHAPE_116 Shape {
 appearance USE APP_2
 geometry DEF FACE_116 IndexedFaceSet {
  coord DEF COORD_116 Coordinate { point [
  -0.062992126 -1.9370079 3.3622047,0.062992126 -1.9370079 3.3622047,
  0.12598425 -1.8740157 3.2992126,-0.12598425 -1.8740157 3.2992126] }
 coordIndex [
  0,1,2,-1,0,2,3,-1]
  normalPerVertex TRUE
  normal DEF NORM_116 Normal { vector [
  0 0.70710678 0.70710678,0 0.70710678 0.70710678,
  0 0.70710678 0.70710678,0 0.70710678 0.70710678] }
}
}
DEF SHAPE_117 Shape {
 appearance USE APP_2
 geometry DEF FACE_117 IndexedFaceSet {
  coord DEF COORD_117 Coordinate { point [
  -0.12598425 -2.1259843 3.2992126,-0.062992126 -2.0629921 3.3622047,
  -0.12598425 -1.8740157 3.2992126,-0.062992126 -1.9370079 3.3622047] }
 coordIndex [
  3,0,1,-1,3,2,0,-1]
  normalPerVertex TRUE
  normal DEF NORM_117 Normal { vector [
  -0.70710678 0 0.70710678,-0.70710678 0 0.70710678,
  -0.70710678 0 0.70710678,-0.70710678 0 0.70710678] }
}
}
DEF SHAPE_118 Shape {
 appearance USE APP_2
 geometry DEF FACE_118 IndexedFaceSet {
  coord DEF COORD_118 Coordinate { point [
  -0.062992126 -2.0629921 3.3622047,0.062992126 -2.0629921 3.3622047,
  0.12598425 -2.1259843 3.2992126,-0.12598425 -2.1259843 3.2992126] }
 coordIndex [
  3,2,1,-1,0,3,1,-1]
  normalPerVertex TRUE
  normal DEF NORM_118 Normal { vector [
  0 -0.70710678 0.70710678,0 -0.70710678 0.70710678,
  0 -0.70710678 0.70710678,0 -0.70710678 0.70710678] }
}
}
DEF SHAPE_119 Shape {
 appearance USE APP_2
 geometry DEF FACE_119 IndexedFaceSet {
  coord DEF COORD_119 Coordinate { point [
  0.93700787 -1.0629921 -1.1811024,1.0629921 -1.0629921 -1.1811024,
  1.0629921 -0.93700787 -1.1811024,0.93700787 -0.93700787 -1.1811024] }
 coordIndex [
  2,1,0,-1,2,0,3,-1]
  normalPerVertex TRUE
  normal DEF NORM_119 Normal { vector [
  0 0 -1,0 0 -1,
  0 0 -1,0 0 -1] }
}
}
DEF SHAPE_120 Shape {
 appearance USE APP_2
 geometry DEF FACE_120 IndexedFaceSet {
  coord DEF COORD_120 Coordinate { point [
  -0.062992126 -1.0629921 -1.1811024,0.062992126 -1.0629921 -1.1811024,
  0.062992126 -0.93700787 -1.1811024,-0.062992126 -0.93700787 -1.1811024] }
 coordIndex [
  2,1,0,-1,2,0,3,-1]
  normalPerVertex TRUE
  normal DEF NORM_120 Normal { vector [
  0 0 -1,0 0 -1,
  0 0 -1,0 0 -1] }
}
}
DEF SHAPE_121 Shape {
 appearance USE APP_2
 geometry DEF FACE_121 IndexedFaceSet {
  coord DEF COORD_121 Coordinate { point [
  -0.062992126 -0.062992126 -1.1811024,0.062992126 -0.062992126 -1.1811024,
  0.062992126 0.062992126 -1.1811024,-0.062992126 0.062992126 -1.1811024] }
 coordIndex [
  2,1,0,-1,2,0,3,-1]
  normalPerVertex TRUE
  normal DEF NORM_121 Normal { vector [
  0 0 -1,0 0 -1,
  0 0 -1,0 0 -1] }
}
}
DEF SHAPE_122 Shape {
 appearance USE APP_2
 geometry DEF FACE_122 IndexedFaceSet {
  coord DEF COORD_122 Coordinate { point [
  0.93700787 -0.062992126 -1.1811024,1.0629921 -0.062992126 -1.1811024,
  1.0629921 0.062992126 -1.1811024,0.93700787 0.062992126 -1.1811024] }
 coordIndex [
  2,1,0,-1,2,0,3,-1]
  normalPerVertex TRUE
  normal DEF NORM_122 Normal { vector [
  0 0 -1,0 0 -1,
  0 0 -1,0 0 -1] }
}
}
DEF SHAPE_123 Shape {
 appearance USE APP_2
 geometry DEF FACE_123 IndexedFaceSet {
  coord DEF COORD_123 Coordinate { point [
  0.93700787 -2.0629921 -1.1811024,1.0629921 -2.0629921 -1.1811024,
  1.0629921 -1.9370079 -1.1811024,0.93700787 -1.9370079 -1.1811024] }
 coordIndex [
  2,1,0,-1,2,0,3,-1]
  normalPerVertex TRUE
  normal DEF NORM_123 Normal { vector [
  0 0 -1,0 0 -1,
  0 0 -1,0 0 -1] }
}
}
DEF SHAPE_124 Shape {
 appearance USE APP_2
 geometry DEF FACE_124 IndexedFaceSet {
  coord DEF COORD_124 Coordinate { point [
  -0.062992126 -2.0629921 -1.1811024,0.062992126 -2.0629921 -1.1811024,
  0.062992126 -1.9370079 -1.1811024,-0.062992126 -1.9370079 -1.1811024] }
 coordIndex [
  2,1,0,-1,2,0,3,-1]
  normalPerVertex TRUE
  normal DEF NORM_124 Normal { vector [
  0 0 -1,0 0 -1,
  0 0 -1,0 0 -1] }
}
}
DEF SHAPE_125 Shape {
 appearance USE APP_2
 geometry DEF FACE_125 IndexedFaceSet {
  coord DEF COORD_125 Coordinate { point [
  0.93700787 -1.0629921 3.3622047,0.93700787 -0.93700787 3.3622047,
  1.0629921 -1.0629921 3.3622047,1.0629921 -0.93700787 3.3622047] }
 coordIndex [
  3,1,0,-1,3,0,2,-1]
  normalPerVertex TRUE
  normal DEF NORM_125 Normal { vector [
  0 0 1,0 0 1,
  0 0 1,0 0 1] }
}
}
DEF SHAPE_126 Shape {
 appearance USE APP_2
 geometry DEF FACE_126 IndexedFaceSet {
  coord DEF COORD_126 Coordinate { point [
  -0.062992126 -1.0629921 3.3622047,-0.062992126 -0.93700787 3.3622047,
  0.062992126 -1.0629921 3.3622047,0.062992126 -0.93700787 3.3622047] }
 coordIndex [
  3,1,0,-1,3,0,2,-1]
  normalPerVertex TRUE
  normal DEF NORM_126 Normal { vector [
  0 0 1,0 0 1,
  0 0 1,0 0 1] }
}
}
DEF SHAPE_127 Shape {
 appearance USE APP_2
 geometry DEF FACE_127 IndexedFaceSet {
  coord DEF COORD_127 Coordinate { point [
  -0.062992126 -0.062992126 3.3622047,-0.062992126 0.062992126 3.3622047,
  0.062992126 -0.062992126 3.3622047,0.062992126 0.062992126 3.3622047] }
 coordIndex [
  3,1,0,-1,3,0,2,-1]
  normalPerVertex TRUE
  normal DEF NORM_127 Normal { vector [
  0 0 1,0 0 1,
  0 0 1,0 0 1] }
}
}
DEF SHAPE_128 Shape {
 appearance USE APP_2
 geometry DEF FACE_128 IndexedFaceSet {
  coord DEF COORD_128 Coordinate { point [
  0.93700787 -0.062992126 3.3622047,0.93700787 0.062992126 3.3622047,
  1.0629921 -0.062992126 3.3622047,1.0629921 0.062992126 3.3622047] }
 coordIndex [
  3,1,0,-1,3,0,2,-1]
  normalPerVertex TRUE
  normal DEF NORM_128 Normal { vector [
  0 0 1,0 0 1,
  0 0 1,0 0 1] }
}
}
DEF SHAPE_129 Shape {
 appearance USE APP_2
 geometry DEF FACE_129 IndexedFaceSet {
  coord DEF COORD_129 Coordinate { point [
  0.93700787 -2.0629921 3.3622047,0.93700787 -1.9370079 3.3622047,
  1.0629921 -2.0629921 3.3622047,1.0629921 -1.9370079 3.3622047] }
 coordIndex [
  3,1,0,-1,3,0,2,-1]
  normalPerVertex TRUE
  normal DEF NORM_129 Normal { vector [
  0 0 1,0 0 1,
  0 0 1,0 0 1] }
}
}
DEF SHAPE_130 Shape {
 appearance USE APP_2
 geometry DEF FACE_130 IndexedFaceSet {
  coord DEF COORD_130 Coordinate { point [
  -0.062992126 -2.0629921 3.3622047,-0.062992126 -1.9370079 3.3622047,
  0.062992126 -2.0629921 3.3622047,0.062992126 -1.9370079 3.3622047] }
 coordIndex [
  3,1,0,-1,3,0,2,-1]
  normalPerVertex TRUE
  normal DEF NORM_130 Normal { vector [
  0 0 1,0 0 1,
  0 0 1,0 0 1] }
}
}
] }
] }
] }
