<?xml version="1.0" standalone="no"?>
 <!DOCTYPE svg PUBLIC "-//W3C//DTD SVG 1.1//EN" 
 "http://www.w3.org/Graphics/SVG/1.1/DTD/svg11.dtd"> 
<svg
  xmlns:svg="http://www.w3.org/2000/svg"
  xmlns="http://www.w3.org/2000/svg"
  xmlns:xlink="http://www.w3.org/1999/xlink"
  xmlns:inkscape="http://www.inkscape.org/namespaces/inkscape"
  version="1.1"
  width="297.0022mm" height="210.0072mm" viewBox="0.0000 0.0000 297.0022 210.0072">
<title>SVG Image created as rcbus-tang-9k-F_Fab0.svg date 2026-07-26T17:37:04 </title>
  <desc>Image generated by PCBNEW </desc>
<g style="fill:#000000; fill-opacity:1.0000;stroke:#000000; stroke-opacity:1.0000;
stroke-linecap:round; stroke-linejoin:round;"
 transform="translate(0 0) scale(1 1)">
</g>
<g style="fill:none; 
stroke:#000000; stroke-width:0.1500; stroke-opacity:1; 
stroke-linecap:round; stroke-linejoin:round;">
<text x="65.0320" y="136.5820"
textLength="10.2976" font-size="1.3333" lengthAdjust="spacingAndGlyphs"
text-anchor="middle" opacity="0" stroke-opacity="0">MountingHole</text>
<g class="stroked-text"><desc>MountingHole</desc>
<path d="M60.2463 136.5368
L60.2463 135.5368
" />
<path d="M60.2463 135.5368
L60.5796 136.2511
" />
<path d="M60.5796 136.2511
L60.9130 135.5368
" />
<path d="M60.9130 135.5368
L60.9130 136.5368
" />
<path d="M61.5320 136.5368
L61.4368 136.4892
" />
<path d="M61.4368 136.4892
L61.3891 136.4416
" />
<path d="M61.3891 136.4416
L61.3415 136.3463
" />
<path d="M61.3415 136.3463
L61.3415 136.0606
" />
<path d="M61.3415 136.0606
L61.3891 135.9654
" />
<path d="M61.3891 135.9654
L61.4368 135.9178
" />
<path d="M61.4368 135.9178
L61.5320 135.8702
" />
<path d="M61.5320 135.8702
L61.6749 135.8702
" />
<path d="M61.6749 135.8702
L61.7701 135.9178
" />
<path d="M61.7701 135.9178
L61.8177 135.9654
" />
<path d="M61.8177 135.9654
L61.8653 136.0606
" />
<path d="M61.8653 136.0606
L61.8653 136.3463
" />
<path d="M61.8653 136.3463
L61.8177 136.4416
" />
<path d="M61.8177 136.4416
L61.7701 136.4892
" />
<path d="M61.7701 136.4892
L61.6749 136.5368
" />
<path d="M61.6749 136.5368
L61.5320 136.5368
" />
<path d="M62.7225 135.8702
L62.7225 136.5368
" />
<path d="M62.2939 135.8702
L62.2939 136.3940
" />
<path d="M62.2939 136.3940
L62.3415 136.4892
" />
<path d="M62.3415 136.4892
L62.4368 136.5368
" />
<path d="M62.4368 136.5368
L62.5796 136.5368
" />
<path d="M62.5796 136.5368
L62.6749 136.4892
" />
<path d="M62.6749 136.4892
L62.7225 136.4416
" />
<path d="M63.1987 135.8702
L63.1987 136.5368
" />
<path d="M63.1987 135.9654
L63.2463 135.9178
" />
<path d="M63.2463 135.9178
L63.3415 135.8702
" />
<path d="M63.3415 135.8702
L63.4844 135.8702
" />
<path d="M63.4844 135.8702
L63.5796 135.9178
" />
<path d="M63.5796 135.9178
L63.6272 136.0130
" />
<path d="M63.6272 136.0130
L63.6272 136.5368
" />
<path d="M63.9606 135.8702
L64.3415 135.8702
" />
<path d="M64.1034 135.5368
L64.1034 136.3940
" />
<path d="M64.1034 136.3940
L64.1510 136.4892
" />
<path d="M64.1510 136.4892
L64.2463 136.5368
" />
<path d="M64.2463 136.5368
L64.3415 136.5368
" />
<path d="M64.6749 136.5368
L64.6749 135.8702
" />
<path d="M64.6749 135.5368
L64.6272 135.5844
" />
<path d="M64.6272 135.5844
L64.6749 135.6321
" />
<path d="M64.6749 135.6321
L64.7225 135.5844
" />
<path d="M64.7225 135.5844
L64.6749 135.5368
" />
<path d="M64.6749 135.5368
L64.6749 135.6321
" />
<path d="M65.1510 135.8702
L65.1510 136.5368
" />
<path d="M65.1510 135.9654
L65.1987 135.9178
" />
<path d="M65.1987 135.9178
L65.2939 135.8702
" />
<path d="M65.2939 135.8702
L65.4368 135.8702
" />
<path d="M65.4368 135.8702
L65.5320 135.9178
" />
<path d="M65.5320 135.9178
L65.5796 136.0130
" />
<path d="M65.5796 136.0130
L65.5796 136.5368
" />
<path d="M66.4844 135.8702
L66.4844 136.6797
" />
<path d="M66.4844 136.6797
L66.4368 136.7749
" />
<path d="M66.4368 136.7749
L66.3891 136.8225
" />
<path d="M66.3891 136.8225
L66.2939 136.8702
" />
<path d="M66.2939 136.8702
L66.1510 136.8702
" />
<path d="M66.1510 136.8702
L66.0558 136.8225
" />
<path d="M66.4844 136.4892
L66.3891 136.5368
" />
<path d="M66.3891 136.5368
L66.1987 136.5368
" />
<path d="M66.1987 136.5368
L66.1034 136.4892
" />
<path d="M66.1034 136.4892
L66.0558 136.4416
" />
<path d="M66.0558 136.4416
L66.0082 136.3463
" />
<path d="M66.0082 136.3463
L66.0082 136.0606
" />
<path d="M66.0082 136.0606
L66.0558 135.9654
" />
<path d="M66.0558 135.9654
L66.1034 135.9178
" />
<path d="M66.1034 135.9178
L66.1987 135.8702
" />
<path d="M66.1987 135.8702
L66.3891 135.8702
" />
<path d="M66.3891 135.8702
L66.4844 135.9178
" />
<path d="M66.9606 136.5368
L66.9606 135.5368
" />
<path d="M66.9606 136.0130
L67.5320 136.0130
" />
<path d="M67.5320 136.5368
L67.5320 135.5368
" />
<path d="M68.1510 136.5368
L68.0558 136.4892
" />
<path d="M68.0558 136.4892
L68.0082 136.4416
" />
<path d="M68.0082 136.4416
L67.9606 136.3463
" />
<path d="M67.9606 136.3463
L67.9606 136.0606
" />
<path d="M67.9606 136.0606
L68.0082 135.9654
" />
<path d="M68.0082 135.9654
L68.0558 135.9178
" />
<path d="M68.0558 135.9178
L68.1510 135.8702
" />
<path d="M68.1510 135.8702
L68.2939 135.8702
" />
<path d="M68.2939 135.8702
L68.3891 135.9178
" />
<path d="M68.3891 135.9178
L68.4368 135.9654
" />
<path d="M68.4368 135.9654
L68.4844 136.0606
" />
<path d="M68.4844 136.0606
L68.4844 136.3463
" />
<path d="M68.4844 136.3463
L68.4368 136.4416
" />
<path d="M68.4368 136.4416
L68.3891 136.4892
" />
<path d="M68.3891 136.4892
L68.2939 136.5368
" />
<path d="M68.2939 136.5368
L68.1510 136.5368
" />
<path d="M69.0558 136.5368
L68.9606 136.4892
" />
<path d="M68.9606 136.4892
L68.9130 136.3940
" />
<path d="M68.9130 136.3940
L68.9130 135.5368
" />
<path d="M69.8177 136.4892
L69.7225 136.5368
" />
<path d="M69.7225 136.5368
L69.5320 136.5368
" />
<path d="M69.5320 136.5368
L69.4368 136.4892
" />
<path d="M69.4368 136.4892
L69.3891 136.3940
" />
<path d="M69.3891 136.3940
L69.3891 136.0130
" />
<path d="M69.3891 136.0130
L69.4368 135.9178
" />
<path d="M69.4368 135.9178
L69.5320 135.8702
" />
<path d="M69.5320 135.8702
L69.7225 135.8702
" />
<path d="M69.7225 135.8702
L69.8177 135.9178
" />
<path d="M69.8177 135.9178
L69.8653 136.0130
" />
<path d="M69.8653 136.0130
L69.8653 136.1082
" />
<path d="M69.8653 136.1082
L69.3891 136.2035
" />
</g><text x="65.3320" y="132.3820"
textLength="2.2500" font-size="1.3333" lengthAdjust="spacingAndGlyphs"
text-anchor="middle" opacity="0" stroke-opacity="0">H1</text>
<g class="stroked-text"><desc>H1</desc>
<path d="M64.5701 132.3368
L64.5701 131.3368
" />
<path d="M64.5701 131.8130
L65.1415 131.8130
" />
<path d="M65.1415 132.3368
L65.1415 131.3368
" />
<path d="M66.1415 132.3368
L65.5701 132.3368
" />
<path d="M65.8558 132.3368
L65.8558 131.3368
" />
<path d="M65.8558 131.3368
L65.7606 131.4797
" />
<path d="M65.7606 131.4797
L65.6653 131.5749
" />
<path d="M65.6653 131.5749
L65.5701 131.6225
" />
</g><g transform="rotate(-90.000000 160.3500 163.5000)">
<text x="160.3500" y="164.0000"
textLength="12.7738" font-size="1.3333" lengthAdjust="spacingAndGlyphs"
text-anchor="middle" opacity="0" stroke-opacity="0">1x39 pin header</text>
</g>
<g class="stroked-text"><desc>1x39 pin header</desc>
<path d="M160.8048 169.0000
L160.8048 169.5714
" />
<path d="M160.8048 169.2857
L159.8048 169.2857
" />
<path d="M159.8048 169.2857
L159.9477 169.3810
" />
<path d="M159.9477 169.3810
L160.0429 169.4762
" />
<path d="M160.0429 169.4762
L160.0905 169.5714
" />
<path d="M160.8048 168.6667
L160.1382 168.1429
" />
<path d="M160.1382 168.6667
L160.8048 168.1429
" />
<path d="M159.8048 167.8571
L159.8048 167.2381
" />
<path d="M159.8048 167.2381
L160.1858 167.5714
" />
<path d="M160.1858 167.5714
L160.1858 167.4286
" />
<path d="M160.1858 167.4286
L160.2334 167.3333
" />
<path d="M160.2334 167.3333
L160.2810 167.2857
" />
<path d="M160.2810 167.2857
L160.3762 167.2381
" />
<path d="M160.3762 167.2381
L160.6143 167.2381
" />
<path d="M160.6143 167.2381
L160.7096 167.2857
" />
<path d="M160.7096 167.2857
L160.7572 167.3333
" />
<path d="M160.7572 167.3333
L160.8048 167.4286
" />
<path d="M160.8048 167.4286
L160.8048 167.7143
" />
<path d="M160.8048 167.7143
L160.7572 167.8095
" />
<path d="M160.7572 167.8095
L160.7096 167.8571
" />
<path d="M160.8048 166.7619
L160.8048 166.5714
" />
<path d="M160.8048 166.5714
L160.7572 166.4762
" />
<path d="M160.7572 166.4762
L160.7096 166.4286
" />
<path d="M160.7096 166.4286
L160.5667 166.3333
" />
<path d="M160.5667 166.3333
L160.3762 166.2857
" />
<path d="M160.3762 166.2857
L159.9953 166.2857
" />
<path d="M159.9953 166.2857
L159.9001 166.3333
" />
<path d="M159.9001 166.3333
L159.8524 166.3810
" />
<path d="M159.8524 166.3810
L159.8048 166.4762
" />
<path d="M159.8048 166.4762
L159.8048 166.6667
" />
<path d="M159.8048 166.6667
L159.8524 166.7619
" />
<path d="M159.8524 166.7619
L159.9001 166.8095
" />
<path d="M159.9001 166.8095
L159.9953 166.8571
" />
<path d="M159.9953 166.8571
L160.2334 166.8571
" />
<path d="M160.2334 166.8571
L160.3286 166.8095
" />
<path d="M160.3286 166.8095
L160.3762 166.7619
" />
<path d="M160.3762 166.7619
L160.4239 166.6667
" />
<path d="M160.4239 166.6667
L160.4239 166.4762
" />
<path d="M160.4239 166.4762
L160.3762 166.3810
" />
<path d="M160.3762 166.3810
L160.3286 166.3333
" />
<path d="M160.3286 166.3333
L160.2334 166.2857
" />
<path d="M160.1382 165.0952
L161.1382 165.0952
" />
<path d="M160.1858 165.0952
L160.1382 165.0000
" />
<path d="M160.1382 165.0000
L160.1382 164.8095
" />
<path d="M160.1382 164.8095
L160.1858 164.7143
" />
<path d="M160.1858 164.7143
L160.2334 164.6667
" />
<path d="M160.2334 164.6667
L160.3286 164.6190
" />
<path d="M160.3286 164.6190
L160.6143 164.6190
" />
<path d="M160.6143 164.6190
L160.7096 164.6667
" />
<path d="M160.7096 164.6667
L160.7572 164.7143
" />
<path d="M160.7572 164.7143
L160.8048 164.8095
" />
<path d="M160.8048 164.8095
L160.8048 165.0000
" />
<path d="M160.8048 165.0000
L160.7572 165.0952
" />
<path d="M160.8048 164.1905
L160.1382 164.1905
" />
<path d="M159.8048 164.1905
L159.8524 164.2381
" />
<path d="M159.8524 164.2381
L159.9001 164.1905
" />
<path d="M159.9001 164.1905
L159.8524 164.1429
" />
<path d="M159.8524 164.1429
L159.8048 164.1905
" />
<path d="M159.8048 164.1905
L159.9001 164.1905
" />
<path d="M160.1382 163.7143
L160.8048 163.7143
" />
<path d="M160.2334 163.7143
L160.1858 163.6667
" />
<path d="M160.1858 163.6667
L160.1382 163.5714
" />
<path d="M160.1382 163.5714
L160.1382 163.4286
" />
<path d="M160.1382 163.4286
L160.1858 163.3333
" />
<path d="M160.1858 163.3333
L160.2810 163.2857
" />
<path d="M160.2810 163.2857
L160.8048 163.2857
" />
<path d="M160.8048 162.0476
L159.8048 162.0476
" />
<path d="M160.8048 161.6190
L160.2810 161.6190
" />
<path d="M160.2810 161.6190
L160.1858 161.6667
" />
<path d="M160.1858 161.6667
L160.1382 161.7619
" />
<path d="M160.1382 161.7619
L160.1382 161.9048
" />
<path d="M160.1382 161.9048
L160.1858 162.0000
" />
<path d="M160.1858 162.0000
L160.2334 162.0476
" />
<path d="M160.7572 160.7619
L160.8048 160.8571
" />
<path d="M160.8048 160.8571
L160.8048 161.0476
" />
<path d="M160.8048 161.0476
L160.7572 161.1429
" />
<path d="M160.7572 161.1429
L160.6620 161.1905
" />
<path d="M160.6620 161.1905
L160.2810 161.1905
" />
<path d="M160.2810 161.1905
L160.1858 161.1429
" />
<path d="M160.1858 161.1429
L160.1382 161.0476
" />
<path d="M160.1382 161.0476
L160.1382 160.8571
" />
<path d="M160.1382 160.8571
L160.1858 160.7619
" />
<path d="M160.1858 160.7619
L160.2810 160.7143
" />
<path d="M160.2810 160.7143
L160.3762 160.7143
" />
<path d="M160.3762 160.7143
L160.4715 161.1905
" />
<path d="M160.8048 159.8571
L160.2810 159.8571
" />
<path d="M160.2810 159.8571
L160.1858 159.9048
" />
<path d="M160.1858 159.9048
L160.1382 160.0000
" />
<path d="M160.1382 160.0000
L160.1382 160.1905
" />
<path d="M160.1382 160.1905
L160.1858 160.2857
" />
<path d="M160.7572 159.8571
L160.8048 159.9524
" />
<path d="M160.8048 159.9524
L160.8048 160.1905
" />
<path d="M160.8048 160.1905
L160.7572 160.2857
" />
<path d="M160.7572 160.2857
L160.6620 160.3333
" />
<path d="M160.6620 160.3333
L160.5667 160.3333
" />
<path d="M160.5667 160.3333
L160.4715 160.2857
" />
<path d="M160.4715 160.2857
L160.4239 160.1905
" />
<path d="M160.4239 160.1905
L160.4239 159.9524
" />
<path d="M160.4239 159.9524
L160.3762 159.8571
" />
<path d="M160.8048 158.9524
L159.8048 158.9524
" />
<path d="M160.7572 158.9524
L160.8048 159.0476
" />
<path d="M160.8048 159.0476
L160.8048 159.2381
" />
<path d="M160.8048 159.2381
L160.7572 159.3333
" />
<path d="M160.7572 159.3333
L160.7096 159.3810
" />
<path d="M160.7096 159.3810
L160.6143 159.4286
" />
<path d="M160.6143 159.4286
L160.3286 159.4286
" />
<path d="M160.3286 159.4286
L160.2334 159.3810
" />
<path d="M160.2334 159.3810
L160.1858 159.3333
" />
<path d="M160.1858 159.3333
L160.1382 159.2381
" />
<path d="M160.1382 159.2381
L160.1382 159.0476
" />
<path d="M160.1382 159.0476
L160.1858 158.9524
" />
<path d="M160.7572 158.0952
L160.8048 158.1905
" />
<path d="M160.8048 158.1905
L160.8048 158.3810
" />
<path d="M160.8048 158.3810
L160.7572 158.4762
" />
<path d="M160.7572 158.4762
L160.6620 158.5238
" />
<path d="M160.6620 158.5238
L160.2810 158.5238
" />
<path d="M160.2810 158.5238
L160.1858 158.4762
" />
<path d="M160.1858 158.4762
L160.1382 158.3810
" />
<path d="M160.1382 158.3810
L160.1382 158.1905
" />
<path d="M160.1382 158.1905
L160.1858 158.0952
" />
<path d="M160.1858 158.0952
L160.2810 158.0476
" />
<path d="M160.2810 158.0476
L160.3762 158.0476
" />
<path d="M160.3762 158.0476
L160.4715 158.5238
" />
<path d="M160.8048 157.6190
L160.1382 157.6190
" />
<path d="M160.3286 157.6190
L160.2334 157.5714
" />
<path d="M160.2334 157.5714
L160.1858 157.5238
" />
<path d="M160.1858 157.5238
L160.1382 157.4286
" />
<path d="M160.1382 157.4286
L160.1382 157.3333
" />
</g><text x="109.7600" y="164.0000"
textLength="2.2024" font-size="1.3333" lengthAdjust="spacingAndGlyphs"
text-anchor="middle" opacity="0" stroke-opacity="0">P1</text>
<g class="stroked-text"><desc>P1</desc>
<path d="M109.0219 163.9548
L109.0219 162.9548
" />
<path d="M109.0219 162.9548
L109.4029 162.9548
" />
<path d="M109.4029 162.9548
L109.4981 163.0024
" />
<path d="M109.4981 163.0024
L109.5457 163.0501
" />
<path d="M109.5457 163.0501
L109.5933 163.1453
" />
<path d="M109.5933 163.1453
L109.5933 163.2882
" />
<path d="M109.5933 163.2882
L109.5457 163.3834
" />
<path d="M109.5457 163.3834
L109.4981 163.4310
" />
<path d="M109.4981 163.4310
L109.4029 163.4786
" />
<path d="M109.4029 163.4786
L109.0219 163.4786
" />
<path d="M110.5457 163.9548
L109.9743 163.9548
" />
<path d="M110.2600 163.9548
L110.2600 162.9548
" />
<path d="M110.2600 162.9548
L110.1648 163.0977
" />
<path d="M110.1648 163.0977
L110.0695 163.1929
" />
<path d="M110.0695 163.1929
L109.9743 163.2405
" />
</g><g transform="rotate(-90.000000 157.8600 155.3000)">
<text x="157.8600" y="155.8000"
textLength="12.6786" font-size="1.3333" lengthAdjust="spacingAndGlyphs"
text-anchor="middle" opacity="0" stroke-opacity="0">SN74LVC245APW</text>
</g>
<g class="stroked-text"><desc>SN74LVC245APW</desc>
<path d="M158.2672 161.3238
L158.3148 161.1810
" />
<path d="M158.3148 161.1810
L158.3148 160.9429
" />
<path d="M158.3148 160.9429
L158.2672 160.8476
" />
<path d="M158.2672 160.8476
L158.2196 160.8000
" />
<path d="M158.2196 160.8000
L158.1243 160.7524
" />
<path d="M158.1243 160.7524
L158.0291 160.7524
" />
<path d="M158.0291 160.7524
L157.9339 160.8000
" />
<path d="M157.9339 160.8000
L157.8862 160.8476
" />
<path d="M157.8862 160.8476
L157.8386 160.9429
" />
<path d="M157.8386 160.9429
L157.7910 161.1333
" />
<path d="M157.7910 161.1333
L157.7434 161.2286
" />
<path d="M157.7434 161.2286
L157.6958 161.2762
" />
<path d="M157.6958 161.2762
L157.6005 161.3238
" />
<path d="M157.6005 161.3238
L157.5053 161.3238
" />
<path d="M157.5053 161.3238
L157.4101 161.2762
" />
<path d="M157.4101 161.2762
L157.3624 161.2286
" />
<path d="M157.3624 161.2286
L157.3148 161.1333
" />
<path d="M157.3148 161.1333
L157.3148 160.8952
" />
<path d="M157.3148 160.8952
L157.3624 160.7524
" />
<path d="M158.3148 160.3238
L157.3148 160.3238
" />
<path d="M157.3148 160.3238
L158.3148 159.7524
" />
<path d="M158.3148 159.7524
L157.3148 159.7524
" />
<path d="M157.3148 159.3714
L157.3148 158.7048
" />
<path d="M157.3148 158.7048
L158.3148 159.1333
" />
<path d="M157.6482 157.8952
L158.3148 157.8952
" />
<path d="M157.2672 158.1333
L157.9815 158.3714
" />
<path d="M157.9815 158.3714
L157.9815 157.7524
" />
<path d="M158.3148 156.8952
L158.3148 157.3714
" />
<path d="M158.3148 157.3714
L157.3148 157.3714
" />
<path d="M157.3148 156.7048
L158.3148 156.3714
" />
<path d="M158.3148 156.3714
L157.3148 156.0381
" />
<path d="M158.2196 155.1333
L158.2672 155.1810
" />
<path d="M158.2672 155.1810
L158.3148 155.3238
" />
<path d="M158.3148 155.3238
L158.3148 155.4190
" />
<path d="M158.3148 155.4190
L158.2672 155.5619
" />
<path d="M158.2672 155.5619
L158.1720 155.6571
" />
<path d="M158.1720 155.6571
L158.0767 155.7048
" />
<path d="M158.0767 155.7048
L157.8862 155.7524
" />
<path d="M157.8862 155.7524
L157.7434 155.7524
" />
<path d="M157.7434 155.7524
L157.5529 155.7048
" />
<path d="M157.5529 155.7048
L157.4577 155.6571
" />
<path d="M157.4577 155.6571
L157.3624 155.5619
" />
<path d="M157.3624 155.5619
L157.3148 155.4190
" />
<path d="M157.3148 155.4190
L157.3148 155.3238
" />
<path d="M157.3148 155.3238
L157.3624 155.1810
" />
<path d="M157.3624 155.1810
L157.4101 155.1333
" />
<path d="M157.4101 154.7524
L157.3624 154.7048
" />
<path d="M157.3624 154.7048
L157.3148 154.6095
" />
<path d="M157.3148 154.6095
L157.3148 154.3714
" />
<path d="M157.3148 154.3714
L157.3624 154.2762
" />
<path d="M157.3624 154.2762
L157.4101 154.2286
" />
<path d="M157.4101 154.2286
L157.5053 154.1810
" />
<path d="M157.5053 154.1810
L157.6005 154.1810
" />
<path d="M157.6005 154.1810
L157.7434 154.2286
" />
<path d="M157.7434 154.2286
L158.3148 154.8000
" />
<path d="M158.3148 154.8000
L158.3148 154.1810
" />
<path d="M157.6482 153.3238
L158.3148 153.3238
" />
<path d="M157.2672 153.5619
L157.9815 153.8000
" />
<path d="M157.9815 153.8000
L157.9815 153.1810
" />
<path d="M157.3148 152.3238
L157.3148 152.8000
" />
<path d="M157.3148 152.8000
L157.7910 152.8476
" />
<path d="M157.7910 152.8476
L157.7434 152.8000
" />
<path d="M157.7434 152.8000
L157.6958 152.7048
" />
<path d="M157.6958 152.7048
L157.6958 152.4667
" />
<path d="M157.6958 152.4667
L157.7434 152.3714
" />
<path d="M157.7434 152.3714
L157.7910 152.3238
" />
<path d="M157.7910 152.3238
L157.8862 152.2762
" />
<path d="M157.8862 152.2762
L158.1243 152.2762
" />
<path d="M158.1243 152.2762
L158.2196 152.3238
" />
<path d="M158.2196 152.3238
L158.2672 152.3714
" />
<path d="M158.2672 152.3714
L158.3148 152.4667
" />
<path d="M158.3148 152.4667
L158.3148 152.7048
" />
<path d="M158.3148 152.7048
L158.2672 152.8000
" />
<path d="M158.2672 152.8000
L158.2196 152.8476
" />
<path d="M158.0291 151.8952
L158.0291 151.4190
" />
<path d="M158.3148 151.9905
L157.3148 151.6571
" />
<path d="M157.3148 151.6571
L158.3148 151.3238
" />
<path d="M158.3148 150.9905
L157.3148 150.9905
" />
<path d="M157.3148 150.9905
L157.3148 150.6095
" />
<path d="M157.3148 150.6095
L157.3624 150.5143
" />
<path d="M157.3624 150.5143
L157.4101 150.4667
" />
<path d="M157.4101 150.4667
L157.5053 150.4190
" />
<path d="M157.5053 150.4190
L157.6482 150.4190
" />
<path d="M157.6482 150.4190
L157.7434 150.4667
" />
<path d="M157.7434 150.4667
L157.7910 150.5143
" />
<path d="M157.7910 150.5143
L157.8386 150.6095
" />
<path d="M157.8386 150.6095
L157.8386 150.9905
" />
<path d="M157.3148 150.0857
L158.3148 149.8476
" />
<path d="M158.3148 149.8476
L157.6005 149.6571
" />
<path d="M157.6005 149.6571
L158.3148 149.4667
" />
<path d="M158.3148 149.4667
L157.3148 149.2286
" />
</g><text x="144.1000" y="155.8000"
textLength="2.2500" font-size="1.3333" lengthAdjust="spacingAndGlyphs"
text-anchor="middle" opacity="0" stroke-opacity="0">U4</text>
<g class="stroked-text"><desc>U4</desc>
<path d="M143.3381 154.7548
L143.3381 155.5643
" />
<path d="M143.3381 155.5643
L143.3857 155.6596
" />
<path d="M143.3857 155.6596
L143.4333 155.7072
" />
<path d="M143.4333 155.7072
L143.5286 155.7548
" />
<path d="M143.5286 155.7548
L143.7190 155.7548
" />
<path d="M143.7190 155.7548
L143.8143 155.7072
" />
<path d="M143.8143 155.7072
L143.8619 155.6596
" />
<path d="M143.8619 155.6596
L143.9095 155.5643
" />
<path d="M143.9095 155.5643
L143.9095 154.7548
" />
<path d="M144.8143 155.0882
L144.8143 155.7548
" />
<path d="M144.5762 154.7072
L144.3381 155.4215
" />
<path d="M144.3381 155.4215
L144.9571 155.4215
" />
</g><text x="111.0100" y="143.5200"
textLength="6.0595" font-size="1.3333" lengthAdjust="spacingAndGlyphs"
text-anchor="middle" opacity="0" stroke-opacity="0">1N4149</text>
<g class="stroked-text"><desc>1N4149</desc>
<path d="M108.8671 143.4748
L108.2957 143.4748
" />
<path d="M108.5814 143.4748
L108.5814 142.4748
" />
<path d="M108.5814 142.4748
L108.4862 142.6177
" />
<path d="M108.4862 142.6177
L108.3910 142.7129
" />
<path d="M108.3910 142.7129
L108.2957 142.7605
" />
<path d="M109.2957 143.4748
L109.2957 142.4748
" />
<path d="M109.2957 142.4748
L109.8671 143.4748
" />
<path d="M109.8671 143.4748
L109.8671 142.4748
" />
<path d="M110.7719 142.8082
L110.7719 143.4748
" />
<path d="M110.5338 142.4272
L110.2957 143.1415
" />
<path d="M110.2957 143.1415
L110.9148 143.1415
" />
<path d="M111.8195 143.4748
L111.2481 143.4748
" />
<path d="M111.5338 143.4748
L111.5338 142.4748
" />
<path d="M111.5338 142.4748
L111.4386 142.6177
" />
<path d="M111.4386 142.6177
L111.3433 142.7129
" />
<path d="M111.3433 142.7129
L111.2481 142.7605
" />
<path d="M112.6767 142.8082
L112.6767 143.4748
" />
<path d="M112.4386 142.4272
L112.2005 143.1415
" />
<path d="M112.2005 143.1415
L112.8195 143.1415
" />
<path d="M113.2481 143.4748
L113.4386 143.4748
" />
<path d="M113.4386 143.4748
L113.5338 143.4272
" />
<path d="M113.5338 143.4272
L113.5814 143.3796
" />
<path d="M113.5814 143.3796
L113.6767 143.2367
" />
<path d="M113.6767 143.2367
L113.7243 143.0462
" />
<path d="M113.7243 143.0462
L113.7243 142.6653
" />
<path d="M113.7243 142.6653
L113.6767 142.5701
" />
<path d="M113.6767 142.5701
L113.6290 142.5224
" />
<path d="M113.6290 142.5224
L113.5338 142.4748
" />
<path d="M113.5338 142.4748
L113.3433 142.4748
" />
<path d="M113.3433 142.4748
L113.2481 142.5224
" />
<path d="M113.2481 142.5224
L113.2005 142.5701
" />
<path d="M113.2005 142.5701
L113.1529 142.6653
" />
<path d="M113.1529 142.6653
L113.1529 142.9034
" />
<path d="M113.1529 142.9034
L113.2005 142.9986
" />
<path d="M113.2005 142.9986
L113.2481 143.0462
" />
<path d="M113.2481 143.0462
L113.3433 143.0939
" />
<path d="M113.3433 143.0939
L113.5338 143.0939
" />
<path d="M113.5338 143.0939
L113.6290 143.0462
" />
<path d="M113.6290 143.0462
L113.6767 142.9986
" />
<path d="M113.6767 142.9986
L113.7243 142.9034
" />
</g><text x="107.2000" y="139.6000"
textLength="1.2500" font-size="1.3333" lengthAdjust="spacingAndGlyphs"
text-anchor="middle" opacity="0" stroke-opacity="0">K</text>
<g class="stroked-text"><desc>K</desc>
<path d="M106.9381 139.5548
L106.9381 138.5548
" />
<path d="M107.5095 139.5548
L107.0810 138.9834
" />
<path d="M107.5095 138.5548
L106.9381 139.1262
" />
</g></g>
<g style="fill:none; 
stroke:#000000; stroke-width:0.1200; stroke-opacity:1; 
stroke-linecap:round; stroke-linejoin:round;">
<text x="111.3100" y="141.3000"
textLength="1.7619" font-size="1.0667" lengthAdjust="spacingAndGlyphs"
text-anchor="middle" opacity="0" stroke-opacity="0">D1</text>
<g class="stroked-text"><desc>D1</desc>
<path d="M110.7195 141.2639
L110.7195 140.4639
" />
<path d="M110.7195 140.4639
L110.9100 140.4639
" />
<path d="M110.9100 140.4639
L111.0243 140.5019
" />
<path d="M111.0243 140.5019
L111.1005 140.5781
" />
<path d="M111.1005 140.5781
L111.1386 140.6543
" />
<path d="M111.1386 140.6543
L111.1767 140.8067
" />
<path d="M111.1767 140.8067
L111.1767 140.9210
" />
<path d="M111.1767 140.9210
L111.1386 141.0734
" />
<path d="M111.1386 141.0734
L111.1005 141.1496
" />
<path d="M111.1005 141.1496
L111.0243 141.2258
" />
<path d="M111.0243 141.2258
L110.9100 141.2639
" />
<path d="M110.9100 141.2639
L110.7195 141.2639
" />
<path d="M111.9386 141.2639
L111.4814 141.2639
" />
<path d="M111.7100 141.2639
L111.7100 140.4639
" />
<path d="M111.7100 140.4639
L111.6338 140.5781
" />
<path d="M111.6338 140.5781
L111.5576 140.6543
" />
<path d="M111.5576 140.6543
L111.4814 140.6924
" />
</g></g>
<g style="fill:none; 
stroke:#000000; stroke-width:0.1500; stroke-opacity:1; 
stroke-linecap:round; stroke-linejoin:round;">
<text x="83.6900" y="143.3700"
textLength="1.2500" font-size="1.3333" lengthAdjust="spacingAndGlyphs"
text-anchor="middle" opacity="0" stroke-opacity="0">R</text>
<g class="stroked-text"><desc>R</desc>
<path d="M83.9995 143.3248
L83.6662 142.8486
" />
<path d="M83.4281 143.3248
L83.4281 142.3248
" />
<path d="M83.4281 142.3248
L83.8090 142.3248
" />
<path d="M83.8090 142.3248
L83.9043 142.3724
" />
<path d="M83.9043 142.3724
L83.9519 142.4201
" />
<path d="M83.9519 142.4201
L83.9995 142.5153
" />
<path d="M83.9995 142.5153
L83.9995 142.6582
" />
<path d="M83.9995 142.6582
L83.9519 142.7534
" />
<path d="M83.9519 142.7534
L83.9043 142.8010
" />
<path d="M83.9043 142.8010
L83.8090 142.8486
" />
<path d="M83.8090 142.8486
L83.4281 142.8486
" />
</g><text x="83.6900" y="141.0000"
textLength="2.2024" font-size="1.3333" lengthAdjust="spacingAndGlyphs"
text-anchor="middle" opacity="0" stroke-opacity="0">R2</text>
<g class="stroked-text"><desc>R2</desc>
<path d="M83.5233 140.9548
L83.1900 140.4786
" />
<path d="M82.9519 140.9548
L82.9519 139.9548
" />
<path d="M82.9519 139.9548
L83.3329 139.9548
" />
<path d="M83.3329 139.9548
L83.4281 140.0024
" />
<path d="M83.4281 140.0024
L83.4757 140.0501
" />
<path d="M83.4757 140.0501
L83.5233 140.1453
" />
<path d="M83.5233 140.1453
L83.5233 140.2882
" />
<path d="M83.5233 140.2882
L83.4757 140.3834
" />
<path d="M83.4757 140.3834
L83.4281 140.4310
" />
<path d="M83.4281 140.4310
L83.3329 140.4786
" />
<path d="M83.3329 140.4786
L82.9519 140.4786
" />
<path d="M83.9043 140.0501
L83.9519 140.0024
" />
<path d="M83.9519 140.0024
L84.0471 139.9548
" />
<path d="M84.0471 139.9548
L84.2852 139.9548
" />
<path d="M84.2852 139.9548
L84.3805 140.0024
" />
<path d="M84.3805 140.0024
L84.4281 140.0501
" />
<path d="M84.4281 140.0501
L84.4757 140.1453
" />
<path d="M84.4757 140.1453
L84.4757 140.2405
" />
<path d="M84.4757 140.2405
L84.4281 140.3834
" />
<path d="M84.4281 140.3834
L83.8567 140.9548
" />
<path d="M83.8567 140.9548
L84.4757 140.9548
" />
</g><g transform="rotate(-90.000000 131.2000 158.0000)">
<text x="131.2000" y="158.5000"
textLength="6.2500" font-size="1.3333" lengthAdjust="spacingAndGlyphs"
text-anchor="middle" opacity="0" stroke-opacity="0">C_Small</text>
</g>
<g class="stroked-text"><desc>C_Small</desc>
<path d="M131.5596 160.1905
L131.6072 160.2381
" />
<path d="M131.6072 160.2381
L131.6548 160.3810
" />
<path d="M131.6548 160.3810
L131.6548 160.4762
" />
<path d="M131.6548 160.4762
L131.6072 160.6190
" />
<path d="M131.6072 160.6190
L131.5120 160.7143
" />
<path d="M131.5120 160.7143
L131.4167 160.7619
" />
<path d="M131.4167 160.7619
L131.2262 160.8095
" />
<path d="M131.2262 160.8095
L131.0834 160.8095
" />
<path d="M131.0834 160.8095
L130.8929 160.7619
" />
<path d="M130.8929 160.7619
L130.7977 160.7143
" />
<path d="M130.7977 160.7143
L130.7024 160.6190
" />
<path d="M130.7024 160.6190
L130.6548 160.4762
" />
<path d="M130.6548 160.4762
L130.6548 160.3810
" />
<path d="M130.6548 160.3810
L130.7024 160.2381
" />
<path d="M130.7024 160.2381
L130.7501 160.1905
" />
<path d="M131.7501 160.0000
L131.7501 159.2381
" />
<path d="M131.6072 159.0476
L131.6548 158.9048
" />
<path d="M131.6548 158.9048
L131.6548 158.6667
" />
<path d="M131.6548 158.6667
L131.6072 158.5714
" />
<path d="M131.6072 158.5714
L131.5596 158.5238
" />
<path d="M131.5596 158.5238
L131.4643 158.4762
" />
<path d="M131.4643 158.4762
L131.3691 158.4762
" />
<path d="M131.3691 158.4762
L131.2739 158.5238
" />
<path d="M131.2739 158.5238
L131.2262 158.5714
" />
<path d="M131.2262 158.5714
L131.1786 158.6667
" />
<path d="M131.1786 158.6667
L131.1310 158.8571
" />
<path d="M131.1310 158.8571
L131.0834 158.9524
" />
<path d="M131.0834 158.9524
L131.0358 159.0000
" />
<path d="M131.0358 159.0000
L130.9405 159.0476
" />
<path d="M130.9405 159.0476
L130.8453 159.0476
" />
<path d="M130.8453 159.0476
L130.7501 159.0000
" />
<path d="M130.7501 159.0000
L130.7024 158.9524
" />
<path d="M130.7024 158.9524
L130.6548 158.8571
" />
<path d="M130.6548 158.8571
L130.6548 158.6190
" />
<path d="M130.6548 158.6190
L130.7024 158.4762
" />
<path d="M131.6548 158.0476
L130.9882 158.0476
" />
<path d="M131.0834 158.0476
L131.0358 158.0000
" />
<path d="M131.0358 158.0000
L130.9882 157.9048
" />
<path d="M130.9882 157.9048
L130.9882 157.7619
" />
<path d="M130.9882 157.7619
L131.0358 157.6667
" />
<path d="M131.0358 157.6667
L131.1310 157.6190
" />
<path d="M131.1310 157.6190
L131.6548 157.6190
" />
<path d="M131.1310 157.6190
L131.0358 157.5714
" />
<path d="M131.0358 157.5714
L130.9882 157.4762
" />
<path d="M130.9882 157.4762
L130.9882 157.3333
" />
<path d="M130.9882 157.3333
L131.0358 157.2381
" />
<path d="M131.0358 157.2381
L131.1310 157.1905
" />
<path d="M131.1310 157.1905
L131.6548 157.1905
" />
<path d="M131.6548 156.2857
L131.1310 156.2857
" />
<path d="M131.1310 156.2857
L131.0358 156.3333
" />
<path d="M131.0358 156.3333
L130.9882 156.4286
" />
<path d="M130.9882 156.4286
L130.9882 156.6190
" />
<path d="M130.9882 156.6190
L131.0358 156.7143
" />
<path d="M131.6072 156.2857
L131.6548 156.3810
" />
<path d="M131.6548 156.3810
L131.6548 156.6190
" />
<path d="M131.6548 156.6190
L131.6072 156.7143
" />
<path d="M131.6072 156.7143
L131.5120 156.7619
" />
<path d="M131.5120 156.7619
L131.4167 156.7619
" />
<path d="M131.4167 156.7619
L131.3215 156.7143
" />
<path d="M131.3215 156.7143
L131.2739 156.6190
" />
<path d="M131.2739 156.6190
L131.2739 156.3810
" />
<path d="M131.2739 156.3810
L131.2262 156.2857
" />
<path d="M131.6548 155.6667
L131.6072 155.7619
" />
<path d="M131.6072 155.7619
L131.5120 155.8095
" />
<path d="M131.5120 155.8095
L130.6548 155.8095
" />
<path d="M131.6548 155.1429
L131.6072 155.2381
" />
<path d="M131.6072 155.2381
L131.5120 155.2857
" />
<path d="M131.5120 155.2857
L130.6548 155.2857
" />
</g><g transform="rotate(-90.000000 128.7000 158.0000)">
<text x="128.7000" y="158.5000"
textLength="2.2024" font-size="1.3333" lengthAdjust="spacingAndGlyphs"
text-anchor="middle" opacity="0" stroke-opacity="0">C3</text>
</g>
<g class="stroked-text"><desc>C3</desc>
<path d="M129.0596 158.1667
L129.1072 158.2143
" />
<path d="M129.1072 158.2143
L129.1548 158.3571
" />
<path d="M129.1548 158.3571
L129.1548 158.4524
" />
<path d="M129.1548 158.4524
L129.1072 158.5952
" />
<path d="M129.1072 158.5952
L129.0120 158.6905
" />
<path d="M129.0120 158.6905
L128.9167 158.7381
" />
<path d="M128.9167 158.7381
L128.7262 158.7857
" />
<path d="M128.7262 158.7857
L128.5834 158.7857
" />
<path d="M128.5834 158.7857
L128.3929 158.7381
" />
<path d="M128.3929 158.7381
L128.2977 158.6905
" />
<path d="M128.2977 158.6905
L128.2024 158.5952
" />
<path d="M128.2024 158.5952
L128.1548 158.4524
" />
<path d="M128.1548 158.4524
L128.1548 158.3571
" />
<path d="M128.1548 158.3571
L128.2024 158.2143
" />
<path d="M128.2024 158.2143
L128.2501 158.1667
" />
<path d="M128.1548 157.8333
L128.1548 157.2143
" />
<path d="M128.1548 157.2143
L128.5358 157.5476
" />
<path d="M128.5358 157.5476
L128.5358 157.4048
" />
<path d="M128.5358 157.4048
L128.5834 157.3095
" />
<path d="M128.5834 157.3095
L128.6310 157.2619
" />
<path d="M128.6310 157.2619
L128.7262 157.2143
" />
<path d="M128.7262 157.2143
L128.9643 157.2143
" />
<path d="M128.9643 157.2143
L129.0596 157.2619
" />
<path d="M129.0596 157.2619
L129.1072 157.3095
" />
<path d="M129.1072 157.3095
L129.1548 157.4048
" />
<path d="M129.1548 157.4048
L129.1548 157.6905
" />
<path d="M129.1548 157.6905
L129.1072 157.7857
" />
<path d="M129.1072 157.7857
L129.0596 157.8333
" />
</g><text x="83.6000" y="139.2700"
textLength="1.2500" font-size="1.3333" lengthAdjust="spacingAndGlyphs"
text-anchor="middle" opacity="0" stroke-opacity="0">R</text>
<g class="stroked-text"><desc>R</desc>
<path d="M83.9095 139.2248
L83.5762 138.7486
" />
<path d="M83.3381 139.2248
L83.3381 138.2248
" />
<path d="M83.3381 138.2248
L83.7190 138.2248
" />
<path d="M83.7190 138.2248
L83.8143 138.2724
" />
<path d="M83.8143 138.2724
L83.8619 138.3201
" />
<path d="M83.8619 138.3201
L83.9095 138.4153
" />
<path d="M83.9095 138.4153
L83.9095 138.5582
" />
<path d="M83.9095 138.5582
L83.8619 138.6534
" />
<path d="M83.8619 138.6534
L83.8143 138.7010
" />
<path d="M83.8143 138.7010
L83.7190 138.7486
" />
<path d="M83.7190 138.7486
L83.3381 138.7486
" />
</g><text x="83.6000" y="136.9000"
textLength="2.2024" font-size="1.3333" lengthAdjust="spacingAndGlyphs"
text-anchor="middle" opacity="0" stroke-opacity="0">R1</text>
<g class="stroked-text"><desc>R1</desc>
<path d="M83.4333 136.8548
L83.1000 136.3786
" />
<path d="M82.8619 136.8548
L82.8619 135.8548
" />
<path d="M82.8619 135.8548
L83.2429 135.8548
" />
<path d="M83.2429 135.8548
L83.3381 135.9024
" />
<path d="M83.3381 135.9024
L83.3857 135.9501
" />
<path d="M83.3857 135.9501
L83.4333 136.0453
" />
<path d="M83.4333 136.0453
L83.4333 136.1882
" />
<path d="M83.4333 136.1882
L83.3857 136.2834
" />
<path d="M83.3857 136.2834
L83.3381 136.3310
" />
<path d="M83.3381 136.3310
L83.2429 136.3786
" />
<path d="M83.2429 136.3786
L82.8619 136.3786
" />
<path d="M84.3857 136.8548
L83.8143 136.8548
" />
<path d="M84.1000 136.8548
L84.1000 135.8548
" />
<path d="M84.1000 135.8548
L84.0048 135.9977
" />
<path d="M84.0048 135.9977
L83.9095 136.0929
" />
<path d="M83.9095 136.0929
L83.8143 136.1405
" />
</g><g transform="rotate(-90.000000 93.4600 154.9000)">
<text x="93.4600" y="155.4000"
textLength="12.6786" font-size="1.3333" lengthAdjust="spacingAndGlyphs"
text-anchor="middle" opacity="0" stroke-opacity="0">SN74LVC245APW</text>
</g>
<g class="stroked-text"><desc>SN74LVC245APW</desc>
<path d="M93.8672 160.9238
L93.9148 160.7810
" />
<path d="M93.9148 160.7810
L93.9148 160.5429
" />
<path d="M93.9148 160.5429
L93.8672 160.4476
" />
<path d="M93.8672 160.4476
L93.8196 160.4000
" />
<path d="M93.8196 160.4000
L93.7243 160.3524
" />
<path d="M93.7243 160.3524
L93.6291 160.3524
" />
<path d="M93.6291 160.3524
L93.5339 160.4000
" />
<path d="M93.5339 160.4000
L93.4862 160.4476
" />
<path d="M93.4862 160.4476
L93.4386 160.5429
" />
<path d="M93.4386 160.5429
L93.3910 160.7333
" />
<path d="M93.3910 160.7333
L93.3434 160.8286
" />
<path d="M93.3434 160.8286
L93.2958 160.8762
" />
<path d="M93.2958 160.8762
L93.2005 160.9238
" />
<path d="M93.2005 160.9238
L93.1053 160.9238
" />
<path d="M93.1053 160.9238
L93.0101 160.8762
" />
<path d="M93.0101 160.8762
L92.9624 160.8286
" />
<path d="M92.9624 160.8286
L92.9148 160.7333
" />
<path d="M92.9148 160.7333
L92.9148 160.4952
" />
<path d="M92.9148 160.4952
L92.9624 160.3524
" />
<path d="M93.9148 159.9238
L92.9148 159.9238
" />
<path d="M92.9148 159.9238
L93.9148 159.3524
" />
<path d="M93.9148 159.3524
L92.9148 159.3524
" />
<path d="M92.9148 158.9714
L92.9148 158.3048
" />
<path d="M92.9148 158.3048
L93.9148 158.7333
" />
<path d="M93.2482 157.4952
L93.9148 157.4952
" />
<path d="M92.8672 157.7333
L93.5815 157.9714
" />
<path d="M93.5815 157.9714
L93.5815 157.3524
" />
<path d="M93.9148 156.4952
L93.9148 156.9714
" />
<path d="M93.9148 156.9714
L92.9148 156.9714
" />
<path d="M92.9148 156.3048
L93.9148 155.9714
" />
<path d="M93.9148 155.9714
L92.9148 155.6381
" />
<path d="M93.8196 154.7333
L93.8672 154.7810
" />
<path d="M93.8672 154.7810
L93.9148 154.9238
" />
<path d="M93.9148 154.9238
L93.9148 155.0190
" />
<path d="M93.9148 155.0190
L93.8672 155.1619
" />
<path d="M93.8672 155.1619
L93.7720 155.2571
" />
<path d="M93.7720 155.2571
L93.6767 155.3048
" />
<path d="M93.6767 155.3048
L93.4862 155.3524
" />
<path d="M93.4862 155.3524
L93.3434 155.3524
" />
<path d="M93.3434 155.3524
L93.1529 155.3048
" />
<path d="M93.1529 155.3048
L93.0577 155.2571
" />
<path d="M93.0577 155.2571
L92.9624 155.1619
" />
<path d="M92.9624 155.1619
L92.9148 155.0190
" />
<path d="M92.9148 155.0190
L92.9148 154.9238
" />
<path d="M92.9148 154.9238
L92.9624 154.7810
" />
<path d="M92.9624 154.7810
L93.0101 154.7333
" />
<path d="M93.0101 154.3524
L92.9624 154.3048
" />
<path d="M92.9624 154.3048
L92.9148 154.2095
" />
<path d="M92.9148 154.2095
L92.9148 153.9714
" />
<path d="M92.9148 153.9714
L92.9624 153.8762
" />
<path d="M92.9624 153.8762
L93.0101 153.8286
" />
<path d="M93.0101 153.8286
L93.1053 153.7810
" />
<path d="M93.1053 153.7810
L93.2005 153.7810
" />
<path d="M93.2005 153.7810
L93.3434 153.8286
" />
<path d="M93.3434 153.8286
L93.9148 154.4000
" />
<path d="M93.9148 154.4000
L93.9148 153.7810
" />
<path d="M93.2482 152.9238
L93.9148 152.9238
" />
<path d="M92.8672 153.1619
L93.5815 153.4000
" />
<path d="M93.5815 153.4000
L93.5815 152.7810
" />
<path d="M92.9148 151.9238
L92.9148 152.4000
" />
<path d="M92.9148 152.4000
L93.3910 152.4476
" />
<path d="M93.3910 152.4476
L93.3434 152.4000
" />
<path d="M93.3434 152.4000
L93.2958 152.3048
" />
<path d="M93.2958 152.3048
L93.2958 152.0667
" />
<path d="M93.2958 152.0667
L93.3434 151.9714
" />
<path d="M93.3434 151.9714
L93.3910 151.9238
" />
<path d="M93.3910 151.9238
L93.4862 151.8762
" />
<path d="M93.4862 151.8762
L93.7243 151.8762
" />
<path d="M93.7243 151.8762
L93.8196 151.9238
" />
<path d="M93.8196 151.9238
L93.8672 151.9714
" />
<path d="M93.8672 151.9714
L93.9148 152.0667
" />
<path d="M93.9148 152.0667
L93.9148 152.3048
" />
<path d="M93.9148 152.3048
L93.8672 152.4000
" />
<path d="M93.8672 152.4000
L93.8196 152.4476
" />
<path d="M93.6291 151.4952
L93.6291 151.0190
" />
<path d="M93.9148 151.5905
L92.9148 151.2571
" />
<path d="M92.9148 151.2571
L93.9148 150.9238
" />
<path d="M93.9148 150.5905
L92.9148 150.5905
" />
<path d="M92.9148 150.5905
L92.9148 150.2095
" />
<path d="M92.9148 150.2095
L92.9624 150.1143
" />
<path d="M92.9624 150.1143
L93.0101 150.0667
" />
<path d="M93.0101 150.0667
L93.1053 150.0190
" />
<path d="M93.1053 150.0190
L93.2482 150.0190
" />
<path d="M93.2482 150.0190
L93.3434 150.0667
" />
<path d="M93.3434 150.0667
L93.3910 150.1143
" />
<path d="M93.3910 150.1143
L93.4386 150.2095
" />
<path d="M93.4386 150.2095
L93.4386 150.5905
" />
<path d="M92.9148 149.6857
L93.9148 149.4476
" />
<path d="M93.9148 149.4476
L93.2005 149.2571
" />
<path d="M93.2005 149.2571
L93.9148 149.0667
" />
<path d="M93.9148 149.0667
L92.9148 148.8286
" />
</g><text x="79.7000" y="155.4000"
textLength="2.2500" font-size="1.3333" lengthAdjust="spacingAndGlyphs"
text-anchor="middle" opacity="0" stroke-opacity="0">U3</text>
<g class="stroked-text"><desc>U3</desc>
<path d="M78.9381 154.3548
L78.9381 155.1643
" />
<path d="M78.9381 155.1643
L78.9857 155.2596
" />
<path d="M78.9857 155.2596
L79.0333 155.3072
" />
<path d="M79.0333 155.3072
L79.1286 155.3548
" />
<path d="M79.1286 155.3548
L79.3190 155.3548
" />
<path d="M79.3190 155.3548
L79.4143 155.3072
" />
<path d="M79.4143 155.3072
L79.4619 155.2596
" />
<path d="M79.4619 155.2596
L79.5095 155.1643
" />
<path d="M79.5095 155.1643
L79.5095 154.3548
" />
<path d="M79.8905 154.3548
L80.5095 154.3548
" />
<path d="M80.5095 154.3548
L80.1762 154.7358
" />
<path d="M80.1762 154.7358
L80.3190 154.7358
" />
<path d="M80.3190 154.7358
L80.4143 154.7834
" />
<path d="M80.4143 154.7834
L80.4619 154.8310
" />
<path d="M80.4619 154.8310
L80.5095 154.9262
" />
<path d="M80.5095 154.9262
L80.5095 155.1643
" />
<path d="M80.5095 155.1643
L80.4619 155.2596
" />
<path d="M80.4619 155.2596
L80.4143 155.3072
" />
<path d="M80.4143 155.3072
L80.3190 155.3548
" />
<path d="M80.3190 155.3548
L80.0333 155.3548
" />
<path d="M80.0333 155.3548
L79.9381 155.3072
" />
<path d="M79.9381 155.3072
L79.8905 155.2596
" />
</g><g transform="rotate(-90.000000 98.3000 155.7500)">
<text x="98.3000" y="156.2500"
textLength="6.2500" font-size="1.3333" lengthAdjust="spacingAndGlyphs"
text-anchor="middle" opacity="0" stroke-opacity="0">C_Small</text>
</g>
<g class="stroked-text"><desc>C_Small</desc>
<path d="M98.6596 157.9405
L98.7072 157.9881
" />
<path d="M98.7072 157.9881
L98.7548 158.1310
" />
<path d="M98.7548 158.1310
L98.7548 158.2262
" />
<path d="M98.7548 158.2262
L98.7072 158.3690
" />
<path d="M98.7072 158.3690
L98.6120 158.4643
" />
<path d="M98.6120 158.4643
L98.5167 158.5119
" />
<path d="M98.5167 158.5119
L98.3262 158.5595
" />
<path d="M98.3262 158.5595
L98.1834 158.5595
" />
<path d="M98.1834 158.5595
L97.9929 158.5119
" />
<path d="M97.9929 158.5119
L97.8977 158.4643
" />
<path d="M97.8977 158.4643
L97.8024 158.3690
" />
<path d="M97.8024 158.3690
L97.7548 158.2262
" />
<path d="M97.7548 158.2262
L97.7548 158.1310
" />
<path d="M97.7548 158.1310
L97.8024 157.9881
" />
<path d="M97.8024 157.9881
L97.8501 157.9405
" />
<path d="M98.8501 157.7500
L98.8501 156.9881
" />
<path d="M98.7072 156.7976
L98.7548 156.6548
" />
<path d="M98.7548 156.6548
L98.7548 156.4167
" />
<path d="M98.7548 156.4167
L98.7072 156.3214
" />
<path d="M98.7072 156.3214
L98.6596 156.2738
" />
<path d="M98.6596 156.2738
L98.5643 156.2262
" />
<path d="M98.5643 156.2262
L98.4691 156.2262
" />
<path d="M98.4691 156.2262
L98.3739 156.2738
" />
<path d="M98.3739 156.2738
L98.3262 156.3214
" />
<path d="M98.3262 156.3214
L98.2786 156.4167
" />
<path d="M98.2786 156.4167
L98.2310 156.6071
" />
<path d="M98.2310 156.6071
L98.1834 156.7024
" />
<path d="M98.1834 156.7024
L98.1358 156.7500
" />
<path d="M98.1358 156.7500
L98.0405 156.7976
" />
<path d="M98.0405 156.7976
L97.9453 156.7976
" />
<path d="M97.9453 156.7976
L97.8501 156.7500
" />
<path d="M97.8501 156.7500
L97.8024 156.7024
" />
<path d="M97.8024 156.7024
L97.7548 156.6071
" />
<path d="M97.7548 156.6071
L97.7548 156.3690
" />
<path d="M97.7548 156.3690
L97.8024 156.2262
" />
<path d="M98.7548 155.7976
L98.0882 155.7976
" />
<path d="M98.1834 155.7976
L98.1358 155.7500
" />
<path d="M98.1358 155.7500
L98.0882 155.6548
" />
<path d="M98.0882 155.6548
L98.0882 155.5119
" />
<path d="M98.0882 155.5119
L98.1358 155.4167
" />
<path d="M98.1358 155.4167
L98.2310 155.3690
" />
<path d="M98.2310 155.3690
L98.7548 155.3690
" />
<path d="M98.2310 155.3690
L98.1358 155.3214
" />
<path d="M98.1358 155.3214
L98.0882 155.2262
" />
<path d="M98.0882 155.2262
L98.0882 155.0833
" />
<path d="M98.0882 155.0833
L98.1358 154.9881
" />
<path d="M98.1358 154.9881
L98.2310 154.9405
" />
<path d="M98.2310 154.9405
L98.7548 154.9405
" />
<path d="M98.7548 154.0357
L98.2310 154.0357
" />
<path d="M98.2310 154.0357
L98.1358 154.0833
" />
<path d="M98.1358 154.0833
L98.0882 154.1786
" />
<path d="M98.0882 154.1786
L98.0882 154.3690
" />
<path d="M98.0882 154.3690
L98.1358 154.4643
" />
<path d="M98.7072 154.0357
L98.7548 154.1310
" />
<path d="M98.7548 154.1310
L98.7548 154.3690
" />
<path d="M98.7548 154.3690
L98.7072 154.4643
" />
<path d="M98.7072 154.4643
L98.6120 154.5119
" />
<path d="M98.6120 154.5119
L98.5167 154.5119
" />
<path d="M98.5167 154.5119
L98.4215 154.4643
" />
<path d="M98.4215 154.4643
L98.3739 154.3690
" />
<path d="M98.3739 154.3690
L98.3739 154.1310
" />
<path d="M98.3739 154.1310
L98.3262 154.0357
" />
<path d="M98.7548 153.4167
L98.7072 153.5119
" />
<path d="M98.7072 153.5119
L98.6120 153.5595
" />
<path d="M98.6120 153.5595
L97.7548 153.5595
" />
<path d="M98.7548 152.8929
L98.7072 152.9881
" />
<path d="M98.7072 152.9881
L98.6120 153.0357
" />
<path d="M98.6120 153.0357
L97.7548 153.0357
" />
</g><g transform="rotate(-90.000000 95.8000 155.7500)">
<text x="95.8000" y="156.2500"
textLength="2.2024" font-size="1.3333" lengthAdjust="spacingAndGlyphs"
text-anchor="middle" opacity="0" stroke-opacity="0">C1</text>
</g>
<g class="stroked-text"><desc>C1</desc>
<path d="M96.1596 155.9167
L96.2072 155.9643
" />
<path d="M96.2072 155.9643
L96.2548 156.1071
" />
<path d="M96.2548 156.1071
L96.2548 156.2024
" />
<path d="M96.2548 156.2024
L96.2072 156.3452
" />
<path d="M96.2072 156.3452
L96.1120 156.4405
" />
<path d="M96.1120 156.4405
L96.0167 156.4881
" />
<path d="M96.0167 156.4881
L95.8262 156.5357
" />
<path d="M95.8262 156.5357
L95.6834 156.5357
" />
<path d="M95.6834 156.5357
L95.4929 156.4881
" />
<path d="M95.4929 156.4881
L95.3977 156.4405
" />
<path d="M95.3977 156.4405
L95.3024 156.3452
" />
<path d="M95.3024 156.3452
L95.2548 156.2024
" />
<path d="M95.2548 156.2024
L95.2548 156.1071
" />
<path d="M95.2548 156.1071
L95.3024 155.9643
" />
<path d="M95.3024 155.9643
L95.3501 155.9167
" />
<path d="M96.2548 154.9643
L96.2548 155.5357
" />
<path d="M96.2548 155.2500
L95.2548 155.2500
" />
<path d="M95.2548 155.2500
L95.3977 155.3452
" />
<path d="M95.3977 155.3452
L95.4929 155.4405
" />
<path d="M95.4929 155.4405
L95.5405 155.5357
" />
</g><g transform="rotate(-90.000000 67.5000 155.4500)">
<text x="67.5000" y="155.9500"
textLength="6.2500" font-size="1.3333" lengthAdjust="spacingAndGlyphs"
text-anchor="middle" opacity="0" stroke-opacity="0">C_Small</text>
</g>
<g class="stroked-text"><desc>C_Small</desc>
<path d="M67.8596 157.6405
L67.9072 157.6881
" />
<path d="M67.9072 157.6881
L67.9548 157.8310
" />
<path d="M67.9548 157.8310
L67.9548 157.9262
" />
<path d="M67.9548 157.9262
L67.9072 158.0690
" />
<path d="M67.9072 158.0690
L67.8120 158.1643
" />
<path d="M67.8120 158.1643
L67.7167 158.2119
" />
<path d="M67.7167 158.2119
L67.5262 158.2595
" />
<path d="M67.5262 158.2595
L67.3834 158.2595
" />
<path d="M67.3834 158.2595
L67.1929 158.2119
" />
<path d="M67.1929 158.2119
L67.0977 158.1643
" />
<path d="M67.0977 158.1643
L67.0024 158.0690
" />
<path d="M67.0024 158.0690
L66.9548 157.9262
" />
<path d="M66.9548 157.9262
L66.9548 157.8310
" />
<path d="M66.9548 157.8310
L67.0024 157.6881
" />
<path d="M67.0024 157.6881
L67.0501 157.6405
" />
<path d="M68.0501 157.4500
L68.0501 156.6881
" />
<path d="M67.9072 156.4976
L67.9548 156.3548
" />
<path d="M67.9548 156.3548
L67.9548 156.1167
" />
<path d="M67.9548 156.1167
L67.9072 156.0214
" />
<path d="M67.9072 156.0214
L67.8596 155.9738
" />
<path d="M67.8596 155.9738
L67.7643 155.9262
" />
<path d="M67.7643 155.9262
L67.6691 155.9262
" />
<path d="M67.6691 155.9262
L67.5739 155.9738
" />
<path d="M67.5739 155.9738
L67.5262 156.0214
" />
<path d="M67.5262 156.0214
L67.4786 156.1167
" />
<path d="M67.4786 156.1167
L67.4310 156.3071
" />
<path d="M67.4310 156.3071
L67.3834 156.4024
" />
<path d="M67.3834 156.4024
L67.3358 156.4500
" />
<path d="M67.3358 156.4500
L67.2405 156.4976
" />
<path d="M67.2405 156.4976
L67.1453 156.4976
" />
<path d="M67.1453 156.4976
L67.0501 156.4500
" />
<path d="M67.0501 156.4500
L67.0024 156.4024
" />
<path d="M67.0024 156.4024
L66.9548 156.3071
" />
<path d="M66.9548 156.3071
L66.9548 156.0690
" />
<path d="M66.9548 156.0690
L67.0024 155.9262
" />
<path d="M67.9548 155.4976
L67.2882 155.4976
" />
<path d="M67.3834 155.4976
L67.3358 155.4500
" />
<path d="M67.3358 155.4500
L67.2882 155.3548
" />
<path d="M67.2882 155.3548
L67.2882 155.2119
" />
<path d="M67.2882 155.2119
L67.3358 155.1167
" />
<path d="M67.3358 155.1167
L67.4310 155.0690
" />
<path d="M67.4310 155.0690
L67.9548 155.0690
" />
<path d="M67.4310 155.0690
L67.3358 155.0214
" />
<path d="M67.3358 155.0214
L67.2882 154.9262
" />
<path d="M67.2882 154.9262
L67.2882 154.7833
" />
<path d="M67.2882 154.7833
L67.3358 154.6881
" />
<path d="M67.3358 154.6881
L67.4310 154.6405
" />
<path d="M67.4310 154.6405
L67.9548 154.6405
" />
<path d="M67.9548 153.7357
L67.4310 153.7357
" />
<path d="M67.4310 153.7357
L67.3358 153.7833
" />
<path d="M67.3358 153.7833
L67.2882 153.8786
" />
<path d="M67.2882 153.8786
L67.2882 154.0690
" />
<path d="M67.2882 154.0690
L67.3358 154.1643
" />
<path d="M67.9072 153.7357
L67.9548 153.8310
" />
<path d="M67.9548 153.8310
L67.9548 154.0690
" />
<path d="M67.9548 154.0690
L67.9072 154.1643
" />
<path d="M67.9072 154.1643
L67.8120 154.2119
" />
<path d="M67.8120 154.2119
L67.7167 154.2119
" />
<path d="M67.7167 154.2119
L67.6215 154.1643
" />
<path d="M67.6215 154.1643
L67.5739 154.0690
" />
<path d="M67.5739 154.0690
L67.5739 153.8310
" />
<path d="M67.5739 153.8310
L67.5262 153.7357
" />
<path d="M67.9548 153.1167
L67.9072 153.2119
" />
<path d="M67.9072 153.2119
L67.8120 153.2595
" />
<path d="M67.8120 153.2595
L66.9548 153.2595
" />
<path d="M67.9548 152.5929
L67.9072 152.6881
" />
<path d="M67.9072 152.6881
L67.8120 152.7357
" />
<path d="M67.8120 152.7357
L66.9548 152.7357
" />
</g><g transform="rotate(-90.000000 65.0000 155.4500)">
<text x="65.0000" y="155.9500"
textLength="2.2024" font-size="1.3333" lengthAdjust="spacingAndGlyphs"
text-anchor="middle" opacity="0" stroke-opacity="0">C2</text>
</g>
<g class="stroked-text"><desc>C2</desc>
<path d="M65.3596 155.6167
L65.4072 155.6643
" />
<path d="M65.4072 155.6643
L65.4548 155.8071
" />
<path d="M65.4548 155.8071
L65.4548 155.9024
" />
<path d="M65.4548 155.9024
L65.4072 156.0452
" />
<path d="M65.4072 156.0452
L65.3120 156.1405
" />
<path d="M65.3120 156.1405
L65.2167 156.1881
" />
<path d="M65.2167 156.1881
L65.0262 156.2357
" />
<path d="M65.0262 156.2357
L64.8834 156.2357
" />
<path d="M64.8834 156.2357
L64.6929 156.1881
" />
<path d="M64.6929 156.1881
L64.5977 156.1405
" />
<path d="M64.5977 156.1405
L64.5024 156.0452
" />
<path d="M64.5024 156.0452
L64.4548 155.9024
" />
<path d="M64.4548 155.9024
L64.4548 155.8071
" />
<path d="M64.4548 155.8071
L64.5024 155.6643
" />
<path d="M64.5024 155.6643
L64.5501 155.6167
" />
<path d="M64.5501 155.2357
L64.5024 155.1881
" />
<path d="M64.5024 155.1881
L64.4548 155.0929
" />
<path d="M64.4548 155.0929
L64.4548 154.8548
" />
<path d="M64.4548 154.8548
L64.5024 154.7595
" />
<path d="M64.5024 154.7595
L64.5501 154.7119
" />
<path d="M64.5501 154.7119
L64.6453 154.6643
" />
<path d="M64.6453 154.6643
L64.7405 154.6643
" />
<path d="M64.7405 154.6643
L64.8834 154.7119
" />
<path d="M64.8834 154.7119
L65.4548 155.2833
" />
<path d="M65.4548 155.2833
L65.4548 154.6643
" />
</g><text x="83.5900" y="147.5700"
textLength="1.2500" font-size="1.3333" lengthAdjust="spacingAndGlyphs"
text-anchor="middle" opacity="0" stroke-opacity="0">R</text>
<g class="stroked-text"><desc>R</desc>
<path d="M83.8995 147.5248
L83.5662 147.0486
" />
<path d="M83.3281 147.5248
L83.3281 146.5248
" />
<path d="M83.3281 146.5248
L83.7090 146.5248
" />
<path d="M83.7090 146.5248
L83.8043 146.5724
" />
<path d="M83.8043 146.5724
L83.8519 146.6201
" />
<path d="M83.8519 146.6201
L83.8995 146.7153
" />
<path d="M83.8995 146.7153
L83.8995 146.8582
" />
<path d="M83.8995 146.8582
L83.8519 146.9534
" />
<path d="M83.8519 146.9534
L83.8043 147.0010
" />
<path d="M83.8043 147.0010
L83.7090 147.0486
" />
<path d="M83.7090 147.0486
L83.3281 147.0486
" />
</g><text x="83.5900" y="145.2000"
textLength="2.2024" font-size="1.3333" lengthAdjust="spacingAndGlyphs"
text-anchor="middle" opacity="0" stroke-opacity="0">R3</text>
<g class="stroked-text"><desc>R3</desc>
<path d="M83.4233 145.1548
L83.0900 144.6786
" />
<path d="M82.8519 145.1548
L82.8519 144.1548
" />
<path d="M82.8519 144.1548
L83.2329 144.1548
" />
<path d="M83.2329 144.1548
L83.3281 144.2024
" />
<path d="M83.3281 144.2024
L83.3757 144.2501
" />
<path d="M83.3757 144.2501
L83.4233 144.3453
" />
<path d="M83.4233 144.3453
L83.4233 144.4882
" />
<path d="M83.4233 144.4882
L83.3757 144.5834
" />
<path d="M83.3757 144.5834
L83.3281 144.6310
" />
<path d="M83.3281 144.6310
L83.2329 144.6786
" />
<path d="M83.2329 144.6786
L82.8519 144.6786
" />
<path d="M83.7567 144.1548
L84.3757 144.1548
" />
<path d="M84.3757 144.1548
L84.0424 144.5358
" />
<path d="M84.0424 144.5358
L84.1852 144.5358
" />
<path d="M84.1852 144.5358
L84.2805 144.5834
" />
<path d="M84.2805 144.5834
L84.3281 144.6310
" />
<path d="M84.3281 144.6310
L84.3757 144.7262
" />
<path d="M84.3757 144.7262
L84.3757 144.9643
" />
<path d="M84.3757 144.9643
L84.3281 145.0596
" />
<path d="M84.3281 145.0596
L84.2805 145.1072
" />
<path d="M84.2805 145.1072
L84.1852 145.1548
" />
<path d="M84.1852 145.1548
L83.8995 145.1548
" />
<path d="M83.8995 145.1548
L83.8043 145.1072
" />
<path d="M83.8043 145.1072
L83.7567 145.0596
" />
</g><g transform="rotate(-90.000000 108.7400 118.3300)">
<text x="108.7400" y="118.8300"
textLength="5.2976" font-size="1.3333" lengthAdjust="spacingAndGlyphs"
text-anchor="middle" opacity="0" stroke-opacity="0">Spares</text>
</g>
<g class="stroked-text"><desc>Spares</desc>
<path d="M109.1472 120.6633
L109.1948 120.5205
" />
<path d="M109.1948 120.5205
L109.1948 120.2824
" />
<path d="M109.1948 120.2824
L109.1472 120.1871
" />
<path d="M109.1472 120.1871
L109.0996 120.1395
" />
<path d="M109.0996 120.1395
L109.0043 120.0919
" />
<path d="M109.0043 120.0919
L108.9091 120.0919
" />
<path d="M108.9091 120.0919
L108.8139 120.1395
" />
<path d="M108.8139 120.1395
L108.7662 120.1871
" />
<path d="M108.7662 120.1871
L108.7186 120.2824
" />
<path d="M108.7186 120.2824
L108.6710 120.4729
" />
<path d="M108.6710 120.4729
L108.6234 120.5681
" />
<path d="M108.6234 120.5681
L108.5758 120.6157
" />
<path d="M108.5758 120.6157
L108.4805 120.6633
" />
<path d="M108.4805 120.6633
L108.3853 120.6633
" />
<path d="M108.3853 120.6633
L108.2901 120.6157
" />
<path d="M108.2901 120.6157
L108.2424 120.5681
" />
<path d="M108.2424 120.5681
L108.1948 120.4729
" />
<path d="M108.1948 120.4729
L108.1948 120.2348
" />
<path d="M108.1948 120.2348
L108.2424 120.0919
" />
<path d="M108.5282 119.6633
L109.5282 119.6633
" />
<path d="M108.5758 119.6633
L108.5282 119.5681
" />
<path d="M108.5282 119.5681
L108.5282 119.3776
" />
<path d="M108.5282 119.3776
L108.5758 119.2824
" />
<path d="M108.5758 119.2824
L108.6234 119.2348
" />
<path d="M108.6234 119.2348
L108.7186 119.1871
" />
<path d="M108.7186 119.1871
L109.0043 119.1871
" />
<path d="M109.0043 119.1871
L109.0996 119.2348
" />
<path d="M109.0996 119.2348
L109.1472 119.2824
" />
<path d="M109.1472 119.2824
L109.1948 119.3776
" />
<path d="M109.1948 119.3776
L109.1948 119.5681
" />
<path d="M109.1948 119.5681
L109.1472 119.6633
" />
<path d="M109.1948 118.3300
L108.6710 118.3300
" />
<path d="M108.6710 118.3300
L108.5758 118.3776
" />
<path d="M108.5758 118.3776
L108.5282 118.4729
" />
<path d="M108.5282 118.4729
L108.5282 118.6633
" />
<path d="M108.5282 118.6633
L108.5758 118.7586
" />
<path d="M109.1472 118.3300
L109.1948 118.4252
" />
<path d="M109.1948 118.4252
L109.1948 118.6633
" />
<path d="M109.1948 118.6633
L109.1472 118.7586
" />
<path d="M109.1472 118.7586
L109.0520 118.8062
" />
<path d="M109.0520 118.8062
L108.9567 118.8062
" />
<path d="M108.9567 118.8062
L108.8615 118.7586
" />
<path d="M108.8615 118.7586
L108.8139 118.6633
" />
<path d="M108.8139 118.6633
L108.8139 118.4252
" />
<path d="M108.8139 118.4252
L108.7662 118.3300
" />
<path d="M109.1948 117.8538
L108.5282 117.8538
" />
<path d="M108.7186 117.8538
L108.6234 117.8062
" />
<path d="M108.6234 117.8062
L108.5758 117.7586
" />
<path d="M108.5758 117.7586
L108.5282 117.6633
" />
<path d="M108.5282 117.6633
L108.5282 117.5681
" />
<path d="M109.1472 116.8538
L109.1948 116.9490
" />
<path d="M109.1948 116.9490
L109.1948 117.1395
" />
<path d="M109.1948 117.1395
L109.1472 117.2348
" />
<path d="M109.1472 117.2348
L109.0520 117.2824
" />
<path d="M109.0520 117.2824
L108.6710 117.2824
" />
<path d="M108.6710 117.2824
L108.5758 117.2348
" />
<path d="M108.5758 117.2348
L108.5282 117.1395
" />
<path d="M108.5282 117.1395
L108.5282 116.9490
" />
<path d="M108.5282 116.9490
L108.5758 116.8538
" />
<path d="M108.5758 116.8538
L108.6710 116.8062
" />
<path d="M108.6710 116.8062
L108.7662 116.8062
" />
<path d="M108.7662 116.8062
L108.8615 117.2824
" />
<path d="M109.1472 116.4252
L109.1948 116.3300
" />
<path d="M109.1948 116.3300
L109.1948 116.1395
" />
<path d="M109.1948 116.1395
L109.1472 116.0443
" />
<path d="M109.1472 116.0443
L109.0520 115.9967
" />
<path d="M109.0520 115.9967
L109.0043 115.9967
" />
<path d="M109.0043 115.9967
L108.9091 116.0443
" />
<path d="M108.9091 116.0443
L108.8615 116.1395
" />
<path d="M108.8615 116.1395
L108.8615 116.2824
" />
<path d="M108.8615 116.2824
L108.8139 116.3776
" />
<path d="M108.8139 116.3776
L108.7186 116.4252
" />
<path d="M108.7186 116.4252
L108.6710 116.4252
" />
<path d="M108.6710 116.4252
L108.5758 116.3776
" />
<path d="M108.5758 116.3776
L108.5282 116.2824
" />
<path d="M108.5282 116.2824
L108.5282 116.1395
" />
<path d="M108.5282 116.1395
L108.5758 116.0443
" />
</g><text x="98.7400" y="118.8300"
textLength="1.9643" font-size="1.3333" lengthAdjust="spacingAndGlyphs"
text-anchor="middle" opacity="0" stroke-opacity="0">J1</text>
<g class="stroked-text"><desc>J1</desc>
<path d="M98.4067 117.7848
L98.4067 118.4991
" />
<path d="M98.4067 118.4991
L98.3590 118.6420
" />
<path d="M98.3590 118.6420
L98.2638 118.7372
" />
<path d="M98.2638 118.7372
L98.1210 118.7848
" />
<path d="M98.1210 118.7848
L98.0257 118.7848
" />
<path d="M99.4067 118.7848
L98.8352 118.7848
" />
<path d="M99.1210 118.7848
L99.1210 117.7848
" />
<path d="M99.1210 117.7848
L99.0257 117.9277
" />
<path d="M99.0257 117.9277
L98.9305 118.0229
" />
<path d="M98.9305 118.0229
L98.8352 118.0705
" />
</g><text x="76.4700" y="129.7600"
textLength="17.1548" font-size="1.3333" lengthAdjust="spacingAndGlyphs"
text-anchor="middle" opacity="0" stroke-opacity="0">Conn_02x03_Odd_Even</text>
<g class="stroked-text"><desc>Conn_02x03_Odd_Even</desc>
<path d="M68.8271 129.6196
L68.7795 129.6672
" />
<path d="M68.7795 129.6672
L68.6367 129.7148
" />
<path d="M68.6367 129.7148
L68.5414 129.7148
" />
<path d="M68.5414 129.7148
L68.3986 129.6672
" />
<path d="M68.3986 129.6672
L68.3033 129.5720
" />
<path d="M68.3033 129.5720
L68.2557 129.4767
" />
<path d="M68.2557 129.4767
L68.2081 129.2862
" />
<path d="M68.2081 129.2862
L68.2081 129.1434
" />
<path d="M68.2081 129.1434
L68.2557 128.9529
" />
<path d="M68.2557 128.9529
L68.3033 128.8577
" />
<path d="M68.3033 128.8577
L68.3986 128.7624
" />
<path d="M68.3986 128.7624
L68.5414 128.7148
" />
<path d="M68.5414 128.7148
L68.6367 128.7148
" />
<path d="M68.6367 128.7148
L68.7795 128.7624
" />
<path d="M68.7795 128.7624
L68.8271 128.8101
" />
<path d="M69.3986 129.7148
L69.3033 129.6672
" />
<path d="M69.3033 129.6672
L69.2557 129.6196
" />
<path d="M69.2557 129.6196
L69.2081 129.5243
" />
<path d="M69.2081 129.5243
L69.2081 129.2386
" />
<path d="M69.2081 129.2386
L69.2557 129.1434
" />
<path d="M69.2557 129.1434
L69.3033 129.0958
" />
<path d="M69.3033 129.0958
L69.3986 129.0482
" />
<path d="M69.3986 129.0482
L69.5414 129.0482
" />
<path d="M69.5414 129.0482
L69.6367 129.0958
" />
<path d="M69.6367 129.0958
L69.6843 129.1434
" />
<path d="M69.6843 129.1434
L69.7319 129.2386
" />
<path d="M69.7319 129.2386
L69.7319 129.5243
" />
<path d="M69.7319 129.5243
L69.6843 129.6196
" />
<path d="M69.6843 129.6196
L69.6367 129.6672
" />
<path d="M69.6367 129.6672
L69.5414 129.7148
" />
<path d="M69.5414 129.7148
L69.3986 129.7148
" />
<path d="M70.1605 129.0482
L70.1605 129.7148
" />
<path d="M70.1605 129.1434
L70.2081 129.0958
" />
<path d="M70.2081 129.0958
L70.3033 129.0482
" />
<path d="M70.3033 129.0482
L70.4462 129.0482
" />
<path d="M70.4462 129.0482
L70.5414 129.0958
" />
<path d="M70.5414 129.0958
L70.5890 129.1910
" />
<path d="M70.5890 129.1910
L70.5890 129.7148
" />
<path d="M71.0652 129.0482
L71.0652 129.7148
" />
<path d="M71.0652 129.1434
L71.1129 129.0958
" />
<path d="M71.1129 129.0958
L71.2081 129.0482
" />
<path d="M71.2081 129.0482
L71.3510 129.0482
" />
<path d="M71.3510 129.0482
L71.4462 129.0958
" />
<path d="M71.4462 129.0958
L71.4938 129.1910
" />
<path d="M71.4938 129.1910
L71.4938 129.7148
" />
<path d="M71.7319 129.8101
L72.4938 129.8101
" />
<path d="M72.9224 128.7148
L73.0176 128.7148
" />
<path d="M73.0176 128.7148
L73.1129 128.7624
" />
<path d="M73.1129 128.7624
L73.1605 128.8101
" />
<path d="M73.1605 128.8101
L73.2081 128.9053
" />
<path d="M73.2081 128.9053
L73.2557 129.0958
" />
<path d="M73.2557 129.0958
L73.2557 129.3339
" />
<path d="M73.2557 129.3339
L73.2081 129.5243
" />
<path d="M73.2081 129.5243
L73.1605 129.6196
" />
<path d="M73.1605 129.6196
L73.1129 129.6672
" />
<path d="M73.1129 129.6672
L73.0176 129.7148
" />
<path d="M73.0176 129.7148
L72.9224 129.7148
" />
<path d="M72.9224 129.7148
L72.8271 129.6672
" />
<path d="M72.8271 129.6672
L72.7795 129.6196
" />
<path d="M72.7795 129.6196
L72.7319 129.5243
" />
<path d="M72.7319 129.5243
L72.6843 129.3339
" />
<path d="M72.6843 129.3339
L72.6843 129.0958
" />
<path d="M72.6843 129.0958
L72.7319 128.9053
" />
<path d="M72.7319 128.9053
L72.7795 128.8101
" />
<path d="M72.7795 128.8101
L72.8271 128.7624
" />
<path d="M72.8271 128.7624
L72.9224 128.7148
" />
<path d="M73.6367 128.8101
L73.6843 128.7624
" />
<path d="M73.6843 128.7624
L73.7795 128.7148
" />
<path d="M73.7795 128.7148
L74.0176 128.7148
" />
<path d="M74.0176 128.7148
L74.1129 128.7624
" />
<path d="M74.1129 128.7624
L74.1605 128.8101
" />
<path d="M74.1605 128.8101
L74.2081 128.9053
" />
<path d="M74.2081 128.9053
L74.2081 129.0005
" />
<path d="M74.2081 129.0005
L74.1605 129.1434
" />
<path d="M74.1605 129.1434
L73.5890 129.7148
" />
<path d="M73.5890 129.7148
L74.2081 129.7148
" />
<path d="M74.5414 129.7148
L75.0652 129.0482
" />
<path d="M74.5414 129.0482
L75.0652 129.7148
" />
<path d="M75.6367 128.7148
L75.7319 128.7148
" />
<path d="M75.7319 128.7148
L75.8271 128.7624
" />
<path d="M75.8271 128.7624
L75.8748 128.8101
" />
<path d="M75.8748 128.8101
L75.9224 128.9053
" />
<path d="M75.9224 128.9053
L75.9700 129.0958
" />
<path d="M75.9700 129.0958
L75.9700 129.3339
" />
<path d="M75.9700 129.3339
L75.9224 129.5243
" />
<path d="M75.9224 129.5243
L75.8748 129.6196
" />
<path d="M75.8748 129.6196
L75.8271 129.6672
" />
<path d="M75.8271 129.6672
L75.7319 129.7148
" />
<path d="M75.7319 129.7148
L75.6367 129.7148
" />
<path d="M75.6367 129.7148
L75.5414 129.6672
" />
<path d="M75.5414 129.6672
L75.4938 129.6196
" />
<path d="M75.4938 129.6196
L75.4462 129.5243
" />
<path d="M75.4462 129.5243
L75.3986 129.3339
" />
<path d="M75.3986 129.3339
L75.3986 129.0958
" />
<path d="M75.3986 129.0958
L75.4462 128.9053
" />
<path d="M75.4462 128.9053
L75.4938 128.8101
" />
<path d="M75.4938 128.8101
L75.5414 128.7624
" />
<path d="M75.5414 128.7624
L75.6367 128.7148
" />
<path d="M76.3033 128.7148
L76.9224 128.7148
" />
<path d="M76.9224 128.7148
L76.5890 129.0958
" />
<path d="M76.5890 129.0958
L76.7319 129.0958
" />
<path d="M76.7319 129.0958
L76.8271 129.1434
" />
<path d="M76.8271 129.1434
L76.8748 129.1910
" />
<path d="M76.8748 129.1910
L76.9224 129.2862
" />
<path d="M76.9224 129.2862
L76.9224 129.5243
" />
<path d="M76.9224 129.5243
L76.8748 129.6196
" />
<path d="M76.8748 129.6196
L76.8271 129.6672
" />
<path d="M76.8271 129.6672
L76.7319 129.7148
" />
<path d="M76.7319 129.7148
L76.4462 129.7148
" />
<path d="M76.4462 129.7148
L76.3510 129.6672
" />
<path d="M76.3510 129.6672
L76.3033 129.6196
" />
<path d="M77.1129 129.8101
L77.8748 129.8101
" />
<path d="M78.3033 128.7148
L78.4938 128.7148
" />
<path d="M78.4938 128.7148
L78.5890 128.7624
" />
<path d="M78.5890 128.7624
L78.6843 128.8577
" />
<path d="M78.6843 128.8577
L78.7319 129.0482
" />
<path d="M78.7319 129.0482
L78.7319 129.3815
" />
<path d="M78.7319 129.3815
L78.6843 129.5720
" />
<path d="M78.6843 129.5720
L78.5890 129.6672
" />
<path d="M78.5890 129.6672
L78.4938 129.7148
" />
<path d="M78.4938 129.7148
L78.3033 129.7148
" />
<path d="M78.3033 129.7148
L78.2081 129.6672
" />
<path d="M78.2081 129.6672
L78.1129 129.5720
" />
<path d="M78.1129 129.5720
L78.0652 129.3815
" />
<path d="M78.0652 129.3815
L78.0652 129.0482
" />
<path d="M78.0652 129.0482
L78.1129 128.8577
" />
<path d="M78.1129 128.8577
L78.2081 128.7624
" />
<path d="M78.2081 128.7624
L78.3033 128.7148
" />
<path d="M79.5890 129.7148
L79.5890 128.7148
" />
<path d="M79.5890 129.6672
L79.4938 129.7148
" />
<path d="M79.4938 129.7148
L79.3033 129.7148
" />
<path d="M79.3033 129.7148
L79.2081 129.6672
" />
<path d="M79.2081 129.6672
L79.1605 129.6196
" />
<path d="M79.1605 129.6196
L79.1129 129.5243
" />
<path d="M79.1129 129.5243
L79.1129 129.2386
" />
<path d="M79.1129 129.2386
L79.1605 129.1434
" />
<path d="M79.1605 129.1434
L79.2081 129.0958
" />
<path d="M79.2081 129.0958
L79.3033 129.0482
" />
<path d="M79.3033 129.0482
L79.4938 129.0482
" />
<path d="M79.4938 129.0482
L79.5890 129.0958
" />
<path d="M80.4938 129.7148
L80.4938 128.7148
" />
<path d="M80.4938 129.6672
L80.3986 129.7148
" />
<path d="M80.3986 129.7148
L80.2081 129.7148
" />
<path d="M80.2081 129.7148
L80.1129 129.6672
" />
<path d="M80.1129 129.6672
L80.0652 129.6196
" />
<path d="M80.0652 129.6196
L80.0176 129.5243
" />
<path d="M80.0176 129.5243
L80.0176 129.2386
" />
<path d="M80.0176 129.2386
L80.0652 129.1434
" />
<path d="M80.0652 129.1434
L80.1129 129.0958
" />
<path d="M80.1129 129.0958
L80.2081 129.0482
" />
<path d="M80.2081 129.0482
L80.3986 129.0482
" />
<path d="M80.3986 129.0482
L80.4938 129.0958
" />
<path d="M80.7319 129.8101
L81.4938 129.8101
" />
<path d="M81.7319 129.1910
L82.0652 129.1910
" />
<path d="M82.2081 129.7148
L81.7319 129.7148
" />
<path d="M81.7319 129.7148
L81.7319 128.7148
" />
<path d="M81.7319 128.7148
L82.2081 128.7148
" />
<path d="M82.5414 129.0482
L82.7795 129.7148
" />
<path d="M82.7795 129.7148
L83.0176 129.0482
" />
<path d="M83.7795 129.6672
L83.6843 129.7148
" />
<path d="M83.6843 129.7148
L83.4938 129.7148
" />
<path d="M83.4938 129.7148
L83.3986 129.6672
" />
<path d="M83.3986 129.6672
L83.3510 129.5720
" />
<path d="M83.3510 129.5720
L83.3510 129.1910
" />
<path d="M83.3510 129.1910
L83.3986 129.0958
" />
<path d="M83.3986 129.0958
L83.4938 129.0482
" />
<path d="M83.4938 129.0482
L83.6843 129.0482
" />
<path d="M83.6843 129.0482
L83.7795 129.0958
" />
<path d="M83.7795 129.0958
L83.8271 129.1910
" />
<path d="M83.8271 129.1910
L83.8271 129.2862
" />
<path d="M83.8271 129.2862
L83.3510 129.3815
" />
<path d="M84.2557 129.0482
L84.2557 129.7148
" />
<path d="M84.2557 129.1434
L84.3033 129.0958
" />
<path d="M84.3033 129.0958
L84.3986 129.0482
" />
<path d="M84.3986 129.0482
L84.5414 129.0482
" />
<path d="M84.5414 129.0482
L84.6367 129.0958
" />
<path d="M84.6367 129.0958
L84.6843 129.1910
" />
<path d="M84.6843 129.1910
L84.6843 129.7148
" />
</g><g transform="rotate(-90.000000 76.4700 124.3400)">
<text x="76.4700" y="124.8400"
textLength="1.9643" font-size="1.3333" lengthAdjust="spacingAndGlyphs"
text-anchor="middle" opacity="0" stroke-opacity="0">J2</text>
</g>
<g class="stroked-text"><desc>J2</desc>
<path d="M75.9248 124.6733
L76.6391 124.6733
" />
<path d="M76.6391 124.6733
L76.7820 124.7210
" />
<path d="M76.7820 124.7210
L76.8772 124.8162
" />
<path d="M76.8772 124.8162
L76.9248 124.9590
" />
<path d="M76.9248 124.9590
L76.9248 125.0543
" />
<path d="M76.0201 124.2448
L75.9724 124.1971
" />
<path d="M75.9724 124.1971
L75.9248 124.1019
" />
<path d="M75.9248 124.1019
L75.9248 123.8638
" />
<path d="M75.9248 123.8638
L75.9724 123.7686
" />
<path d="M75.9724 123.7686
L76.0201 123.7210
" />
<path d="M76.0201 123.7210
L76.1153 123.6733
" />
<path d="M76.1153 123.6733
L76.2105 123.6733
" />
<path d="M76.2105 123.6733
L76.3534 123.7210
" />
<path d="M76.3534 123.7210
L76.9248 124.2924
" />
<path d="M76.9248 124.2924
L76.9248 123.6733
" />
</g><text x="148.6500" y="117.4000"
textLength="6.2500" font-size="1.3333" lengthAdjust="spacingAndGlyphs"
text-anchor="middle" opacity="0" stroke-opacity="0">C_Small</text>
<g class="stroked-text"><desc>C_Small</desc>
<path d="M146.4595 117.2596
L146.4119 117.3072
" />
<path d="M146.4119 117.3072
L146.2690 117.3548
" />
<path d="M146.2690 117.3548
L146.1738 117.3548
" />
<path d="M146.1738 117.3548
L146.0310 117.3072
" />
<path d="M146.0310 117.3072
L145.9357 117.2120
" />
<path d="M145.9357 117.2120
L145.8881 117.1167
" />
<path d="M145.8881 117.1167
L145.8405 116.9262
" />
<path d="M145.8405 116.9262
L145.8405 116.7834
" />
<path d="M145.8405 116.7834
L145.8881 116.5929
" />
<path d="M145.8881 116.5929
L145.9357 116.4977
" />
<path d="M145.9357 116.4977
L146.0310 116.4024
" />
<path d="M146.0310 116.4024
L146.1738 116.3548
" />
<path d="M146.1738 116.3548
L146.2690 116.3548
" />
<path d="M146.2690 116.3548
L146.4119 116.4024
" />
<path d="M146.4119 116.4024
L146.4595 116.4501
" />
<path d="M146.6500 117.4501
L147.4119 117.4501
" />
<path d="M147.6024 117.3072
L147.7452 117.3548
" />
<path d="M147.7452 117.3548
L147.9833 117.3548
" />
<path d="M147.9833 117.3548
L148.0786 117.3072
" />
<path d="M148.0786 117.3072
L148.1262 117.2596
" />
<path d="M148.1262 117.2596
L148.1738 117.1643
" />
<path d="M148.1738 117.1643
L148.1738 117.0691
" />
<path d="M148.1738 117.0691
L148.1262 116.9739
" />
<path d="M148.1262 116.9739
L148.0786 116.9262
" />
<path d="M148.0786 116.9262
L147.9833 116.8786
" />
<path d="M147.9833 116.8786
L147.7929 116.8310
" />
<path d="M147.7929 116.8310
L147.6976 116.7834
" />
<path d="M147.6976 116.7834
L147.6500 116.7358
" />
<path d="M147.6500 116.7358
L147.6024 116.6405
" />
<path d="M147.6024 116.6405
L147.6024 116.5453
" />
<path d="M147.6024 116.5453
L147.6500 116.4501
" />
<path d="M147.6500 116.4501
L147.6976 116.4024
" />
<path d="M147.6976 116.4024
L147.7929 116.3548
" />
<path d="M147.7929 116.3548
L148.0310 116.3548
" />
<path d="M148.0310 116.3548
L148.1738 116.4024
" />
<path d="M148.6024 117.3548
L148.6024 116.6882
" />
<path d="M148.6024 116.7834
L148.6500 116.7358
" />
<path d="M148.6500 116.7358
L148.7452 116.6882
" />
<path d="M148.7452 116.6882
L148.8881 116.6882
" />
<path d="M148.8881 116.6882
L148.9833 116.7358
" />
<path d="M148.9833 116.7358
L149.0310 116.8310
" />
<path d="M149.0310 116.8310
L149.0310 117.3548
" />
<path d="M149.0310 116.8310
L149.0786 116.7358
" />
<path d="M149.0786 116.7358
L149.1738 116.6882
" />
<path d="M149.1738 116.6882
L149.3167 116.6882
" />
<path d="M149.3167 116.6882
L149.4119 116.7358
" />
<path d="M149.4119 116.7358
L149.4595 116.8310
" />
<path d="M149.4595 116.8310
L149.4595 117.3548
" />
<path d="M150.3643 117.3548
L150.3643 116.8310
" />
<path d="M150.3643 116.8310
L150.3167 116.7358
" />
<path d="M150.3167 116.7358
L150.2214 116.6882
" />
<path d="M150.2214 116.6882
L150.0310 116.6882
" />
<path d="M150.0310 116.6882
L149.9357 116.7358
" />
<path d="M150.3643 117.3072
L150.2690 117.3548
" />
<path d="M150.2690 117.3548
L150.0310 117.3548
" />
<path d="M150.0310 117.3548
L149.9357 117.3072
" />
<path d="M149.9357 117.3072
L149.8881 117.2120
" />
<path d="M149.8881 117.2120
L149.8881 117.1167
" />
<path d="M149.8881 117.1167
L149.9357 117.0215
" />
<path d="M149.9357 117.0215
L150.0310 116.9739
" />
<path d="M150.0310 116.9739
L150.2690 116.9739
" />
<path d="M150.2690 116.9739
L150.3643 116.9262
" />
<path d="M150.9833 117.3548
L150.8881 117.3072
" />
<path d="M150.8881 117.3072
L150.8405 117.2120
" />
<path d="M150.8405 117.2120
L150.8405 116.3548
" />
<path d="M151.5071 117.3548
L151.4119 117.3072
" />
<path d="M151.4119 117.3072
L151.3643 117.2120
" />
<path d="M151.3643 117.2120
L151.3643 116.3548
" />
</g><text x="148.6500" y="119.9000"
textLength="2.2024" font-size="1.3333" lengthAdjust="spacingAndGlyphs"
text-anchor="middle" opacity="0" stroke-opacity="0">C4</text>
<g class="stroked-text"><desc>C4</desc>
<path d="M148.4833 119.7596
L148.4357 119.8072
" />
<path d="M148.4357 119.8072
L148.2929 119.8548
" />
<path d="M148.2929 119.8548
L148.1976 119.8548
" />
<path d="M148.1976 119.8548
L148.0548 119.8072
" />
<path d="M148.0548 119.8072
L147.9595 119.7120
" />
<path d="M147.9595 119.7120
L147.9119 119.6167
" />
<path d="M147.9119 119.6167
L147.8643 119.4262
" />
<path d="M147.8643 119.4262
L147.8643 119.2834
" />
<path d="M147.8643 119.2834
L147.9119 119.0929
" />
<path d="M147.9119 119.0929
L147.9595 118.9977
" />
<path d="M147.9595 118.9977
L148.0548 118.9024
" />
<path d="M148.0548 118.9024
L148.1976 118.8548
" />
<path d="M148.1976 118.8548
L148.2929 118.8548
" />
<path d="M148.2929 118.8548
L148.4357 118.9024
" />
<path d="M148.4357 118.9024
L148.4833 118.9501
" />
<path d="M149.3405 119.1882
L149.3405 119.8548
" />
<path d="M149.1024 118.8072
L148.8643 119.5215
" />
<path d="M148.8643 119.5215
L149.4833 119.5215
" />
</g><g transform="rotate(-90.000000 124.9700 154.9900)">
<text x="124.9700" y="155.4900"
textLength="12.6786" font-size="1.3333" lengthAdjust="spacingAndGlyphs"
text-anchor="middle" opacity="0" stroke-opacity="0">SN74LVC245APW</text>
</g>
<g class="stroked-text"><desc>SN74LVC245APW</desc>
<path d="M125.3772 161.0138
L125.4248 160.8710
" />
<path d="M125.4248 160.8710
L125.4248 160.6329
" />
<path d="M125.4248 160.6329
L125.3772 160.5376
" />
<path d="M125.3772 160.5376
L125.3296 160.4900
" />
<path d="M125.3296 160.4900
L125.2343 160.4424
" />
<path d="M125.2343 160.4424
L125.1391 160.4424
" />
<path d="M125.1391 160.4424
L125.0439 160.4900
" />
<path d="M125.0439 160.4900
L124.9962 160.5376
" />
<path d="M124.9962 160.5376
L124.9486 160.6329
" />
<path d="M124.9486 160.6329
L124.9010 160.8233
" />
<path d="M124.9010 160.8233
L124.8534 160.9186
" />
<path d="M124.8534 160.9186
L124.8058 160.9662
" />
<path d="M124.8058 160.9662
L124.7105 161.0138
" />
<path d="M124.7105 161.0138
L124.6153 161.0138
" />
<path d="M124.6153 161.0138
L124.5201 160.9662
" />
<path d="M124.5201 160.9662
L124.4724 160.9186
" />
<path d="M124.4724 160.9186
L124.4248 160.8233
" />
<path d="M124.4248 160.8233
L124.4248 160.5852
" />
<path d="M124.4248 160.5852
L124.4724 160.4424
" />
<path d="M125.4248 160.0138
L124.4248 160.0138
" />
<path d="M124.4248 160.0138
L125.4248 159.4424
" />
<path d="M125.4248 159.4424
L124.4248 159.4424
" />
<path d="M124.4248 159.0614
L124.4248 158.3948
" />
<path d="M124.4248 158.3948
L125.4248 158.8233
" />
<path d="M124.7582 157.5852
L125.4248 157.5852
" />
<path d="M124.3772 157.8233
L125.0915 158.0614
" />
<path d="M125.0915 158.0614
L125.0915 157.4424
" />
<path d="M125.4248 156.5852
L125.4248 157.0614
" />
<path d="M125.4248 157.0614
L124.4248 157.0614
" />
<path d="M124.4248 156.3948
L125.4248 156.0614
" />
<path d="M125.4248 156.0614
L124.4248 155.7281
" />
<path d="M125.3296 154.8233
L125.3772 154.8710
" />
<path d="M125.3772 154.8710
L125.4248 155.0138
" />
<path d="M125.4248 155.0138
L125.4248 155.1090
" />
<path d="M125.4248 155.1090
L125.3772 155.2519
" />
<path d="M125.3772 155.2519
L125.2820 155.3471
" />
<path d="M125.2820 155.3471
L125.1867 155.3948
" />
<path d="M125.1867 155.3948
L124.9962 155.4424
" />
<path d="M124.9962 155.4424
L124.8534 155.4424
" />
<path d="M124.8534 155.4424
L124.6629 155.3948
" />
<path d="M124.6629 155.3948
L124.5677 155.3471
" />
<path d="M124.5677 155.3471
L124.4724 155.2519
" />
<path d="M124.4724 155.2519
L124.4248 155.1090
" />
<path d="M124.4248 155.1090
L124.4248 155.0138
" />
<path d="M124.4248 155.0138
L124.4724 154.8710
" />
<path d="M124.4724 154.8710
L124.5201 154.8233
" />
<path d="M124.5201 154.4424
L124.4724 154.3948
" />
<path d="M124.4724 154.3948
L124.4248 154.2995
" />
<path d="M124.4248 154.2995
L124.4248 154.0614
" />
<path d="M124.4248 154.0614
L124.4724 153.9662
" />
<path d="M124.4724 153.9662
L124.5201 153.9186
" />
<path d="M124.5201 153.9186
L124.6153 153.8710
" />
<path d="M124.6153 153.8710
L124.7105 153.8710
" />
<path d="M124.7105 153.8710
L124.8534 153.9186
" />
<path d="M124.8534 153.9186
L125.4248 154.4900
" />
<path d="M125.4248 154.4900
L125.4248 153.8710
" />
<path d="M124.7582 153.0138
L125.4248 153.0138
" />
<path d="M124.3772 153.2519
L125.0915 153.4900
" />
<path d="M125.0915 153.4900
L125.0915 152.8710
" />
<path d="M124.4248 152.0138
L124.4248 152.4900
" />
<path d="M124.4248 152.4900
L124.9010 152.5376
" />
<path d="M124.9010 152.5376
L124.8534 152.4900
" />
<path d="M124.8534 152.4900
L124.8058 152.3948
" />
<path d="M124.8058 152.3948
L124.8058 152.1567
" />
<path d="M124.8058 152.1567
L124.8534 152.0614
" />
<path d="M124.8534 152.0614
L124.9010 152.0138
" />
<path d="M124.9010 152.0138
L124.9962 151.9662
" />
<path d="M124.9962 151.9662
L125.2343 151.9662
" />
<path d="M125.2343 151.9662
L125.3296 152.0138
" />
<path d="M125.3296 152.0138
L125.3772 152.0614
" />
<path d="M125.3772 152.0614
L125.4248 152.1567
" />
<path d="M125.4248 152.1567
L125.4248 152.3948
" />
<path d="M125.4248 152.3948
L125.3772 152.4900
" />
<path d="M125.3772 152.4900
L125.3296 152.5376
" />
<path d="M125.1391 151.5852
L125.1391 151.1090
" />
<path d="M125.4248 151.6805
L124.4248 151.3471
" />
<path d="M124.4248 151.3471
L125.4248 151.0138
" />
<path d="M125.4248 150.6805
L124.4248 150.6805
" />
<path d="M124.4248 150.6805
L124.4248 150.2995
" />
<path d="M124.4248 150.2995
L124.4724 150.2043
" />
<path d="M124.4724 150.2043
L124.5201 150.1567
" />
<path d="M124.5201 150.1567
L124.6153 150.1090
" />
<path d="M124.6153 150.1090
L124.7582 150.1090
" />
<path d="M124.7582 150.1090
L124.8534 150.1567
" />
<path d="M124.8534 150.1567
L124.9010 150.2043
" />
<path d="M124.9010 150.2043
L124.9486 150.2995
" />
<path d="M124.9486 150.2995
L124.9486 150.6805
" />
<path d="M124.4248 149.7757
L125.4248 149.5376
" />
<path d="M125.4248 149.5376
L124.7105 149.3471
" />
<path d="M124.7105 149.3471
L125.4248 149.1567
" />
<path d="M125.4248 149.1567
L124.4248 148.9186
" />
</g><text x="111.2100" y="155.4900"
textLength="2.2500" font-size="1.3333" lengthAdjust="spacingAndGlyphs"
text-anchor="middle" opacity="0" stroke-opacity="0">U2</text>
<g class="stroked-text"><desc>U2</desc>
<path d="M110.4481 154.4448
L110.4481 155.2543
" />
<path d="M110.4481 155.2543
L110.4957 155.3496
" />
<path d="M110.4957 155.3496
L110.5433 155.3972
" />
<path d="M110.5433 155.3972
L110.6386 155.4448
" />
<path d="M110.6386 155.4448
L110.8290 155.4448
" />
<path d="M110.8290 155.4448
L110.9243 155.3972
" />
<path d="M110.9243 155.3972
L110.9719 155.3496
" />
<path d="M110.9719 155.3496
L111.0195 155.2543
" />
<path d="M111.0195 155.2543
L111.0195 154.4448
" />
<path d="M111.4481 154.5401
L111.4957 154.4924
" />
<path d="M111.4957 154.4924
L111.5910 154.4448
" />
<path d="M111.5910 154.4448
L111.8290 154.4448
" />
<path d="M111.8290 154.4448
L111.9243 154.4924
" />
<path d="M111.9243 154.4924
L111.9719 154.5401
" />
<path d="M111.9719 154.5401
L112.0195 154.6353
" />
<path d="M112.0195 154.6353
L112.0195 154.7305
" />
<path d="M112.0195 154.7305
L111.9719 154.8734
" />
<path d="M111.9719 154.8734
L111.4005 155.4448
" />
<path d="M111.4005 155.4448
L112.0195 155.4448
" />
</g></g>
<g style="fill:none; 
stroke:#000000; stroke-width:0.1000; stroke-opacity:1; 
stroke-linecap:round; stroke-linejoin:round;">
<path d="M60.2300 162.2300
L159.2900 162.2300
" />
<path d="M60.2300 164.1350
L60.2300 162.2300
" />
<path d="M60.8650 164.7700
L60.2300 164.1350
" />
<path d="M159.2900 162.2300
L159.2900 164.7700
" />
<path d="M159.2900 164.7700
L60.8650 164.7700
" />
<path d="M131.4000 152.1250
L156.8000 152.1250
" />
<path d="M131.4000 157.4750
L131.4000 152.1250
" />
<path d="M132.4000 158.4750
L131.4000 157.4750
" />
<path d="M156.8000 152.1250
L156.8000 158.4750
" />
<path d="M156.8000 158.4750
L132.4000 158.4750
" />
<path style="fill:none; 
stroke:#000000; stroke-width:0.1000; stroke-opacity:1; 
stroke-linecap:round; stroke-linejoin:round;fill:none"
d="M 131.3400,150.2200
156.8600,150.2200
156.8600,160.3800
131.3400,160.3800
Z" /> 
<path d="M107.2000 140.9000
L109.0100 140.9000
" />
<path d="M109.5100 139.9000
L109.5100 141.9000
" />
<path d="M109.6100 139.9000
L109.6100 141.9000
" />
<path d="M109.7100 139.9000
L109.7100 141.9000
" />
<path d="M114.8200 140.9000
L113.0100 140.9000
" />
<path style="fill:none; 
stroke:#000000; stroke-width:0.1000; stroke-opacity:1; 
stroke-linecap:round; stroke-linejoin:round;fill:none"
d="M 109.0100,139.9000
113.0100,139.9000
113.0100,141.9000
109.0100,141.9000
Z" /> 
<path d="M79.8800 140.5000
L80.5400 140.5000
" />
<path d="M87.5000 140.5000
L86.8400 140.5000
" />
<path style="fill:none; 
stroke:#000000; stroke-width:0.1000; stroke-opacity:1; 
stroke-linecap:round; stroke-linejoin:round;fill:none"
d="M 80.5400,139.2500
86.8400,139.2500
86.8400,141.7500
80.5400,141.7500
Z" /> 
<path style="fill:none; 
stroke:#000000; stroke-width:0.1000; stroke-opacity:1; 
stroke-linecap:round; stroke-linejoin:round;fill:none"
d="M 127.4500,155.5000
129.9500,155.5000
129.9500,160.5000
127.4500,160.5000
Z" /> 
<path d="M79.7900 136.4000
L80.4500 136.4000
" />
<path d="M87.4100 136.4000
L86.7500 136.4000
" />
<path style="fill:none; 
stroke:#000000; stroke-width:0.1000; stroke-opacity:1; 
stroke-linecap:round; stroke-linejoin:round;fill:none"
d="M 80.4500,135.1500
86.7500,135.1500
86.7500,137.6500
80.4500,137.6500
Z" /> 
<path d="M67.0000 151.7250
L92.4000 151.7250
" />
<path d="M67.0000 157.0750
L67.0000 151.7250
" />
<path d="M68.0000 158.0750
L67.0000 157.0750
" />
<path d="M92.4000 151.7250
L92.4000 158.0750
" />
<path d="M92.4000 158.0750
L68.0000 158.0750
" />
<path style="fill:none; 
stroke:#000000; stroke-width:0.1000; stroke-opacity:1; 
stroke-linecap:round; stroke-linejoin:round;fill:none"
d="M 66.9400,149.8200
92.4600,149.8200
92.4600,159.9800
66.9400,159.9800
Z" /> 
<path style="fill:none; 
stroke:#000000; stroke-width:0.1000; stroke-opacity:1; 
stroke-linecap:round; stroke-linejoin:round;fill:none"
d="M 94.5500,153.2500
97.0500,153.2500
97.0500,158.2500
94.5500,158.2500
Z" /> 
<path style="fill:none; 
stroke:#000000; stroke-width:0.1000; stroke-opacity:1; 
stroke-linecap:round; stroke-linejoin:round;fill:none"
d="M 63.7500,152.9500
66.2500,152.9500
66.2500,157.9500
63.7500,157.9500
Z" /> 
<path d="M79.7800 144.7000
L80.4400 144.7000
" />
<path d="M87.4000 144.7000
L86.7400 144.7000
" />
<path style="fill:none; 
stroke:#000000; stroke-width:0.1000; stroke-opacity:1; 
stroke-linecap:round; stroke-linejoin:round;fill:none"
d="M 80.4400,143.4500
86.7400,143.4500
86.7400,145.9500
80.4400,145.9500
Z" /> 
<path d="M89.8500 115.7900
L107.6300 115.7900
" />
<path d="M89.8500 119.6000
L89.8500 115.7900
" />
<path d="M91.1200 120.8700
L89.8500 119.6000
" />
<path d="M107.6300 115.7900
L107.6300 120.8700
" />
<path d="M107.6300 120.8700
L91.1200 120.8700
" />
<path d="M73.9300 121.8000
L75.2000 120.5300
" />
<path d="M73.9300 128.1500
L73.9300 121.8000
" />
<path d="M75.2000 120.5300
L79.0100 120.5300
" />
<path d="M79.0100 120.5300
L79.0100 128.1500
" />
<path d="M79.0100 128.1500
L73.9300 128.1500
" />
</g>
<g style="fill:none; 
stroke:#000000; stroke-width:0.2000; stroke-opacity:1; 
stroke-linecap:round; stroke-linejoin:round;">
<circle cx="156.2300" cy="125.2916" r="2.2000" /> 
<circle cx="156.2300" cy="145.1916" r="2.2000" /> 
<path style="fill:none; 
stroke:#000000; stroke-width:0.1000; stroke-opacity:1; 
stroke-linecap:round; stroke-linejoin:round;fill:none"
d="M 146.1500,118.1500
151.1500,118.1500
151.1500,120.6500
146.1500,120.6500
Z" /> 
</g>
<g style="fill:none; 
stroke:#000000; stroke-width:0.1000; stroke-opacity:1; 
stroke-linecap:round; stroke-linejoin:round;">
<path d="M98.5100 151.8150
L123.9100 151.8150
" />
<path d="M98.5100 157.1650
L98.5100 151.8150
" />
<path d="M99.5100 158.1650
L98.5100 157.1650
" />
<path d="M123.9100 151.8150
L123.9100 158.1650
" />
<path d="M123.9100 158.1650
L99.5100 158.1650
" />
<path style="fill:none; 
stroke:#000000; stroke-width:0.1000; stroke-opacity:1; 
stroke-linecap:round; stroke-linejoin:round;fill:none"
d="M 98.4500,149.9100
123.9700,149.9100
123.9700,160.0700
98.4500,160.0700
Z" /> 
</g> 
</svg>
