<?xml version="1.0" standalone="no"?>
 <!DOCTYPE svg PUBLIC "-//W3C//DTD SVG 1.1//EN" 
 "http://www.w3.org/Graphics/SVG/1.1/DTD/svg11.dtd"> 
<svg
  xmlns:svg="http://www.w3.org/2000/svg"
  xmlns="http://www.w3.org/2000/svg"
  xmlns:xlink="http://www.w3.org/1999/xlink"
  xmlns:inkscape="http://www.inkscape.org/namespaces/inkscape"
  version="1.1"
  width="10.215000000000002cm" height="5.215cm" viewBox="58.925 113.925 102.15 52.15">
<title>SVG Image created as rcbus-tang-9k-F_Mask.svg date 2026-07-26T17:18:41 </title>
  <desc>Image generated by PCBNEW </desc>
<g style="fill:#000000; fill-opacity:1.000000;stroke:#000000; stroke-opacity:1.000000;
stroke-linecap:round; stroke-linejoin:round;"
 transform="translate(0 0) scale(1 1)">
</g>
<g style="fill:#000000; fill-opacity:1.000000; stroke:none;">
<circle cx="65.032000" cy="131.882000" r="1.600000" /> 
<path style="fill:#000000; fill-opacity:1.000000; stroke:none;fill-rule:evenodd;"
d="M 62.350000,164.350000
60.650000,164.350000
60.650000,162.650000
62.350000,162.650000
Z" /> 
<circle cx="64.040000" cy="163.500000" r="0.850000" /> 
<circle cx="66.580000" cy="163.500000" r="0.850000" /> 
<circle cx="69.120000" cy="163.500000" r="0.850000" /> 
<circle cx="71.660000" cy="163.500000" r="0.850000" /> 
<circle cx="74.200000" cy="163.500000" r="0.850000" /> 
<circle cx="76.740000" cy="163.500000" r="0.850000" /> 
<circle cx="79.280000" cy="163.500000" r="0.850000" /> 
<circle cx="81.820000" cy="163.500000" r="0.850000" /> 
<circle cx="84.360000" cy="163.500000" r="0.850000" /> 
<circle cx="86.900000" cy="163.500000" r="0.850000" /> 
<circle cx="89.440000" cy="163.500000" r="0.850000" /> 
<circle cx="91.980000" cy="163.500000" r="0.850000" /> 
<circle cx="94.520000" cy="163.500000" r="0.850000" /> 
<circle cx="97.060000" cy="163.500000" r="0.850000" /> 
<circle cx="99.600000" cy="163.500000" r="0.850000" /> 
<circle cx="102.140000" cy="163.500000" r="0.850000" /> 
<circle cx="104.680000" cy="163.500000" r="0.850000" /> 
<circle cx="107.220000" cy="163.500000" r="0.850000" /> 
<circle cx="109.760000" cy="163.500000" r="0.850000" /> 
<circle cx="112.300000" cy="163.500000" r="0.850000" /> 
<circle cx="114.840000" cy="163.500000" r="0.850000" /> 
<circle cx="117.380000" cy="163.500000" r="0.850000" /> 
<circle cx="119.920000" cy="163.500000" r="0.850000" /> 
<circle cx="122.460000" cy="163.500000" r="0.850000" /> 
<circle cx="125.000000" cy="163.500000" r="0.850000" /> 
<circle cx="127.540000" cy="163.500000" r="0.850000" /> 
<circle cx="130.080000" cy="163.500000" r="0.850000" /> 
<circle cx="132.620000" cy="163.500000" r="0.850000" /> 
<circle cx="135.160000" cy="163.500000" r="0.850000" /> 
<circle cx="137.700000" cy="163.500000" r="0.850000" /> 
<circle cx="140.240000" cy="163.500000" r="0.850000" /> 
<circle cx="142.780000" cy="163.500000" r="0.850000" /> 
<circle cx="145.320000" cy="163.500000" r="0.850000" /> 
<circle cx="147.860000" cy="163.500000" r="0.850000" /> 
<circle cx="150.400000" cy="163.500000" r="0.850000" /> 
<circle cx="152.940000" cy="163.500000" r="0.850000" /> 
<circle cx="155.480000" cy="163.500000" r="0.850000" /> 
<circle cx="158.020000" cy="163.500000" r="0.850000" /> 
<path style="fill:#000000; fill-opacity:1.000000; stroke:none;fill-rule:evenodd;"
d="M 132.120000,159.910000
132.024329,159.890970
131.943223,159.836777
131.889030,159.755671
131.870000,159.660000
131.870000,158.560000
131.889030,158.464329
131.943223,158.383223
132.024329,158.329030
132.120000,158.310000
133.220000,158.310000
133.315671,158.329030
133.396777,158.383223
133.450970,158.464329
133.470000,158.560000
133.470000,159.660000
133.450970,159.755671
133.396777,159.836777
133.315671,159.890970
133.220000,159.910000
Z" /> 
<circle cx="135.210000" cy="159.110000" r="0.800000" /> 
<circle cx="137.750000" cy="159.110000" r="0.800000" /> 
<circle cx="140.290000" cy="159.110000" r="0.800000" /> 
<circle cx="142.830000" cy="159.110000" r="0.800000" /> 
<circle cx="145.370000" cy="159.110000" r="0.800000" /> 
<circle cx="147.910000" cy="159.110000" r="0.800000" /> 
<circle cx="150.450000" cy="159.110000" r="0.800000" /> 
<circle cx="152.990000" cy="159.110000" r="0.800000" /> 
<circle cx="155.530000" cy="159.110000" r="0.800000" /> 
<circle cx="155.530000" cy="151.490000" r="0.800000" /> 
<circle cx="152.990000" cy="151.490000" r="0.800000" /> 
<circle cx="150.450000" cy="151.490000" r="0.800000" /> 
<circle cx="147.910000" cy="151.490000" r="0.800000" /> 
<circle cx="145.370000" cy="151.490000" r="0.800000" /> 
<circle cx="142.830000" cy="151.490000" r="0.800000" /> 
<circle cx="140.290000" cy="151.490000" r="0.800000" /> 
<circle cx="137.750000" cy="151.490000" r="0.800000" /> 
<circle cx="135.210000" cy="151.490000" r="0.800000" /> 
<circle cx="132.670000" cy="151.490000" r="0.800000" /> 
<path style="fill:#000000; fill-opacity:1.000000; stroke:none;fill-rule:evenodd;"
d="M 106.400000,140.350000
106.419030,140.254329
106.473223,140.173223
106.554329,140.119030
106.650000,140.100000
107.750000,140.100000
107.845671,140.119030
107.926777,140.173223
107.980970,140.254329
108.000000,140.350000
108.000000,141.450000
107.980970,141.545671
107.926777,141.626777
107.845671,141.680970
107.750000,141.700000
106.650000,141.700000
106.554329,141.680970
106.473223,141.626777
106.419030,141.545671
106.400000,141.450000
Z" /> 
<circle cx="114.820000" cy="140.900000" r="0.800000" /> 
<circle cx="79.880000" cy="140.500000" r="0.800000" /> 
<circle cx="87.500000" cy="140.500000" r="0.800000" /> 
<circle cx="128.700000" cy="159.250000" r="0.800000" /> 
<circle cx="128.700000" cy="156.750000" r="0.800000" /> 
<circle cx="79.790000" cy="136.400000" r="0.800000" /> 
<circle cx="87.410000" cy="136.400000" r="0.800000" /> 
<path style="fill:#000000; fill-opacity:1.000000; stroke:none;fill-rule:evenodd;"
d="M 67.720000,159.510000
67.624329,159.490970
67.543223,159.436777
67.489030,159.355671
67.470000,159.260000
67.470000,158.160000
67.489030,158.064329
67.543223,157.983223
67.624329,157.929030
67.720000,157.910000
68.820000,157.910000
68.915671,157.929030
68.996777,157.983223
69.050970,158.064329
69.070000,158.160000
69.070000,159.260000
69.050970,159.355671
68.996777,159.436777
68.915671,159.490970
68.820000,159.510000
Z" /> 
<circle cx="70.810000" cy="158.710000" r="0.800000" /> 
<circle cx="73.350000" cy="158.710000" r="0.800000" /> 
<circle cx="75.890000" cy="158.710000" r="0.800000" /> 
<circle cx="78.430000" cy="158.710000" r="0.800000" /> 
<circle cx="80.970000" cy="158.710000" r="0.800000" /> 
<circle cx="83.510000" cy="158.710000" r="0.800000" /> 
<circle cx="86.050000" cy="158.710000" r="0.800000" /> 
<circle cx="88.590000" cy="158.710000" r="0.800000" /> 
<circle cx="91.130000" cy="158.710000" r="0.800000" /> 
<circle cx="91.130000" cy="151.090000" r="0.800000" /> 
<circle cx="88.590000" cy="151.090000" r="0.800000" /> 
<circle cx="86.050000" cy="151.090000" r="0.800000" /> 
<circle cx="83.510000" cy="151.090000" r="0.800000" /> 
<circle cx="80.970000" cy="151.090000" r="0.800000" /> 
<circle cx="78.430000" cy="151.090000" r="0.800000" /> 
<circle cx="75.890000" cy="151.090000" r="0.800000" /> 
<circle cx="73.350000" cy="151.090000" r="0.800000" /> 
<circle cx="70.810000" cy="151.090000" r="0.800000" /> 
<circle cx="68.270000" cy="151.090000" r="0.800000" /> 
<circle cx="95.800000" cy="157.000000" r="0.800000" /> 
<circle cx="95.800000" cy="154.500000" r="0.800000" /> 
<circle cx="65.000000" cy="156.700000" r="0.800000" /> 
<circle cx="65.000000" cy="154.200000" r="0.800000" /> 
<circle cx="79.780000" cy="144.700000" r="0.800000" /> 
<circle cx="87.400000" cy="144.700000" r="0.800000" /> 
<path style="fill:#000000; fill-opacity:1.000000; stroke:none;fill-rule:evenodd;"
d="M 91.970000,120.450000
90.270000,120.450000
90.270000,118.750000
91.970000,118.750000
Z" /> 
<circle cx="91.120000" cy="117.060000" r="0.850000" /> 
<circle cx="93.660000" cy="119.600000" r="0.850000" /> 
<circle cx="93.660000" cy="117.060000" r="0.850000" /> 
<circle cx="96.200000" cy="119.600000" r="0.850000" /> 
<circle cx="96.200000" cy="117.060000" r="0.850000" /> 
<circle cx="98.740000" cy="119.600000" r="0.850000" /> 
<circle cx="98.740000" cy="117.060000" r="0.850000" /> 
<circle cx="101.280000" cy="119.600000" r="0.850000" /> 
<circle cx="101.280000" cy="117.060000" r="0.850000" /> 
<circle cx="103.820000" cy="119.600000" r="0.850000" /> 
<circle cx="103.820000" cy="117.060000" r="0.850000" /> 
<circle cx="106.360000" cy="119.600000" r="0.850000" /> 
<circle cx="106.360000" cy="117.060000" r="0.850000" /> 
<path style="fill:#000000; fill-opacity:1.000000; stroke:none;fill-rule:evenodd;"
d="M 74.350000,122.650000
74.350000,120.950000
76.050000,120.950000
76.050000,122.650000
Z" /> 
<circle cx="77.740000" cy="121.800000" r="0.850000" /> 
<circle cx="75.200000" cy="124.340000" r="0.850000" /> 
<circle cx="77.740000" cy="124.340000" r="0.850000" /> 
<circle cx="75.200000" cy="126.880000" r="0.850000" /> 
<circle cx="77.740000" cy="126.880000" r="0.850000" /> 
<path style="fill:#000000; fill-opacity:1.000000; stroke:none;fill-rule:evenodd;"
d="M 91.220000,147.500000
91.220000,145.500000
92.820000,145.500000
92.820000,147.500000
Z" /> 
</g>
<g style="fill:none; 
stroke:#000000; stroke-width:1.600000; stroke-opacity:1; 
stroke-linecap:round; stroke-linejoin:round;">
<path d="M94.560000 146.300000
L94.560000 146.700000
" />
<path d="M97.100000 146.300000
L97.100000 146.700000
" />
<path d="M99.640000 146.300000
L99.640000 146.700000
" />
<path d="M102.180000 146.300000
L102.180000 146.700000
" />
<path d="M104.720000 146.300000
L104.720000 146.700000
" />
<path d="M107.260000 146.300000
L107.260000 146.700000
" />
<path d="M109.800000 146.300000
L109.800000 146.700000
" />
<path d="M112.340000 146.300000
L112.340000 146.700000
" />
<path d="M114.880000 146.300000
L114.880000 146.700000
" />
<path d="M117.420000 146.300000
L117.420000 146.700000
" />
<path d="M119.960000 146.300000
L119.960000 146.700000
" />
<path d="M122.500000 146.300000
L122.500000 146.700000
" />
<path d="M125.040000 146.300000
L125.040000 146.700000
" />
<path d="M127.580000 146.300000
L127.580000 146.700000
" />
<path d="M130.120000 146.300000
L130.120000 146.700000
" />
<path d="M132.660000 146.300000
L132.660000 146.700000
" />
<path d="M135.200000 146.300000
L135.200000 146.700000
" />
<path d="M137.740000 146.300000
L137.740000 146.700000
" />
<path d="M140.280000 146.300000
L140.280000 146.700000
" />
<path d="M142.820000 146.300000
L142.820000 146.700000
" />
<path d="M145.360000 146.300000
L145.360000 146.700000
" />
<path d="M147.900000 146.300000
L147.900000 146.700000
" />
<path d="M150.440000 146.300000
L150.440000 146.700000
" />
<path d="M150.440000 123.483100
L150.440000 123.883100
" />
<path d="M147.900000 123.483100
L147.900000 123.883100
" />
<path d="M145.360000 123.483100
L145.360000 123.883100
" />
<path d="M142.820000 123.483100
L142.820000 123.883100
" />
<path d="M140.280000 123.483100
L140.280000 123.883100
" />
<path d="M137.740000 123.483100
L137.740000 123.883100
" />
<path d="M135.200000 123.483100
L135.200000 123.883100
" />
<path d="M132.660000 123.483100
L132.660000 123.883100
" />
<path d="M130.120000 123.483100
L130.120000 123.883100
" />
<path d="M127.580000 123.483100
L127.580000 123.883100
" />
<path d="M125.040000 123.483100
L125.040000 123.883100
" />
<path d="M122.500000 123.483100
L122.500000 123.883100
" />
<path d="M119.960000 123.483100
L119.960000 123.883100
" />
<path d="M117.420000 123.483100
L117.420000 123.883100
" />
<path d="M114.880000 123.483100
L114.880000 123.883100
" />
<path d="M112.340000 123.483100
L112.340000 123.883100
" />
<path d="M109.800000 123.483100
L109.800000 123.883100
" />
<path d="M107.260000 123.483100
L107.260000 123.883100
" />
<path d="M104.720000 123.483100
L104.720000 123.883100
" />
<path d="M102.180000 123.483100
L102.180000 123.883100
" />
<path d="M99.640000 123.483100
L99.640000 123.883100
" />
<path d="M97.100000 123.483100
L97.100000 123.883100
" />
<path d="M94.560000 123.483100
L94.560000 123.883100
" />
<path style="fill:#000000; fill-opacity:1.000000; stroke:none;fill-rule:evenodd;"
d="M 91.220000,124.683100
91.220000,122.683100
92.820000,122.683100
92.820000,124.683100
Z" /> 
</g>
<g style="fill:#000000; fill-opacity:1.000000; stroke:none;">
<circle cx="149.900000" cy="119.400000" r="0.800000" /> 
<circle cx="147.400000" cy="119.400000" r="0.800000" /> 
<path style="fill:#000000; fill-opacity:1.000000; stroke:none;fill-rule:evenodd;"
d="M 99.230000,159.600000
99.134329,159.580970
99.053223,159.526777
98.999030,159.445671
98.980000,159.350000
98.980000,158.250000
98.999030,158.154329
99.053223,158.073223
99.134329,158.019030
99.230000,158.000000
100.330000,158.000000
100.425671,158.019030
100.506777,158.073223
100.560970,158.154329
100.580000,158.250000
100.580000,159.350000
100.560970,159.445671
100.506777,159.526777
100.425671,159.580970
100.330000,159.600000
Z" /> 
<circle cx="102.320000" cy="158.800000" r="0.800000" /> 
<circle cx="104.860000" cy="158.800000" r="0.800000" /> 
<circle cx="107.400000" cy="158.800000" r="0.800000" /> 
<circle cx="109.940000" cy="158.800000" r="0.800000" /> 
<circle cx="112.480000" cy="158.800000" r="0.800000" /> 
<circle cx="115.020000" cy="158.800000" r="0.800000" /> 
<circle cx="117.560000" cy="158.800000" r="0.800000" /> 
<circle cx="120.100000" cy="158.800000" r="0.800000" /> 
<circle cx="122.640000" cy="158.800000" r="0.800000" /> 
<circle cx="122.640000" cy="151.180000" r="0.800000" /> 
<circle cx="120.100000" cy="151.180000" r="0.800000" /> 
<circle cx="117.560000" cy="151.180000" r="0.800000" /> 
<circle cx="115.020000" cy="151.180000" r="0.800000" /> 
<circle cx="112.480000" cy="151.180000" r="0.800000" /> 
<circle cx="109.940000" cy="151.180000" r="0.800000" /> 
<circle cx="107.400000" cy="151.180000" r="0.800000" /> 
<circle cx="104.860000" cy="151.180000" r="0.800000" /> 
<circle cx="102.320000" cy="151.180000" r="0.800000" /> 
<circle cx="99.780000" cy="151.180000" r="0.800000" /> 
</g> 
</svg>
