<?xml version="1.0" standalone="no"?>
 <!DOCTYPE svg PUBLIC "-//W3C//DTD SVG 1.1//EN" 
 "http://www.w3.org/Graphics/SVG/1.1/DTD/svg11.dtd"> 
<svg
  xmlns:svg="http://www.w3.org/2000/svg"
  xmlns="http://www.w3.org/2000/svg"
  xmlns:xlink="http://www.w3.org/1999/xlink"
  xmlns:inkscape="http://www.inkscape.org/namespaces/inkscape"
  version="1.1"
  width="297.0022mm" height="210.0072mm" viewBox="0.0000 0.0000 297.0022 210.0072">
<title>SVG Image created as rcbus-tang-9k-F_Courtyard0.svg date 2026-07-26T17:37:03 </title>
  <desc>Image generated by PCBNEW </desc>
<g style="fill:#000000; fill-opacity:1.0000;stroke:#000000; stroke-opacity:1.0000;
stroke-linecap:round; stroke-linejoin:round;"
 transform="translate(0 0) scale(1 1)">
</g>
<g style="fill:none; 
stroke:#000000; stroke-width:0.0500; stroke-opacity:1; 
stroke-linecap:round; stroke-linejoin:round;">
<circle cx="65.0320" cy="131.8820" r="3.4500" /> 
<path d="M59.7000 161.7000
L59.7000 165.3000
" />
<path d="M59.7000 165.3000
L159.8000 165.3000
" />
<path d="M159.8000 161.7000
L59.7000 161.7000
" />
<path d="M159.8000 165.3000
L159.8000 161.7000
" />
<path style="fill:none; 
stroke:#000000; stroke-width:0.0500; stroke-opacity:1; 
stroke-linecap:round; stroke-linejoin:round;fill:none"
d="M 131.0900,149.9700
157.1100,149.9700
157.1100,160.6300
131.0900,160.6300
Z" /> 
<path style="fill:none; 
stroke:#000000; stroke-width:0.0500; stroke-opacity:1; 
stroke-linecap:round; stroke-linejoin:round;fill:none"
d="M 106.1500,139.6500
115.8700,139.6500
115.8700,142.1500
106.1500,142.1500
Z" /> 
<path style="fill:none; 
stroke:#000000; stroke-width:0.0500; stroke-opacity:1; 
stroke-linecap:round; stroke-linejoin:round;fill:none"
d="M 78.8300,139.0000
88.5500,139.0000
88.5500,142.0000
78.8300,142.0000
Z" /> 
<path style="fill:none; 
stroke:#000000; stroke-width:0.0500; stroke-opacity:1; 
stroke-linecap:round; stroke-linejoin:round;fill:none"
d="M 127.2000,155.2500
130.2000,155.2500
130.2000,160.7500
127.2000,160.7500
Z" /> 
<path style="fill:none; 
stroke:#000000; stroke-width:0.0500; stroke-opacity:1; 
stroke-linecap:round; stroke-linejoin:round;fill:none"
d="M 78.7400,134.9000
88.4600,134.9000
88.4600,137.9000
78.7400,137.9000
Z" /> 
<path style="fill:none; 
stroke:#000000; stroke-width:0.0500; stroke-opacity:1; 
stroke-linecap:round; stroke-linejoin:round;fill:none"
d="M 66.6900,149.5700
92.7100,149.5700
92.7100,160.2300
66.6900,160.2300
Z" /> 
<path style="fill:none; 
stroke:#000000; stroke-width:0.0500; stroke-opacity:1; 
stroke-linecap:round; stroke-linejoin:round;fill:none"
d="M 94.3000,153.0000
97.3000,153.0000
97.3000,158.5000
94.3000,158.5000
Z" /> 
<path style="fill:none; 
stroke:#000000; stroke-width:0.0500; stroke-opacity:1; 
stroke-linecap:round; stroke-linejoin:round;fill:none"
d="M 63.5000,152.7000
66.5000,152.7000
66.5000,158.2000
63.5000,158.2000
Z" /> 
<path style="fill:none; 
stroke:#000000; stroke-width:0.0500; stroke-opacity:1; 
stroke-linecap:round; stroke-linejoin:round;fill:none"
d="M 78.7300,143.2000
88.4500,143.2000
88.4500,146.2000
78.7300,146.2000
Z" /> 
<path style="fill:none; 
stroke:#000000; stroke-width:0.0500; stroke-opacity:1; 
stroke-linecap:round; stroke-linejoin:round;fill:none"
d="M 89.3400,115.2800
108.1400,115.2800
108.1400,121.3700
89.3400,121.3700
Z" /> 
<path style="fill:none; 
stroke:#000000; stroke-width:0.0500; stroke-opacity:1; 
stroke-linecap:round; stroke-linejoin:round;fill:none"
d="M 73.4300,120.0300
79.5200,120.0300
79.5200,128.6500
73.4300,128.6500
Z" /> 
<path style="fill:none; 
stroke:#000000; stroke-width:0.0500; stroke-opacity:1; 
stroke-linecap:round; stroke-linejoin:round;fill:none"
d="M 90.7500,122.3915
151.7100,122.3915
151.7100,124.9316
90.7500,124.9316
Z" /> 
<path style="fill:none; 
stroke:#000000; stroke-width:0.0500; stroke-opacity:1; 
stroke-linecap:round; stroke-linejoin:round;fill:none"
d="M 90.7500,124.9415
151.7100,124.9415
151.7100,145.2415
90.7500,145.2415
Z" /> 
<path style="fill:none; 
stroke:#000000; stroke-width:0.0500; stroke-opacity:1; 
stroke-linecap:round; stroke-linejoin:round;fill:none"
d="M 90.7500,145.2515
151.7100,145.2515
151.7100,147.7916
90.7500,147.7916
Z" /> 
<path style="fill:none; 
stroke:#000000; stroke-width:0.0500; stroke-opacity:1; 
stroke-linecap:round; stroke-linejoin:round;fill:none"
d="M 145.9000,117.9000
151.4000,117.9000
151.4000,120.9000
145.9000,120.9000
Z" /> 
<path style="fill:none; 
stroke:#000000; stroke-width:0.0500; stroke-opacity:1; 
stroke-linecap:round; stroke-linejoin:round;fill:none"
d="M 98.2000,149.6600
124.2200,149.6600
124.2200,160.3200
98.2000,160.3200
Z" /> 
</g> 
</svg>
