#VRML V2.0 utf8
DEF TXFM_1 Transform {
  center 0 0 0
  rotation 0 0 1 0
  scale 1 1 1
  scaleOrientation 0 0 1 0
  translation 0 0 0
 children [
DEF TXFM_2 Transform {
  center 0 0 0
  rotation 0 0 1 0
  scale 1 1 1
  scaleOrientation 0 0 1 0
  translation 0 0 0
 children [
DEF TXFM_3 Transform {
  center 0 0 0
  rotation 0 0 1 0
  scale 1 1 1
  scaleOrientation 0 0 1 0
  translation 0 0 0
 children [
DEF SHAPE_1 Shape {
 appearance DEF APP_1 Appearance {
  material Material {
   ambientIntensity 0.122244
   diffuseColor 0.824 0.81999999 0.78100002
   emissiveColor 0 0 0
   shininess 0.1
   specularColor 0.12 0.12 0.12
   transparency 0
} }
 geometry DEF FACE_1 IndexedFaceSet {
  coord DEF COORD_1 Coordinate { point [
  0.98425197 0.098425197 -0.78740157,0.95877765 0.09507144 -0.78740157,
  0.93503937 0.085238721 -0.78740157,0.91465484 0.069597124 -0.78740157,
  0.89901325 0.049212598 -0.78740157,0.88918053 0.025474315 -0.78740157,
  0.88582677 0 -0.78740157,0.88918053 -0.025474315 -0.78740157,
  0.89901325 -0.049212598 -0.78740157,0.91465484 -0.069597124 -0.78740157,
  0.93503937 -0.085238721 -0.78740157,0.95877765 -0.09507144 -0.78740157,
  0.98425197 -0.098425197 -0.78740157,1.0097263 -0.09507144 -0.78740157,
  1.0334646 -0.085238721 -0.78740157,1.0538491 -0.069597124 -0.78740157,
  1.0694907 -0.049212598 -0.78740157,1.0793234 -0.025474315 -0.78740157,
  1.0826772 0 -0.78740157,1.0793234 0.025474315 -0.78740157,
  1.0694907 0.049212598 -0.78740157,1.0538491 0.069597124 -0.78740157,
  1.0334646 0.085238721 -0.78740157,1.0097263 0.09507144 -0.78740157] }
 coordIndex [
  9,1,0,-1,9,2,1,-1,9,3,2,-1,9,4,3,-1,9,5,4,-1,9,6,5,-1,9,7,6,-1,9,8,7,-1,
  9,11,10,-1,9,12,11,-1,9,13,12,-1,9,14,13,-1,9,15,14,-1,9,16,15,-1,9,17,16,-1,9,18,17,-1,
  9,19,18,-1,9,20,19,-1,9,21,20,-1,9,22,21,-1,9,23,22,-1,9,0,23,-1]
  normalPerVertex TRUE
  normal DEF NORM_1 Normal { vector [
  0 0 -1,0 0 -1,
  0 0 -1,0 0 -1,
  0 0 -1,0 0 -1,
  0 0 -1,0 0 -1,
  0 0 -1,0 0 -1,
  0 0 -1,0 0 -1,
  0 0 -1,0 0 -1,
  0 0 -1,0 0 -1,
  0 0 -1,0 0 -1,
  0 0 -1,0 0 -1,
  0 0 -1,0 0 -1,
  0 0 -1,0 0 -1] }
}
}
DEF SHAPE_2 Shape {
 appearance USE APP_1
 geometry DEF FACE_2 IndexedFaceSet {
  coord DEF COORD_2 Coordinate { point [
  0.98425197 0.098425197 -0.78740157,0.98425197 0.098425197 0.21653543,
  0.92113245 -0.075521163 0.21653543,0.94229922 -0.089036432 0.21653543,
  0.96619727 -0.096755089 0.21653543,0.99127075 -0.09817462 0.21653543,
  1.0158873 -0.093202609 0.21653543,1.0384442 -0.082162751 0.21653543,
  1.0574731 -0.065773784 0.21653543,1.0717349 -0.045102693 0.21653543,
  1.0803013 -0.021495244 0.21653543,1.0826145 0.0035116273 0.21653543,
  1.0785239 0.028289878 0.21653543,1.0682959 0.05122635 0.21653543,
  1.0525963 0.070827791 0.21653543,1.0324472 0.085818072 0.21653543,
  1.0091604 0.095221269 0.21653543,0.88582677 0 0.15135849,
  0.88871965 -0.023687455 0.16456127,0.89552591 -0.042605243 0.17893554,
  0.90451187 -0.057697799 0.19359128,0.91253024 -0.067405583 0.20510111,
  0.92113245 0.075521163 0.21653543,0.90498461 0.058345566 0.19430064,
  0.8919396 0.034145942 0.17203213,0.88758272 0.018508794 0.1612544,
  0.98425197 0.098425197 0.21653543,0.96161574 0.09578685 0.21653543,
  0.94019307 0.088013255 0.21653543,0.98425197 0.098425197 -0.78740157,
  0.95877765 0.09507144 -0.78740157,0.93503937 0.085238721 -0.78740157,
  0.91465484 0.069597124 -0.78740157,0.89901325 0.049212598 -0.78740157,
  0.88918053 0.025474315 -0.78740157,0.88582677 0 -0.78740157,
  0.88918053 -0.025474315 -0.78740157,0.89901325 -0.049212598 -0.78740157,
  0.91465484 -0.069597124 -0.78740157,0.93503937 -0.085238721 -0.78740157,
  0.95877765 -0.09507144 -0.78740157,0.98425197 -0.098425197 -0.78740157,
  1.0097263 -0.09507144 -0.78740157,1.0334646 -0.085238721 -0.78740157,
  1.0538491 -0.069597124 -0.78740157,1.0694907 -0.049212598 -0.78740157,
  1.0793234 -0.025474315 -0.78740157,1.0826772 0 -0.78740157,
  1.0793234 0.025474315 -0.78740157,1.0694907 0.049212598 -0.78740157,
  1.0538491 0.069597124 -0.78740157,1.0334646 0.085238721 -0.78740157,
  1.0097263 0.09507144 -0.78740157] }
 coordIndex [
  0,1,16,-1,52,16,15,-1,52,0,16,-1,51,15,14,-1,51,52,15,-1,50,14,13,-1,50,51,14,-1,49,13,12,-1,
  49,50,13,-1,48,12,11,-1,48,49,12,-1,47,11,10,-1,47,48,11,-1,46,10,9,-1,46,47,10,-1,45,9,8,-1,
  45,46,9,-1,44,8,7,-1,44,45,8,-1,43,7,6,-1,43,44,7,-1,42,6,5,-1,42,43,6,-1,41,5,4,-1,
  41,42,5,-1,40,4,3,-1,40,41,4,-1,39,3,2,-1,39,40,3,-1,38,39,2,-1,38,21,20,-1,38,2,21,-1,
  37,20,19,-1,37,38,20,-1,36,19,18,-1,36,37,19,-1,35,18,17,-1,35,17,25,-1,35,36,18,-1,34,25,24,-1,
  34,35,25,-1,33,24,23,-1,33,34,24,-1,32,23,22,-1,32,33,23,-1,31,22,28,-1,31,32,22,-1,30,28,27,-1,
  30,31,28,-1,29,27,26,-1,29,30,27,-1]
  normalPerVertex TRUE
  normal DEF NORM_2 Normal { vector [
  0.12906871 0.99163565 -3.7620091e-05,0.12757725 0.99182864 0,
  -0.59635385 -0.80272168 -1.5221859e-06,-0.41152374 -0.91139902 0.00021111266,
  -0.16548551 -0.9862122 0.00020154076,0.091496444 -0.99580538 0.00019084351,
  0.34242744 -0.93954426 0.0001790208,0.57071299 -0.82114959 0.00016607247,
  0.76125627 -0.64845113 0.00015199836,0.90145645 -0.43286979 0.00013679831,
  0.982042 -0.18866238 0.00012047213,0.99768386 0.068021299 0.00010301961,
  0.94734779 0.32020642 8.4440538e-05,0.83436276 0.55121573 6.4734693e-05,
  0.66620074 0.74577246 4.3901829e-05,0.45398261 0.89101055 2.1941691e-05,
  0.21174261 0.97732547 -1.1459936e-06,-0.99963721 -0.026934082 0,
  -0.98204538 -0.18864483 -3.5081314e-05,-0.91389336 -0.40595432 -0.00012531271,
  -0.81033876 -0.5859616 -0.00030973053,-0.73131497 -0.68203989 -5.948297e-05,
  -0.63164763 0.77525561 0.00010659203,-0.80894037 0.58789064 0.00026438113,
  -0.91907608 0.39408011 0.00016445526,-0.98758156 0.15710703 -0.00020957886,
  -0.11577047 0.99327599 0,-0.19420384 0.9809612 -2.7685827e-05,
  -0.4243708 0.9054885 4.2758386e-05,-0.12359374 0.99233289 -0.00017887341,
  -0.28447637 0.95868303 -0.00023195952,-0.51505772 0.85715544 -0.00031255676,
  -0.71341656 0.70074011 -0.00033726093,-0.87075454 0.49171789 -0.00020391774,
  -0.96516919 0.26162605 -0.00049544772,-0.99992494 -0.012249512 -0.00026228406,
  -0.95937887 -0.28212072 -0.00029594199,-0.86397239 -0.50353896 -0.00047548517,
  -0.71433081 -0.69980797 -0.0005549507,-0.51271395 -0.85855945 -0.0002681532,
  -0.27492022 -0.96146701 -0.0002585766,-0.018669354 -0.99982568 -0.00024780387,
  0.23883504 -0.97106013 -0.00023583491,0.48030516 -0.87710142 -0.00022266956,
  0.68952962 -0.72425746 -0.00020830768,0.85246181 -0.52278946 -0.0001927491,
  0.95816298 -0.28622313 -0.00017599364,0.99953657 -0.030440591 -0.00015804111,
  0.97380473 0.22738586 -0.0001388913,0.88269482 0.46994664 -0.000118544,
  0.73232347 0.68095692 -9.6998949e-05,0.53278594 0.84625004 -7.4255916e-05,
  0.29747845 0.95472853 -5.0314634e-05] }
}
}
DEF SHAPE_3 Shape {
 appearance USE APP_1
 geometry DEF FACE_3 IndexedFaceSet {
  coord DEF COORD_3 Coordinate { point [
  0.98425197 0.098425197 0.21653543,0.98316529 0.098425197 0.23719083,
  0.97991725 0.098425197 0.25761818,0.97454371 0.098425197 0.27759195,
  0.92113245 -0.075521163 0.21653543,0.94229922 -0.089036432 0.21653543,
  0.96619727 -0.096755089 0.21653543,0.99127075 -0.09817462 0.21653543,
  1.0158873 -0.093202609 0.21653543,1.0384442 -0.082162751 0.21653543,
  1.0574731 -0.065773784 0.21653543,1.0717349 -0.045102693 0.21653543,
  1.0803013 -0.021495244 0.21653543,1.0826145 0.0035116273 0.21653543,
  1.0785239 0.028289878 0.21653543,1.0682959 0.05122635 0.21653543,
  1.0525963 0.070827791 0.21653543,1.0324472 0.085818072 0.21653543,
  1.0091604 0.095221269 0.21653543,1.0676412 0 0.30955919,
  1.0619 -0.023308241 0.31749473,1.0524701 -0.04424097 0.32062146,
  1.0402969 -0.062304505 0.31948064,1.0262067 -0.077017686 0.31454431,
  1.0111644 -0.087892094 0.30644523,0.99462301 -0.095278242 0.29488875,
  0.97790225 -0.098336677 0.28072315,0.96227072 -0.097229912 0.2653618,
  0.93996043 -0.088788605 0.24014983,0.99060973 0.096409656 0.29170879,
  1.0082601 0.089515889 0.30460436,1.0236424 0.079184772 0.31334679,
  1.03818 0.064860662 0.31894141,1.0502227 0.048107494 0.32071965,
  1.0588377 0.031234615 0.31915863,1.0644515 0.01515535 0.31522294,
  0.96226012 -0.096755089 0.25385016,1.0108559 -0.093202609 0.26422048,
  1.0026398 -0.093202609 0.2932051,1.051526 -0.065773784 0.27289945,
  1.0418144 -0.065773784 0.30715944,1.0734371 -0.023308241 0.27757527,
  1.0629199 -0.023308241 0.31467738,1.0721133 0.028289878 0.27729277,
  1.0616448 0.028289878 0.31422317,1.0467566 0.070827791 0.27188166,
  1.0372204 0.070827791 0.305523] }
 coordIndex [
  28,4,5,-1,28,5,6,-1,1,18,0,-1,2,18,1,-1,3,29,2,-1,36,6,7,-1,36,26,27,-1,36,27,28,-1,
  36,28,6,-1,37,7,8,-1,37,8,9,-1,37,25,26,-1,37,26,36,-1,37,36,7,-1,38,24,25,-1,38,37,24,-1,
  38,25,37,-1,39,9,10,-1,39,10,11,-1,39,23,24,-1,39,37,9,-1,39,24,37,-1,40,23,39,-1,40,21,22,-1,
  40,22,23,-1,40,39,21,-1,41,11,12,-1,41,12,13,-1,41,21,39,-1,41,39,11,-1,42,19,20,-1,42,20,21,-1,
  42,41,19,-1,42,21,41,-1,43,13,14,-1,43,14,15,-1,43,35,19,-1,43,41,13,-1,43,19,41,-1,44,33,34,-1,
  44,34,35,-1,44,35,43,-1,44,43,33,-1,45,18,2,-1,45,2,29,-1,45,15,16,-1,45,16,17,-1,45,17,18,-1,
  45,29,30,-1,45,30,31,-1,45,43,15,-1,45,33,43,-1,46,31,32,-1,46,32,33,-1,46,45,31,-1,46,33,45,-1]
  normalPerVertex TRUE
  normal DEF NORM_3 Normal { vector [
  0.12757438 0.9918063 0.0067116785,0.13331574 0.99097379 0.014066395,
  0.33564728 0.93943405 0.069314975,0.10091217 0.99452486 0.027148382,
  -0.53763366 -0.84200814 -0.044410992,-0.42601193 -0.90412626 -0.032703977,
  -0.21777789 -0.9757919 -0.020073643,0.071238047 -0.99643599 0.045171357,
  0.32123013 -0.94639444 0.033893597,0.54843116 -0.83149526 0.088537553,
  0.74164513 -0.66621248 0.078252377,0.88072815 -0.45904481 0.11660099,
  0.97070046 -0.21723674 0.10270741,0.99050618 0.030600107 0.13401917,
  0.9529492 0.28596857 0.10054747,0.84803333 0.51689227 0.11688388,
  0.69252193 0.71768674 0.073069295,0.48675099 0.86672586 0.10890254,
  0.31635953 0.93797222 0.1418618,0.97770238 -0.0023726121 0.20998199,
  0.91487601 -0.23091903 0.33117711,0.85565147 -0.4688889 0.21909762,
  0.7271101 -0.63223107 0.26757198,0.58820166 -0.79387849 0.15419387,
  0.51829606 -0.84844374 0.10729593,0.19883874 -0.97868055 0.051454171,
  0.11025132 -0.99209295 -0.059968485,-0.20323983 -0.97830482 -0.04016523,
  -0.37160664 -0.9277753 -0.033785967,0.36640273 0.92881383 -0.055262195,
  0.45123338 0.89215081 0.021339485,0.5482466 0.82217824 0.15312941,
  0.7075396 0.66310953 0.24428154,0.82842473 0.52087071 0.20592757,
  0.89109205 0.33341891 0.30787464,0.95227308 0.16506993 0.25676429,
  -0.03825744 -0.9992641 -0.0027631635,0.33712347 -0.93939546 0.062321315,
  0.33688235 -0.93448898 0.11506789,0.72579857 -0.67440509 0.13562524,
  0.73945179 -0.63431949 0.2254991,0.95833433 -0.2325146 0.16592849,
  0.92976828 -0.25164526 0.26871102,0.94315869 0.28893489 0.16422032,
  0.90123915 0.34554003 0.26147672,0.60744309 0.78627552 0.11306503,
  0.71647371 0.66374177 0.21473773] }
}
}
DEF SHAPE_4 Shape {
 appearance DEF APP_2 Appearance {
  material Material {
   ambientIntensity 0.20517451
   diffuseColor 0.80900002 0.426 0.148
   emissiveColor 0 0 0
   shininess 0.1
   specularColor 0.12 0.12 0.12
   transparency 0
} }
 geometry DEF FACE_4 IndexedFaceSet {
  coord DEF COORD_4 Coordinate { point [
  0.49212598 -0.51181102 0.78740157,0.49212598 -0.51181102 0.78740157,
  -0.25590551 0 0.78740157,-0.1653482 -0.16948926 0.78740157,
  -0.037095525 -0.31259233 0.78740157,0.12149932 -0.4211046 0.78740157,
  0.30134353 -0.48880466 0.78740157,-0.23603983 0 0.61615418,
  -0.17749793 0 0.45400251,-0.083389244 0 0.30955919,
  0.0097082574 -0.098425197 0.27759195,-0.0063577584 -0.096409656 0.29170879,
  -0.024008156 -0.089515889 0.30460436,-0.039390444 -0.079184772 0.31334679,
  -0.053928069 -0.064860662 0.31894141,-0.0659707 -0.048107494 0.32071965,
  -0.074585759 -0.031234615 0.31915863,-0.080199495 -0.01515535 0.31522294,
  0.032826437 -0.094147989 0.25355949,0.049665553 -0.085542682 0.23357652,
  0.063119516 -0.075521163 0.21653543,0.07926736 -0.058345566 0.19430064,
  0.092312371 -0.034145942 0.17203213,0.09666925 -0.018508794 0.1612544,
  0.098425197 0 0.15135849,0.24792281 0 0.080354245,
  0.40937464 0 0.043961372,0.57487732 0 0.043961372,
  0.73632916 0 0.080354245,0.88582677 0 0.15135849,
  0.88871965 -0.023687455 0.16456127,0.89552591 -0.042605243 0.17893554,
  0.90451187 -0.057697799 0.19359128,0.91253024 -0.067405583 0.20510111,
  0.92113245 -0.075521163 0.21653543,1.0676412 0 0.30955919,
  1.0619 -0.023308241 0.31749473,1.0524701 -0.04424097 0.32062146,
  1.0402969 -0.062304505 0.31948064,1.0262067 -0.077017686 0.31454431,
  1.0111644 -0.087892094 0.30644523,0.99462301 -0.095278242 0.29488875,
  0.97790225 -0.098336677 0.28072315,0.96227072 -0.097229912 0.2653618,
  0.93996043 -0.088788605 0.24014983,1.1697659 0 0.47061258,
  1.2278478 0 0.65225544,1.238112 0 0.84268204,
  1.1998914 0 1.0295157,1.11567 0 1.2006134,
  0.9909218 0 1.3448546,0.8337547 0 1.4528645,
  0.65438368 0 1.5176232,0.46446684 0 1.5349215,
  0.27634768 0 1.5036354,0.10225288 0 1.4257981,
  -0.046502382 0 1.3064686,-0.16024986 0 1.1534028,
  -0.23159661 0 0.97654893,-0.25590551 0 0.78740157,
  -0.1653482 -0.16948926 0.78740157,-0.037095525 -0.31259233 0.78740157,
  0.12149932 -0.4211046 0.78740157,0.30134353 -0.48880466 0.78740157,
  -0.12701459 -0.20808906 0.67823039,-0.0523371 -0.20808906 0.47305567,
  0.088010675 -0.20808906 0.3057957,0.066272663 -0.37161243 0.63240364,
  0.27710072 -0.20808906 0.19662451,0.14496718 -0.37161243 0.49610075,
  0.2585422 -0.47596064 0.74621445,0.49212598 -0.20808906 0.15870976,
  0.26553416 -0.37161243 0.39493303,0.28671585 -0.47596064 0.66880798,
  0.70715125 -0.20808906 0.19662451,0.41343147 -0.37161243 0.34110281,
  0.339665 -0.47596064 0.60570564,0.89624129 -0.20808906 0.3057957,
  0.5708205 -0.37161243 0.34110281,0.41100319 -0.47596064 0.56451852,
  1.0365891 -0.20808906 0.47305567,0.7187178 -0.37161243 0.39493303,
  0.49212598 -0.47596064 0.55021438,1.1112666 -0.20808906 0.67823039,
  0.83928479 -0.37161243 0.49610075,0.57324878 -0.47596064 0.56451852,
  1.1112666 -0.20808906 0.89657276,0.91797931 -0.37161243 0.63240364,
  0.64458697 -0.47596064 0.60570564,1.0365891 -0.20808906 1.1017475,
  0.94530962 -0.37161243 0.78740157,0.69753612 -0.47596064 0.66880798,
  0.89624129 -0.20808906 1.2690074,0.91797931 -0.37161243 0.94239951,
  0.72570977 -0.47596064 0.74621445,0.70715125 -0.20808906 1.3781786,
  0.83928479 -0.37161243 1.0787024,0.72570977 -0.47596064 0.8285887,
  0.49212598 -0.20808906 1.4160934,0.7187178 -0.37161243 1.1798701,
  0.69753612 -0.47596064 0.90599517,0.27710072 -0.20808906 1.3781786,
  0.5708205 -0.37161243 1.2337003,0.64458697 -0.47596064 0.96909751,
  0.088010675 -0.20808906 1.2690074,0.41343147 -0.37161243 1.2337003,
  0.57324878 -0.47596064 1.0102846,-0.0523371 -0.20808906 1.1017475,
  0.26553416 -0.37161243 1.1798701,0.49212598 -0.47596064 1.0245888,
  -0.12701459 -0.20808906 0.89657276,0.14496718 -0.37161243 1.0787024,
  0.41100319 -0.47596064 1.0102846,0.066272663 -0.37161243 0.94239951,
  0.339665 -0.47596064 0.96909751,0.28671585 -0.47596064 0.90599517,
  0.2585422 -0.47596064 0.8285887] }
 coordIndex [
  3,2,7,-1,17,8,9,-1,16,8,17,-1,15,8,16,-1,14,8,15,-1,25,20,21,-1,25,21,22,-1,25,22,23,-1,
  25,23,24,-1,30,28,29,-1,31,28,30,-1,32,28,31,-1,33,28,32,-1,45,36,35,-1,45,37,36,-1,45,38,37,-1,
  60,58,59,-1,64,4,3,-1,64,7,8,-1,64,3,7,-1,65,12,11,-1,65,13,12,-1,65,14,13,-1,65,64,8,-1,
  65,8,14,-1,66,65,11,-1,66,11,10,-1,66,10,18,-1,66,18,19,-1,66,19,20,-1,67,5,4,-1,67,64,65,-1,
  67,4,64,-1,68,25,26,-1,68,66,20,-1,68,20,25,-1,69,65,66,-1,69,67,65,-1,70,6,5,-1,70,1,6,-1,
  70,5,67,-1,71,68,26,-1,71,26,27,-1,72,66,68,-1,72,69,66,-1,73,67,69,-1,73,1,70,-1,73,70,67,-1,
  74,27,28,-1,74,28,33,-1,74,33,34,-1,74,34,44,-1,74,71,27,-1,75,72,68,-1,75,68,71,-1,76,73,69,-1,
  76,1,73,-1,76,69,72,-1,77,42,41,-1,77,43,42,-1,77,44,43,-1,77,74,44,-1,78,75,71,-1,78,71,74,-1,
  79,76,72,-1,79,1,76,-1,79,72,75,-1,80,39,38,-1,80,40,39,-1,80,41,40,-1,80,38,45,-1,80,77,41,-1,
  81,78,74,-1,81,74,77,-1,82,79,75,-1,82,75,78,-1,82,1,79,-1,83,45,46,-1,83,46,47,-1,83,80,45,-1,
  84,77,80,-1,84,81,77,-1,85,1,82,-1,85,82,78,-1,85,78,81,-1,86,47,48,-1,86,83,47,-1,87,80,83,-1,
  87,84,80,-1,88,85,81,-1,88,81,84,-1,88,1,85,-1,89,48,49,-1,89,86,48,-1,90,83,86,-1,90,87,83,-1,
  91,1,88,-1,91,84,87,-1,91,88,84,-1,92,49,50,-1,92,50,51,-1,92,89,49,-1,93,90,86,-1,93,86,89,-1,
  94,87,90,-1,94,91,87,-1,94,1,91,-1,95,51,52,-1,95,92,51,-1,96,89,92,-1,96,93,89,-1,97,0,1,-1,
  97,1,94,-1,97,90,93,-1,97,94,90,-1,98,52,53,-1,98,53,54,-1,98,95,52,-1,99,96,92,-1,99,92,95,-1,
  100,0,97,-1,100,93,96,-1,100,97,93,-1,101,98,54,-1,101,54,55,-1,102,95,98,-1,102,99,95,-1,103,0,100,-1,
  103,96,99,-1,103,100,96,-1,104,101,55,-1,104,55,56,-1,105,98,101,-1,105,102,98,-1,106,99,102,-1,106,0,103,-1,
  106,103,99,-1,107,56,57,-1,107,57,58,-1,107,104,56,-1,108,101,104,-1,108,105,101,-1,109,106,102,-1,109,0,106,-1,
  109,102,105,-1,110,107,58,-1,110,60,61,-1,110,58,60,-1,111,108,104,-1,111,104,107,-1,112,105,108,-1,112,0,109,-1,
  112,109,105,-1,113,107,110,-1,113,111,107,-1,113,61,62,-1,113,110,61,-1,114,108,111,-1,114,0,112,-1,114,112,108,-1,
  115,111,113,-1,115,114,111,-1,115,0,114,-1,116,62,63,-1,116,63,0,-1,116,113,62,-1,116,115,113,-1,116,0,115,-1]
  normalPerVertex TRUE
  normal DEF NORM_4 Normal { vector [
  -0.0058199703 -0.99370583 0.11186983,0.011022445 -0.99491621 -0.10010116,
  -0.8774196 -0.46880114 -0.10178573,-0.84330693 -0.52937247 -0.092726501,
  -0.65063049 -0.75365877 -0.093158023,-0.47580091 -0.8759752 -0.079252427,
  -0.23735202 -0.96982092 -0.055779918,-0.84927006 -0.49385211 -0.18668279,
  -0.791207 -0.50039068 -0.35156884,-0.78312562 -0.35550299 -0.51022728,
  -0.56199888 -0.55824914 -0.6103402,-0.61590108 -0.58782721 -0.52452362,
  -0.63637516 -0.57633445 -0.51270388,-0.68181884 -0.54124179 -0.49211827,
  -0.74332488 -0.49376202 -0.45129502,-0.75537565 -0.46104629 -0.46566506,
  -0.7675377 -0.41317309 -0.49007537,-0.77799229 -0.37434853 -0.50457029,
  -0.5306574 -0.55191484 -0.64326724,-0.48792371 -0.55143479 -0.67664624,
  -0.39057649 -0.52639598 -0.75522002,-0.30019927 -0.59236622 -0.74765143,
  -0.3556199 -0.49980008 -0.78976855,-0.38548569 -0.42641367 -0.81827389,
  -0.39236336 -0.40446465 -0.82611098,-0.30336324 -0.49978798 -0.81128461,
  -0.1172256 -0.50518592 -0.8550119,0.1172256 -0.50518592 -0.8550119,
  0.2985315 -0.49698259 -0.81479277,0.3910762 -0.4111817 -0.82340089,
  0.38106956 -0.4396778 -0.81330771,0.35095067 -0.50830348 -0.78642304,
  0.30619219 -0.58358028 -0.75211728,0.37044732 -0.50219853 -0.78138686,
  0.42636986 -0.58453379 -0.69031079,0.78671399 -0.36362187 -0.49885893,
  0.77971608 -0.3898848 -0.4899313,0.76389531 -0.44689187 -0.4655659,
  0.74899151 -0.48910393 -0.4469777,0.6889789 -0.53575307 -0.48813596,
  0.64579963 -0.56903226 -0.50906299,0.61712645 -0.58788352 -0.52301808,
  0.5752089 -0.56345271 -0.59300571,0.53967451 -0.55297139 -0.63480238,
  0.43190468 -0.55910892 -0.7077115,0.79756848 -0.49670134 -0.34230439,
  0.85316356 -0.497545 -0.15671922,0.86456818 -0.50087426 0.040581183,
  0.81758768 -0.49963824 0.28620275,0.70029775 -0.50263519 0.5068934,
  0.57805552 -0.4984903 0.64603346,0.40931686 -0.50013681 0.76310083,
  0.17417749 -0.50001899 0.84831787,-0.03204677 -0.49884168 0.86610044,
  -0.21335483 -0.50292518 0.83758342,-0.444775 -0.49969392 0.74329078,
  -0.63821898 -0.50069446 0.58479192,-0.75646334 -0.49764467 0.42439722,
  -0.83533981 -0.49753522 0.23380782,-0.87638804 -0.46824999 0.11263191,
  -0.84546755 -0.52479089 0.098889518,-0.65063049 -0.75365877 0.093158023,
  -0.47580091 -0.8759752 0.079252427,-0.23735202 -0.96982092 0.055779918,
  -0.763079 -0.60810666 -0.21889891,-0.6718508 -0.6354538 -0.38054562,
  -0.47137724 -0.67440894 -0.56830985,-0.54898942 -0.81085302 -0.20280037,
  -0.26134219 -0.61531059 -0.74370232,-0.4464348 -0.81263051 -0.37460328,
  -0.31173526 -0.94418737 -0.10644876,0 -0.62426346 -0.78121388,
  -0.29138962 -0.81263051 -0.50470163,-0.29630787 -0.93964649 -0.17107343,
  0.26386253 -0.61518521 -0.74291569,-0.10119855 -0.81263051 -0.57392552,
  -0.21992776 -0.93964649 -0.2620997,0.47325634 -0.67686048 -0.56381586,
  0.10119855 -0.81263051 -0.57392552,-0.11702112 -0.93964649 -0.32151288,
  0.67320548 -0.6342855 -0.38010036,0.29138962 -0.81263051 -0.50470163,
  0 -0.93964649 -0.34214686,0.78278643 -0.60639718 -0.13974212,
  0.4464348 -0.81263051 -0.37460328,0.11702112 -0.93964649 -0.32151288,
  0.77093042 -0.62139731 0.13975574,0.54763336 -0.81263051 -0.19932224,
  0.21992776 -0.93964649 -0.2620997,0.6835313 -0.6206959 0.38408536,
  0.58277925 -0.81263051 0,0.29630787 -0.93964649 -0.17107343,
  0.5168857 -0.60635555 0.60428645,0.54763336 -0.81263051 0.19932224,
  0.33694888 -0.93964649 -0.059413179,0.26759593 -0.6215391 0.73626189,
  0.4464348 -0.81263051 0.37460328,0.33694888 -0.93964649 0.059413179,
  -0.0087598263 -0.60634005 0.79515722,0.29138962 -0.81263051 0.50470163,
  0.29630787 -0.93964649 0.17107343,-0.27743909 -0.62055793 0.7334408,
  0.10119855 -0.81263051 0.57392552,0.21992776 -0.93964649 0.2620997,
  -0.50125986 -0.62144666 0.6021151,-0.10119855 -0.81263051 0.57392552,
  0.11702112 -0.93964649 0.32151288,-0.69008867 -0.6063928 0.39505114,
  -0.29138962 -0.81263051 0.50470163,0 -0.93964649 0.34214686,
  -0.75122122 -0.62839522 0.20195577,-0.4464348 -0.81263051 0.37460328,
  -0.11702112 -0.93964649 0.32151288,-0.54898942 -0.81085302 0.20280037,
  -0.21992776 -0.93964649 0.2620997,-0.29630787 -0.93964649 0.17107343,
  -0.31173526 -0.94418737 0.10644876] }
}
}
DEF SHAPE_5 Shape {
 appearance USE APP_2
 geometry DEF FACE_5 IndexedFaceSet {
  coord DEF COORD_5 Coordinate { point [
  0.49212598 0.51181102 0.78740157,0.30134353 0.48880466 0.78740157,
  0.12149932 0.4211046 0.78740157,-0.037095525 0.31259233 0.78740157,
  -0.1653482 0.16948926 0.78740157,-0.25590551 0 0.78740157,
  0.49212598 0.51181102 0.78740157,0.30134353 0.48880466 0.78740157,
  0.12149932 0.4211046 0.78740157,-0.037095525 0.31259233 0.78740157,
  -0.1653482 0.16948926 0.78740157,-0.25590551 0 0.78740157,
  1.0676412 0 0.30955919,1.1697659 0 0.47061258,
  1.2278478 0 0.65225544,1.238112 0 0.84268204,
  1.1998914 0 1.0295157,1.11567 0 1.2006134,
  0.9909218 0 1.3448546,0.8337547 0 1.4528645,
  0.65438368 0 1.5176232,0.46446684 0 1.5349215,
  0.27634768 0 1.5036354,0.10225288 0 1.4257981,
  -0.046502382 0 1.3064686,-0.16024986 0 1.1534028,
  -0.23159661 0 0.97654893,0.97454371 0.098425197 0.27759195,
  0.99060973 0.096409656 0.29170879,1.0082601 0.089515889 0.30460436,
  1.0236424 0.079184772 0.31334679,1.03818 0.064860662 0.31894141,
  1.0502227 0.048107494 0.32071965,1.0588377 0.031234615 0.31915863,
  1.0644515 0.01515535 0.31522294,0.95142553 0.094147989 0.25355949,
  0.93458642 0.085542682 0.23357652,0.92113245 0.075521163 0.21653543,
  0.90498461 0.058345566 0.19430064,0.8919396 0.034145942 0.17203213,
  0.88758272 0.018508794 0.1612544,0.88582677 0 0.15135849,
  0.098425197 0 0.15135849,0.24792281 0 0.080354245,
  0.40937464 0 0.043961372,0.57487732 0 0.043961372,
  0.73632916 0 0.080354245,0.09553232 0.023687455 0.16456127,
  0.088726055 0.042605243 0.17893554,0.079740098 0.057697799 0.19359128,
  0.071721729 0.067405583 0.20510111,0.063119516 0.075521163 0.21653543,
  -0.083389244 0 0.30955919,-0.077648053 0.023308241 0.31749473,
  -0.06821817 0.04424097 0.32062146,-0.056044911 0.062304505 0.31948064,
  -0.041954771 0.077017686 0.31454431,-0.026912406 0.087892094 0.30644523,
  -0.010371039 0.095278242 0.29488875,0.0063497207 0.098336677 0.28072315,
  0.02198125 0.097229912 0.2653618,0.044291537 0.088788605 0.24014983,
  -0.23603983 0 0.61615418,-0.17749793 0 0.45400251,
  0.2585422 0.47596064 0.74621445,0.28671585 0.47596064 0.66880798,
  0.339665 0.47596064 0.60570564,0.066272663 0.37161243 0.63240364,
  0.41100319 0.47596064 0.56451852,0.14496718 0.37161243 0.49610075,
  -0.12701459 0.20808906 0.67823039,0.49212598 0.47596064 0.55021438,
  0.26553416 0.37161243 0.39493303,-0.0523371 0.20808906 0.47305567,
  0.57324878 0.47596064 0.56451852,0.41343147 0.37161243 0.34110281,
  0.088010675 0.20808906 0.3057957,0.64458697 0.47596064 0.60570564,
  0.5708205 0.37161243 0.34110281,0.27710072 0.20808906 0.19662451,
  0.69753612 0.47596064 0.66880798,0.7187178 0.37161243 0.39493303,
  0.49212598 0.20808906 0.15870976,0.72570977 0.47596064 0.74621445,
  0.83928479 0.37161243 0.49610075,0.70715125 0.20808906 0.19662451,
  0.72570977 0.47596064 0.8285887,0.91797931 0.37161243 0.63240364,
  0.89624129 0.20808906 0.3057957,0.69753612 0.47596064 0.90599517,
  0.94530962 0.37161243 0.78740157,1.0365891 0.20808906 0.47305567,
  0.64458697 0.47596064 0.96909751,0.91797931 0.37161243 0.94239951,
  1.1112666 0.20808906 0.67823039,0.57324878 0.47596064 1.0102846,
  0.83928479 0.37161243 1.0787024,1.1112666 0.20808906 0.89657276,
  0.49212598 0.47596064 1.0245888,0.7187178 0.37161243 1.1798701,
  1.0365891 0.20808906 1.1017475,0.41100319 0.47596064 1.0102846,
  0.5708205 0.37161243 1.2337003,0.89624129 0.20808906 1.2690074,
  0.339665 0.47596064 0.96909751,0.41343147 0.37161243 1.2337003,
  0.70715125 0.20808906 1.3781786,0.28671585 0.47596064 0.90599517,
  0.26553416 0.37161243 1.1798701,0.49212598 0.20808906 1.4160934,
  0.2585422 0.47596064 0.8285887,0.14496718 0.37161243 1.0787024,
  0.27710072 0.20808906 1.3781786,0.066272663 0.37161243 0.94239951,
  0.088010675 0.20808906 1.2690074,-0.0523371 0.20808906 1.1017475,
  -0.12701459 0.20808906 0.89657276] }
 coordIndex [
  62,5,4,-1,54,63,55,-1,53,63,54,-1,52,63,53,-1,43,42,47,-1,43,47,48,-1,43,48,49,-1,43,49,50,-1,
  38,46,37,-1,39,46,38,-1,40,46,39,-1,41,46,40,-1,13,32,31,-1,13,33,32,-1,13,34,33,-1,13,12,34,-1,
  11,26,10,-1,64,1,0,-1,64,2,1,-1,65,64,0,-1,66,65,0,-1,67,3,2,-1,67,2,64,-1,67,64,65,-1,
  68,66,0,-1,69,65,66,-1,69,67,65,-1,70,4,3,-1,70,3,67,-1,70,63,62,-1,70,62,4,-1,71,68,0,-1,
  72,69,66,-1,72,66,68,-1,73,70,67,-1,73,56,55,-1,73,57,56,-1,73,58,57,-1,73,63,70,-1,73,67,69,-1,
  73,55,63,-1,74,71,0,-1,75,68,71,-1,75,72,68,-1,76,58,73,-1,76,73,69,-1,76,69,72,-1,76,59,58,-1,
  76,60,59,-1,76,61,60,-1,77,74,0,-1,78,71,74,-1,78,75,71,-1,79,43,50,-1,79,61,76,-1,79,44,43,-1,
  79,50,51,-1,79,51,61,-1,79,72,75,-1,79,76,72,-1,80,77,0,-1,81,78,74,-1,81,74,77,-1,82,44,79,-1,
  82,45,44,-1,82,75,78,-1,82,79,75,-1,83,80,0,-1,84,77,80,-1,84,81,77,-1,85,45,82,-1,85,37,46,-1,
  85,78,81,-1,85,46,45,-1,85,82,78,-1,86,0,6,-1,86,83,0,-1,87,80,83,-1,87,84,80,-1,88,37,85,-1,
  88,28,27,-1,88,27,35,-1,88,35,36,-1,88,36,37,-1,88,85,81,-1,88,81,84,-1,89,86,6,-1,90,87,83,-1,
  90,83,86,-1,91,29,28,-1,91,30,29,-1,91,31,30,-1,91,13,31,-1,91,28,88,-1,91,84,87,-1,91,88,84,-1,
  92,89,6,-1,93,90,86,-1,93,86,89,-1,94,87,90,-1,94,14,13,-1,94,15,14,-1,94,91,87,-1,94,13,91,-1,
  95,92,6,-1,96,93,89,-1,96,89,92,-1,97,94,90,-1,97,16,15,-1,97,15,94,-1,97,90,93,-1,98,95,6,-1,
  99,92,95,-1,99,96,92,-1,100,93,96,-1,100,17,16,-1,100,16,97,-1,100,97,93,-1,101,98,6,-1,102,99,95,-1,
  102,95,98,-1,103,100,96,-1,103,18,17,-1,103,19,18,-1,103,17,100,-1,103,96,99,-1,104,101,6,-1,105,98,101,-1,
  105,102,98,-1,106,20,19,-1,106,19,103,-1,106,99,102,-1,106,103,99,-1,107,104,6,-1,108,101,104,-1,108,105,101,-1,
  109,21,20,-1,109,22,21,-1,109,20,106,-1,109,106,102,-1,109,102,105,-1,110,6,7,-1,110,7,8,-1,110,107,6,-1,
  111,104,107,-1,111,108,104,-1,112,23,22,-1,112,22,109,-1,112,105,108,-1,112,109,105,-1,113,8,9,-1,113,110,8,-1,
  113,107,110,-1,113,111,107,-1,114,24,23,-1,114,23,112,-1,114,108,111,-1,114,112,108,-1,115,25,24,-1,115,26,25,-1,
  115,24,114,-1,115,111,113,-1,115,114,111,-1,116,9,10,-1,116,115,113,-1,116,113,9,-1,116,26,115,-1,116,10,26,-1]
  normalPerVertex TRUE
  normal DEF NORM_5 Normal { vector [
  0.011022445 0.99491621 -0.10010116,-0.23735202 0.96982092 -0.055779918,
  -0.47580091 0.8759752 -0.079252427,-0.65063049 0.75365877 -0.093158023,
  -0.84330693 0.52937247 -0.092726501,-0.8774196 0.46880114 -0.10178573,
  -0.0058199703 0.99370583 0.11186983,-0.23735202 0.96982092 0.055779918,
  -0.47580091 0.8759752 0.079252427,-0.65063049 0.75365877 0.093158023,
  -0.84546755 0.52479089 0.098889518,-0.87638804 0.46824999 0.11263191,
  0.79000331 0.35348151 -0.5009447,0.79732524 0.49677045 -0.34277045,
  0.85316356 0.497545 -0.15671922,0.86456818 0.50087426 0.040581183,
  0.81758768 0.49963824 0.28620275,0.70029775 0.50263519 0.5068934,
  0.57805552 0.4984903 0.64603346,0.40931686 0.50013681 0.76310083,
  0.17417749 0.50001899 0.84831787,-0.03204677 0.49884168 0.86610044,
  -0.21335483 0.50292518 0.83758342,-0.444775 0.49969392 0.74329078,
  -0.63821898 0.50069446 0.58479192,-0.75646334 0.49764467 0.42439722,
  -0.83533981 0.49753522 0.23380782,0.56199888 0.55824914 -0.6103402,
  0.61590108 0.58782721 -0.52452362,0.63637516 0.57633445 -0.51270388,
  0.68181884 0.54124179 -0.49211827,0.74788802 0.49040077 -0.44740428,
  0.75928264 0.46350385 -0.45678666,0.77297482 0.41396865 -0.4807701,
  0.78445487 0.37330581 -0.49525078,0.5306574 0.55191484 -0.64326724,
  0.48792371 0.55143479 -0.67664624,0.39057649 0.52639598 -0.75522002,
  0.30019927 0.59236622 -0.74765143,0.3556199 0.49980008 -0.78976855,
  0.38548569 0.42641367 -0.81827389,0.39236336 0.40446465 -0.82611098,
  -0.3910762 0.4111817 -0.82340089,-0.2985315 0.49698259 -0.81479277,
  -0.1172256 0.50518592 -0.8550119,0.1172256 0.50518592 -0.8550119,
  0.30336324 0.49978798 -0.81128461,-0.38106956 0.4396778 -0.81330771,
  -0.35095067 0.50830348 -0.78642304,-0.30619219 0.58358028 -0.75211728,
  -0.37044732 0.50219853 -0.78138686,-0.42636986 0.58453379 -0.69031079,
  -0.78000429 0.36514726 -0.50819365,-0.77364093 0.39013716 -0.49927218,
  -0.75945334 0.44489412 -0.47465761,-0.74442715 0.49241007 -0.45095513,
  -0.6889789 0.53575307 -0.48813596,-0.64579963 0.56903226 -0.50906299,
  -0.61712645 0.58788352 -0.52301808,-0.5752089 0.56345271 -0.59300571,
  -0.53967451 0.55297139 -0.63480238,-0.43190468 0.55910892 -0.7077115,
  -0.84927006 0.49385211 -0.18668279,-0.79144269 0.50033607 -0.35111576,
  -0.31173526 0.94418737 -0.10644876,-0.29630787 0.93964649 -0.17107343,
  -0.21992776 0.93964649 -0.2620997,-0.54898942 0.81085302 -0.20280037,
  -0.11702112 0.93964649 -0.32151288,-0.4464348 0.81263051 -0.37460328,
  -0.763079 0.60810666 -0.21889891,0 0.93964649 -0.34214686,
  -0.29138962 0.81263051 -0.50470163,-0.67209714 0.63539619 -0.38020667,
  0.11702112 0.93964649 -0.32151288,-0.10119855 0.81263051 -0.57392552,
  -0.47325634 0.67686048 -0.56381586,0.21992776 0.93964649 -0.2620997,
  0.10119855 0.81263051 -0.57392552,-0.26386253 0.61518521 -0.74291569,
  0.29630787 0.93964649 -0.17107343,0.29138962 0.81263051 -0.50470163,
  0 0.62426346 -0.78121388,0.33694888 0.93964649 -0.059413179,
  0.4464348 0.81263051 -0.37460328,0.26134219 0.61531059 -0.74370232,
  0.33694888 0.93964649 0.059413179,0.54763336 0.81263051 -0.19932224,
  0.47137724 0.67440894 -0.56830985,0.29630787 0.93964649 0.17107343,
  0.58277925 0.81263051 0,0.67294389 0.63436037 -0.3804385,
  0.21992776 0.93964649 0.2620997,0.54763336 0.81263051 0.19932224,
  0.78278643 0.60639718 -0.13974212,0.11702112 0.93964649 0.32151288,
  0.4464348 0.81263051 0.37460328,0.77093042 0.62139731 0.13975574,
  0 0.93964649 0.34214686,0.29138962 0.81263051 0.50470163,
  0.6835313 0.6206959 0.38408536,-0.11702112 0.93964649 0.32151288,
  0.10119855 0.81263051 0.57392552,0.5168857 0.60635555 0.60428645,
  -0.21992776 0.93964649 0.2620997,-0.10119855 0.81263051 0.57392552,
  0.26759593 0.6215391 0.73626189,-0.29630787 0.93964649 0.17107343,
  -0.29138962 0.81263051 0.50470163,-0.0087598263 0.60634005 0.79515722,
  -0.31173526 0.94418737 0.10644876,-0.4464348 0.81263051 0.37460328,
  -0.27743909 0.62055793 0.7334408,-0.54898942 0.81085302 0.20280037,
  -0.50125986 0.62144666 0.6021151,-0.69008867 0.6063928 0.39505114,
  -0.75122122 0.62839522 0.20195577] }
}
}
DEF SHAPE_6 Shape {
 appearance USE APP_1
 geometry DEF FACE_6 IndexedFaceSet {
  coord DEF COORD_6 Coordinate { point [
  0.98425197 0.098425197 0.21653543,0.96161574 0.09578685 0.21653543,
  0.94019307 0.088013255 0.21653543,0.92113245 0.075521163 0.21653543,
  0.98316529 0.098425197 0.23719083,0.97991725 0.098425197 0.25761818,
  0.97454371 0.098425197 0.27759195,0.95142553 0.094147989 0.25355949,
  0.93458642 0.085542682 0.23357652] }
 coordIndex [
  1,4,0,-1,7,5,4,-1,7,6,5,-1,7,4,1,-1,8,1,2,-1,8,7,1,-1,3,8,2,-1]
  normalPerVertex TRUE
  normal DEF NORM_6 Normal { vector [
  -0.11576832 0.99325757 -0.0060905627,-0.24347505 0.96976809 -0.016424055,
  -0.44756879 0.89407564 -0.01763299,-0.54719763 0.83492228 -0.058987592,
  -0.13087233 0.99139121 -0.00398654,-0.14410194 0.98908492 -0.030751282,
  -0.1429865 0.98897679 -0.038467631,-0.21198477 0.97685368 -0.02862428,
  -0.41695517 0.90785627 -0.044106475] }
}
}
DEF SHAPE_7 Shape {
 appearance USE APP_1
 geometry DEF FACE_7 IndexedFaceSet {
  coord DEF COORD_7 Coordinate { point [
  0 -0.098425197 -0.78740157,0 -0.098425197 0.21653543,
  0.063119516 0.075521163 0.21653543,0.041952749 0.089036432 0.21653543,
  0.018054698 0.096755089 0.21653543,-0.0070187832 0.09817462 0.21653543,
  -0.031635315 0.093202609 0.21653543,-0.054192266 0.082162751 0.21653543,
  -0.073221094 0.065773784 0.21653543,-0.08748295 0.045102693 0.21653543,
  -0.09604933 0.021495244 0.21653543,-0.098362533 -0.0035116273 0.21653543,
  -0.094271958 -0.028289878 0.21653543,-0.08404392 -0.05122635 0.21653543,
  -0.0683443 -0.070827791 0.21653543,-0.048195206 -0.085818072 0.21653543,
  -0.02490842 -0.095221269 0.21653543,0.098425197 0 0.15135849,
  0.09553232 0.023687455 0.16456127,0.088726055 0.042605243 0.17893554,
  0.079740098 0.057697799 0.19359128,0.071721729 0.067405583 0.20510111,
  0.063119516 -0.075521163 0.21653543,0.07926736 -0.058345566 0.19430064,
  0.092312371 -0.034145942 0.17203213,0.09666925 -0.018508794 0.1612544,
  0 -0.098425197 0.21653543,0.022636226 -0.09578685 0.21653543,
  0.044058896 -0.088013255 0.21653543,0 -0.098425197 -0.78740157,
  0.025474315 -0.09507144 -0.78740157,0.049212598 -0.085238721 -0.78740157,
  0.069597124 -0.069597124 -0.78740157,0.085238721 -0.049212598 -0.78740157,
  0.09507144 -0.025474315 -0.78740157,0.098425197 0 -0.78740157,
  0.09507144 0.025474315 -0.78740157,0.085238721 0.049212598 -0.78740157,
  0.069597124 0.069597124 -0.78740157,0.049212598 0.085238721 -0.78740157,
  0.025474315 0.09507144 -0.78740157,0 0.098425197 -0.78740157,
  -0.025474315 0.09507144 -0.78740157,-0.049212598 0.085238721 -0.78740157,
  -0.069597124 0.069597124 -0.78740157,-0.085238721 0.049212598 -0.78740157,
  -0.09507144 0.025474315 -0.78740157,-0.098425197 0 -0.78740157,
  -0.09507144 -0.025474315 -0.78740157,-0.085238721 -0.049212598 -0.78740157,
  -0.069597124 -0.069597124 -0.78740157,-0.049212598 -0.085238721 -0.78740157,
  -0.025474315 -0.09507144 -0.78740157] }
 coordIndex [
  0,1,16,-1,52,16,15,-1,52,0,16,-1,51,15,14,-1,51,52,15,-1,50,14,13,-1,50,51,14,-1,49,13,12,-1,
  49,50,13,-1,48,12,11,-1,48,49,12,-1,47,11,10,-1,47,48,11,-1,46,10,9,-1,46,47,10,-1,45,9,8,-1,
  45,46,9,-1,44,8,7,-1,44,45,8,-1,43,7,6,-1,43,44,7,-1,42,6,5,-1,42,43,6,-1,41,5,4,-1,
  41,42,5,-1,40,4,3,-1,40,41,4,-1,39,3,2,-1,39,40,3,-1,38,39,2,-1,38,21,20,-1,38,2,21,-1,
  37,20,19,-1,37,38,20,-1,36,19,18,-1,36,37,19,-1,35,18,17,-1,35,17,25,-1,35,36,18,-1,34,25,24,-1,
  34,35,25,-1,33,24,23,-1,33,34,24,-1,32,23,22,-1,32,33,23,-1,31,22,28,-1,31,32,22,-1,30,28,27,-1,
  30,31,28,-1,29,27,26,-1,29,30,27,-1]
  normalPerVertex TRUE
  normal DEF NORM_7 Normal { vector [
  -0.12906871 -0.99163565 -3.7620091e-05,-0.12757725 -0.99182864 0,
  0.59635385 0.80272168 -1.5221859e-06,0.41152374 0.91139902 0.00021111266,
  0.16548551 0.9862122 0.00020154076,-0.091496444 0.99580538 0.00019084351,
  -0.34242744 0.93954426 0.0001790208,-0.57071299 0.82114959 0.00016607247,
  -0.76125627 0.64845113 0.00015199836,-0.90145645 0.43286979 0.00013679831,
  -0.982042 0.18866238 0.00012047213,-0.99768386 -0.068021299 0.00010301961,
  -0.94734779 -0.32020642 8.4440538e-05,-0.83436276 -0.55121573 6.4734693e-05,
  -0.66620074 -0.74577246 4.3901829e-05,-0.45398261 -0.89101055 2.1941691e-05,
  -0.21174261 -0.97732547 -1.1459936e-06,0.99963721 0.026934082 0,
  0.98204538 0.18864483 -3.5081314e-05,0.91389336 0.40595432 -0.00012531271,
  0.81033876 0.5859616 -0.00030973053,0.73131497 0.68203989 -5.948297e-05,
  0.63164763 -0.77525561 0.00010659203,0.80894037 -0.58789064 0.00026438113,
  0.91907608 -0.39408011 0.00016445526,0.98758156 -0.15710703 -0.00020957886,
  0.11577047 -0.99327599 0,0.19420384 -0.9809612 -2.7685827e-05,
  0.4243708 -0.9054885 4.2758386e-05,0.12359374 -0.99233289 -0.00017887341,
  0.28447637 -0.95868303 -0.00023195952,0.51505772 -0.85715544 -0.00031255676,
  0.71341656 -0.70074011 -0.00033726093,0.87075454 -0.49171789 -0.00020391774,
  0.96516919 -0.26162605 -0.00049544772,0.99992494 0.012249512 -0.00026228406,
  0.95937887 0.28212072 -0.00029594199,0.86397239 0.50353896 -0.00047548517,
  0.71433081 0.69980797 -0.0005549507,0.51271395 0.85855945 -0.0002681532,
  0.27492022 0.96146701 -0.0002585766,0.018669354 0.99982568 -0.00024780387,
  -0.23883504 0.97106013 -0.00023583491,-0.48030516 0.87710142 -0.00022266956,
  -0.68952962 0.72425746 -0.00020830768,-0.85246181 0.52278946 -0.0001927491,
  -0.95816298 0.28622313 -0.00017599364,-0.99953657 0.030440591 -0.00015804111,
  -0.97380473 -0.22738586 -0.0001388913,-0.88269482 -0.46994664 -0.000118544,
  -0.73232347 -0.68095692 -9.6998949e-05,-0.53278594 -0.84625004 -7.4255916e-05,
  -0.29747845 -0.95472853 -5.0314634e-05] }
}
}
DEF SHAPE_8 Shape {
 appearance USE APP_1
 geometry DEF FACE_8 IndexedFaceSet {
  coord DEF COORD_8 Coordinate { point [
  0 -0.098425197 0.21653543,0.022636226 -0.09578685 0.21653543,
  0.044058896 -0.088013255 0.21653543,0.063119516 -0.075521163 0.21653543,
  0.001086679 -0.098425197 0.23719083,0.0043347183 -0.098425197 0.25761818,
  0.0097082574 -0.098425197 0.27759195,0.032826437 -0.094147989 0.25355949,
  0.049665553 -0.085542682 0.23357652] }
 coordIndex [
  1,4,0,-1,7,5,4,-1,7,6,5,-1,7,4,1,-1,8,1,2,-1,8,7,1,-1,3,8,2,-1]
  normalPerVertex TRUE
  normal DEF NORM_8 Normal { vector [
  0.11576832 -0.99325757 -0.0060905627,0.24347505 -0.96976809 -0.016424055,
  0.44756879 -0.89407564 -0.01763299,0.54719763 -0.83492228 -0.058987592,
  0.13087233 -0.99139121 -0.00398654,0.14410194 -0.98908492 -0.030751282,
  0.1429865 -0.98897679 -0.038467631,0.21198477 -0.97685368 -0.02862428,
  0.41695517 -0.90785627 -0.044106475] }
}
}
DEF SHAPE_9 Shape {
 appearance USE APP_1
 geometry DEF FACE_9 IndexedFaceSet {
  coord DEF COORD_9 Coordinate { point [
  0 -0.098425197 0.21653543,0.001086679 -0.098425197 0.23719083,
  0.0043347183 -0.098425197 0.25761818,0.0097082574 -0.098425197 0.27759195,
  0.063119516 0.075521163 0.21653543,0.041952749 0.089036432 0.21653543,
  0.018054698 0.096755089 0.21653543,-0.0070187832 0.09817462 0.21653543,
  -0.031635315 0.093202609 0.21653543,-0.054192266 0.082162751 0.21653543,
  -0.073221094 0.065773784 0.21653543,-0.08748295 0.045102693 0.21653543,
  -0.09604933 0.021495244 0.21653543,-0.098362533 -0.0035116273 0.21653543,
  -0.094271958 -0.028289878 0.21653543,-0.08404392 -0.05122635 0.21653543,
  -0.0683443 -0.070827791 0.21653543,-0.048195206 -0.085818072 0.21653543,
  -0.02490842 -0.095221269 0.21653543,-0.083389244 0 0.30955919,
  -0.077648053 0.023308241 0.31749473,-0.06821817 0.04424097 0.32062146,
  -0.056044911 0.062304505 0.31948064,-0.041954771 0.077017686 0.31454431,
  -0.026912406 0.087892094 0.30644523,-0.010371039 0.095278242 0.29488875,
  0.0063497207 0.098336677 0.28072315,0.02198125 0.097229912 0.2653618,
  0.044291537 0.088788605 0.24014983,-0.0063577584 -0.096409656 0.29170879,
  -0.024008156 -0.089515889 0.30460436,-0.039390444 -0.079184772 0.31334679,
  -0.053928069 -0.064860662 0.31894141,-0.0659707 -0.048107494 0.32071965,
  -0.074585759 -0.031234615 0.31915863,-0.080199495 -0.01515535 0.31522294,
  0.021991845 0.096755089 0.25385016,-0.026603975 0.093202609 0.26422048,
  -0.018387804 0.093202609 0.2932051,-0.067274021 0.065773784 0.27289945,
  -0.057562457 0.065773784 0.30715944,-0.089185119 0.023308241 0.27757527,
  -0.078667909 0.023308241 0.31467738,-0.087861337 -0.028289878 0.27729277,
  -0.0773928 -0.028289878 0.31422317,-0.062504615 -0.070827791 0.27188166,
  -0.052968417 -0.070827791 0.305523] }
 coordIndex [
  28,4,5,-1,28,5,6,-1,1,18,0,-1,2,18,1,-1,3,29,2,-1,36,6,7,-1,36,26,27,-1,36,27,28,-1,
  36,28,6,-1,37,7,8,-1,37,8,9,-1,37,25,26,-1,37,26,36,-1,37,36,7,-1,38,24,25,-1,38,37,24,-1,
  38,25,37,-1,39,9,10,-1,39,10,11,-1,39,23,24,-1,39,37,9,-1,39,24,37,-1,40,23,39,-1,40,21,22,-1,
  40,22,23,-1,40,39,21,-1,41,11,12,-1,41,12,13,-1,41,21,39,-1,41,39,11,-1,42,19,20,-1,42,20,21,-1,
  42,41,19,-1,42,21,41,-1,43,13,14,-1,43,14,15,-1,43,35,19,-1,43,41,13,-1,43,19,41,-1,44,33,34,-1,
  44,34,35,-1,44,35,43,-1,44,43,33,-1,45,18,2,-1,45,2,29,-1,45,15,16,-1,45,16,17,-1,45,17,18,-1,
  45,29,30,-1,45,30,31,-1,45,43,15,-1,45,33,43,-1,46,31,32,-1,46,32,33,-1,46,45,31,-1,46,33,45,-1]
  normalPerVertex TRUE
  normal DEF NORM_9 Normal { vector [
  -0.12757438 -0.9918063 0.0067116785,-0.13331574 -0.99097379 0.014066395,
  -0.33564728 -0.93943405 0.069314975,-0.10091217 -0.99452486 0.027148382,
  0.53763366 0.84200814 -0.044410992,0.42601193 0.90412626 -0.032703977,
  0.21777789 0.9757919 -0.020073643,-0.071238047 0.99643599 0.045171357,
  -0.32123013 0.94639444 0.033893597,-0.54843116 0.83149526 0.088537553,
  -0.74164513 0.66621248 0.078252377,-0.88072815 0.45904481 0.11660099,
  -0.97070046 0.21723674 0.10270741,-0.99050618 -0.030600107 0.13401917,
  -0.9529492 -0.28596857 0.10054747,-0.84803333 -0.51689227 0.11688388,
  -0.69252193 -0.71768674 0.073069295,-0.48675099 -0.86672586 0.10890254,
  -0.31635953 -0.93797222 0.1418618,-0.97770238 0.0023726121 0.20998199,
  -0.91487601 0.23091903 0.33117711,-0.85565147 0.4688889 0.21909762,
  -0.7271101 0.63223107 0.26757198,-0.58820166 0.79387849 0.15419387,
  -0.51829606 0.84844374 0.10729593,-0.19883874 0.97868055 0.051454171,
  -0.11025132 0.99209295 -0.059968485,0.20323983 0.97830482 -0.04016523,
  0.37160664 0.9277753 -0.033785967,-0.36640273 -0.92881383 -0.055262195,
  -0.45123338 -0.89215081 0.021339485,-0.5482466 -0.82217824 0.15312941,
  -0.7075396 -0.66310953 0.24428154,-0.82842473 -0.52087071 0.20592757,
  -0.89109205 -0.33341891 0.30787464,-0.95227308 -0.16506993 0.25676429,
  0.03825744 0.9992641 -0.0027631635,-0.33712347 0.93939546 0.062321315,
  -0.33688235 0.93448898 0.11506789,-0.72579857 0.67440509 0.13562524,
  -0.73945179 0.63431949 0.2254991,-0.95833433 0.2325146 0.16592849,
  -0.92976828 0.25164526 0.26871102,-0.94315869 -0.28893489 0.16422032,
  -0.90123915 -0.34554003 0.26147672,-0.60744309 -0.78627552 0.11306503,
  -0.71647371 -0.66374177 0.21473773] }
}
}
DEF SHAPE_10 Shape {
 appearance USE APP_1
 geometry DEF FACE_10 IndexedFaceSet {
  coord DEF COORD_10 Coordinate { point [
  0 -0.098425197 -0.78740157,0.025474315 -0.09507144 -0.78740157,
  0.049212598 -0.085238721 -0.78740157,0.069597124 -0.069597124 -0.78740157,
  0.085238721 -0.049212598 -0.78740157,0.09507144 -0.025474315 -0.78740157,
  0.098425197 0 -0.78740157,0.09507144 0.025474315 -0.78740157,
  0.085238721 0.049212598 -0.78740157,0.069597124 0.069597124 -0.78740157,
  0.049212598 0.085238721 -0.78740157,0.025474315 0.09507144 -0.78740157,
  0 0.098425197 -0.78740157,-0.025474315 0.09507144 -0.78740157,
  -0.049212598 0.085238721 -0.78740157,-0.069597124 0.069597124 -0.78740157,
  -0.085238721 0.049212598 -0.78740157,-0.09507144 0.025474315 -0.78740157,
  -0.098425197 0 -0.78740157,-0.09507144 -0.025474315 -0.78740157,
  -0.085238721 -0.049212598 -0.78740157,-0.069597124 -0.069597124 -0.78740157,
  -0.049212598 -0.085238721 -0.78740157,-0.025474315 -0.09507144 -0.78740157] }
 coordIndex [
  9,1,0,-1,9,2,1,-1,9,3,2,-1,9,4,3,-1,9,5,4,-1,9,6,5,-1,9,7,6,-1,9,8,7,-1,
  9,11,10,-1,9,12,11,-1,9,13,12,-1,9,14,13,-1,9,15,14,-1,9,16,15,-1,9,17,16,-1,9,18,17,-1,
  9,19,18,-1,9,20,19,-1,9,21,20,-1,9,22,21,-1,9,23,22,-1,9,0,23,-1]
  normalPerVertex TRUE
  normal DEF NORM_10 Normal { vector [
  0 0 -1,0 0 -1,
  0 0 -1,0 0 -1,
  0 0 -1,0 0 -1,
  0 0 -1,0 0 -1,
  0 0 -1,0 0 -1,
  0 0 -1,0 0 -1,
  0 0 -1,0 0 -1,
  0 0 -1,0 0 -1,
  0 0 -1,0 0 -1,
  0 0 -1,0 0 -1,
  0 0 -1,0 0 -1,
  0 0 -1,0 0 -1] }
}
}
] }
] }
] }
