#VRML V2.0 utf8
DEF TXFM_1 Transform {
  center 0 0 0
  rotation 0 0 1 0
  scale 1 1 1
  scaleOrientation 0 0 1 0
  translation 0 0 0
 children [
DEF TXFM_2 Transform {
  center 0 0 0
  rotation 0 0 1 0
  scale 1 1 1
  scaleOrientation 0 0 1 0
  translation 0 0 0
 children [
DEF TXFM_3 Transform {
  center 0 0 0
  rotation 0 0 1 0
  scale 1 1 1
  scaleOrientation 0 0 1 0
  translation 0 0 0
 children [
DEF SHAPE_1 Shape {
 appearance DEF APP_1 Appearance {
  material Material {
   ambientIntensity 0.686634
   diffuseColor 0.148 0.145 0.145
   emissiveColor 0 0 0
   shininess 0.1
   specularColor 0.12 0.12 0.12
   transparency 0
} }
 geometry DEF FACE_1 IndexedFaceSet {
  coord DEF COORD_1 Coordinate { point [
  0.48425197 -0.49606299 1.2992126,0.47754445 -0.49606299 1.3501612,
  0.45787902 -0.49606299 1.3976378,0.42659582 -0.49606299 1.4384068,
  0.38582677 -0.49606299 1.46969,0.33835021 -0.49606299 1.4893555,
  0.28740157 -0.49606299 1.496063,0.23645294 -0.49606299 1.4893555,
  0.18897638 -0.49606299 1.46969,0.14820733 -0.49606299 1.4384068,
  0.11692413 -0.49606299 1.3976378,0.097258696 -0.49606299 1.3501612,
  0.090551181 -0.49606299 1.2992126,0.097258696 -0.49606299 1.248264,
  0.11692413 -0.49606299 1.2007874,0.14820733 -0.49606299 1.1600184,
  0.18897638 -0.49606299 1.1287352,0.23645294 -0.49606299 1.1090697,
  0.28740157 -0.49606299 1.1023622,0.33835021 -0.49606299 1.1090697,
  0.38582677 -0.49606299 1.1287352,0.42659582 -0.49606299 1.1600184,
  0.45787902 -0.49606299 1.2007874,0.47754445 -0.49606299 1.248264] }
 coordIndex [
  8,9,10,-1,8,10,11,-1,6,7,8,-1,1,23,0,-1,3,1,2,-1,3,4,5,-1,3,5,6,-1,3,11,12,-1,
  3,12,13,-1,3,13,14,-1,3,14,15,-1,3,15,16,-1,3,16,17,-1,3,17,18,-1,3,18,19,-1,3,19,20,-1,
  3,20,21,-1,3,21,22,-1,3,22,23,-1,3,23,1,-1,3,8,11,-1,3,6,8,-1]
  normalPerVertex TRUE
  normal DEF NORM_1 Normal { vector [
  0 -1 0,0 -1 0,
  0 -1 0,0 -1 0,
  0 -1 0,0 -1 0,
  0 -1 0,0 -1 0,
  0 -1 0,0 -1 0,
  0 -1 0,0 -1 0,
  0 -1 0,0 -1 0,
  0 -1 0,0 -1 0,
  0 -1 0,0 -1 0,
  0 -1 0,0 -1 0,
  0 -1 0,0 -1 0,
  0 -1 0,0 -1 0] }
}
}
DEF SHAPE_2 Shape {
 appearance USE APP_1
 geometry DEF FACE_2 IndexedFaceSet {
  coord DEF COORD_2 Coordinate { point [
  0.48425197 -0.49212598 1.2992126,0.48425197 -0.49606299 1.2992126,
  0.48425197 -0.49606299 1.2992126,0.47754445 -0.49606299 1.3501612,
  0.45787902 -0.49606299 1.3976378,0.42659582 -0.49606299 1.4384068,
  0.38582677 -0.49606299 1.46969,0.33835021 -0.49606299 1.4893555,
  0.28740157 -0.49606299 1.496063,0.23645294 -0.49606299 1.4893555,
  0.18897638 -0.49606299 1.46969,0.14820733 -0.49606299 1.4384068,
  0.11692413 -0.49606299 1.3976378,0.097258696 -0.49606299 1.3501612,
  0.090551181 -0.49606299 1.2992126,0.097258696 -0.49606299 1.248264,
  0.11692413 -0.49606299 1.2007874,0.14820733 -0.49606299 1.1600184,
  0.18897638 -0.49606299 1.1287352,0.23645294 -0.49606299 1.1090697,
  0.28740157 -0.49606299 1.1023622,0.33835021 -0.49606299 1.1090697,
  0.38582677 -0.49606299 1.1287352,0.42659582 -0.49606299 1.1600184,
  0.45787902 -0.49606299 1.2007874,0.47754445 -0.49606299 1.248264,
  0.48425197 -0.49212598 1.2992126,0.47754445 -0.49212598 1.3501612,
  0.45787902 -0.49212598 1.3976378,0.42659582 -0.49212598 1.4384068,
  0.38582677 -0.49212598 1.46969,0.33835021 -0.49212598 1.4893555,
  0.28740157 -0.49212598 1.496063,0.23645294 -0.49212598 1.4893555,
  0.18897638 -0.49212598 1.46969,0.14820733 -0.49212598 1.4384068,
  0.11692413 -0.49212598 1.3976378,0.097258696 -0.49212598 1.3501612,
  0.090551181 -0.49212598 1.2992126,0.097258696 -0.49212598 1.248264,
  0.11692413 -0.49212598 1.2007874,0.14820733 -0.49212598 1.1600184,
  0.18897638 -0.49212598 1.1287352,0.23645294 -0.49212598 1.1090697,
  0.28740157 -0.49212598 1.1023622,0.33835021 -0.49212598 1.1090697,
  0.38582677 -0.49212598 1.1287352,0.42659582 -0.49212598 1.1600184,
  0.45787902 -0.49212598 1.2007874,0.47754445 -0.49212598 1.248264] }
 coordIndex [
  49,0,1,-1,49,1,25,-1,48,25,24,-1,48,49,25,-1,47,24,23,-1,47,48,24,-1,46,23,22,-1,46,47,23,-1,
  45,22,21,-1,45,46,22,-1,44,21,20,-1,44,45,21,-1,43,20,19,-1,43,44,20,-1,42,19,18,-1,42,43,19,-1,
  41,18,17,-1,41,42,18,-1,40,17,16,-1,40,41,17,-1,39,16,15,-1,39,40,16,-1,38,39,15,-1,38,15,14,-1,
  37,38,14,-1,37,14,13,-1,36,37,13,-1,36,13,12,-1,35,36,12,-1,35,12,11,-1,34,11,10,-1,34,35,11,-1,
  33,10,9,-1,33,34,10,-1,32,9,8,-1,32,33,9,-1,31,8,7,-1,31,32,8,-1,30,7,6,-1,30,31,7,-1,
  29,6,5,-1,29,30,6,-1,28,5,4,-1,28,29,5,-1,27,4,3,-1,27,28,4,-1,26,3,2,-1,26,27,3,-1]
  normalPerVertex TRUE
  normal DEF NORM_2 Normal { vector [
  0.99144486 0 -0.13052619,0.99144486 0 -0.13052619,
  0.99144486 0 0.13052619,0.9763442 0 0.21622209,
  0.88711369 0 0.46155098,0.73742784 0 0.67542593,
  0.5374875 0 0.84327172,0.30091828 0 0.95364993,
  0.04384197 0 0.99903848,-0.21622209 0 0.9763442,
  -0.46155098 0 0.88711369,-0.67542593 0 0.73742784,
  -0.84327172 0 0.5374875,-0.95364993 0 0.30091828,
  -0.99903848 0 0.04384197,-0.9763442 0 -0.21622209,
  -0.88711369 0 -0.46155098,-0.73742784 0 -0.67542593,
  -0.5374875 0 -0.84327172,-0.30091828 0 -0.95364993,
  -0.04384197 0 -0.99903848,0.21622209 0 -0.9763442,
  0.46155098 0 -0.88711369,0.67542593 0 -0.73742784,
  0.84327172 0 -0.5374875,0.95364993 0 -0.30091828,
  0.99144486 0 0.13052619,0.95364993 0 0.30091828,
  0.84327172 0 0.5374875,0.67542593 0 0.73742784,
  0.46155098 0 0.88711369,0.21622209 0 0.9763442,
  -0.04384197 0 0.99903848,-0.30091828 0 0.95364993,
  -0.5374875 0 0.84327172,-0.73742784 0 0.67542593,
  -0.88711369 0 0.46155098,-0.9763442 0 0.21622209,
  -0.99903848 0 -0.04384197,-0.95364993 0 -0.30091828,
  -0.84327172 0 -0.5374875,-0.67542593 0 -0.73742784,
  -0.46155098 0 -0.88711369,-0.21622209 0 -0.9763442,
  0.04384197 0 -0.99903848,0.30091828 0 -0.95364993,
  0.5374875 0 -0.84327172,0.73742784 0 -0.67542593,
  0.88711369 0 -0.46155098,0.9763442 0 -0.21622209] }
}
}
DEF SHAPE_3 Shape {
 appearance DEF APP_2 Appearance {
  material Material {
   ambientIntensity 0.13665412
   diffuseColor 0.88300002 0.71100003 0.49200001
   emissiveColor 0 0 0
   shininess 0.1
   specularColor 0.12 0.12 0.12
   transparency 0
} }
 geometry DEF FACE_3 IndexedFaceSet {
  coord DEF COORD_3 Coordinate { point [
  -0.17191601 -0.49212598 0.44619423,7.171916 -0.49212598 0.44619423,
  -0.17191601 -0.49212598 1.7585302,7.171916 -0.49212598 1.7585302,
  0.48425197 -0.49212598 1.2992126,0.47754445 -0.49212598 1.3501612,
  0.45787902 -0.49212598 1.3976378,0.42659582 -0.49212598 1.4384068,
  0.38582677 -0.49212598 1.46969,0.33835021 -0.49212598 1.4893555,
  0.28740157 -0.49212598 1.496063,0.23645294 -0.49212598 1.4893555,
  0.18897638 -0.49212598 1.46969,0.14820733 -0.49212598 1.4384068,
  0.11692413 -0.49212598 1.3976378,0.097258696 -0.49212598 1.3501612,
  0.090551181 -0.49212598 1.2992126,0.097258696 -0.49212598 1.248264,
  0.11692413 -0.49212598 1.2007874,0.14820733 -0.49212598 1.1600184,
  0.18897638 -0.49212598 1.1287352,0.23645294 -0.49212598 1.1090697,
  0.28740157 -0.49212598 1.1023622,0.33835021 -0.49212598 1.1090697,
  0.38582677 -0.49212598 1.1287352,0.42659582 -0.49212598 1.1600184,
  0.45787902 -0.49212598 1.2007874,0.47754445 -0.49212598 1.248264] }
 coordIndex [
  6,3,7,-1,8,7,3,-1,5,3,6,-1,4,1,3,-1,4,3,5,-1,27,1,4,-1,26,1,27,-1,2,9,8,-1,
  2,10,9,-1,2,11,10,-1,2,12,11,-1,13,12,2,-1,25,1,26,-1,14,13,2,-1,15,14,2,-1,16,15,2,-1,
  17,16,2,-1,0,18,17,-1,0,19,18,-1,0,20,19,-1,0,21,20,-1,0,22,21,-1,0,23,22,-1,0,24,23,-1,
  0,25,24,-1,0,1,25,-1,0,17,2,-1,2,8,3,-1]
  normalPerVertex TRUE
  normal DEF NORM_3 Normal { vector [
  0 -1 0,0 -1 0,
  0 -1 0,0 -1 0,
  0 -1 0,0 -1 0,
  0 -1 0,0 -1 0,
  0 -1 0,0 -1 0,
  0 -1 0,0 -1 0,
  0 -1 0,0 -1 0,
  0 -1 0,0 -1 0,
  0 -1 0,0 -1 0,
  0 -1 0,0 -1 0,
  0 -1 0,0 -1 0,
  0 -1 0,0 -1 0,
  0 -1 0,0 -1 0,
  0 -1 0,0 -1 0] }
}
}
DEF SHAPE_4 Shape {
 appearance USE APP_2
 geometry DEF FACE_4 IndexedFaceSet {
  coord DEF COORD_4 Coordinate { point [
  7.171916 -0.49212598 0.44619423,7.171916 -0.48094679 0.36127984,
  7.171916 -0.44817106 0.28215223,7.171916 -0.39603241 0.21420381,
  7.171916 -0.32808399 0.16206516,7.171916 -0.24895638 0.12928943,
  7.171916 -0.16404199 0.11811024,-0.17191601 -0.49212598 0.44619423,
  -0.17191601 -0.48094679 0.36127984,-0.17191601 -0.44817106 0.28215223,
  -0.17191601 -0.39603241 0.21420381,-0.17191601 -0.32808399 0.16206516,
  -0.17191601 -0.24895638 0.12928943,-0.17191601 -0.16404199 0.11811024] }
 coordIndex [
  1,0,7,-1,1,7,8,-1,2,8,9,-1,2,9,10,-1,2,1,8,-1,3,10,11,-1,3,2,10,-1,4,3,11,-1,
  5,11,12,-1,5,4,11,-1,6,12,13,-1,6,5,12,-1]
  normalPerVertex TRUE
  normal DEF NORM_4 Normal { vector [
  0 -0.99144486 -0.13052619,0 -0.9763442 -0.21622209,
  0 -0.8660254 -0.5,0 -0.67542593 -0.73742784,
  0 -0.5 -0.8660254,0 -0.30091828 -0.95364993,
  0 -0.13052619 -0.99144486,0 -0.99144486 -0.13052619,
  0 -0.95364993 -0.30091828,0 -0.8660254 -0.5,
  0 -0.73742784 -0.67542593,0 -0.5 -0.8660254,
  0 -0.21622209 -0.9763442,0 -0.13052619 -0.99144486] }
}
}
DEF SHAPE_5 Shape {
 appearance USE APP_2
 geometry DEF FACE_5 IndexedFaceSet {
  coord DEF COORD_5 Coordinate { point [
  -0.17191601 -0.49212598 1.7585302,-0.2568304 -0.48094679 1.7585302,
  -0.33595801 -0.44817106 1.7585302,-0.40390642 -0.39603241 1.7585302,
  -0.45604508 -0.32808399 1.7585302,-0.48882081 -0.24895638 1.7585302,
  -0.5 -0.16404199 1.7585302,-0.5 -0.16404199 0.44619423,
  -0.48882081 -0.24895638 0.44619423,-0.45604508 -0.32808399 0.44619423,
  -0.40390642 -0.39603241 0.44619423,-0.33595801 -0.44817106 0.44619423,
  -0.2568304 -0.48094679 0.44619423,-0.17191601 -0.49212598 0.44619423] }
 coordIndex [
  13,0,1,-1,12,1,2,-1,12,13,1,-1,11,2,3,-1,11,12,2,-1,10,3,4,-1,10,11,3,-1,9,4,5,-1,
  9,10,4,-1,8,5,6,-1,8,9,5,-1,7,8,6,-1]
  normalPerVertex TRUE
  normal DEF NORM_5 Normal { vector [
  -0.13052619 -0.99144486 0,-0.21622209 -0.9763442 0,
  -0.46155098 -0.88711369 0,-0.67542593 -0.73742784 0,
  -0.84327172 -0.5374875 0,-0.95364993 -0.30091828 0,
  -0.99144486 -0.13052619 0,-0.99144486 -0.13052619 0,
  -0.9763442 -0.21622209 0,-0.88711369 -0.46155098 0,
  -0.73742784 -0.67542593 0,-0.5374875 -0.84327172 0,
  -0.30091828 -0.95364993 0,-0.13052619 -0.99144486 0] }
}
}
DEF SHAPE_6 Shape {
 appearance USE APP_2
 geometry DEF FACE_6 IndexedFaceSet {
  coord DEF COORD_6 Coordinate { point [
  7.5 -0.16404199 0.44619423,7.4888208 -0.24895638 0.44619423,
  7.4560451 -0.32808399 0.44619423,7.4039064 -0.39603241 0.44619423,
  7.335958 -0.44817106 0.44619423,7.2568304 -0.48094679 0.44619423,
  7.171916 -0.49212598 0.44619423,7.5 -0.16404199 1.7585302,
  7.4888208 -0.24895638 1.7585302,7.4560451 -0.32808399 1.7585302,
  7.4039064 -0.39603241 1.7585302,7.335958 -0.44817106 1.7585302,
  7.2568304 -0.48094679 1.7585302,7.171916 -0.49212598 1.7585302] }
 coordIndex [
  1,0,7,-1,1,7,8,-1,2,8,9,-1,2,1,8,-1,3,9,10,-1,3,2,9,-1,4,10,11,-1,4,3,10,-1,
  5,11,12,-1,5,4,11,-1,6,12,13,-1,6,5,12,-1]
  normalPerVertex TRUE
  normal DEF NORM_6 Normal { vector [
  0.99144486 -0.13052619 0,0.9763442 -0.21622209 0,
  0.88711369 -0.46155098 0,0.73742784 -0.67542593 0,
  0.5374875 -0.84327172 0,0.30091828 -0.95364993 0,
  0.13052619 -0.99144486 0,0.99144486 -0.13052619 0,
  0.95364993 -0.30091828 0,0.84327172 -0.5374875 0,
  0.67542593 -0.73742784 0,0.46155098 -0.88711369 0,
  0.21622209 -0.9763442 0,0.13052619 -0.99144486 0] }
}
}
DEF SHAPE_7 Shape {
 appearance USE APP_2
 geometry DEF FACE_7 IndexedFaceSet {
  coord DEF COORD_7 Coordinate { point [
  -0.17191601 -0.49212598 1.7585302,-0.17191601 -0.48094679 1.8434446,
  -0.17191601 -0.44817106 1.9225722,-0.17191601 -0.39603241 1.9905206,
  -0.17191601 -0.32808399 2.0426593,-0.17191601 -0.24895638 2.075435,
  -0.17191601 -0.16404199 2.0866142,7.171916 -0.49212598 1.7585302,
  7.171916 -0.16404199 2.0866142,7.171916 -0.24895638 2.075435,
  7.171916 -0.32808399 2.0426593,7.171916 -0.39603241 1.9905206,
  7.171916 -0.44817106 1.9225722,7.171916 -0.48094679 1.8434446] }
 coordIndex [
  9,6,5,-1,9,8,6,-1,10,5,4,-1,10,9,5,-1,11,4,3,-1,11,10,4,-1,12,3,2,-1,12,11,3,-1,
  13,2,1,-1,13,12,2,-1,7,1,0,-1,7,13,1,-1]
  normalPerVertex TRUE
  normal DEF NORM_7 Normal { vector [
  0 -0.99144486 0.13052619,0 -0.9763442 0.21622209,
  0 -0.88711369 0.46155098,0 -0.73742784 0.67542593,
  0 -0.5374875 0.84327172,0 -0.30091828 0.95364993,
  0 -0.13052619 0.99144486,0 -0.99144486 0.13052619,
  0 -0.13052619 0.99144486,0 -0.21622209 0.9763442,
  0 -0.46155098 0.88711369,0 -0.67542593 0.73742784,
  0 -0.84327172 0.5374875,0 -0.95364993 0.30091828] }
}
}
DEF SHAPE_8 Shape {
 appearance USE APP_2
 geometry DEF FACE_8 IndexedFaceSet {
  coord DEF COORD_8 Coordinate { point [
  -0.17191601 -0.16404199 0.11811024,-0.17191601 -0.098425197 0.11811024,
  7.171916 -0.16404199 0.11811024,7.171916 -0.098425197 0.11811024,
  6.7755906 -0.098425197 0.11811024,6.7755906 0.098425197 0.11811024,
  7.171916 0.098425197 0.11811024,7.171916 0.16404199 0.11811024,
  -0.17191601 0.16404199 0.11811024,-0.17191601 0.098425197 0.11811024,
  0.22440945 0.098425197 0.11811024,0.22440945 -0.098425197 0.11811024,
  3.2244094 0.098425197 0.11811024,3.2244094 -0.098425197 0.11811024,
  2.7755906 -0.098425197 0.11811024,2.7755906 0.098425197 0.11811024,
  4.2244094 -0.098425197 0.11811024,3.7755906 -0.098425197 0.11811024,
  3.7755906 0.098425197 0.11811024,4.2244094 0.098425197 0.11811024,
  6.2244094 -0.098425197 0.11811024,5.7755906 -0.098425197 0.11811024,
  5.7755906 0.098425197 0.11811024,6.2244094 0.098425197 0.11811024,
  5.2244094 -0.098425197 0.11811024,4.7755906 -0.098425197 0.11811024,
  4.7755906 0.098425197 0.11811024,5.2244094 0.098425197 0.11811024,
  1.7755906 -0.098425197 0.11811024,1.7755906 0.098425197 0.11811024,
  2.2244094 0.098425197 0.11811024,2.2244094 -0.098425197 0.11811024,
  1.2244094 -0.098425197 0.11811024,0.77559055 -0.098425197 0.11811024,
  0.77559055 0.098425197 0.11811024,1.2244094 0.098425197 0.11811024] }
 coordIndex [
  4,3,2,-1,5,7,6,-1,20,4,2,-1,23,5,4,-1,23,4,20,-1,23,7,5,-1,27,22,21,-1,27,21,24,-1,
  16,26,25,-1,19,26,16,-1,12,18,17,-1,12,17,13,-1,31,15,14,-1,30,15,31,-1,35,29,28,-1,35,28,32,-1,
  10,34,33,-1,10,33,11,-1,0,11,33,-1,1,11,0,-1,8,34,10,-1,8,10,9,-1,0,20,2,-1,0,21,20,-1,
  0,24,21,-1,0,25,24,-1,0,16,25,-1,0,17,16,-1,0,13,17,-1,0,14,13,-1,0,31,14,-1,0,28,31,-1,
  0,32,28,-1,0,33,32,-1,7,34,8,-1,7,35,34,-1,7,29,35,-1,7,30,29,-1,7,15,30,-1,7,12,15,-1,
  7,18,12,-1,7,19,18,-1,7,26,19,-1,7,27,26,-1,7,22,27,-1,7,23,22,-1]
  normalPerVertex TRUE
  normal DEF NORM_8 Normal { vector [
  0 0 -1,0 0 -1,
  0 0 -1,0 0 -1,
  0 0 -1,0 0 -1,
  0 0 -1,0 0 -1,
  0 0 -1,0 0 -1,
  0 0 -1,0 0 -1,
  0 0 -1,0 0 -1,
  0 0 -1,0 0 -1,
  0 0 -1,0 0 -1,
  0 0 -1,0 0 -1,
  0 0 -1,0 0 -1,
  0 0 -1,0 0 -1,
  0 0 -1,0 0 -1,
  0 0 -1,0 0 -1,
  0 0 -1,0 0 -1,
  0 0 -1,0 0 -1,
  0 0 -1,0 0 -1,
  0 0 -1,0 0 -1] }
}
}
DEF SHAPE_9 Shape {
 appearance USE APP_2
 geometry DEF FACE_9 IndexedFaceSet {
  coord DEF COORD_9 Coordinate { point [
  -0.5 -0.16404199 0.44619423,-0.48882081 -0.24895638 0.44619423,
  -0.45604508 -0.32808399 0.44619423,-0.40390642 -0.39603241 0.44619423,
  -0.33595801 -0.44817106 0.44619423,-0.2568304 -0.48094679 0.44619423,
  -0.17191601 -0.49212598 0.44619423,-0.5 -0.16404199 0.44619423,
  -0.48882081 -0.16404199 0.36127984,-0.45604508 -0.16404199 0.28215223,
  -0.40390642 -0.16404199 0.21420381,-0.33595801 -0.16404199 0.16206516,
  -0.2568304 -0.16404199 0.12928943,-0.17191601 -0.16404199 0.11811024,
  -0.17191601 -0.48094679 0.36127984,-0.17191601 -0.44817106 0.28215223,
  -0.17191601 -0.39603241 0.21420381,-0.17191601 -0.32808399 0.16206516,
  -0.17191601 -0.24895638 0.12928943,-0.48394243 -0.26417732 0.43033435,
  -0.48394243 -0.25437538 0.40016707,-0.48394243 -0.23573098 0.37450525,
  -0.43734153 -0.34744652 0.38660248,-0.48394243 -0.21006915 0.35586084,
  -0.43734153 -0.3200552 0.332844,-0.36475894 -0.42619969 0.40467253,
  -0.48394243 -0.17990187 0.3460589,-0.43734153 -0.27739223 0.29018102,
  -0.36475894 -0.40053787 0.32569356,-0.43734153 -0.22363374 0.2627897,
  -0.36475894 -0.35172618 0.25851004,-0.27329954 -0.46079675 0.34977276,
  -0.36475894 -0.28454266 0.20969835,-0.27329954 -0.41647667 0.2627897,
  -0.36475894 -0.20556369 0.18403653,-0.27329954 -0.34744652 0.19375955,
  -0.27329954 -0.26046346 0.14943947] }
 coordIndex [
  14,6,5,-1,13,18,12,-1,19,1,0,-1,19,2,1,-1,20,19,0,-1,21,0,7,-1,21,20,0,-1,22,3,2,-1,
  22,2,19,-1,22,19,20,-1,23,21,7,-1,24,20,21,-1,24,22,20,-1,25,4,3,-1,25,3,22,-1,26,7,8,-1,
  26,8,9,-1,26,23,7,-1,27,24,21,-1,27,21,23,-1,28,22,24,-1,28,25,22,-1,29,9,10,-1,29,26,9,-1,
  29,27,23,-1,29,23,26,-1,30,24,27,-1,30,28,24,-1,31,5,4,-1,31,15,14,-1,31,4,25,-1,31,14,5,-1,
  31,25,28,-1,32,27,29,-1,32,30,27,-1,33,16,15,-1,33,15,31,-1,33,28,30,-1,33,31,28,-1,34,10,11,-1,
  34,29,10,-1,34,32,29,-1,35,17,16,-1,35,16,33,-1,35,30,32,-1,35,33,30,-1,36,11,12,-1,36,18,17,-1,
  36,17,35,-1,36,12,18,-1,36,34,11,-1,36,32,34,-1,36,35,32,-1]
  normalPerVertex TRUE
  normal DEF NORM_9 Normal { vector [
  -0.98641346 -0.13757042 -0.089793468,-0.96478151 -0.25851243 -0.048661794,
  -0.85782473 -0.50870527 -0.073182524,-0.71818302 -0.69099834 -0.082063716,
  -0.44660479 -0.88725732 -0.11540631,-0.22930737 -0.96228831 -0.14635345,
  -0.12942831 -0.9831056 -0.12942831,-0.98641346 -0.089793468 -0.13757042,
  -0.96478151 -0.048661794 -0.25851243,-0.85782473 -0.073182524 -0.50870527,
  -0.71818302 -0.082063716 -0.69099834,-0.44660479 -0.11540631 -0.88725732,
  -0.22930737 -0.14635345 -0.96228831,-0.12942831 -0.12942831 -0.9831056,
  -0.15016238 -0.96112636 -0.23170537,-0.15525324 -0.86480719 -0.47749864,
  -0.15416202 -0.69865373 -0.69865373,-0.15525324 -0.47749864 -0.86480719,
  -0.15016238 -0.23170537 -0.96112636,-0.93765525 -0.33216388 -0.10232202,
  -0.93396405 -0.31841632 -0.16224122,-0.93396405 -0.25269662 -0.25269662,
  -0.79254254 -0.5789139 -0.19166385,-0.93396405 -0.16224122 -0.31841632,
  -0.79539818 -0.49033487 -0.35624914,-0.58590317 -0.78701132 -0.19321144,
  -0.93765525 -0.10232202 -0.33216388,-0.79539818 -0.35624914 -0.49033487,
  -0.57807327 -0.72704783 -0.37044937,-0.79254254 -0.19166385 -0.5789139,
  -0.57807327 -0.57698843 -0.57698843,-0.3129282 -0.90206863 -0.29723415,
  -0.57807327 -0.37044937 -0.72704783,-0.31068424 -0.7665991 -0.56196186,
  -0.58590317 -0.19321144 -0.78701132,-0.31068424 -0.56196186 -0.7665991,
  -0.3129282 -0.29723415 -0.90206863] }
}
}
DEF SHAPE_10 Shape {
 appearance USE APP_2
 geometry DEF FACE_10 IndexedFaceSet {
  coord DEF COORD_10 Coordinate { point [
  7.171916 -0.49212598 0.44619423,7.171916 -0.48094679 0.36127984,
  7.171916 -0.44817106 0.28215223,7.171916 -0.39603241 0.21420381,
  7.171916 -0.32808399 0.16206516,7.171916 -0.24895638 0.12928943,
  7.171916 -0.16404199 0.11811024,7.5 -0.16404199 0.44619423,
  7.4888208 -0.16404199 0.36127984,7.4560451 -0.16404199 0.28215223,
  7.4039064 -0.16404199 0.21420381,7.335958 -0.16404199 0.16206516,
  7.2568304 -0.16404199 0.12928943,7.5 -0.16404199 0.44619423,
  7.4888208 -0.24895638 0.44619423,7.4560451 -0.32808399 0.44619423,
  7.4039064 -0.39603241 0.44619423,7.335958 -0.44817106 0.44619423,
  7.2568304 -0.48094679 0.44619423,7.4839424 -0.17990187 0.3460589,
  7.4839424 -0.21006915 0.35586084,7.4839424 -0.23573098 0.37450525,
  7.4373415 -0.22363374 0.2627897,7.4839424 -0.25437538 0.40016707,
  7.4373415 -0.27739223 0.29018102,7.3647589 -0.20556369 0.18403653,
  7.4839424 -0.26417732 0.43033435,7.4373415 -0.3200552 0.332844,
  7.3647589 -0.28454266 0.20969835,7.4373415 -0.34744652 0.38660248,
  7.3647589 -0.35172618 0.25851004,7.2732995 -0.26046346 0.14943947,
  7.3647589 -0.40053787 0.32569356,7.2732995 -0.34744652 0.19375955,
  7.3647589 -0.42619969 0.40467253,7.2732995 -0.41647667 0.2627897,
  7.2732995 -0.46079675 0.34977276] }
 coordIndex [
  5,6,12,-1,0,1,18,-1,19,8,7,-1,19,9,8,-1,20,19,7,-1,21,7,13,-1,21,20,7,-1,22,10,9,-1,
  22,19,20,-1,22,9,19,-1,23,21,13,-1,24,20,21,-1,24,22,20,-1,25,11,10,-1,25,10,22,-1,26,13,14,-1,
  26,14,15,-1,26,23,13,-1,27,24,21,-1,27,21,23,-1,28,22,24,-1,28,25,22,-1,29,15,16,-1,29,26,15,-1,
  29,23,26,-1,29,27,23,-1,30,24,27,-1,30,28,24,-1,31,4,5,-1,31,12,11,-1,31,5,12,-1,31,11,25,-1,
  31,25,28,-1,32,27,29,-1,32,30,27,-1,33,3,4,-1,33,4,31,-1,33,28,30,-1,33,31,28,-1,34,16,17,-1,
  34,32,29,-1,34,29,16,-1,35,2,3,-1,35,3,33,-1,35,30,32,-1,35,33,30,-1,36,1,2,-1,36,17,18,-1,
  36,18,1,-1,36,2,35,-1,36,34,17,-1,36,32,34,-1,36,35,32,-1]
  normalPerVertex TRUE
  normal DEF NORM_10 Normal { vector [
  0.12942831 -0.9831056 -0.12942831,0.15016238 -0.96112636 -0.23170537,
  0.15525324 -0.86480719 -0.47749864,0.15416202 -0.69865373 -0.69865373,
  0.15525324 -0.47749864 -0.86480719,0.15016238 -0.23170537 -0.96112636,
  0.12942831 -0.12942831 -0.9831056,0.98641346 -0.089793468 -0.13757042,
  0.96478151 -0.048661794 -0.25851243,0.85782473 -0.073182524 -0.50870527,
  0.71818302 -0.082063716 -0.69099834,0.44660479 -0.11540631 -0.88725732,
  0.22930737 -0.14635345 -0.96228831,0.98641346 -0.13757042 -0.089793468,
  0.96478151 -0.25851243 -0.048661794,0.85782473 -0.50870527 -0.073182524,
  0.71818302 -0.69099834 -0.082063716,0.44660479 -0.88725732 -0.11540631,
  0.22930737 -0.96228831 -0.14635345,0.93765525 -0.10232202 -0.33216388,
  0.93396405 -0.16224122 -0.31841632,0.93396405 -0.25269662 -0.25269662,
  0.79254254 -0.19166385 -0.5789139,0.93396405 -0.31841632 -0.16224122,
  0.79539818 -0.35624914 -0.49033487,0.58590317 -0.19321144 -0.78701132,
  0.93765525 -0.33216388 -0.10232202,0.79539818 -0.49033487 -0.35624914,
  0.57807327 -0.37044937 -0.72704783,0.79254254 -0.5789139 -0.19166385,
  0.57807327 -0.57698843 -0.57698843,0.3129282 -0.29723415 -0.90206863,
  0.57807327 -0.72704783 -0.37044937,0.31068424 -0.56196186 -0.7665991,
  0.58590317 -0.78701132 -0.19321144,0.31068424 -0.7665991 -0.56196186,
  0.3129282 -0.90206863 -0.29723415] }
}
}
DEF SHAPE_11 Shape {
 appearance USE APP_2
 geometry DEF FACE_11 IndexedFaceSet {
  coord DEF COORD_11 Coordinate { point [
  -0.17191601 -0.49212598 1.7585302,-0.2568304 -0.48094679 1.7585302,
  -0.33595801 -0.44817106 1.7585302,-0.40390642 -0.39603241 1.7585302,
  -0.45604508 -0.32808399 1.7585302,-0.48882081 -0.24895638 1.7585302,
  -0.5 -0.16404199 1.7585302,-0.17191601 -0.49212598 1.7585302,
  -0.17191601 -0.48094679 1.8434446,-0.17191601 -0.44817106 1.9225722,
  -0.17191601 -0.39603241 1.9905206,-0.17191601 -0.32808399 2.0426593,
  -0.17191601 -0.24895638 2.075435,-0.17191601 -0.16404199 2.0866142,
  -0.48882081 -0.16404199 1.8434446,-0.45604508 -0.16404199 1.9225722,
  -0.40390642 -0.16404199 1.9905206,-0.33595801 -0.16404199 2.0426593,
  -0.2568304 -0.16404199 2.075435,-0.27205134 -0.47606841 1.7743901,
  -0.2622494 -0.47606841 1.8045573,-0.24360499 -0.47606841 1.8302192,
  -0.35532054 -0.42946752 1.8181219,-0.21794317 -0.47606841 1.8488636,
  -0.32792922 -0.42946752 1.8718804,-0.4340737 -0.35688493 1.8000519,
  -0.18777589 -0.47606841 1.8586655,-0.28526624 -0.42946752 1.9145434,
  -0.40841188 -0.35688493 1.8790308,-0.23150775 -0.42946752 1.9419347,
  -0.3596002 -0.35688493 1.9462144,-0.46867077 -0.26542552 1.8549516,
  -0.29241668 -0.35688493 1.9950261,-0.42435068 -0.26542552 1.9419347,
  -0.21343771 -0.35688493 2.0206879,-0.35532054 -0.26542552 2.0109649,
  -0.26833748 -0.26542552 2.0552849] }
 coordIndex [
  14,6,5,-1,13,18,12,-1,19,1,0,-1,19,2,1,-1,20,19,0,-1,21,0,7,-1,21,20,0,-1,22,3,2,-1,
  22,2,19,-1,22,19,20,-1,23,21,7,-1,24,20,21,-1,24,22,20,-1,25,4,3,-1,25,3,22,-1,26,7,8,-1,
  26,8,9,-1,26,23,7,-1,27,24,21,-1,27,21,23,-1,28,22,24,-1,28,25,22,-1,29,9,10,-1,29,26,9,-1,
  29,27,23,-1,29,23,26,-1,30,24,27,-1,30,28,24,-1,31,5,4,-1,31,15,14,-1,31,4,25,-1,31,14,5,-1,
  31,25,28,-1,32,27,29,-1,32,30,27,-1,33,16,15,-1,33,15,31,-1,33,28,30,-1,33,31,28,-1,34,10,11,-1,
  34,29,10,-1,34,32,29,-1,35,17,16,-1,35,16,33,-1,35,30,32,-1,35,33,30,-1,36,11,12,-1,36,18,17,-1,
  36,17,35,-1,36,12,18,-1,36,34,11,-1,36,32,34,-1,36,35,32,-1]
  normalPerVertex TRUE
  normal DEF NORM_11 Normal { vector [
  -0.13757042 -0.98641346 0.089793468,-0.25851243 -0.96478151 0.048661794,
  -0.50870527 -0.85782473 0.073182524,-0.69099834 -0.71818302 0.082063716,
  -0.88725732 -0.44660479 0.11540631,-0.96228831 -0.22930737 0.14635345,
  -0.9831056 -0.12942831 0.12942831,-0.089793468 -0.98641346 0.13757042,
  -0.048661794 -0.96478151 0.25851243,-0.073182524 -0.85782473 0.50870527,
  -0.082063716 -0.71818302 0.69099834,-0.11540631 -0.44660479 0.88725732,
  -0.14635345 -0.22930737 0.96228831,-0.12942831 -0.12942831 0.9831056,
  -0.96112636 -0.15016238 0.23170537,-0.86480719 -0.15525324 0.47749864,
  -0.69865373 -0.15416202 0.69865373,-0.47749864 -0.15525324 0.86480719,
  -0.23170537 -0.15016238 0.96112636,-0.33216388 -0.93765525 0.10232202,
  -0.31841632 -0.93396405 0.16224122,-0.25269662 -0.93396405 0.25269662,
  -0.5789139 -0.79254254 0.19166385,-0.16224122 -0.93396405 0.31841632,
  -0.49033487 -0.79539818 0.35624914,-0.78701132 -0.58590317 0.19321144,
  -0.10232202 -0.93765525 0.33216388,-0.35624914 -0.79539818 0.49033487,
  -0.72704783 -0.57807327 0.37044937,-0.19166385 -0.79254254 0.5789139,
  -0.57698843 -0.57807327 0.57698843,-0.90206863 -0.3129282 0.29723415,
  -0.37044937 -0.57807327 0.72704783,-0.7665991 -0.31068424 0.56196186,
  -0.19321144 -0.58590317 0.78701132,-0.56196186 -0.31068424 0.7665991,
  -0.29723415 -0.3129282 0.90206863] }
}
}
DEF SHAPE_12 Shape {
 appearance USE APP_2
 geometry DEF FACE_12 IndexedFaceSet {
  coord DEF COORD_12 Coordinate { point [
  -0.5 0.16404199 1.7585302,-0.5 -0.16404199 1.7585302,
  -0.5 0.16404199 0.44619423,-0.5 -0.16404199 0.44619423] }
 coordIndex [
  3,1,0,-1,3,0,2,-1]
  normalPerVertex TRUE
  normal DEF NORM_12 Normal { vector [
  -1 0 0,-1 0 0,
  -1 0 0,-1 0 0] }
}
}
DEF SHAPE_13 Shape {
 appearance USE APP_2
 geometry DEF FACE_13 IndexedFaceSet {
  coord DEF COORD_13 Coordinate { point [
  7.171916 -0.16404199 2.0866142,7.2568304 -0.16404199 2.075435,
  7.335958 -0.16404199 2.0426593,7.4039064 -0.16404199 1.9905206,
  7.4560451 -0.16404199 1.9225722,7.4888208 -0.16404199 1.8434446,
  7.5 -0.16404199 1.7585302,7.171916 -0.16404199 2.0866142,
  7.171916 -0.24895638 2.075435,7.171916 -0.32808399 2.0426593,
  7.171916 -0.39603241 1.9905206,7.171916 -0.44817106 1.9225722,
  7.171916 -0.48094679 1.8434446,7.171916 -0.49212598 1.7585302,
  7.4888208 -0.24895638 1.7585302,7.4560451 -0.32808399 1.7585302,
  7.4039064 -0.39603241 1.7585302,7.335958 -0.44817106 1.7585302,
  7.2568304 -0.48094679 1.7585302,7.2720513 -0.17990187 2.0705566,
  7.2622494 -0.21006915 2.0705566,7.243605 -0.23573098 2.0705566,
  7.3553205 -0.22363374 2.0239557,7.2179432 -0.25437538 2.0705566,
  7.3279292 -0.27739223 2.0239557,7.4340737 -0.20556369 1.9513731,
  7.1877759 -0.26417732 2.0705566,7.2852662 -0.3200552 2.0239557,
  7.4084119 -0.28454266 1.9513731,7.2315078 -0.34744652 2.0239557,
  7.3596002 -0.35172618 1.9513731,7.4686708 -0.26046346 1.8599137,
  7.2924167 -0.40053787 1.9513731,7.4243507 -0.34744652 1.8599137,
  7.2134377 -0.42619969 1.9513731,7.3553205 -0.41647667 1.8599137,
  7.2683375 -0.46079675 1.8599137] }
 coordIndex [
  14,6,5,-1,13,18,12,-1,19,1,0,-1,19,2,1,-1,20,19,0,-1,21,0,7,-1,21,20,0,-1,22,3,2,-1,
  22,2,19,-1,22,19,20,-1,23,21,7,-1,24,20,21,-1,24,22,20,-1,25,4,3,-1,25,3,22,-1,26,7,8,-1,
  26,8,9,-1,26,23,7,-1,27,24,21,-1,27,21,23,-1,28,22,24,-1,28,25,22,-1,29,9,10,-1,29,26,9,-1,
  29,27,23,-1,29,23,26,-1,30,24,27,-1,30,28,24,-1,31,5,4,-1,31,15,14,-1,31,4,25,-1,31,14,5,-1,
  31,25,28,-1,32,27,29,-1,32,30,27,-1,33,16,15,-1,33,15,31,-1,33,28,30,-1,33,31,28,-1,34,10,11,-1,
  34,29,10,-1,34,32,29,-1,35,17,16,-1,35,16,33,-1,35,30,32,-1,35,33,30,-1,36,11,12,-1,36,18,17,-1,
  36,17,35,-1,36,12,18,-1,36,34,11,-1,36,32,34,-1,36,35,32,-1]
  normalPerVertex TRUE
  normal DEF NORM_13 Normal { vector [
  0.13757042 -0.089793468 0.98641346,0.25851243 -0.048661794 0.96478151,
  0.50870527 -0.073182524 0.85782473,0.69099834 -0.082063716 0.71818302,
  0.88725732 -0.11540631 0.44660479,0.96228831 -0.14635345 0.22930737,
  0.9831056 -0.12942831 0.12942831,0.089793468 -0.13757042 0.98641346,
  0.048661794 -0.25851243 0.96478151,0.073182524 -0.50870527 0.85782473,
  0.082063716 -0.69099834 0.71818302,0.11540631 -0.88725732 0.44660479,
  0.14635345 -0.96228831 0.22930737,0.12942831 -0.9831056 0.12942831,
  0.96112636 -0.23170537 0.15016238,0.86480719 -0.47749864 0.15525324,
  0.69865373 -0.69865373 0.15416202,0.47749864 -0.86480719 0.15525324,
  0.23170537 -0.96112636 0.15016238,0.33216388 -0.10232202 0.93765525,
  0.31841632 -0.16224122 0.93396405,0.25269662 -0.25269662 0.93396405,
  0.5789139 -0.19166385 0.79254254,0.16224122 -0.31841632 0.93396405,
  0.49033487 -0.35624914 0.79539818,0.78701132 -0.19321144 0.58590317,
  0.10232202 -0.33216388 0.93765525,0.35624914 -0.49033487 0.79539818,
  0.72704783 -0.37044937 0.57807327,0.19166385 -0.5789139 0.79254254,
  0.57698843 -0.57698843 0.57807327,0.90206863 -0.29723415 0.3129282,
  0.37044937 -0.72704783 0.57807327,0.7665991 -0.56196186 0.31068424,
  0.19321144 -0.78701132 0.58590317,0.56196186 -0.7665991 0.31068424,
  0.29723415 -0.90206863 0.3129282] }
}
}
DEF SHAPE_14 Shape {
 appearance USE APP_2
 geometry DEF FACE_14 IndexedFaceSet {
  coord DEF COORD_14 Coordinate { point [
  7.5 -0.16404199 1.7585302,7.5 -0.16404199 0.44619423,
  7.5 0.16404199 1.7585302,7.5 0.16404199 0.44619423] }
 coordIndex [
  1,2,0,-1,1,3,2,-1]
  normalPerVertex TRUE
  normal DEF NORM_14 Normal { vector [
  1 0 0,1 0 0,
  1 0 0,1 0 0] }
}
}
DEF SHAPE_15 Shape {
 appearance USE APP_2
 geometry DEF FACE_15 IndexedFaceSet {
  coord DEF COORD_15 Coordinate { point [
  -0.17191601 0.16404199 2.0866142,-0.17191601 -0.16404199 2.0866142,
  7.171916 0.16404199 2.0866142,7.171916 -0.16404199 2.0866142] }
 coordIndex [
  1,2,0,-1,1,3,2,-1]
  normalPerVertex TRUE
  normal DEF NORM_15 Normal { vector [
  0 0 1,0 0 1,
  0 0 1,0 0 1] }
}
}
DEF SHAPE_16 Shape {
 appearance USE APP_2
 geometry DEF FACE_16 IndexedFaceSet {
  coord DEF COORD_16 Coordinate { point [
  -0.5 -0.16404199 0.44619423,-0.48882081 -0.16404199 0.36127984,
  -0.45604508 -0.16404199 0.28215223,-0.40390642 -0.16404199 0.21420381,
  -0.33595801 -0.16404199 0.16206516,-0.2568304 -0.16404199 0.12928943,
  -0.17191601 -0.16404199 0.11811024,-0.5 0.16404199 0.44619423,
  -0.48882081 0.16404199 0.36127984,-0.45604508 0.16404199 0.28215223,
  -0.40390642 0.16404199 0.21420381,-0.33595801 0.16404199 0.16206516,
  -0.2568304 0.16404199 0.12928943,-0.17191601 0.16404199 0.11811024,
  -0.17191601 0.098425197 0.11811024,-0.18948095 0.098425197 0.11858077,
  -0.20699551 0.098425197 0.11999102,-0.22440945 0.098425197 0.12233694,
  -0.22440945 -0.098425197 0.12233694,-0.17191601 -0.098425197 0.11811024,
  -0.18948095 -0.098425197 0.11858077,-0.20699551 -0.098425197 0.11999102] }
 coordIndex [
  20,19,6,-1,21,20,6,-1,5,21,6,-1,18,21,5,-1,13,14,15,-1,4,18,5,-1,16,13,15,-1,12,16,17,-1,
  12,13,16,-1,11,17,18,-1,11,18,4,-1,11,12,17,-1,10,4,3,-1,10,11,4,-1,9,3,2,-1,9,10,3,-1,
  8,2,1,-1,8,9,2,-1,7,1,0,-1,7,8,1,-1]
  normalPerVertex TRUE
  normal DEF NORM_16 Normal { vector [
  -0.99144486 0 -0.13052619,-0.9763442 0 -0.21622209,
  -0.88711369 0 -0.46155098,-0.73742784 0 -0.67542593,
  -0.49643098 0.0051504423 -0.86806092,-0.24719599 0.019122234 -0.9687768,
  -0.10814625 -0.031421504 -0.9936383,-0.99144486 0 -0.13052619,
  -0.95364993 0 -0.30091828,-0.84327172 0 -0.5374875,
  -0.67542593 0 -0.73742784,-0.42252412 -0.0053984372 -0.9063356,
  -0.24719599 -0.019122234 -0.9687768,-0.10814625 0.031421504 -0.9936383,
  -0.026778574 0 -0.99964139,-0.053536565 0.0071707359 -0.99854014,
  -0.12358282 0.037074207 -0.99164146,-0.33689758 -0.015554488 -0.94141281,
  -0.33612435 0.0067847131 -0.94179318,-0.026778574 0 -0.99964139,
  -0.053536565 -0.0071707359 -0.99854014,-0.12358282 -0.037074207 -0.99164146] }
}
}
DEF SHAPE_17 Shape {
 appearance DEF APP_3 Appearance {
  material Material {
   ambientIntensity 0.122244
   diffuseColor 0.824 0.81999999 0.78100002
   emissiveColor 0 0 0
   shininess 0.1
   specularColor 0.12 0.12 0.12
   transparency 0
} }
 geometry DEF FACE_17 IndexedFaceSet {
  coord DEF COORD_17 Coordinate { point [
  -0.22440945 -0.098425197 0,0.22440945 -0.098425197 0,
  -0.22440945 -0.098425197 0.12233694,-0.17191601 -0.098425197 0.11811024,
  -0.18948095 -0.098425197 0.11858077,-0.20699551 -0.098425197 0.11999102,
  0.22440945 -0.098425197 0.11811024] }
 coordIndex [
  0,3,4,-1,0,4,5,-1,0,5,2,-1,1,6,3,-1,1,3,0,-1]
  normalPerVertex TRUE
  normal DEF NORM_17 Normal { vector [
  0 -1 0,0 -1 0,
  0 -1 0,0 -1 0,
  0 -1 0,0 -1 0,
  0 -1 0] }
}
}
DEF SHAPE_18 Shape {
 appearance USE APP_3
 geometry DEF FACE_18 IndexedFaceSet {
  coord DEF COORD_18 Coordinate { point [
  0.22440945 -0.098425197 0,0.22440945 0.098425197 0,
  0.22440945 -0.098425197 0.11811024,0.22440945 0.098425197 0.11811024] }
 coordIndex [
  1,2,0,-1,1,3,2,-1]
  normalPerVertex TRUE
  normal DEF NORM_18 Normal { vector [
  1 0 0,1 0 0,
  1 0 0,1 0 0] }
}
}
DEF SHAPE_19 Shape {
 appearance USE APP_3
 geometry DEF FACE_19 IndexedFaceSet {
  coord DEF COORD_19 Coordinate { point [
  0.22440945 0.098425197 0,-0.22440945 0.098425197 0,
  0.22440945 0.098425197 0.11811024,-0.17191601 0.098425197 0.11811024,
  -0.18948095 0.098425197 0.11858077,-0.20699551 0.098425197 0.11999102,
  -0.22440945 0.098425197 0.12233694] }
 coordIndex [
  3,2,0,-1,1,4,3,-1,1,5,4,-1,1,6,5,-1,1,3,0,-1]
  normalPerVertex TRUE
  normal DEF NORM_19 Normal { vector [
  0 1 0,0 1 0,
  0 1 0,0 1 0,
  0 1 0,0 1 0,
  0 1 0] }
}
}
DEF SHAPE_20 Shape {
 appearance USE APP_2
 geometry DEF FACE_20 IndexedFaceSet {
  coord DEF COORD_20 Coordinate { point [
  -0.17191601 0.16404199 0.11811024,7.171916 0.16404199 0.11811024,
  -0.17191601 0.49212598 0.44619423,-0.17191601 0.48094679 0.36127984,
  -0.17191601 0.44817106 0.28215223,-0.17191601 0.39603241 0.21420381,
  -0.17191601 0.32808399 0.16206516,-0.17191601 0.24895638 0.12928943,
  7.171916 0.49212598 0.44619423,7.171916 0.24895638 0.12928943,
  7.171916 0.32808399 0.16206516,7.171916 0.39603241 0.21420381,
  7.171916 0.44817106 0.28215223,7.171916 0.48094679 0.36127984] }
 coordIndex [
  9,1,0,-1,9,0,7,-1,10,7,6,-1,10,9,7,-1,11,6,5,-1,11,10,6,-1,12,5,4,-1,12,11,5,-1,
  13,4,3,-1,13,12,4,-1,8,3,2,-1,8,13,3,-1]
  normalPerVertex TRUE
  normal DEF NORM_20 Normal { vector [
  0 0.13052619 -0.99144486,0 0.13052619 -0.99144486,
  0 0.99144486 -0.13052619,0 0.9763442 -0.21622209,
  0 0.88711369 -0.46155098,0 0.73742784 -0.67542593,
  0 0.5374875 -0.84327172,0 0.30091828 -0.95364993,
  0 0.99144486 -0.13052619,0 0.21622209 -0.9763442,
  0 0.46155098 -0.88711369,0 0.67542593 -0.73742784,
  0 0.84327172 -0.5374875,0 0.95364993 -0.30091828] }
}
}
DEF SHAPE_21 Shape {
 appearance USE APP_2
 geometry DEF FACE_21 IndexedFaceSet {
  coord DEF COORD_21 Coordinate { point [
  7.171916 -0.16404199 0.11811024,7.171916 -0.098425197 0.11811024,
  7.2244094 -0.098425197 0.12233694,7.2069955 -0.098425197 0.11999102,
  7.189481 -0.098425197 0.11858077,7.2244094 0.098425197 0.12233694,
  7.2069955 0.098425197 0.11999102,7.189481 0.098425197 0.11858077,
  7.171916 0.098425197 0.11811024,7.171916 0.16404199 0.11811024,
  7.5 0.16404199 0.44619423,7.4888208 0.16404199 0.36127984,
  7.4560451 0.16404199 0.28215223,7.4039064 0.16404199 0.21420381,
  7.335958 0.16404199 0.16206516,7.2568304 0.16404199 0.12928943,
  7.5 -0.16404199 0.44619423,7.4888208 -0.16404199 0.36127984,
  7.4560451 -0.16404199 0.28215223,7.4039064 -0.16404199 0.21420381,
  7.335958 -0.16404199 0.16206516,7.2568304 -0.16404199 0.12928943] }
 coordIndex [
  11,10,16,-1,11,16,17,-1,12,17,18,-1,12,11,17,-1,13,18,19,-1,13,12,18,-1,2,20,21,-1,3,2,21,-1,
  14,19,20,-1,14,13,19,-1,0,3,21,-1,4,3,0,-1,1,4,0,-1,5,20,2,-1,5,14,20,-1,15,14,5,-1,
  6,15,5,-1,9,6,7,-1,9,7,8,-1,9,15,6,-1]
  normalPerVertex TRUE
  normal DEF NORM_21 Normal { vector [
  0.10814625 -0.031421504 -0.9936383,0.026778574 0 -0.99964139,
  0.33689758 0.015554488 -0.94141281,0.12358282 -0.037074207 -0.99164146,
  0.053536565 -0.0071707359 -0.99854014,0.33612435 -0.0067847131 -0.94179318,
  0.12358282 0.037074207 -0.99164146,0.053536565 0.0071707359 -0.99854014,
  0.026778574 0 -0.99964139,0.10814625 0.031421504 -0.9936383,
  0.99144486 0 -0.13052619,0.9763442 0 -0.21622209,
  0.88711369 0 -0.46155098,0.73742784 0 -0.67542593,
  0.49643098 -0.0051504423 -0.86806092,0.24719599 -0.019122234 -0.9687768,
  0.99144486 0 -0.13052619,0.95364993 0 -0.30091828,
  0.84327172 0 -0.5374875,0.67542593 0 -0.73742784,
  0.42252412 0.0053984372 -0.9063356,0.24719599 0.019122234 -0.9687768] }
}
}
DEF SHAPE_22 Shape {
 appearance USE APP_3
 geometry DEF FACE_22 IndexedFaceSet {
  coord DEF COORD_22 Coordinate { point [
  7.2244094 0.098425197 0,6.7755906 0.098425197 0,
  7.2244094 0.098425197 0.12233694,7.2069955 0.098425197 0.11999102,
  7.189481 0.098425197 0.11858077,7.171916 0.098425197 0.11811024,
  6.7755906 0.098425197 0.11811024] }
 coordIndex [
  0,3,2,-1,0,4,3,-1,0,5,4,-1,1,6,5,-1,1,5,0,-1]
  normalPerVertex TRUE
  normal DEF NORM_22 Normal { vector [
  0 1 0,0 1 0,
  0 1 0,0 1 0,
  0 1 0,0 1 0,
  0 1 0] }
}
}
DEF SHAPE_23 Shape {
 appearance USE APP_3
 geometry DEF FACE_23 IndexedFaceSet {
  coord DEF COORD_23 Coordinate { point [
  6.7755906 0.098425197 0,6.7755906 -0.098425197 0,
  6.7755906 0.098425197 0.11811024,6.7755906 -0.098425197 0.11811024] }
 coordIndex [
  1,2,0,-1,1,3,2,-1]
  normalPerVertex TRUE
  normal DEF NORM_23 Normal { vector [
  -1 0 0,-1 0 0,
  -1 0 0,-1 0 0] }
}
}
DEF SHAPE_24 Shape {
 appearance USE APP_3
 geometry DEF FACE_24 IndexedFaceSet {
  coord DEF COORD_24 Coordinate { point [
  6.7755906 -0.098425197 0,7.2244094 -0.098425197 0,
  6.7755906 -0.098425197 0.11811024,7.171916 -0.098425197 0.11811024,
  7.2244094 -0.098425197 0.12233694,7.2069955 -0.098425197 0.11999102,
  7.189481 -0.098425197 0.11858077] }
 coordIndex [
  3,2,0,-1,1,4,5,-1,1,5,6,-1,1,6,3,-1,1,3,0,-1]
  normalPerVertex TRUE
  normal DEF NORM_24 Normal { vector [
  0 -1 0,0 -1 0,
  0 -1 0,0 -1 0,
  0 -1 0,0 -1 0,
  0 -1 0] }
}
}
DEF SHAPE_25 Shape {
 appearance USE APP_3
 geometry DEF FACE_25 IndexedFaceSet {
  coord DEF COORD_25 Coordinate { point [
  3.2244094 -0.098425197 0,3.2244094 0.098425197 0,
  3.2244094 -0.098425197 0.11811024,3.2244094 0.098425197 0.11811024] }
 coordIndex [
  1,2,0,-1,1,3,2,-1]
  normalPerVertex TRUE
  normal DEF NORM_25 Normal { vector [
  1 0 0,1 0 0,
  1 0 0,1 0 0] }
}
}
DEF SHAPE_26 Shape {
 appearance USE APP_3
 geometry DEF FACE_26 IndexedFaceSet {
  coord DEF COORD_26 Coordinate { point [
  3.2244094 0.098425197 0,2.7755906 0.098425197 0,
  3.2244094 0.098425197 0.11811024,2.7755906 0.098425197 0.11811024] }
 coordIndex [
  1,2,0,-1,1,3,2,-1]
  normalPerVertex TRUE
  normal DEF NORM_26 Normal { vector [
  0 1 0,0 1 0,
  0 1 0,0 1 0] }
}
}
DEF SHAPE_27 Shape {
 appearance USE APP_3
 geometry DEF FACE_27 IndexedFaceSet {
  coord DEF COORD_27 Coordinate { point [
  2.7755906 0.098425197 0,2.7755906 -0.098425197 0,
  2.7755906 0.098425197 0.11811024,2.7755906 -0.098425197 0.11811024] }
 coordIndex [
  1,2,0,-1,1,3,2,-1]
  normalPerVertex TRUE
  normal DEF NORM_27 Normal { vector [
  -1 0 0,-1 0 0,
  -1 0 0,-1 0 0] }
}
}
DEF SHAPE_28 Shape {
 appearance USE APP_3
 geometry DEF FACE_28 IndexedFaceSet {
  coord DEF COORD_28 Coordinate { point [
  2.7755906 -0.098425197 0,3.2244094 -0.098425197 0,
  2.7755906 -0.098425197 0.11811024,3.2244094 -0.098425197 0.11811024] }
 coordIndex [
  1,2,0,-1,1,3,2,-1]
  normalPerVertex TRUE
  normal DEF NORM_28 Normal { vector [
  0 -1 0,0 -1 0,
  0 -1 0,0 -1 0] }
}
}
DEF SHAPE_29 Shape {
 appearance USE APP_3
 geometry DEF FACE_29 IndexedFaceSet {
  coord DEF COORD_29 Coordinate { point [
  3.7755906 -0.098425197 0,4.2244094 -0.098425197 0,
  3.7755906 -0.098425197 0.11811024,4.2244094 -0.098425197 0.11811024] }
 coordIndex [
  1,2,0,-1,1,3,2,-1]
  normalPerVertex TRUE
  normal DEF NORM_29 Normal { vector [
  0 -1 0,0 -1 0,
  0 -1 0,0 -1 0] }
}
}
DEF SHAPE_30 Shape {
 appearance USE APP_3
 geometry DEF FACE_30 IndexedFaceSet {
  coord DEF COORD_30 Coordinate { point [
  4.2244094 -0.098425197 0,4.2244094 0.098425197 0,
  4.2244094 -0.098425197 0.11811024,4.2244094 0.098425197 0.11811024] }
 coordIndex [
  1,2,0,-1,1,3,2,-1]
  normalPerVertex TRUE
  normal DEF NORM_30 Normal { vector [
  1 0 0,1 0 0,
  1 0 0,1 0 0] }
}
}
DEF SHAPE_31 Shape {
 appearance USE APP_3
 geometry DEF FACE_31 IndexedFaceSet {
  coord DEF COORD_31 Coordinate { point [
  4.2244094 0.098425197 0,3.7755906 0.098425197 0,
  4.2244094 0.098425197 0.11811024,3.7755906 0.098425197 0.11811024] }
 coordIndex [
  1,2,0,-1,1,3,2,-1]
  normalPerVertex TRUE
  normal DEF NORM_31 Normal { vector [
  0 1 0,0 1 0,
  0 1 0,0 1 0] }
}
}
DEF SHAPE_32 Shape {
 appearance USE APP_3
 geometry DEF FACE_32 IndexedFaceSet {
  coord DEF COORD_32 Coordinate { point [
  3.7755906 0.098425197 0,3.7755906 -0.098425197 0,
  3.7755906 0.098425197 0.11811024,3.7755906 -0.098425197 0.11811024] }
 coordIndex [
  1,2,0,-1,1,3,2,-1]
  normalPerVertex TRUE
  normal DEF NORM_32 Normal { vector [
  -1 0 0,-1 0 0,
  -1 0 0,-1 0 0] }
}
}
DEF SHAPE_33 Shape {
 appearance USE APP_3
 geometry DEF FACE_33 IndexedFaceSet {
  coord DEF COORD_33 Coordinate { point [
  5.7755906 -0.098425197 0,6.2244094 -0.098425197 0,
  5.7755906 -0.098425197 0.11811024,6.2244094 -0.098425197 0.11811024] }
 coordIndex [
  1,2,0,-1,1,3,2,-1]
  normalPerVertex TRUE
  normal DEF NORM_33 Normal { vector [
  0 -1 0,0 -1 0,
  0 -1 0,0 -1 0] }
}
}
DEF SHAPE_34 Shape {
 appearance USE APP_3
 geometry DEF FACE_34 IndexedFaceSet {
  coord DEF COORD_34 Coordinate { point [
  6.2244094 -0.098425197 0,6.2244094 0.098425197 0,
  6.2244094 -0.098425197 0.11811024,6.2244094 0.098425197 0.11811024] }
 coordIndex [
  1,2,0,-1,1,3,2,-1]
  normalPerVertex TRUE
  normal DEF NORM_34 Normal { vector [
  1 0 0,1 0 0,
  1 0 0,1 0 0] }
}
}
DEF SHAPE_35 Shape {
 appearance USE APP_3
 geometry DEF FACE_35 IndexedFaceSet {
  coord DEF COORD_35 Coordinate { point [
  6.2244094 0.098425197 0,5.7755906 0.098425197 0,
  6.2244094 0.098425197 0.11811024,5.7755906 0.098425197 0.11811024] }
 coordIndex [
  1,2,0,-1,1,3,2,-1]
  normalPerVertex TRUE
  normal DEF NORM_35 Normal { vector [
  0 1 0,0 1 0,
  0 1 0,0 1 0] }
}
}
DEF SHAPE_36 Shape {
 appearance USE APP_3
 geometry DEF FACE_36 IndexedFaceSet {
  coord DEF COORD_36 Coordinate { point [
  5.7755906 0.098425197 0,5.7755906 -0.098425197 0,
  5.7755906 0.098425197 0.11811024,5.7755906 -0.098425197 0.11811024] }
 coordIndex [
  1,2,0,-1,1,3,2,-1]
  normalPerVertex TRUE
  normal DEF NORM_36 Normal { vector [
  -1 0 0,-1 0 0,
  -1 0 0,-1 0 0] }
}
}
DEF SHAPE_37 Shape {
 appearance USE APP_3
 geometry DEF FACE_37 IndexedFaceSet {
  coord DEF COORD_37 Coordinate { point [
  4.7755906 -0.098425197 0,5.2244094 -0.098425197 0,
  4.7755906 -0.098425197 0.11811024,5.2244094 -0.098425197 0.11811024] }
 coordIndex [
  1,2,0,-1,1,3,2,-1]
  normalPerVertex TRUE
  normal DEF NORM_37 Normal { vector [
  0 -1 0,0 -1 0,
  0 -1 0,0 -1 0] }
}
}
DEF SHAPE_38 Shape {
 appearance USE APP_3
 geometry DEF FACE_38 IndexedFaceSet {
  coord DEF COORD_38 Coordinate { point [
  5.2244094 -0.098425197 0,5.2244094 0.098425197 0,
  5.2244094 -0.098425197 0.11811024,5.2244094 0.098425197 0.11811024] }
 coordIndex [
  1,2,0,-1,1,3,2,-1]
  normalPerVertex TRUE
  normal DEF NORM_38 Normal { vector [
  1 0 0,1 0 0,
  1 0 0,1 0 0] }
}
}
DEF SHAPE_39 Shape {
 appearance USE APP_3
 geometry DEF FACE_39 IndexedFaceSet {
  coord DEF COORD_39 Coordinate { point [
  5.2244094 0.098425197 0,4.7755906 0.098425197 0,
  5.2244094 0.098425197 0.11811024,4.7755906 0.098425197 0.11811024] }
 coordIndex [
  1,2,0,-1,1,3,2,-1]
  normalPerVertex TRUE
  normal DEF NORM_39 Normal { vector [
  0 1 0,0 1 0,
  0 1 0,0 1 0] }
}
}
DEF SHAPE_40 Shape {
 appearance USE APP_3
 geometry DEF FACE_40 IndexedFaceSet {
  coord DEF COORD_40 Coordinate { point [
  4.7755906 0.098425197 0,4.7755906 -0.098425197 0,
  4.7755906 0.098425197 0.11811024,4.7755906 -0.098425197 0.11811024] }
 coordIndex [
  1,2,0,-1,1,3,2,-1]
  normalPerVertex TRUE
  normal DEF NORM_40 Normal { vector [
  -1 0 0,-1 0 0,
  -1 0 0,-1 0 0] }
}
}
DEF SHAPE_41 Shape {
 appearance USE APP_3
 geometry DEF FACE_41 IndexedFaceSet {
  coord DEF COORD_41 Coordinate { point [
  1.7755906 0.098425197 0,1.7755906 -0.098425197 0,
  1.7755906 0.098425197 0.11811024,1.7755906 -0.098425197 0.11811024] }
 coordIndex [
  1,2,0,-1,1,3,2,-1]
  normalPerVertex TRUE
  normal DEF NORM_41 Normal { vector [
  -1 0 0,-1 0 0,
  -1 0 0,-1 0 0] }
}
}
DEF SHAPE_42 Shape {
 appearance USE APP_3
 geometry DEF FACE_42 IndexedFaceSet {
  coord DEF COORD_42 Coordinate { point [
  1.7755906 -0.098425197 0,2.2244094 -0.098425197 0,
  1.7755906 -0.098425197 0.11811024,2.2244094 -0.098425197 0.11811024] }
 coordIndex [
  1,2,0,-1,1,3,2,-1]
  normalPerVertex TRUE
  normal DEF NORM_42 Normal { vector [
  0 -1 0,0 -1 0,
  0 -1 0,0 -1 0] }
}
}
DEF SHAPE_43 Shape {
 appearance USE APP_3
 geometry DEF FACE_43 IndexedFaceSet {
  coord DEF COORD_43 Coordinate { point [
  2.2244094 -0.098425197 0,2.2244094 0.098425197 0,
  2.2244094 -0.098425197 0.11811024,2.2244094 0.098425197 0.11811024] }
 coordIndex [
  1,2,0,-1,1,3,2,-1]
  normalPerVertex TRUE
  normal DEF NORM_43 Normal { vector [
  1 0 0,1 0 0,
  1 0 0,1 0 0] }
}
}
DEF SHAPE_44 Shape {
 appearance USE APP_3
 geometry DEF FACE_44 IndexedFaceSet {
  coord DEF COORD_44 Coordinate { point [
  2.2244094 0.098425197 0,1.7755906 0.098425197 0,
  2.2244094 0.098425197 0.11811024,1.7755906 0.098425197 0.11811024] }
 coordIndex [
  1,2,0,-1,1,3,2,-1]
  normalPerVertex TRUE
  normal DEF NORM_44 Normal { vector [
  0 1 0,0 1 0,
  0 1 0,0 1 0] }
}
}
DEF SHAPE_45 Shape {
 appearance USE APP_3
 geometry DEF FACE_45 IndexedFaceSet {
  coord DEF COORD_45 Coordinate { point [
  0.77559055 -0.098425197 0,1.2244094 -0.098425197 0,
  0.77559055 -0.098425197 0.11811024,1.2244094 -0.098425197 0.11811024] }
 coordIndex [
  1,2,0,-1,1,3,2,-1]
  normalPerVertex TRUE
  normal DEF NORM_45 Normal { vector [
  0 -1 0,0 -1 0,
  0 -1 0,0 -1 0] }
}
}
DEF SHAPE_46 Shape {
 appearance USE APP_3
 geometry DEF FACE_46 IndexedFaceSet {
  coord DEF COORD_46 Coordinate { point [
  1.2244094 -0.098425197 0,1.2244094 0.098425197 0,
  1.2244094 -0.098425197 0.11811024,1.2244094 0.098425197 0.11811024] }
 coordIndex [
  1,2,0,-1,1,3,2,-1]
  normalPerVertex TRUE
  normal DEF NORM_46 Normal { vector [
  1 0 0,1 0 0,
  1 0 0,1 0 0] }
}
}
DEF SHAPE_47 Shape {
 appearance USE APP_3
 geometry DEF FACE_47 IndexedFaceSet {
  coord DEF COORD_47 Coordinate { point [
  1.2244094 0.098425197 0,0.77559055 0.098425197 0,
  1.2244094 0.098425197 0.11811024,0.77559055 0.098425197 0.11811024] }
 coordIndex [
  1,2,0,-1,1,3,2,-1]
  normalPerVertex TRUE
  normal DEF NORM_47 Normal { vector [
  0 1 0,0 1 0,
  0 1 0,0 1 0] }
}
}
DEF SHAPE_48 Shape {
 appearance USE APP_3
 geometry DEF FACE_48 IndexedFaceSet {
  coord DEF COORD_48 Coordinate { point [
  0.77559055 0.098425197 0,0.77559055 -0.098425197 0,
  0.77559055 0.098425197 0.11811024,0.77559055 -0.098425197 0.11811024] }
 coordIndex [
  1,2,0,-1,1,3,2,-1]
  normalPerVertex TRUE
  normal DEF NORM_48 Normal { vector [
  -1 0 0,-1 0 0,
  -1 0 0,-1 0 0] }
}
}
DEF SHAPE_49 Shape {
 appearance USE APP_2
 geometry DEF FACE_49 IndexedFaceSet {
  coord DEF COORD_49 Coordinate { point [
  -0.17191601 0.16404199 2.0866142,-0.17191601 -0.16404199 2.0866142,
  -0.5 0.16404199 1.7585302,-0.48882081 0.16404199 1.8434446,
  -0.45604508 0.16404199 1.9225722,-0.40390642 0.16404199 1.9905206,
  -0.33595801 0.16404199 2.0426593,-0.2568304 0.16404199 2.075435,
  -0.5 -0.16404199 1.7585302,-0.48882081 -0.16404199 1.8434446,
  -0.45604508 -0.16404199 1.9225722,-0.40390642 -0.16404199 1.9905206,
  -0.33595801 -0.16404199 2.0426593,-0.2568304 -0.16404199 2.075435] }
 coordIndex [
  13,1,0,-1,13,0,7,-1,12,7,6,-1,12,13,7,-1,11,6,5,-1,11,12,6,-1,10,5,4,-1,10,11,5,-1,
  9,4,3,-1,9,10,4,-1,8,3,2,-1,8,9,3,-1]
  normalPerVertex TRUE
  normal DEF NORM_49 Normal { vector [
  -0.13052619 0 0.99144486,-0.13052619 0 0.99144486,
  -0.99144486 0 0.13052619,-0.9763442 0 0.21622209,
  -0.88711369 0 0.46155098,-0.73742784 0 0.67542593,
  -0.5374875 0 0.84327172,-0.30091828 0 0.95364993,
  -0.99144486 0 0.13052619,-0.95364993 0 0.30091828,
  -0.84327172 0 0.5374875,-0.67542593 0 0.73742784,
  -0.46155098 0 0.88711369,-0.21622209 0 0.9763442] }
}
}
DEF SHAPE_50 Shape {
 appearance USE APP_2
 geometry DEF FACE_50 IndexedFaceSet {
  coord DEF COORD_50 Coordinate { point [
  -0.5 0.16404199 0.44619423,-0.48882081 0.24895638 0.44619423,
  -0.45604508 0.32808399 0.44619423,-0.40390642 0.39603241 0.44619423,
  -0.33595801 0.44817106 0.44619423,-0.2568304 0.48094679 0.44619423,
  -0.17191601 0.49212598 0.44619423,-0.5 0.16404199 1.7585302,
  -0.17191601 0.49212598 1.7585302,-0.2568304 0.48094679 1.7585302,
  -0.33595801 0.44817106 1.7585302,-0.40390642 0.39603241 1.7585302,
  -0.45604508 0.32808399 1.7585302,-0.48882081 0.24895638 1.7585302] }
 coordIndex [
  9,6,5,-1,9,8,6,-1,10,5,4,-1,10,9,5,-1,11,4,3,-1,11,10,4,-1,12,3,2,-1,12,11,3,-1,
  13,2,1,-1,13,12,2,-1,7,1,0,-1,7,13,1,-1]
  normalPerVertex TRUE
  normal DEF NORM_50 Normal { vector [
  -0.99144486 0.13052619 0,-0.9763442 0.21622209 0,
  -0.88711369 0.46155098 0,-0.73742784 0.67542593 0,
  -0.5374875 0.84327172 0,-0.30091828 0.95364993 0,
  -0.13052619 0.99144486 0,-0.99144486 0.13052619 0,
  -0.13052619 0.99144486 0,-0.21622209 0.9763442 0,
  -0.46155098 0.88711369 0,-0.67542593 0.73742784 0,
  -0.84327172 0.5374875 0,-0.95364993 0.30091828 0] }
}
}
DEF SHAPE_51 Shape {
 appearance USE APP_2
 geometry DEF FACE_51 IndexedFaceSet {
  coord DEF COORD_51 Coordinate { point [
  7.171916 0.16404199 2.0866142,7.171916 -0.16404199 2.0866142,
  7.2568304 -0.16404199 2.075435,7.335958 -0.16404199 2.0426593,
  7.4039064 -0.16404199 1.9905206,7.4560451 -0.16404199 1.9225722,
  7.4888208 -0.16404199 1.8434446,7.5 -0.16404199 1.7585302,
  7.5 0.16404199 1.7585302,7.4888208 0.16404199 1.8434446,
  7.4560451 0.16404199 1.9225722,7.4039064 0.16404199 1.9905206,
  7.335958 0.16404199 2.0426593,7.2568304 0.16404199 2.075435] }
 coordIndex [
  7,8,9,-1,6,9,10,-1,6,7,9,-1,5,10,11,-1,5,6,10,-1,4,11,12,-1,4,5,11,-1,3,12,13,-1,
  3,4,12,-1,2,13,0,-1,2,3,13,-1,1,2,0,-1]
  normalPerVertex TRUE
  normal DEF NORM_51 Normal { vector [
  0.13052619 0 0.99144486,0.13052619 0 0.99144486,
  0.21622209 0 0.9763442,0.46155098 0 0.88711369,
  0.67542593 0 0.73742784,0.84327172 0 0.5374875,
  0.95364993 0 0.30091828,0.99144486 0 0.13052619,
  0.99144486 0 0.13052619,0.9763442 0 0.21622209,
  0.88711369 0 0.46155098,0.73742784 0 0.67542593,
  0.5374875 0 0.84327172,0.30091828 0 0.95364993] }
}
}
DEF SHAPE_52 Shape {
 appearance USE APP_2
 geometry DEF FACE_52 IndexedFaceSet {
  coord DEF COORD_52 Coordinate { point [
  7.171916 0.49212598 0.44619423,7.171916 0.49212598 1.7585302,
  7.5 0.16404199 1.7585302,7.4888208 0.24895638 1.7585302,
  7.4560451 0.32808399 1.7585302,7.4039064 0.39603241 1.7585302,
  7.335958 0.44817106 1.7585302,7.2568304 0.48094679 1.7585302,
  7.5 0.16404199 0.44619423,7.4888208 0.24895638 0.44619423,
  7.4560451 0.32808399 0.44619423,7.4039064 0.39603241 0.44619423,
  7.335958 0.44817106 0.44619423,7.2568304 0.48094679 0.44619423] }
 coordIndex [
  3,2,8,-1,3,8,9,-1,4,9,10,-1,4,3,9,-1,5,10,11,-1,5,11,12,-1,5,4,10,-1,6,5,12,-1,
  7,12,13,-1,7,6,12,-1,1,13,0,-1,1,7,13,-1]
  normalPerVertex TRUE
  normal DEF NORM_52 Normal { vector [
  0.13052619 0.99144486 0,0.13052619 0.99144486 0,
  0.99144486 0.13052619 0,0.9763442 0.21622209 0,
  0.88711369 0.46155098 0,0.70710678 0.70710678 0,
  0.5 0.8660254 0,0.30091828 0.95364993 0,
  0.99144486 0.13052619 0,0.95364993 0.30091828 0,
  0.84327172 0.5374875 0,0.70710678 0.70710678 0,
  0.5 0.8660254 0,0.21622209 0.9763442 0] }
}
}
DEF SHAPE_53 Shape {
 appearance USE APP_2
 geometry DEF FACE_53 IndexedFaceSet {
  coord DEF COORD_53 Coordinate { point [
  -0.17191601 0.49212598 1.7585302,-0.17191601 0.48094679 1.8434446,
  -0.17191601 0.44817106 1.9225722,-0.17191601 0.39603241 1.9905206,
  -0.17191601 0.32808399 2.0426593,-0.17191601 0.24895638 2.075435,
  -0.17191601 0.16404199 2.0866142,7.171916 0.16404199 2.0866142,
  7.171916 0.24895638 2.075435,7.171916 0.32808399 2.0426593,
  7.171916 0.39603241 1.9905206,7.171916 0.44817106 1.9225722,
  7.171916 0.48094679 1.8434446,7.171916 0.49212598 1.7585302] }
 coordIndex [
  13,0,1,-1,12,1,2,-1,12,13,1,-1,11,2,3,-1,11,12,2,-1,10,3,4,-1,10,11,3,-1,9,4,5,-1,
  9,10,4,-1,8,5,6,-1,8,9,5,-1,7,8,6,-1]
  normalPerVertex TRUE
  normal DEF NORM_53 Normal { vector [
  0 0.99144486 0.13052619,0 0.9763442 0.21622209,
  0 0.88711369 0.46155098,0 0.73742784 0.67542593,
  0 0.5374875 0.84327172,0 0.30091828 0.95364993,
  0 0.13052619 0.99144486,0 0.13052619 0.99144486,
  0 0.21622209 0.9763442,0 0.46155098 0.88711369,
  0 0.67542593 0.73742784,0 0.84327172 0.5374875,
  0 0.95364993 0.30091828,0 0.99144486 0.13052619] }
}
}
DEF SHAPE_54 Shape {
 appearance USE APP_3
 geometry DEF FACE_54 IndexedFaceSet {
  coord DEF COORD_54 Coordinate { point [
  -0.22440945 0.098425197 0,-0.22440945 -0.098425197 0,
  -0.22440945 0.098425197 0.12233694,-0.22440945 -0.098425197 0.12233694] }
 coordIndex [
  1,2,0,-1,1,3,2,-1]
  normalPerVertex TRUE
  normal DEF NORM_54 Normal { vector [
  -1 0 0,-1 0 0,
  -1 0 0,-1 0 0] }
}
}
DEF SHAPE_55 Shape {
 appearance USE APP_2
 geometry DEF FACE_55 IndexedFaceSet {
  coord DEF COORD_55 Coordinate { point [
  -0.17191601 0.49212598 0.44619423,-0.17191601 0.48094679 0.36127984,
  -0.17191601 0.44817106 0.28215223,-0.17191601 0.39603241 0.21420381,
  -0.17191601 0.32808399 0.16206516,-0.17191601 0.24895638 0.12928943,
  -0.17191601 0.16404199 0.11811024,-0.5 0.16404199 0.44619423,
  -0.48882081 0.16404199 0.36127984,-0.45604508 0.16404199 0.28215223,
  -0.40390642 0.16404199 0.21420381,-0.33595801 0.16404199 0.16206516,
  -0.2568304 0.16404199 0.12928943,-0.5 0.16404199 0.44619423,
  -0.48882081 0.24895638 0.44619423,-0.45604508 0.32808399 0.44619423,
  -0.40390642 0.39603241 0.44619423,-0.33595801 0.44817106 0.44619423,
  -0.2568304 0.48094679 0.44619423,-0.48394243 0.17990187 0.3460589,
  -0.48394243 0.21006915 0.35586084,-0.48394243 0.23573098 0.37450525,
  -0.43734153 0.22363374 0.2627897,-0.48394243 0.25437538 0.40016707,
  -0.43734153 0.27739223 0.29018102,-0.36475894 0.20556369 0.18403653,
  -0.48394243 0.26417732 0.43033435,-0.43734153 0.3200552 0.332844,
  -0.36475894 0.28454266 0.20969835,-0.43734153 0.34744652 0.38660248,
  -0.36475894 0.35172618 0.25851004,-0.27329954 0.26046346 0.14943947,
  -0.36475894 0.40053787 0.32569356,-0.27329954 0.34744652 0.19375955,
  -0.36475894 0.42619969 0.40467253,-0.27329954 0.41647667 0.2627897,
  -0.27329954 0.46079675 0.34977276] }
 coordIndex [
  5,6,12,-1,0,1,18,-1,19,8,7,-1,19,9,8,-1,20,19,7,-1,21,7,13,-1,21,20,7,-1,22,10,9,-1,
  22,19,20,-1,22,9,19,-1,23,21,13,-1,24,20,21,-1,24,22,20,-1,25,11,10,-1,25,10,22,-1,26,13,14,-1,
  26,14,15,-1,26,23,13,-1,27,21,23,-1,27,24,21,-1,28,22,24,-1,28,25,22,-1,29,15,16,-1,29,27,23,-1,
  29,26,15,-1,29,23,26,-1,30,24,27,-1,30,28,24,-1,31,4,5,-1,31,12,11,-1,31,5,12,-1,31,11,25,-1,
  31,25,28,-1,32,27,29,-1,32,30,27,-1,33,3,4,-1,33,4,31,-1,33,28,30,-1,33,31,28,-1,34,16,17,-1,
  34,32,29,-1,34,29,16,-1,35,2,3,-1,35,3,33,-1,35,30,32,-1,35,33,30,-1,36,1,2,-1,36,17,18,-1,
  36,18,1,-1,36,2,35,-1,36,34,17,-1,36,32,34,-1,36,35,32,-1]
  normalPerVertex TRUE
  normal DEF NORM_55 Normal { vector [
  -0.12942831 0.9831056 -0.12942831,-0.15016238 0.96112636 -0.23170537,
  -0.15525324 0.86480719 -0.47749864,-0.15416202 0.69865373 -0.69865373,
  -0.15525324 0.47749864 -0.86480719,-0.15016238 0.23170537 -0.96112636,
  -0.12942831 0.12942831 -0.9831056,-0.98641346 0.089793468 -0.13757042,
  -0.96478151 0.048661794 -0.25851243,-0.85782473 0.073182524 -0.50870527,
  -0.71818302 0.082063716 -0.69099834,-0.44660479 0.11540631 -0.88725732,
  -0.22930737 0.14635345 -0.96228831,-0.98641346 0.13757042 -0.089793468,
  -0.96478151 0.25851243 -0.048661794,-0.85782473 0.50870527 -0.073182524,
  -0.71818302 0.69099834 -0.082063716,-0.44660479 0.88725732 -0.11540631,
  -0.22930737 0.96228831 -0.14635345,-0.93765525 0.10232202 -0.33216388,
  -0.93396405 0.16224122 -0.31841632,-0.93396405 0.25269662 -0.25269662,
  -0.79254254 0.19166385 -0.5789139,-0.93396405 0.31841632 -0.16224122,
  -0.79539818 0.35624914 -0.49033487,-0.58590317 0.19321144 -0.78701132,
  -0.93765525 0.33216388 -0.10232202,-0.79539818 0.49033487 -0.35624914,
  -0.57807327 0.37044937 -0.72704783,-0.79254254 0.5789139 -0.19166385,
  -0.57807327 0.57698843 -0.57698843,-0.3129282 0.29723415 -0.90206863,
  -0.57807327 0.72704783 -0.37044937,-0.31068424 0.56196186 -0.7665991,
  -0.58590317 0.78701132 -0.19321144,-0.31068424 0.7665991 -0.56196186,
  -0.3129282 0.90206863 -0.29723415] }
}
}
DEF SHAPE_56 Shape {
 appearance USE APP_3
 geometry DEF FACE_56 IndexedFaceSet {
  coord DEF COORD_56 Coordinate { point [
  -0.22440945 -0.098425197 0,0.22440945 -0.098425197 0,
  -0.22440945 0.098425197 0,0.22440945 0.098425197 0,
  0.098425197 -0.059055118 0,-0.098425197 -0.059055118 0,
  0.098425197 0.059055118 0,-0.098425197 0.059055118 0] }
 coordIndex [
  6,3,1,-1,6,1,4,-1,0,5,4,-1,0,4,1,-1,2,7,5,-1,2,5,0,-1,2,3,6,-1,2,6,7,-1]
  normalPerVertex TRUE
  normal DEF NORM_56 Normal { vector [
  0 0 -1,0 0 -1,
  0 0 -1,0 0 -1,
  0 0 -1,0 0 -1,
  0 0 -1,0 0 -1] }
}
}
DEF SHAPE_57 Shape {
 appearance USE APP_2
 geometry DEF FACE_57 IndexedFaceSet {
  coord DEF COORD_57 Coordinate { point [
  7.171916 0.16404199 0.11811024,7.171916 0.24895638 0.12928943,
  7.171916 0.32808399 0.16206516,7.171916 0.39603241 0.21420381,
  7.171916 0.44817106 0.28215223,7.171916 0.48094679 0.36127984,
  7.171916 0.49212598 0.44619423,7.5 0.16404199 0.44619423,
  7.4888208 0.24895638 0.44619423,7.4560451 0.32808399 0.44619423,
  7.4039064 0.39603241 0.44619423,7.335958 0.44817106 0.44619423,
  7.2568304 0.48094679 0.44619423,7.5 0.16404199 0.44619423,
  7.4888208 0.16404199 0.36127984,7.4560451 0.16404199 0.28215223,
  7.4039064 0.16404199 0.21420381,7.335958 0.16404199 0.16206516,
  7.2568304 0.16404199 0.12928943,7.4839424 0.26417732 0.43033435,
  7.4839424 0.25437538 0.40016707,7.4839424 0.23573098 0.37450525,
  7.4373415 0.34744652 0.38660248,7.4839424 0.21006915 0.35586084,
  7.4373415 0.3200552 0.332844,7.3647589 0.42619969 0.40467253,
  7.4839424 0.17990187 0.3460589,7.4373415 0.27739223 0.29018102,
  7.3647589 0.40053787 0.32569356,7.4373415 0.22363374 0.2627897,
  7.3647589 0.35172618 0.25851004,7.2732995 0.46079675 0.34977276,
  7.3647589 0.28454266 0.20969835,7.2732995 0.41647667 0.2627897,
  7.3647589 0.20556369 0.18403653,7.2732995 0.34744652 0.19375955,
  7.2732995 0.26046346 0.14943947] }
 coordIndex [
  5,6,12,-1,0,1,18,-1,19,8,7,-1,19,9,8,-1,20,19,7,-1,21,7,13,-1,21,20,7,-1,22,10,9,-1,
  22,19,20,-1,22,9,19,-1,23,21,13,-1,24,20,21,-1,24,22,20,-1,25,11,10,-1,25,10,22,-1,26,13,14,-1,
  26,14,15,-1,26,23,13,-1,27,21,23,-1,27,24,21,-1,28,22,24,-1,28,25,22,-1,29,15,16,-1,29,27,23,-1,
  29,26,15,-1,29,23,26,-1,30,24,27,-1,30,28,24,-1,31,4,5,-1,31,12,11,-1,31,5,12,-1,31,11,25,-1,
  31,25,28,-1,32,27,29,-1,32,30,27,-1,33,3,4,-1,33,4,31,-1,33,28,30,-1,33,31,28,-1,34,16,17,-1,
  34,32,29,-1,34,29,16,-1,35,2,3,-1,35,3,33,-1,35,30,32,-1,35,33,30,-1,36,1,2,-1,36,17,18,-1,
  36,18,1,-1,36,2,35,-1,36,34,17,-1,36,32,34,-1,36,35,32,-1]
  normalPerVertex TRUE
  normal DEF NORM_57 Normal { vector [
  0.12942831 0.12942831 -0.9831056,0.15016238 0.23170537 -0.96112636,
  0.15525324 0.47749864 -0.86480719,0.15416202 0.69865373 -0.69865373,
  0.15525324 0.86480719 -0.47749864,0.15016238 0.96112636 -0.23170537,
  0.12942831 0.9831056 -0.12942831,0.98641346 0.13757042 -0.089793468,
  0.96478151 0.25851243 -0.048661794,0.85782473 0.50870527 -0.073182524,
  0.71818302 0.69099834 -0.082063716,0.44660479 0.88725732 -0.11540631,
  0.22930737 0.96228831 -0.14635345,0.98641346 0.089793468 -0.13757042,
  0.96478151 0.048661794 -0.25851243,0.85782473 0.073182524 -0.50870527,
  0.71818302 0.082063716 -0.69099834,0.44660479 0.11540631 -0.88725732,
  0.22930737 0.14635345 -0.96228831,0.93765525 0.33216388 -0.10232202,
  0.93396405 0.31841632 -0.16224122,0.93396405 0.25269662 -0.25269662,
  0.79254254 0.5789139 -0.19166385,0.93396405 0.16224122 -0.31841632,
  0.79539818 0.49033487 -0.35624914,0.58590317 0.78701132 -0.19321144,
  0.93765525 0.10232202 -0.33216388,0.79539818 0.35624914 -0.49033487,
  0.57807327 0.72704783 -0.37044937,0.79254254 0.19166385 -0.5789139,
  0.57807327 0.57698843 -0.57698843,0.3129282 0.90206863 -0.29723415,
  0.57807327 0.37044937 -0.72704783,0.31068424 0.7665991 -0.56196186,
  0.58590317 0.19321144 -0.78701132,0.31068424 0.56196186 -0.7665991,
  0.3129282 0.29723415 -0.90206863] }
}
}
DEF SHAPE_58 Shape {
 appearance USE APP_2
 geometry DEF FACE_58 IndexedFaceSet {
  coord DEF COORD_58 Coordinate { point [
  -0.17191601 0.49212598 0.44619423,7.171916 0.49212598 0.44619423,
  7.171916 0.49212598 1.7585302,-0.17191601 0.49212598 1.7585302] }
 coordIndex [
  3,1,0,-1,3,2,1,-1]
  normalPerVertex TRUE
  normal DEF NORM_58 Normal { vector [
  0 1 0,0 1 0,
  0 1 0,0 1 0] }
}
}
DEF SHAPE_59 Shape {
 appearance USE APP_3
 geometry DEF FACE_59 IndexedFaceSet {
  coord DEF COORD_59 Coordinate { point [
  7.2244094 -0.098425197 0,7.2244094 0.098425197 0,
  7.2244094 -0.098425197 0.12233694,7.2244094 0.098425197 0.12233694] }
 coordIndex [
  1,2,0,-1,1,3,2,-1]
  normalPerVertex TRUE
  normal DEF NORM_59 Normal { vector [
  1 0 0,1 0 0,
  1 0 0,1 0 0] }
}
}
DEF SHAPE_60 Shape {
 appearance USE APP_3
 geometry DEF FACE_60 IndexedFaceSet {
  coord DEF COORD_60 Coordinate { point [
  6.7755906 -0.098425197 0,7.2244094 -0.098425197 0,
  6.7755906 0.098425197 0,7.2244094 0.098425197 0,
  7.0984252 -0.059055118 0,6.9015748 -0.059055118 0,
  7.0984252 0.059055118 0,6.9015748 0.059055118 0] }
 coordIndex [
  6,3,1,-1,6,1,4,-1,0,5,4,-1,0,4,1,-1,2,7,5,-1,2,5,0,-1,2,3,6,-1,2,6,7,-1]
  normalPerVertex TRUE
  normal DEF NORM_60 Normal { vector [
  0 0 -1,0 0 -1,
  0 0 -1,0 0 -1,
  0 0 -1,0 0 -1,
  0 0 -1,0 0 -1] }
}
}
DEF SHAPE_61 Shape {
 appearance USE APP_3
 geometry DEF FACE_61 IndexedFaceSet {
  coord DEF COORD_61 Coordinate { point [
  2.7755906 -0.098425197 0,3.2244094 -0.098425197 0,
  2.7755906 0.098425197 0,3.2244094 0.098425197 0,
  3.0984252 -0.059055118 0,2.9015748 -0.059055118 0,
  3.0984252 0.059055118 0,2.9015748 0.059055118 0] }
 coordIndex [
  6,3,1,-1,6,1,4,-1,0,5,4,-1,0,4,1,-1,2,7,5,-1,2,5,0,-1,2,3,6,-1,2,6,7,-1]
  normalPerVertex TRUE
  normal DEF NORM_61 Normal { vector [
  0 0 -1,0 0 -1,
  0 0 -1,0 0 -1,
  0 0 -1,0 0 -1,
  0 0 -1,0 0 -1] }
}
}
DEF SHAPE_62 Shape {
 appearance USE APP_3
 geometry DEF FACE_62 IndexedFaceSet {
  coord DEF COORD_62 Coordinate { point [
  3.7755906 -0.098425197 0,4.2244094 -0.098425197 0,
  3.7755906 0.098425197 0,4.2244094 0.098425197 0,
  4.0984252 -0.059055118 0,3.9015748 -0.059055118 0,
  4.0984252 0.059055118 0,3.9015748 0.059055118 0] }
 coordIndex [
  6,3,1,-1,6,1,4,-1,0,5,4,-1,0,4,1,-1,2,7,5,-1,2,5,0,-1,2,3,6,-1,2,6,7,-1]
  normalPerVertex TRUE
  normal DEF NORM_62 Normal { vector [
  0 0 -1,0 0 -1,
  0 0 -1,0 0 -1,
  0 0 -1,0 0 -1,
  0 0 -1,0 0 -1] }
}
}
DEF SHAPE_63 Shape {
 appearance USE APP_3
 geometry DEF FACE_63 IndexedFaceSet {
  coord DEF COORD_63 Coordinate { point [
  5.7755906 -0.098425197 0,6.2244094 -0.098425197 0,
  5.7755906 0.098425197 0,6.2244094 0.098425197 0,
  6.0984252 -0.059055118 0,5.9015748 -0.059055118 0,
  6.0984252 0.059055118 0,5.9015748 0.059055118 0] }
 coordIndex [
  6,3,1,-1,6,1,4,-1,0,5,4,-1,0,4,1,-1,2,7,5,-1,2,5,0,-1,2,3,6,-1,2,6,7,-1]
  normalPerVertex TRUE
  normal DEF NORM_63 Normal { vector [
  0 0 -1,0 0 -1,
  0 0 -1,0 0 -1,
  0 0 -1,0 0 -1,
  0 0 -1,0 0 -1] }
}
}
DEF SHAPE_64 Shape {
 appearance USE APP_3
 geometry DEF FACE_64 IndexedFaceSet {
  coord DEF COORD_64 Coordinate { point [
  4.7755906 -0.098425197 0,5.2244094 -0.098425197 0,
  4.7755906 0.098425197 0,5.2244094 0.098425197 0,
  5.0984252 -0.059055118 0,4.9015748 -0.059055118 0,
  5.0984252 0.059055118 0,4.9015748 0.059055118 0] }
 coordIndex [
  6,3,1,-1,6,1,4,-1,0,5,4,-1,0,4,1,-1,2,7,5,-1,2,5,0,-1,2,3,6,-1,2,6,7,-1]
  normalPerVertex TRUE
  normal DEF NORM_64 Normal { vector [
  0 0 -1,0 0 -1,
  0 0 -1,0 0 -1,
  0 0 -1,0 0 -1,
  0 0 -1,0 0 -1] }
}
}
DEF SHAPE_65 Shape {
 appearance USE APP_3
 geometry DEF FACE_65 IndexedFaceSet {
  coord DEF COORD_65 Coordinate { point [
  1.7755906 -0.098425197 0,2.2244094 -0.098425197 0,
  1.7755906 0.098425197 0,2.2244094 0.098425197 0,
  2.0984252 -0.059055118 0,1.9015748 -0.059055118 0,
  2.0984252 0.059055118 0,1.9015748 0.059055118 0] }
 coordIndex [
  6,3,1,-1,6,1,4,-1,0,5,4,-1,0,4,1,-1,2,7,5,-1,2,5,0,-1,2,3,6,-1,2,6,7,-1]
  normalPerVertex TRUE
  normal DEF NORM_65 Normal { vector [
  0 0 -1,0 0 -1,
  0 0 -1,0 0 -1,
  0 0 -1,0 0 -1,
  0 0 -1,0 0 -1] }
}
}
DEF SHAPE_66 Shape {
 appearance USE APP_3
 geometry DEF FACE_66 IndexedFaceSet {
  coord DEF COORD_66 Coordinate { point [
  0.77559055 -0.098425197 0,1.2244094 -0.098425197 0,
  0.77559055 0.098425197 0,1.2244094 0.098425197 0,
  1.0984252 -0.059055118 0,0.9015748 -0.059055118 0,
  1.0984252 0.059055118 0,0.9015748 0.059055118 0] }
 coordIndex [
  6,3,1,-1,6,1,4,-1,0,5,4,-1,0,4,1,-1,7,5,0,-1,2,7,0,-1,2,3,6,-1,2,6,7,-1]
  normalPerVertex TRUE
  normal DEF NORM_66 Normal { vector [
  0 0 -1,0 0 -1,
  0 0 -1,0 0 -1,
  0 0 -1,0 0 -1,
  0 0 -1,0 0 -1] }
}
}
DEF SHAPE_67 Shape {
 appearance USE APP_2
 geometry DEF FACE_67 IndexedFaceSet {
  coord DEF COORD_67 Coordinate { point [
  -0.5 0.16404199 1.7585302,-0.48882081 0.16404199 1.8434446,
  -0.45604508 0.16404199 1.9225722,-0.40390642 0.16404199 1.9905206,
  -0.33595801 0.16404199 2.0426593,-0.2568304 0.16404199 2.075435,
  -0.17191601 0.16404199 2.0866142,-0.17191601 0.49212598 1.7585302,
  -0.17191601 0.48094679 1.8434446,-0.17191601 0.44817106 1.9225722,
  -0.17191601 0.39603241 1.9905206,-0.17191601 0.32808399 2.0426593,
  -0.17191601 0.24895638 2.075435,-0.17191601 0.49212598 1.7585302,
  -0.2568304 0.48094679 1.7585302,-0.33595801 0.44817106 1.7585302,
  -0.40390642 0.39603241 1.7585302,-0.45604508 0.32808399 1.7585302,
  -0.48882081 0.24895638 1.7585302,-0.18777589 0.47606841 1.8586655,
  -0.21794317 0.47606841 1.8488636,-0.24360499 0.47606841 1.8302192,
  -0.23150775 0.42946752 1.9419347,-0.2622494 0.47606841 1.8045573,
  -0.28526624 0.42946752 1.9145434,-0.21343771 0.35688493 2.0206879,
  -0.27205134 0.47606841 1.7743901,-0.32792922 0.42946752 1.8718804,
  -0.29241668 0.35688493 1.9950261,-0.35532054 0.42946752 1.8181219,
  -0.3596002 0.35688493 1.9462144,-0.26833748 0.26542552 2.0552849,
  -0.40841188 0.35688493 1.8790308,-0.35532054 0.26542552 2.0109649,
  -0.4340737 0.35688493 1.8000519,-0.42435068 0.26542552 1.9419347,
  -0.46867077 0.26542552 1.8549516] }
 coordIndex [
  5,6,12,-1,0,1,18,-1,19,8,7,-1,19,9,8,-1,20,19,7,-1,21,7,13,-1,21,20,7,-1,22,10,9,-1,
  22,19,20,-1,22,9,19,-1,23,21,13,-1,24,20,21,-1,24,22,20,-1,25,11,10,-1,25,10,22,-1,26,13,14,-1,
  26,14,15,-1,26,23,13,-1,27,24,21,-1,27,21,23,-1,28,22,24,-1,28,25,22,-1,29,15,16,-1,29,26,15,-1,
  29,23,26,-1,29,27,23,-1,30,24,27,-1,30,28,24,-1,31,4,5,-1,31,12,11,-1,31,5,12,-1,31,11,25,-1,
  31,25,28,-1,32,27,29,-1,32,30,27,-1,33,3,4,-1,33,4,31,-1,33,28,30,-1,33,31,28,-1,34,16,17,-1,
  34,32,29,-1,34,29,16,-1,35,2,3,-1,35,3,33,-1,35,30,32,-1,35,33,30,-1,36,1,2,-1,36,17,18,-1,
  36,18,1,-1,36,2,35,-1,36,34,17,-1,36,32,34,-1,36,35,32,-1]
  normalPerVertex TRUE
  normal DEF NORM_67 Normal { vector [
  -0.9831056 0.12942831 0.12942831,-0.96112636 0.15016238 0.23170537,
  -0.86480719 0.15525324 0.47749864,-0.69865373 0.15416202 0.69865373,
  -0.47749864 0.15525324 0.86480719,-0.23170537 0.15016238 0.96112636,
  -0.12942831 0.12942831 0.9831056,-0.089793468 0.98641346 0.13757042,
  -0.048661794 0.96478151 0.25851243,-0.073182524 0.85782473 0.50870527,
  -0.082063716 0.71818302 0.69099834,-0.11540631 0.44660479 0.88725732,
  -0.14635345 0.22930737 0.96228831,-0.13757042 0.98641346 0.089793468,
  -0.25851243 0.96478151 0.048661794,-0.50870527 0.85782473 0.073182524,
  -0.69099834 0.71818302 0.082063716,-0.88725732 0.44660479 0.11540631,
  -0.96228831 0.22930737 0.14635345,-0.10232202 0.93765525 0.33216388,
  -0.16224122 0.93396405 0.31841632,-0.25269662 0.93396405 0.25269662,
  -0.19166385 0.79254254 0.5789139,-0.31841632 0.93396405 0.16224122,
  -0.35624914 0.79539818 0.49033487,-0.19321144 0.58590317 0.78701132,
  -0.33216388 0.93765525 0.10232202,-0.49033487 0.79539818 0.35624914,
  -0.37044937 0.57807327 0.72704783,-0.5789139 0.79254254 0.19166385,
  -0.57698843 0.57807327 0.57698843,-0.29723415 0.3129282 0.90206863,
  -0.72704783 0.57807327 0.37044937,-0.56196186 0.31068424 0.7665991,
  -0.78701132 0.58590317 0.19321144,-0.7665991 0.31068424 0.56196186,
  -0.90206863 0.3129282 0.29723415] }
}
}
DEF SHAPE_68 Shape {
 appearance USE APP_2
 geometry DEF FACE_68 IndexedFaceSet {
  coord DEF COORD_68 Coordinate { point [
  7.5 0.16404199 1.7585302,7.4888208 0.16404199 1.8434446,
  7.4560451 0.16404199 1.9225722,7.4039064 0.16404199 1.9905206,
  7.335958 0.16404199 2.0426593,7.2568304 0.16404199 2.075435,
  7.171916 0.16404199 2.0866142,7.5 0.16404199 1.7585302,
  7.4888208 0.24895638 1.7585302,7.4560451 0.32808399 1.7585302,
  7.4039064 0.39603241 1.7585302,7.335958 0.44817106 1.7585302,
  7.2568304 0.48094679 1.7585302,7.171916 0.49212598 1.7585302,
  7.171916 0.24895638 2.075435,7.171916 0.32808399 2.0426593,
  7.171916 0.39603241 1.9905206,7.171916 0.44817106 1.9225722,
  7.171916 0.48094679 1.8434446,7.4839424 0.17990187 1.8586655,
  7.4839424 0.21006915 1.8488636,7.4839424 0.23573098 1.8302192,
  7.4373415 0.22363374 1.9419347,7.4839424 0.25437538 1.8045573,
  7.4373415 0.27739223 1.9145434,7.3647589 0.20556369 2.0206879,
  7.4839424 0.26417732 1.7743901,7.4373415 0.3200552 1.8718804,
  7.3647589 0.28454266 1.9950261,7.4373415 0.34744652 1.8181219,
  7.3647589 0.35172618 1.9462144,7.2732995 0.26046346 2.0552849,
  7.3647589 0.40053787 1.8790308,7.2732995 0.34744652 2.0109649,
  7.3647589 0.42619969 1.8000519,7.2732995 0.41647667 1.9419347,
  7.2732995 0.46079675 1.8549516] }
 coordIndex [
  14,6,5,-1,13,18,12,-1,19,1,0,-1,19,2,1,-1,20,19,0,-1,21,0,7,-1,21,20,0,-1,22,3,2,-1,
  22,2,19,-1,22,19,20,-1,23,21,7,-1,24,20,21,-1,24,22,20,-1,25,4,3,-1,25,3,22,-1,26,7,8,-1,
  26,8,9,-1,26,23,7,-1,27,24,21,-1,27,21,23,-1,28,22,24,-1,28,25,22,-1,29,9,10,-1,29,26,9,-1,
  29,27,23,-1,29,23,26,-1,30,24,27,-1,30,28,24,-1,31,5,4,-1,31,15,14,-1,31,4,25,-1,31,14,5,-1,
  31,25,28,-1,32,27,29,-1,32,30,27,-1,33,16,15,-1,33,15,31,-1,33,28,30,-1,33,31,28,-1,34,10,11,-1,
  34,29,10,-1,34,32,29,-1,35,17,16,-1,35,16,33,-1,35,30,32,-1,35,33,30,-1,36,11,12,-1,36,18,17,-1,
  36,17,35,-1,36,12,18,-1,36,34,11,-1,36,32,34,-1,36,35,32,-1]
  normalPerVertex TRUE
  normal DEF NORM_68 Normal { vector [
  0.98641346 0.089793468 0.13757042,0.96478151 0.048661794 0.25851243,
  0.85782473 0.073182524 0.50870527,0.71818302 0.082063716 0.69099834,
  0.44660479 0.11540631 0.88725732,0.22930737 0.14635345 0.96228831,
  0.12942831 0.12942831 0.9831056,0.98641346 0.13757042 0.089793468,
  0.96478151 0.25851243 0.048661794,0.85782473 0.50870527 0.073182524,
  0.71818302 0.69099834 0.082063716,0.44660479 0.88725732 0.11540631,
  0.22930737 0.96228831 0.14635345,0.12942831 0.9831056 0.12942831,
  0.15016238 0.23170537 0.96112636,0.15525324 0.47749864 0.86480719,
  0.15416202 0.69865373 0.69865373,0.15525324 0.86480719 0.47749864,
  0.15016238 0.96112636 0.23170537,0.93765525 0.10232202 0.33216388,
  0.93396405 0.16224122 0.31841632,0.93396405 0.25269662 0.25269662,
  0.79254254 0.19166385 0.5789139,0.93396405 0.31841632 0.16224122,
  0.79539818 0.35624914 0.49033487,0.58590317 0.19321144 0.78701132,
  0.93765525 0.33216388 0.10232202,0.79539818 0.49033487 0.35624914,
  0.57807327 0.37044937 0.72704783,0.79254254 0.5789139 0.19166385,
  0.57807327 0.57698843 0.57698843,0.3129282 0.29723415 0.90206863,
  0.57807327 0.72704783 0.37044937,0.31068424 0.56196186 0.7665991,
  0.58590317 0.78701132 0.19321144,0.31068424 0.7665991 0.56196186,
  0.3129282 0.90206863 0.29723415] }
}
}
DEF SHAPE_69 Shape {
 appearance USE APP_3
 geometry DEF FACE_69 IndexedFaceSet {
  coord DEF COORD_69 Coordinate { point [
  -0.098425197 -0.059055118 -1.1811024,0.098425197 -0.059055118 -1.1811024,
  -0.098425197 -0.059055118 0,0.098425197 -0.059055118 0] }
 coordIndex [
  1,2,0,-1,1,3,2,-1]
  normalPerVertex TRUE
  normal DEF NORM_69 Normal { vector [
  0 -1 0,0 -1 0,
  0 -1 0,0 -1 0] }
}
}
DEF SHAPE_70 Shape {
 appearance USE APP_3
 geometry DEF FACE_70 IndexedFaceSet {
  coord DEF COORD_70 Coordinate { point [
  -0.098425197 0.059055118 -1.1811024,-0.098425197 -0.059055118 -1.1811024,
  -0.098425197 0.059055118 0,-0.098425197 -0.059055118 0] }
 coordIndex [
  1,2,0,-1,1,3,2,-1]
  normalPerVertex TRUE
  normal DEF NORM_70 Normal { vector [
  -1 0 0,-1 0 0,
  -1 0 0,-1 0 0] }
}
}
DEF SHAPE_71 Shape {
 appearance USE APP_3
 geometry DEF FACE_71 IndexedFaceSet {
  coord DEF COORD_71 Coordinate { point [
  0.098425197 0.059055118 -1.1811024,-0.098425197 0.059055118 -1.1811024,
  0.098425197 0.059055118 0,-0.098425197 0.059055118 0] }
 coordIndex [
  1,2,0,-1,1,3,2,-1]
  normalPerVertex TRUE
  normal DEF NORM_71 Normal { vector [
  0 1 0,0 1 0,
  0 1 0,0 1 0] }
}
}
DEF SHAPE_72 Shape {
 appearance USE APP_3
 geometry DEF FACE_72 IndexedFaceSet {
  coord DEF COORD_72 Coordinate { point [
  0.098425197 -0.059055118 -1.1811024,0.098425197 0.059055118 -1.1811024,
  0.098425197 -0.059055118 0,0.098425197 0.059055118 0] }
 coordIndex [
  1,2,0,-1,1,3,2,-1]
  normalPerVertex TRUE
  normal DEF NORM_72 Normal { vector [
  1 0 0,1 0 0,
  1 0 0,1 0 0] }
}
}
DEF SHAPE_73 Shape {
 appearance USE APP_3
 geometry DEF FACE_73 IndexedFaceSet {
  coord DEF COORD_73 Coordinate { point [
  6.9015748 -0.059055118 -1.1811024,7.0984252 -0.059055118 -1.1811024,
  6.9015748 -0.059055118 0,7.0984252 -0.059055118 0] }
 coordIndex [
  1,2,0,-1,1,3,2,-1]
  normalPerVertex TRUE
  normal DEF NORM_73 Normal { vector [
  0 -1 0,0 -1 0,
  0 -1 0,0 -1 0] }
}
}
DEF SHAPE_74 Shape {
 appearance USE APP_3
 geometry DEF FACE_74 IndexedFaceSet {
  coord DEF COORD_74 Coordinate { point [
  6.9015748 0.059055118 -1.1811024,6.9015748 -0.059055118 -1.1811024,
  6.9015748 0.059055118 0,6.9015748 -0.059055118 0] }
 coordIndex [
  1,2,0,-1,1,3,2,-1]
  normalPerVertex TRUE
  normal DEF NORM_74 Normal { vector [
  -1 0 0,-1 0 0,
  -1 0 0,-1 0 0] }
}
}
DEF SHAPE_75 Shape {
 appearance USE APP_3
 geometry DEF FACE_75 IndexedFaceSet {
  coord DEF COORD_75 Coordinate { point [
  7.0984252 0.059055118 -1.1811024,6.9015748 0.059055118 -1.1811024,
  7.0984252 0.059055118 0,6.9015748 0.059055118 0] }
 coordIndex [
  1,2,0,-1,1,3,2,-1]
  normalPerVertex TRUE
  normal DEF NORM_75 Normal { vector [
  0 1 0,0 1 0,
  0 1 0,0 1 0] }
}
}
DEF SHAPE_76 Shape {
 appearance USE APP_3
 geometry DEF FACE_76 IndexedFaceSet {
  coord DEF COORD_76 Coordinate { point [
  7.0984252 -0.059055118 -1.1811024,7.0984252 0.059055118 -1.1811024,
  7.0984252 -0.059055118 0,7.0984252 0.059055118 0] }
 coordIndex [
  1,2,0,-1,1,3,2,-1]
  normalPerVertex TRUE
  normal DEF NORM_76 Normal { vector [
  1 0 0,1 0 0,
  1 0 0,1 0 0] }
}
}
DEF SHAPE_77 Shape {
 appearance USE APP_3
 geometry DEF FACE_77 IndexedFaceSet {
  coord DEF COORD_77 Coordinate { point [
  2.9015748 -0.059055118 -1.1811024,3.0984252 -0.059055118 -1.1811024,
  2.9015748 -0.059055118 0,3.0984252 -0.059055118 0] }
 coordIndex [
  1,2,0,-1,1,3,2,-1]
  normalPerVertex TRUE
  normal DEF NORM_77 Normal { vector [
  0 -1 0,0 -1 0,
  0 -1 0,0 -1 0] }
}
}
DEF SHAPE_78 Shape {
 appearance USE APP_3
 geometry DEF FACE_78 IndexedFaceSet {
  coord DEF COORD_78 Coordinate { point [
  2.9015748 0.059055118 -1.1811024,2.9015748 -0.059055118 -1.1811024,
  2.9015748 0.059055118 0,2.9015748 -0.059055118 0] }
 coordIndex [
  1,2,0,-1,1,3,2,-1]
  normalPerVertex TRUE
  normal DEF NORM_78 Normal { vector [
  -1 0 0,-1 0 0,
  -1 0 0,-1 0 0] }
}
}
DEF SHAPE_79 Shape {
 appearance USE APP_3
 geometry DEF FACE_79 IndexedFaceSet {
  coord DEF COORD_79 Coordinate { point [
  3.0984252 0.059055118 -1.1811024,2.9015748 0.059055118 -1.1811024,
  3.0984252 0.059055118 0,2.9015748 0.059055118 0] }
 coordIndex [
  1,2,0,-1,1,3,2,-1]
  normalPerVertex TRUE
  normal DEF NORM_79 Normal { vector [
  0 1 0,0 1 0,
  0 1 0,0 1 0] }
}
}
DEF SHAPE_80 Shape {
 appearance USE APP_3
 geometry DEF FACE_80 IndexedFaceSet {
  coord DEF COORD_80 Coordinate { point [
  3.0984252 -0.059055118 -1.1811024,3.0984252 0.059055118 -1.1811024,
  3.0984252 -0.059055118 0,3.0984252 0.059055118 0] }
 coordIndex [
  1,2,0,-1,1,3,2,-1]
  normalPerVertex TRUE
  normal DEF NORM_80 Normal { vector [
  1 0 0,1 0 0,
  1 0 0,1 0 0] }
}
}
DEF SHAPE_81 Shape {
 appearance USE APP_3
 geometry DEF FACE_81 IndexedFaceSet {
  coord DEF COORD_81 Coordinate { point [
  3.9015748 -0.059055118 -1.1811024,4.0984252 -0.059055118 -1.1811024,
  3.9015748 -0.059055118 0,4.0984252 -0.059055118 0] }
 coordIndex [
  1,2,0,-1,1,3,2,-1]
  normalPerVertex TRUE
  normal DEF NORM_81 Normal { vector [
  0 -1 0,0 -1 0,
  0 -1 0,0 -1 0] }
}
}
DEF SHAPE_82 Shape {
 appearance USE APP_3
 geometry DEF FACE_82 IndexedFaceSet {
  coord DEF COORD_82 Coordinate { point [
  3.9015748 0.059055118 -1.1811024,3.9015748 -0.059055118 -1.1811024,
  3.9015748 0.059055118 0,3.9015748 -0.059055118 0] }
 coordIndex [
  1,2,0,-1,1,3,2,-1]
  normalPerVertex TRUE
  normal DEF NORM_82 Normal { vector [
  -1 0 0,-1 0 0,
  -1 0 0,-1 0 0] }
}
}
DEF SHAPE_83 Shape {
 appearance USE APP_3
 geometry DEF FACE_83 IndexedFaceSet {
  coord DEF COORD_83 Coordinate { point [
  4.0984252 0.059055118 -1.1811024,3.9015748 0.059055118 -1.1811024,
  4.0984252 0.059055118 0,3.9015748 0.059055118 0] }
 coordIndex [
  1,2,0,-1,1,3,2,-1]
  normalPerVertex TRUE
  normal DEF NORM_83 Normal { vector [
  0 1 0,0 1 0,
  0 1 0,0 1 0] }
}
}
DEF SHAPE_84 Shape {
 appearance USE APP_3
 geometry DEF FACE_84 IndexedFaceSet {
  coord DEF COORD_84 Coordinate { point [
  4.0984252 -0.059055118 -1.1811024,4.0984252 0.059055118 -1.1811024,
  4.0984252 -0.059055118 0,4.0984252 0.059055118 0] }
 coordIndex [
  1,2,0,-1,1,3,2,-1]
  normalPerVertex TRUE
  normal DEF NORM_84 Normal { vector [
  1 0 0,1 0 0,
  1 0 0,1 0 0] }
}
}
DEF SHAPE_85 Shape {
 appearance USE APP_3
 geometry DEF FACE_85 IndexedFaceSet {
  coord DEF COORD_85 Coordinate { point [
  5.9015748 -0.059055118 -1.1811024,6.0984252 -0.059055118 -1.1811024,
  5.9015748 -0.059055118 0,6.0984252 -0.059055118 0] }
 coordIndex [
  1,2,0,-1,1,3,2,-1]
  normalPerVertex TRUE
  normal DEF NORM_85 Normal { vector [
  0 -1 0,0 -1 0,
  0 -1 0,0 -1 0] }
}
}
DEF SHAPE_86 Shape {
 appearance USE APP_3
 geometry DEF FACE_86 IndexedFaceSet {
  coord DEF COORD_86 Coordinate { point [
  5.9015748 0.059055118 -1.1811024,5.9015748 -0.059055118 -1.1811024,
  5.9015748 0.059055118 0,5.9015748 -0.059055118 0] }
 coordIndex [
  1,2,0,-1,1,3,2,-1]
  normalPerVertex TRUE
  normal DEF NORM_86 Normal { vector [
  -1 0 0,-1 0 0,
  -1 0 0,-1 0 0] }
}
}
DEF SHAPE_87 Shape {
 appearance USE APP_3
 geometry DEF FACE_87 IndexedFaceSet {
  coord DEF COORD_87 Coordinate { point [
  6.0984252 0.059055118 -1.1811024,5.9015748 0.059055118 -1.1811024,
  6.0984252 0.059055118 0,5.9015748 0.059055118 0] }
 coordIndex [
  1,2,0,-1,1,3,2,-1]
  normalPerVertex TRUE
  normal DEF NORM_87 Normal { vector [
  0 1 0,0 1 0,
  0 1 0,0 1 0] }
}
}
DEF SHAPE_88 Shape {
 appearance USE APP_3
 geometry DEF FACE_88 IndexedFaceSet {
  coord DEF COORD_88 Coordinate { point [
  6.0984252 -0.059055118 -1.1811024,6.0984252 0.059055118 -1.1811024,
  6.0984252 -0.059055118 0,6.0984252 0.059055118 0] }
 coordIndex [
  1,2,0,-1,1,3,2,-1]
  normalPerVertex TRUE
  normal DEF NORM_88 Normal { vector [
  1 0 0,1 0 0,
  1 0 0,1 0 0] }
}
}
DEF SHAPE_89 Shape {
 appearance USE APP_3
 geometry DEF FACE_89 IndexedFaceSet {
  coord DEF COORD_89 Coordinate { point [
  4.9015748 -0.059055118 -1.1811024,5.0984252 -0.059055118 -1.1811024,
  4.9015748 -0.059055118 0,5.0984252 -0.059055118 0] }
 coordIndex [
  1,2,0,-1,1,3,2,-1]
  normalPerVertex TRUE
  normal DEF NORM_89 Normal { vector [
  0 -1 0,0 -1 0,
  0 -1 0,0 -1 0] }
}
}
DEF SHAPE_90 Shape {
 appearance USE APP_3
 geometry DEF FACE_90 IndexedFaceSet {
  coord DEF COORD_90 Coordinate { point [
  4.9015748 0.059055118 -1.1811024,4.9015748 -0.059055118 -1.1811024,
  4.9015748 0.059055118 0,4.9015748 -0.059055118 0] }
 coordIndex [
  1,2,0,-1,1,3,2,-1]
  normalPerVertex TRUE
  normal DEF NORM_90 Normal { vector [
  -1 0 0,-1 0 0,
  -1 0 0,-1 0 0] }
}
}
DEF SHAPE_91 Shape {
 appearance USE APP_3
 geometry DEF FACE_91 IndexedFaceSet {
  coord DEF COORD_91 Coordinate { point [
  5.0984252 0.059055118 -1.1811024,4.9015748 0.059055118 -1.1811024,
  5.0984252 0.059055118 0,4.9015748 0.059055118 0] }
 coordIndex [
  1,2,0,-1,1,3,2,-1]
  normalPerVertex TRUE
  normal DEF NORM_91 Normal { vector [
  0 1 0,0 1 0,
  0 1 0,0 1 0] }
}
}
DEF SHAPE_92 Shape {
 appearance USE APP_3
 geometry DEF FACE_92 IndexedFaceSet {
  coord DEF COORD_92 Coordinate { point [
  5.0984252 -0.059055118 -1.1811024,5.0984252 0.059055118 -1.1811024,
  5.0984252 -0.059055118 0,5.0984252 0.059055118 0] }
 coordIndex [
  1,2,0,-1,1,3,2,-1]
  normalPerVertex TRUE
  normal DEF NORM_92 Normal { vector [
  1 0 0,1 0 0,
  1 0 0,1 0 0] }
}
}
DEF SHAPE_93 Shape {
 appearance USE APP_3
 geometry DEF FACE_93 IndexedFaceSet {
  coord DEF COORD_93 Coordinate { point [
  1.9015748 -0.059055118 -1.1811024,2.0984252 -0.059055118 -1.1811024,
  1.9015748 -0.059055118 0,2.0984252 -0.059055118 0] }
 coordIndex [
  1,2,0,-1,1,3,2,-1]
  normalPerVertex TRUE
  normal DEF NORM_93 Normal { vector [
  0 -1 0,0 -1 0,
  0 -1 0,0 -1 0] }
}
}
DEF SHAPE_94 Shape {
 appearance USE APP_3
 geometry DEF FACE_94 IndexedFaceSet {
  coord DEF COORD_94 Coordinate { point [
  1.9015748 0.059055118 -1.1811024,1.9015748 -0.059055118 -1.1811024,
  1.9015748 0.059055118 0,1.9015748 -0.059055118 0] }
 coordIndex [
  1,2,0,-1,1,3,2,-1]
  normalPerVertex TRUE
  normal DEF NORM_94 Normal { vector [
  -1 0 0,-1 0 0,
  -1 0 0,-1 0 0] }
}
}
DEF SHAPE_95 Shape {
 appearance USE APP_3
 geometry DEF FACE_95 IndexedFaceSet {
  coord DEF COORD_95 Coordinate { point [
  2.0984252 0.059055118 -1.1811024,1.9015748 0.059055118 -1.1811024,
  2.0984252 0.059055118 0,1.9015748 0.059055118 0] }
 coordIndex [
  1,2,0,-1,1,3,2,-1]
  normalPerVertex TRUE
  normal DEF NORM_95 Normal { vector [
  0 1 0,0 1 0,
  0 1 0,0 1 0] }
}
}
DEF SHAPE_96 Shape {
 appearance USE APP_3
 geometry DEF FACE_96 IndexedFaceSet {
  coord DEF COORD_96 Coordinate { point [
  2.0984252 -0.059055118 -1.1811024,2.0984252 0.059055118 -1.1811024,
  2.0984252 -0.059055118 0,2.0984252 0.059055118 0] }
 coordIndex [
  1,2,0,-1,1,3,2,-1]
  normalPerVertex TRUE
  normal DEF NORM_96 Normal { vector [
  1 0 0,1 0 0,
  1 0 0,1 0 0] }
}
}
DEF SHAPE_97 Shape {
 appearance USE APP_3
 geometry DEF FACE_97 IndexedFaceSet {
  coord DEF COORD_97 Coordinate { point [
  0.9015748 -0.059055118 -1.1811024,1.0984252 -0.059055118 -1.1811024,
  0.9015748 -0.059055118 0,1.0984252 -0.059055118 0] }
 coordIndex [
  1,2,0,-1,1,3,2,-1]
  normalPerVertex TRUE
  normal DEF NORM_97 Normal { vector [
  0 -1 0,0 -1 0,
  0 -1 0,0 -1 0] }
}
}
DEF SHAPE_98 Shape {
 appearance USE APP_3
 geometry DEF FACE_98 IndexedFaceSet {
  coord DEF COORD_98 Coordinate { point [
  0.9015748 0.059055118 -1.1811024,0.9015748 -0.059055118 -1.1811024,
  0.9015748 0.059055118 0,0.9015748 -0.059055118 0] }
 coordIndex [
  1,2,0,-1,1,3,2,-1]
  normalPerVertex TRUE
  normal DEF NORM_98 Normal { vector [
  -1 0 0,-1 0 0,
  -1 0 0,-1 0 0] }
}
}
DEF SHAPE_99 Shape {
 appearance USE APP_3
 geometry DEF FACE_99 IndexedFaceSet {
  coord DEF COORD_99 Coordinate { point [
  1.0984252 0.059055118 -1.1811024,0.9015748 0.059055118 -1.1811024,
  1.0984252 0.059055118 0,0.9015748 0.059055118 0] }
 coordIndex [
  1,2,0,-1,1,3,2,-1]
  normalPerVertex TRUE
  normal DEF NORM_99 Normal { vector [
  0 1 0,0 1 0,
  0 1 0,0 1 0] }
}
}
DEF SHAPE_100 Shape {
 appearance USE APP_3
 geometry DEF FACE_100 IndexedFaceSet {
  coord DEF COORD_100 Coordinate { point [
  1.0984252 -0.059055118 -1.1811024,1.0984252 0.059055118 -1.1811024,
  1.0984252 -0.059055118 0,1.0984252 0.059055118 0] }
 coordIndex [
  1,2,0,-1,1,3,2,-1]
  normalPerVertex TRUE
  normal DEF NORM_100 Normal { vector [
  1 0 0,1 0 0,
  1 0 0,1 0 0] }
}
}
DEF SHAPE_101 Shape {
 appearance USE APP_3
 geometry DEF FACE_101 IndexedFaceSet {
  coord DEF COORD_101 Coordinate { point [
  -0.098425197 0.059055118 -1.1811024,-0.098425197 -0.059055118 -1.1811024,
  0.098425197 0.059055118 -1.1811024,0.098425197 -0.059055118 -1.1811024] }
 coordIndex [
  0,2,3,-1,0,3,1,-1]
  normalPerVertex TRUE
  normal DEF NORM_101 Normal { vector [
  0 0 -1,0 0 -1,
  0 0 -1,0 0 -1] }
}
}
DEF SHAPE_102 Shape {
 appearance USE APP_3
 geometry DEF FACE_102 IndexedFaceSet {
  coord DEF COORD_102 Coordinate { point [
  6.9015748 0.059055118 -1.1811024,6.9015748 -0.059055118 -1.1811024,
  7.0984252 0.059055118 -1.1811024,7.0984252 -0.059055118 -1.1811024] }
 coordIndex [
  0,2,3,-1,0,3,1,-1]
  normalPerVertex TRUE
  normal DEF NORM_102 Normal { vector [
  0 0 -1,0 0 -1,
  0 0 -1,0 0 -1] }
}
}
DEF SHAPE_103 Shape {
 appearance USE APP_3
 geometry DEF FACE_103 IndexedFaceSet {
  coord DEF COORD_103 Coordinate { point [
  2.9015748 0.059055118 -1.1811024,2.9015748 -0.059055118 -1.1811024,
  3.0984252 0.059055118 -1.1811024,3.0984252 -0.059055118 -1.1811024] }
 coordIndex [
  0,2,3,-1,0,3,1,-1]
  normalPerVertex TRUE
  normal DEF NORM_103 Normal { vector [
  0 0 -1,0 0 -1,
  0 0 -1,0 0 -1] }
}
}
DEF SHAPE_104 Shape {
 appearance USE APP_3
 geometry DEF FACE_104 IndexedFaceSet {
  coord DEF COORD_104 Coordinate { point [
  3.9015748 0.059055118 -1.1811024,3.9015748 -0.059055118 -1.1811024,
  4.0984252 0.059055118 -1.1811024,4.0984252 -0.059055118 -1.1811024] }
 coordIndex [
  0,2,3,-1,0,3,1,-1]
  normalPerVertex TRUE
  normal DEF NORM_104 Normal { vector [
  0 0 -1,0 0 -1,
  0 0 -1,0 0 -1] }
}
}
DEF SHAPE_105 Shape {
 appearance USE APP_3
 geometry DEF FACE_105 IndexedFaceSet {
  coord DEF COORD_105 Coordinate { point [
  5.9015748 0.059055118 -1.1811024,5.9015748 -0.059055118 -1.1811024,
  6.0984252 0.059055118 -1.1811024,6.0984252 -0.059055118 -1.1811024] }
 coordIndex [
  0,2,3,-1,0,3,1,-1]
  normalPerVertex TRUE
  normal DEF NORM_105 Normal { vector [
  0 0 -1,0 0 -1,
  0 0 -1,0 0 -1] }
}
}
DEF SHAPE_106 Shape {
 appearance USE APP_3
 geometry DEF FACE_106 IndexedFaceSet {
  coord DEF COORD_106 Coordinate { point [
  4.9015748 0.059055118 -1.1811024,4.9015748 -0.059055118 -1.1811024,
  5.0984252 0.059055118 -1.1811024,5.0984252 -0.059055118 -1.1811024] }
 coordIndex [
  0,2,3,-1,0,3,1,-1]
  normalPerVertex TRUE
  normal DEF NORM_106 Normal { vector [
  0 0 -1,0 0 -1,
  0 0 -1,0 0 -1] }
}
}
DEF SHAPE_107 Shape {
 appearance USE APP_3
 geometry DEF FACE_107 IndexedFaceSet {
  coord DEF COORD_107 Coordinate { point [
  1.9015748 0.059055118 -1.1811024,1.9015748 -0.059055118 -1.1811024,
  2.0984252 0.059055118 -1.1811024,2.0984252 -0.059055118 -1.1811024] }
 coordIndex [
  0,2,3,-1,0,3,1,-1]
  normalPerVertex TRUE
  normal DEF NORM_107 Normal { vector [
  0 0 -1,0 0 -1,
  0 0 -1,0 0 -1] }
}
}
DEF SHAPE_108 Shape {
 appearance USE APP_3
 geometry DEF FACE_108 IndexedFaceSet {
  coord DEF COORD_108 Coordinate { point [
  0.9015748 0.059055118 -1.1811024,0.9015748 -0.059055118 -1.1811024,
  1.0984252 0.059055118 -1.1811024,1.0984252 -0.059055118 -1.1811024] }
 coordIndex [
  0,2,3,-1,0,3,1,-1]
  normalPerVertex TRUE
  normal DEF NORM_108 Normal { vector [
  0 0 -1,0 0 -1,
  0 0 -1,0 0 -1] }
}
}
] }
] }
] }
